<svg id="Warstwa_1" data-name="Warstwa 1" xmlns="http://www.w3.org/2000/svg" viewBox="0 0 403.86 481.52"><defs><style>.cls-1{fill:#497ebf;}.cls-2{fill:#ee7800;}.cls-3{fill:#55beed;}</style></defs><path class="cls-1" d="M61.19,212.8c-8.79,23.32-5.94,49.92,6.08,71.56,6.24,11.23,15,21.44,25.65,28.65,11.38,7.7,25.27,12.05,39.05,11.39a56.27,56.27,0,0,0,26.45-7.8A59.18,59.18,0,0,0,176,299.73c9.32-13.3,14.1-29.51,16.66-45.4a178,178,0,0,0,2.22-37.25c0-.82-.09-1.65-.16-2.47-.2-2.55-4.2-2.57-4,0a164.75,164.75,0,0,1-1.08,32.85c-1.85,14.94-5.7,30.74-13.24,44.12a61.33,61.33,0,0,1-14.52,17.69,50,50,0,0,1-21.72,10.11,58.43,58.43,0,0,1-36-4.59C92.63,309.41,83,300.65,75.71,290.28c-13.76-19.5-19.21-44.71-13.32-68a77.59,77.59,0,0,1,2.66-8.42,2,2,0,0,0-1.4-2.47,2.06,2.06,0,0,0-2.46,1.4Z"/><path class="cls-1" d="M62.82,215.89c6,6.74,14.93,9.9,23.39,12.31a194.35,194.35,0,0,0,31.3,6.57,109.12,109.12,0,0,0,50.39-6.38c7.4-2.81,15.2-6.63,20.2-13a2.06,2.06,0,0,0,0-2.83,2,2,0,0,0-2.82,0c-4.09,5.19-10.16,8.54-16.16,11a104.77,104.77,0,0,1-22,6.21,100.78,100.78,0,0,1-25.31,1.35,167,167,0,0,1-30.29-5.66c-9.18-2.46-19.32-5.11-25.89-12.46-1.72-1.92-4.54.92-2.83,2.83Z"/><path class="cls-1" d="M67.08,214c-.64-3.92,3.55-6.81,6.66-8.1a68.74,68.74,0,0,1,11.47-3.13,189.87,189.87,0,0,1,23.11-3.52A185.36,185.36,0,0,1,157,200.81a111.23,111.23,0,0,1,24.4,6.92,2.08,2.08,0,0,0,2.74-.72,2,2,0,0,0-.72-2.74c-15.35-6.53-32.17-9.11-48.76-9.73A202.09,202.09,0,0,0,84,199c-4.62,1-9.5,2-13.72,4.19-4.43,2.33-7.88,6.72-7,11.93a2,2,0,0,0,2.46,1.39A2,2,0,0,0,67.08,214Z"/><path class="cls-1" d="M195.82,225.73c3.12-3.54,6.53-7.61,11.26-8.95,4.15-1.18,8.25.14,10,4.28s1.26,9.32,1,13.74a86.85,86.85,0,0,1-1.74,13.45c-2.64,12.46-8.25,24.68-17.42,33.53-.85.83-1.74,1.63-2.67,2.39l-.63.51c-.26.2.37-.28,0,0l-.3.23c-.39.29-.79.57-1.19.84A23.15,23.15,0,0,1,192,287l-.48.24-.26.12-.22.09-.43.14c-2.45.77-1.4,4.63,1.06,3.86,3.44-1.08,6.49-3.54,9.11-5.92a58.29,58.29,0,0,0,10.95-13.8,76.18,76.18,0,0,0,8.52-22.45,94.58,94.58,0,0,0,1.88-14.52c.26-5,.62-10.55-1.37-15.29a11.35,11.35,0,0,0-5.3-6,13.06,13.06,0,0,0-8.13-.92c-6,1.1-10.43,5.9-14.3,10.28-1.7,1.92,1.12,4.76,2.83,2.83Z"/><path class="cls-1" d="M55.88,218.9c-3.42-3.36-7.36-6.69-12.39-6.87-4.61-.17-8.79,2.63-11.31,6.34-2.21,3.25-2.56,7.06-2.52,10.9a101,101,0,0,0,1,11.78,84.66,84.66,0,0,0,5,19.22,76,76,0,0,0,10.71,19.79c4.44,5.7,10.48,10.76,18,11.22,2.57.15,2.56-3.85,0-4-5.33-.33-10-4-13.48-8a63.37,63.37,0,0,1-10.2-17.16,87.48,87.48,0,0,1-5.52-18c-.53-2.86-.83-5.61-1.12-8.64a43.55,43.55,0,0,1-.13-10.7A10.57,10.57,0,0,1,41,216.35c4.84-1.43,8.9,2.24,12.09,5.38,1.83,1.81,4.66-1,2.83-2.83Z"/><path class="cls-1" d="M121.63,324.59l.18,57.36c0,2.58,4,2.58,4,0l-.18-57.36c0-2.57-4-2.58-4,0Z"/><path class="cls-1" d="M130.82,322.37a531.57,531.57,0,0,1,2.07,58.38c0,2.58,4,2.58,4,0a531.57,531.57,0,0,0-2.07-58.38,2.05,2.05,0,0,0-2-2,2,2,0,0,0-2,2Z"/><path class="cls-1" d="M120.89,381.75l-40.09.52c-1.47,0-3.1,0-4.25,1s-1.21,2.47-1.24,3.87c-.06,2.55-.11,5.11-.14,7.66q-.11,8.28,0,16.57c.05,6,.16,12,.43,18,.12,2.56,4.12,2.57,4,0-.46-10.25-.51-20.51-.43-30.76q0-3.75.09-7.48c0-1.16,0-2.32.08-3.47,0-.47.06-.94,0-1.41s-.27,0,0,0c.5,0,1,0,1.51,0L99.61,386l21.28-.27c2.57,0,2.58-4,0-4Z"/><path class="cls-1" d="M139.53,385.76c7.33.4,14.68.34,22,.37,3.63,0,7.26,0,10.89.16l2.72.11a9.88,9.88,0,0,1,2.18.16c.43.13.85.59,1.4.73a4.81,4.81,0,0,0,1,.13H180c.51.05.35-.07-.49-.35l-.52-.88a14.45,14.45,0,0,1,0,2.63c0,1,0,2,0,3.06l0,5.8q0,6.19.05,12.37,0,12.12.12,24.24c0,2.57,4,2.58,4,0-.08-12.2-.11-24.41-.17-36.61,0-2.95,0-5.91,0-8.86,0-1.24.32-3.06-.33-4.17s-1.77-1.06-2.9-1.24c.25,0,.5.31.12,0a2.93,2.93,0,0,0-1-.52,7.12,7.12,0,0,0-1.89-.37c-1.59-.14-3.21-.16-4.81-.22-3.29-.1-6.59-.14-9.9-.15-7.59,0-15.18.05-22.76-.37-2.58-.14-2.57,3.86,0,4Z"/><path class="cls-1" d="M74.9,426.15c.21,2.91.31,5.83.52,8.74a2,2,0,0,0,2,2c25.89,1.48,51.83,2,77.76,2.23q11,.11,21.94.18v-4l-80.36.42-23,.12c-2.57,0-2.57,4,0,4q36.47.44,72.93-.37,10.32-.23,20.65-.55c2.57-.08,2.58-4.08,0-4q-36.45,1.15-72.92,1.07-10.32,0-20.66-.15v4l80.36-.42,23-.12a2,2,0,0,0,0-4c-25.93-.2-51.87-.4-77.78-1.37q-11-.42-21.92-1l2,2c-.21-2.91-.31-5.83-.52-8.74-.18-2.56-4.18-2.58-4,0Z"/><path class="cls-1" d="M278.3,159.64l-12.09.1-6,0c-1.4,0-3.29-.28-4.32.92s-.65,2.81-.65,4.11l0,6.29,0,12.11a1,1,0,0,0,1,1l12.28-.17,6-.09,3.13,0a15.35,15.35,0,0,0,2.71-.08c1.75-.34,1.31-2.07,1.17-3.39l-.67-6L279.4,161.9c-.14-1.27-2.14-1.28-2,0L278.63,173l.61,5.54.3,2.65.08.72c0,.32,0,.32.13,0a10,10,0,0,1-1.45,0l-22.16.31,1,1,0-10.66,0-5.32v-2.66a6.32,6.32,0,0,1,.07-2.34c.31-.67,1.59-.44,2.18-.44l2.9,0,5.31,0,10.64-.09a1,1,0,0,0,0-2Z"/><path class="cls-1" d="M256.82,196.29q.1,10-.18,20c0,1.29,2,1.29,2,0q.28-10,.18-20a1,1,0,0,0-2,0Z"/><path class="cls-1" d="M256.94,197.52l12.6.15,6.18.08c1,0,2.06,0,3.09,0,.32,0,1-.11,1.19.16a4.51,4.51,0,0,1,.36,1.62,40.2,40.2,0,0,1-.08,12.29,12.17,12.17,0,0,1-.4,3c-.33.8-1.6.53-2.36.52l-6.42,0-14.26-.08a1,1,0,0,0,0,2l14.74.09c2.43,0,4.86.08,7.29,0a2.75,2.75,0,0,0,3.05-2.73c.64-4.62,1.22-9.32.62-14-.19-1.54-.23-4.08-2-4.69a10.42,10.42,0,0,0-3.16-.19l-3.8-.05-16.64-.2a1,1,0,0,0,0,2Z"/><path class="cls-1" d="M256.72,229.31c-.25,7.1-.22,14.22.07,21.32,0,1.28,2,1.29,2,0-.29-7.1-.32-14.22-.07-21.32,0-1.29-2-1.29-2,0Z"/><path class="cls-1" d="M257.67,231.83l11.92-.2,5.84-.1c.63,0,2-.27,2.35.31a4,4,0,0,1,.25,1.25q.14.75.24,1.5a74.07,74.07,0,0,1,.87,11.62,17.21,17.21,0,0,1-.05,2.59c0,.26,0,.32-.11.41a3.29,3.29,0,0,1-.77,0l-1.55,0-5.77.15-13.33.36c-1.28,0-1.29,2,0,2l13.77-.37,6.66-.18a4.07,4.07,0,0,0,2.37-.42,2.57,2.57,0,0,0,.74-2.2,79.21,79.21,0,0,0-.71-13.24c-.15-1.07-.31-2.15-.51-3.22a3.16,3.16,0,0,0-.94-2,3.24,3.24,0,0,0-2-.58c-1.16,0-2.34,0-3.5.05l-15.74.27a1,1,0,0,0,0,2Z"/><path class="cls-1" d="M297.47,165l59.9-1,17-.28a1,1,0,0,0,0-2l-59.9,1-17,.27a1,1,0,0,0,0,2Z"/><path class="cls-1" d="M298,176.93l45-.3a1,1,0,0,0,0-2l-45,.3a1,1,0,0,0,0,2Z"/><path class="cls-1" d="M301,197.85q25-.58,50,0a1,1,0,0,0,0-2q-25-.53-50,0a1,1,0,0,0,0,2Z"/><path class="cls-1" d="M301.6,212.62l26.88-.47a1,1,0,0,0,0-2l-26.88.47a1,1,0,0,0,0,2Z"/><path class="cls-1" d="M299,234.11q27.19-.56,54.38.51c1.29,0,1.29-2,0-2q-27.18-1.06-54.38-.51a1,1,0,0,0,0,2Z"/><path class="cls-1" d="M300.64,248.21l55.57-.08,15.7,0a1,1,0,0,0,0-2l-55.57.09-15.7,0a1,1,0,0,0,0,2Z"/><path class="cls-1" d="M327.18,290.55c1,17.44,2.13,35,5.5,52.16.37,1.89,3.27,1.09,2.89-.8-3.32-16.91-4.4-34.19-5.39-51.36-.11-1.92-3.11-1.93-3,0Z"/><path class="cls-1" d="M287.74,295.67l7.69,4.82a24.9,24.9,0,0,1,6.31,4.95,102.28,102.28,0,0,1,9.71,14.25,1.5,1.5,0,0,0,2.59-1.52,108.32,108.32,0,0,0-10.17-14.85,25.88,25.88,0,0,0-6.31-5.05l-8.3-5.19c-1.64-1-3.15,1.57-1.52,2.59Z"/><path class="cls-1" d="M311.18,318.44c-.3.41-1.38.34-1.79.34a11.48,11.48,0,0,1-2.86-.34,16.47,16.47,0,0,1-5.2-2.38c-3.28-2.2-5.84-5.34-8.33-8.36-1.23-1.49-3.35.64-2.12,2.12,3,3.67,6.2,7.42,10.44,9.75a17.68,17.68,0,0,0,6.52,2.12c2.16.25,4.53.15,5.93-1.73a1.51,1.51,0,0,0-.54-2,1.53,1.53,0,0,0-2.05.53Z"/><path class="cls-1" d="M292.1,306.64a45.75,45.75,0,0,0-14.63.29,1.51,1.51,0,0,0-1.05,1.84,1.53,1.53,0,0,0,1.85,1.05,41.63,41.63,0,0,1,13-.29,1.55,1.55,0,0,0,1.84-1,1.51,1.51,0,0,0-1-1.84Z"/><path class="cls-1" d="M295.49,297.23a89.38,89.38,0,0,0-13-6.51,1.51,1.51,0,0,0-1.85,1,1.55,1.55,0,0,0,1.05,1.85A86,86,0,0,1,294,299.82c1.65,1,3.16-1.59,1.51-2.59Z"/><path class="cls-1" d="M285,291.57c-3.93-.69-8.21,0-12.14.38-4.79.44-9.6,1.05-14.41,1.18-1.93.06-1.94,3.06,0,3,4.7-.13,9.39-.71,14.07-1.15,2.33-.22,4.65-.43,7-.55.93-.05,1.87-.09,2.8-.08.6,0,1.6.06,1.89.11,1.89.33,2.7-2.56.8-2.89Z"/><path class="cls-1" d="M281.57,306.62c-6.4-.49-10.7,5.54-14.51,9.73a188.09,188.09,0,0,1-15.51,15.16c-1.45,1.27.67,3.39,2.12,2.12a188.93,188.93,0,0,0,14.58-14.14c2.08-2.25,4-4.68,6.26-6.76,2-1.83,4.27-3.32,7.06-3.11,1.92.15,1.91-2.85,0-3Z"/><path class="cls-1" d="M250.44,334.15a16.59,16.59,0,0,0,10.76,11,1.5,1.5,0,0,0,.8-2.89l-.83-.29-.18-.07-.4-.19a14.29,14.29,0,0,1-1.54-.84c-.25-.15-.49-.32-.73-.49l-.35-.26-.1-.08a16.09,16.09,0,0,1-1.3-1.18,13.42,13.42,0,0,1-3.24-5.52,1.55,1.55,0,0,0-1.85-1.05,1.52,1.52,0,0,0-1,1.85Z"/><path class="cls-1" d="M247.11,293.51a92.3,92.3,0,0,0-4.35,22.55A115,115,0,0,0,243.5,334c.34,3.41.69,6.82.92,10.24.12,1.91,3.12,1.93,3,0-.39-5.84-1.17-11.64-1.56-17.48a81.68,81.68,0,0,1,.83-18.94A100.18,100.18,0,0,1,250,294.31c.57-1.85-2.32-2.64-2.9-.8Z"/><path class="cls-1" d="M251.14,293.13l.72-2.48a1.5,1.5,0,0,0-1.05-1.84,184.59,184.59,0,0,0-27.7-1.93,1.5,1.5,0,0,0,0,3A180.81,180.81,0,0,1,250,291.7L249,289.86l-.73,2.48c-.54,1.85,2.36,2.65,2.9.79Z"/><path class="cls-1" d="M221.45,289.43a171.83,171.83,0,0,0-.21,56.07c.31,1.9,3.2,1.09,2.89-.8a167.61,167.61,0,0,1,.21-54.47c.32-1.89-2.57-2.7-2.89-.8Z"/><path class="cls-1" d="M257.92,342.94l7.55-4.33A1.5,1.5,0,0,0,264,336l-7.55,4.32a1.52,1.52,0,0,0-.53,2.06,1.54,1.54,0,0,0,2.05.54Z"/><path class="cls-1" d="M259.6,339.88c-1,2.81,1.12,5.6,3.6,6.74a41.65,41.65,0,0,0,4.43,1.44,11.13,11.13,0,0,1,4,2.83c4.49,4.1,11.6,5.72,16.36,1.11,1.39-1.34-.73-3.46-2.12-2.12-3.88,3.76-9.4,1.51-12.75-1.71a13.66,13.66,0,0,0-6.23-3.47c-1.71-.47-5.27-1.55-4.37-4,.67-1.82-2.23-2.6-2.89-.8Z"/><path class="cls-1" d="M312.75,339a75.5,75.5,0,0,0,8.81-5.89,21.44,21.44,0,0,1,9.32-3.72,1.5,1.5,0,0,0,1.05-1.84,1.54,1.54,0,0,0-1.84-1.05,23,23,0,0,0-9.86,3.9,82.28,82.28,0,0,1-9,6c-1.71.89-.2,3.48,1.51,2.59Z"/><path class="cls-1" d="M317.13,336l0,.19c0,.16,0,.12,0-.12a1.27,1.27,0,0,0,0,.28c0,.22,0,.44,0,.65a1.33,1.33,0,0,0,0,.28c0-.24,0-.28,0-.12a.68.68,0,0,1,0,.14,4.18,4.18,0,0,1-.16.58,2.83,2.83,0,0,1-.11.31c-.13.35.12-.24,0,0a5.61,5.61,0,0,1-.29.54,4.52,4.52,0,0,1-.34.51c-.17.25.22-.25,0,0a2.62,2.62,0,0,0-.22.25c-.15.16-.31.31-.48.46a2.38,2.38,0,0,0-.22.18l.08-.06-.07.06-.56.35-.25.13-.17.08c-.14.07-.11.06.11,0-.14,0-.39.15-.53.19s-.43.08-.64.14c.42-.12.12,0,0,0l-.32,0c-.22,0-.44,0-.66,0a1.49,1.49,0,0,0-1.5,1.5,1.55,1.55,0,0,0,1.5,1.5,7.1,7.1,0,0,0,5.91-2.41,7.26,7.26,0,0,0,1.85-6.4,1.5,1.5,0,1,0-2.89.79Z"/><path class="cls-1" d="M304.28,334.82c-.12-.14-.14-.15-.06,0a2.07,2.07,0,0,1-.15-.25c.11.23,0-.11,0-.18.06.3,0-.1,0-.17s0-.2,0,0a2.46,2.46,0,0,1,.07-.29,2.19,2.19,0,0,1,.78-1l.26-.15c-.1.05-.1.05,0,0l.22-.07h.1a2.12,2.12,0,0,1,.93.15A3.51,3.51,0,0,1,308,334.2c1.08,1.7.85,3.88.54,5.77a12.66,12.66,0,0,1-.57,2.72,1.57,1.57,0,0,1-.63.8,1.23,1.23,0,0,1-.34.11c.19,0-.13-.09-.07-.06a1.5,1.5,0,0,0-1.52,2.59,3.48,3.48,0,0,0,3.45-.05,4.81,4.81,0,0,0,2.07-2.84,21.44,21.44,0,0,0,.65-3.47,14.47,14.47,0,0,0,.08-4,7.26,7.26,0,0,0-3.6-5.46,4.69,4.69,0,0,0-5.72.8c-1.48,1.64-1.89,4.21-.22,5.88a1.5,1.5,0,0,0,2.12-2.12Z"/><path class="cls-1" d="M293.48,341.13a4.86,4.86,0,0,1,2.69-5,3.76,3.76,0,0,1,4.77,1.72c1,2.07.26,4.86-.27,7-.46,1.81-1.72,4.82-4.14,4.25-1.87-.44-2.68,2.46-.79,2.9a6.23,6.23,0,0,0,6.72-3.41,14.36,14.36,0,0,0,1.33-4,22.84,22.84,0,0,0,.57-4.11,7.22,7.22,0,0,0-3.18-6.64,7,7,0,0,0-7,0,7.94,7.94,0,0,0-3.66,7.29,1.54,1.54,0,0,0,1.5,1.5,1.51,1.51,0,0,0,1.5-1.5Z"/><path class="cls-1" d="M288.37,348.65q-.14-.56-.24-1.11l-.06-.32s0-.26,0-.12,0-.17,0-.2,0-.21,0-.32a5.06,5.06,0,0,1,0-.55c0-.32,0-.14,0-.07s0-.16,0-.24a2.46,2.46,0,0,0,.09-.29c0-.15,0,0,0,.07.08-.16.17-.3.25-.44-.12.21-.05.06,0,0l.18-.19a.86.86,0,0,0,.14-.13c.12-.11,0,0,0,.05s.5-.24.18-.14l.17,0c.12,0,.31,0,0,0h.18c.19,0-.23-.08,0,0l.17.05c-.06,0-.23-.13,0,0l.16.11c.18.11-.12-.15,0,0a3.41,3.41,0,0,0,.37.39c.11.13,0,0,0,0l.16.21.3.46c.21.33.41.66.59,1s.33.65.48,1c0,0,.11.27,0,.08l.09.21.21.59c0,.17.11.34.15.52s.05.2.07.3,0-.2,0,0v.3c0,.19,0,0,0,0-.11.29,0,.11,0,.05-.05.11-.1.13,0,0l-.19.19s-.22.15,0,0l-.35.22c-.17.1-.34.18-.52.27l-.09,0-.23.09a7.54,7.54,0,0,1-1.13.3l-.29.05c.16,0,.07,0,0,0a8.72,8.72,0,0,1-1.18,0l-.29,0c-.27,0,0,0-.11,0-.41-.09-.81-.17-1.21-.3a1.51,1.51,0,0,0-1.84,1.05,1.53,1.53,0,0,0,1.05,1.84,9.06,9.06,0,0,0,5.84,0,6.7,6.7,0,0,0,2.72-1.6,3.65,3.65,0,0,0,.75-3.39,12.7,12.7,0,0,0-1.15-3,14,14,0,0,0-1.6-2.48,3.62,3.62,0,0,0-5.51-.4c-2,1.75-1.6,4.5-1.06,6.78a1.5,1.5,0,0,0,1.84,1.05,1.53,1.53,0,0,0,1.05-1.84Z"/><path class="cls-1" d="M292.65,297.31c-.34.27.65-.33.44-.24a9.73,9.73,0,0,1,1.3-.39,23.1,23.1,0,0,1,3.11-.47c3.1-.31,6.23-.36,9.35-.39,6.39-.07,12.84.2,19.22-.34,1.9-.16,1.92-3.16,0-3-10.18.87-20.51-.49-30.64,1a9.55,9.55,0,0,0-4.9,1.72c-1.49,1.24.64,3.35,2.12,2.13Z"/><path class="cls-1" d="M324.77,329.65a44.7,44.7,0,0,0,5.88,13,1.54,1.54,0,0,0,2.06.54,1.52,1.52,0,0,0,.53-2.06,42,42,0,0,1-5.57-12.24,1.5,1.5,0,0,0-2.9.79Z"/><path class="cls-1" d="M328.32,291.39a58.63,58.63,0,0,1,22.95,1.54,1.5,1.5,0,0,0,.79-2.89,60.74,60.74,0,0,0-23.74-1.65,1.54,1.54,0,0,0-1.5,1.5,1.52,1.52,0,0,0,1.5,1.5Z"/><path class="cls-1" d="M351.53,292.71a224.15,224.15,0,0,1,1.51,41,106.45,106.45,0,0,1-1.23,11c-.32,1.89,2.57,2.7,2.89.8,2.33-13.66,2-27.79.93-41.56q-.42-5.62-1.1-11.25c-.22-1.89-3.22-1.91-3,0Z"/><path class="cls-1" d="M350.73,342.55c-3-.29-6-.34-8.93-.46a44.62,44.62,0,0,1-8.61-1.19c-1.88-.44-2.68,2.45-.8,2.9a48.92,48.92,0,0,0,9.17,1.28c3.06.14,6.12.18,9.17.47a1.5,1.5,0,0,0,0-3Z"/><path class="cls-1" d="M245.75,343.54a174,174,0,0,1-21.77,1c-1.93,0-1.93,3,0,3a174,174,0,0,0,21.77-1,1.5,1.5,0,0,0,0-3Z"/><path class="cls-1" d="M244.41,338.13a52.81,52.81,0,0,0,10.23,4.38,1.5,1.5,0,0,0,1.84-1,1.53,1.53,0,0,0-1.05-1.85,48.68,48.68,0,0,1-9.51-4.08,1.5,1.5,0,1,0-1.51,2.59Z"/><path class="cls-1" d="M256.35,294a14.88,14.88,0,0,1-1.87,1.55,19,19,0,0,1-2.34,1.39,13.71,13.71,0,0,1-2.25.9,18.25,18.25,0,0,1-2.65.63,1.51,1.51,0,0,0-1.05,1.84,1.55,1.55,0,0,0,1.85,1.05,19.78,19.78,0,0,0,10.43-5.24,1.5,1.5,0,0,0-2.12-2.12Z"/><path class="cls-1" d="M248.09,293.67a16.09,16.09,0,0,1,1.18,1.3,1.56,1.56,0,0,1,.16.2c.13.16-.16-.22,0-.06l.24.33c.18.25.36.51.52.77a15.34,15.34,0,0,1,.86,1.53l.18.37.11.24c.08.17,0,0,0-.08.1.3.23.58.33.87a1.5,1.5,0,1,0,2.89-.8,17.94,17.94,0,0,0-4.28-6.79,1.5,1.5,0,0,0-2.12,2.12Z"/><path class="cls-1" d="M293.46,123.59c-.21-3.59,3.14-5.91,6.28-6.7a7,7,0,0,1,5.76.66,5.39,5.39,0,0,1,2.25,4.44,1.5,1.5,0,0,0,3,0,8.34,8.34,0,0,0-3.14-6.58,9.62,9.62,0,0,0-8.08-1.55c-4.6,1-9.38,4.59-9.07,9.73.11,1.92,3.11,1.94,3,0Z"/><path class="cls-1" d="M251.05,129.18c26.58,1.65,53.24,1.25,79.85.45,7.44-.22,14.88-.48,22.32-.73,1.92-.06,1.93-3.06,0-3-26.61.89-53.24,1.86-79.87,1.23q-11.16-.27-22.3-.95c-1.93-.12-1.92,2.88,0,3Z"/><path class="cls-1" d="M248.65,128.75c-1.48-22.06,13.5-43.06,33.58-51.31a53,53,0,0,1,34.7-2.17,51.89,51.89,0,0,1,26.25,18.28,63.25,63.25,0,0,1,13,34c.14,1.91,3.14,1.93,3,0-1.65-22.73-15.42-45.19-37.13-53.67A54.89,54.89,0,0,0,285.57,73a58.43,58.43,0,0,0-27.94,19.46c-8.07,10.26-12.86,23.11-12,36.26.13,1.91,3.13,1.93,3,0Z"/><path class="cls-2" d="M314.11,119.6a7.2,7.2,0,0,1-4.93.81c-.81-.17-1.54-.34-1.82-1.19a4.44,4.44,0,0,1,.08-2.45c.87-3.37,3.47-5.85,6.09-8,7-5.61,14.17-10.93,21.24-16.38L347,83,345,81c-10.15,13.78-20.38,27.55-32.43,39.75-1.36,1.38.76,3.5,2.12,2.13,12.23-12.39,22.6-26.38,32.9-40.37.86-1.17-.88-3-2.05-2L320.05,100c-3.68,2.83-7.67,5.49-11,8.73-2.73,2.66-5.32,6.55-4.73,10.55.38,2.55,2.28,3.72,4.67,4.12a10.69,10.69,0,0,0,6.64-1.23c1.74-.82.22-3.41-1.52-2.59Z"/><path class="cls-2" d="M259.44,108.71a1,1,0,0,0,0-2,1,1,0,0,0,0,2Z"/><path class="cls-2" d="M280,89a1,1,0,0,0,0-2,1,1,0,0,0,0,2Z"/><path class="cls-2" d="M304.33,82.84a1,1,0,0,0,0-2,1,1,0,0,0,0,2Z"/><path class="cls-2" d="M326,87.88a1,1,0,0,0,0-2,1,1,0,0,0,0,2Z"/><path class="cls-2" d="M344.39,110a1,1,0,0,0,0-2,1,1,0,0,0,0,2Z"/><path class="cls-3" d="M357.65,66.43a11.62,11.62,0,0,1,7.28,5.78,14.87,14.87,0,0,1,1.42,10.26A14.56,14.56,0,0,1,364,87.83c-.38.53.49,1,.86.51,4.29-6.07,3.65-15.32-2-20.28a11.52,11.52,0,0,0-4.93-2.6c-.63-.15-.89.82-.27,1Z"/><path class="cls-3" d="M373.53,77.76c1.28,5.63-.44,12.22-4.91,16-.49.42.22,1.12.71.71,4.74-4,6.52-11,5.17-17-.15-.63-1.11-.36-1,.27Z"/><path class="cls-3" d="M57.73,334.65c3.24.54,5.77-1.8,7.37-4.35a40.35,40.35,0,0,0,4.18-9.37c.2-.61-.77-.88-1-.26a41.39,41.39,0,0,1-3.65,8.39c-1.37,2.37-3.59,5.14-6.68,4.62-.63-.1-.9.86-.26,1Z"/><path class="cls-3" d="M67.94,322.3c-1,3.24-2,6.73-1.18,10.13a7.91,7.91,0,0,0,4.93,5.86c.61.2.88-.76.27-1a7,7,0,0,1-4.31-5.52c-.62-3.1.38-6.3,1.26-9.24a.5.5,0,0,0-1-.27Z"/><path class="cls-3" d="M56.82,333.81a8.2,8.2,0,0,1,3.1,6.16c.22,2.95-.69,5.83-1.54,8.61-.2.62.77.88,1,.27.94-3,1.92-6.23,1.53-9.44A9.09,9.09,0,0,0,57.32,333c-.52-.38-1,.49-.5.86Z"/><path class="cls-3" d="M71.18,336.56a18.52,18.52,0,0,0-13.65,13.08.5.5,0,0,0,1,.27,17.56,17.56,0,0,1,13-12.39c.62-.14.36-1.1-.27-1Z"/><path class="cls-3" d="M203.18,174a6,6,0,0,0,6-.66,12.52,12.52,0,0,0,3.55-5.27c.23-.6-.74-.86-1-.27a11.86,11.86,0,0,1-3.1,4.66,5.06,5.06,0,0,1-5.27.58c-.6-.23-.86.73-.27,1Z"/><path class="cls-3" d="M211.6,168.7a11.52,11.52,0,0,0-.79,3.47,6.46,6.46,0,0,0,.74,3.14,10.21,10.21,0,0,0,4.67,4.4c.57.28,1.08-.58.5-.86a9.44,9.44,0,0,1-4.25-3.92,5.52,5.52,0,0,1-.66-2.76,10.52,10.52,0,0,1,.76-3.21c.21-.6-.76-.87-1-.26Z"/><path class="cls-3" d="M202.27,173.24a8.46,8.46,0,0,1,3.23,4.07c.63,1.85.09,3.63-.56,5.38-.22.6.74.86,1,.27.72-2,1.25-4,.51-6a9.73,9.73,0,0,0-3.64-4.55c-.53-.37-1,.5-.51.87Z"/><path class="cls-3" d="M215.94,178.17c-4.18-.52-10.26.2-11.69,5a.5.5,0,0,0,1,.26c1.29-4.29,7.06-4.68,10.73-4.23.63.08.63-.92,0-1Z"/><path class="cls-3" d="M44.82,314.6a2.74,2.74,0,0,0,1.32-1.92,3.29,3.29,0,0,0-.72-2.17.53.53,0,0,0-.69-.18.51.51,0,0,0-.18.69,2,2,0,0,1,.26.39,2.39,2.39,0,0,1,.16.33,2.54,2.54,0,0,1,.14.47.36.36,0,0,1,0,.1s0,.07,0,0a1.93,1.93,0,0,1,0,.24v.07s0,.07,0,.08l0,.12s-.06.13,0,.07,0,0,0,0a.3.3,0,0,1,0,.08,1,1,0,0,1-.11.17s0,.06,0,0l-.07.08-.15.16a2.34,2.34,0,0,1-.35.29.5.5,0,0,0,.5.86Z"/><path class="cls-3" d="M44.84,311.32a3.42,3.42,0,0,0,.83.78,2.48,2.48,0,0,0,1.19.34,4.64,4.64,0,0,0,2.51-.7.5.5,0,0,0-.5-.87,4.08,4.08,0,0,1-1,.45,3,3,0,0,1-.93.12h-.2c.1,0-.09,0-.12,0a1.16,1.16,0,0,1-.42-.17,1.38,1.38,0,0,1-.31-.26l-.31-.36a.5.5,0,0,0-.71,0,.52.52,0,0,0,0,.71Z"/><path class="cls-3" d="M44.33,314.77a5.38,5.38,0,0,1,1-.3h.05s0,0,0,0h.67a1.51,1.51,0,0,1,.66.27,3.41,3.41,0,0,1,.56.62.51.51,0,0,0,.71,0,.52.52,0,0,0,0-.71,2.69,2.69,0,0,0-1.67-1.14,4.1,4.1,0,0,0-2.29.31.52.52,0,0,0-.35.62.49.49,0,0,0,.61.34Z"/><path class="cls-3" d="M48.48,311c-1,1.09-2.49,3.17-1.19,4.6a.5.5,0,0,0,.71,0,.51.51,0,0,0,0-.71s-.08-.09,0,0l0,0-.07-.12c0,.07,0,0,0-.05l0-.09s0-.2,0-.09a1.62,1.62,0,0,1,0-.44c0,.09,0-.09,0-.13a2.17,2.17,0,0,1,.07-.24,5.41,5.41,0,0,1,1.29-1.94c.44-.46-.26-1.17-.71-.71Z"/><path class="cls-3" d="M60.4,179.55a4.67,4.67,0,0,0,3-2.34,5.82,5.82,0,0,0-.12-4.09.53.53,0,0,0-.62-.35.52.52,0,0,0-.35.62,5,5,0,0,1,.2,3.36,3.62,3.62,0,0,1-2.38,1.84c-.61.19-.35,1.16.27,1Z"/><path class="cls-3" d="M62.58,173.86a6.71,6.71,0,0,0,1,1.74,3.89,3.89,0,0,0,1.69,1.16,8,8,0,0,0,4.73.12c.63-.15.36-1.12-.26-1a7.36,7.36,0,0,1-4-.06,3.52,3.52,0,0,1-2.12-2.27.53.53,0,0,0-.62-.35.52.52,0,0,0-.35.62Z"/><path class="cls-3" d="M59.55,179.59A6.66,6.66,0,0,1,63,180a3.09,3.09,0,0,1,1.16.9,5.43,5.43,0,0,1,.71,1.4.52.52,0,0,0,.62.35.5.5,0,0,0,.34-.62,6.51,6.51,0,0,0-.83-1.67,3.92,3.92,0,0,0-1.43-1.19,7.29,7.29,0,0,0-4-.57.51.51,0,0,0-.5.5.5.5,0,0,0,.5.5Z"/><path class="cls-3" d="M69,175.92a11,11,0,0,0-3.92,3.39,3.64,3.64,0,0,0-.41,3.56c.28.58,1.14.07.87-.51a2.75,2.75,0,0,1,.49-2.67,10.22,10.22,0,0,1,3.48-2.91c.56-.31.06-1.18-.51-.86Z"/><path class="cls-1" d="M76,107l-20.16,0H51.12c-1.39,0-2.63.27-2.94-1.36a83,83,0,0,1-.79-9.46Q46,76.33,46.62,56.45,47,45,47.92,33.65c.17-1.92-2.84-1.91-3,0a416.72,416.72,0,0,0-1.41,42.4q.2,10.55,1,21.08.18,2.48.39,5a25.66,25.66,0,0,0,.55,4.79c.94,3.22,3.93,3.08,6.71,3.09L76,110a1.5,1.5,0,0,0,0-3Z"/><path class="cls-1" d="M46.45,35.46q41.42-.54,82.84-.28,11.73.07,23.45.21a1.5,1.5,0,0,0,0-3q-41.42-.48-82.84-.17-11.72.09-23.45.24c-1.93,0-1.93,3,0,3Z"/><path class="cls-1" d="M151.56,34.22q.42,6.44.36,12.89a1.5,1.5,0,0,0,3,0q.06-6.45-.36-12.89a1.54,1.54,0,0,0-1.5-1.5,1.51,1.51,0,0,0-1.5,1.5Z"/><path class="cls-1" d="M47.27,45.27l81.32-.19,23.16,0a1.5,1.5,0,0,0,0-3l-81.32.19-23.16.05a1.5,1.5,0,0,0,0,3Z"/><path class="cls-1" d="M57.75,59.34H81.17l22.41,0H117.2a.5.5,0,0,0,0-1H57.75a.5.5,0,0,0,0,1Z"/><path class="cls-1" d="M60.74,70.32q8.79.47,17.6.21c.64,0,.65-1,0-1q-8.81.25-17.6-.21c-.64,0-.64,1,0,1Z"/><path class="cls-1" d="M58.42,81.37H89.3a.5.5,0,0,0,0-1H58.42a.5.5,0,0,0,0,1Z"/><path class="cls-1" d="M121.18,126.68c11.49-8.78,23-17.52,34.81-25.87q5.47-3.87,11-7.67c1.58-1.08.08-3.69-1.51-2.59q-17.9,12.3-35.16,25.41-5.36,4-10.67,8.13c-1.51,1.15,0,3.76,1.52,2.59Z"/><path class="cls-1" d="M131,136.84c15.05-12.07,30.47-23.67,46.59-34.29,1.6-1.06.1-3.66-1.52-2.59-16.33,10.76-31.94,22.53-47.19,34.76-1.51,1.21.63,3.32,2.12,2.12Z"/><path class="cls-1" d="M167.71,91.36c-2-3.8-3.38-8-2-12.21A16,16,0,0,1,172,70.74a23.34,23.34,0,0,1,8.78-2.94,19.65,19.65,0,0,1,10.23.79c1.79.71,2.57-2.19.8-2.89-5.61-2.23-12.65-1.29-18.13.9a18.53,18.53,0,0,0-11.45,14c-.64,4.34.85,8.48,2.85,12.28.89,1.71,3.48.19,2.59-1.52Z"/><path class="cls-1" d="M191.44,66.42,175.73,78.29a1.56,1.56,0,0,0-.54,2.06,1.5,1.5,0,0,0,2.05.53L193,69A1.56,1.56,0,0,0,193.5,67a1.52,1.52,0,0,0-2.06-.54Z"/><path class="cls-1" d="M174.34,80.36a48,48,0,0,1,1.63,5.1c.27,1,.51,2,.7,3,0,.21.07.42.11.63s0,.27,0,0c0,.1,0,.2,0,.3a5.79,5.79,0,0,1,0,1,1.5,1.5,0,0,0,3,0,10,10,0,0,0-.25-2.61c-.18-1-.42-2-.69-3a47.64,47.64,0,0,0-1.67-5.24,1.54,1.54,0,0,0-1.85-1,1.5,1.5,0,0,0-1,1.84Z"/><path class="cls-1" d="M178.39,92.24c3.85.32,7.72.25,11.57.58a1.5,1.5,0,0,0,0-3c-3.85-.33-7.72-.26-11.57-.58a1.5,1.5,0,0,0-1.5,1.5,1.54,1.54,0,0,0,1.5,1.5Z"/><path class="cls-1" d="M191.25,92a162.15,162.15,0,0,1,13.06-9.79,1.5,1.5,0,0,0-1.52-2.59,170.19,170.19,0,0,0-13.66,10.26A1.5,1.5,0,0,0,191.25,92Z"/><path class="cls-1" d="M202.16,81.1a16.09,16.09,0,0,1,1.23,4.8,12.25,12.25,0,0,1-1,5,17.61,17.61,0,0,1-6.55,7.47c-5,3.28-12.32,5-17.77,2-1.69-.94-3.2,1.65-1.51,2.59,6.49,3.59,15.24,1.82,21.13-2.24a20.6,20.6,0,0,0,7.58-9,15,15,0,0,0,1.13-5.64,17.78,17.78,0,0,0-1.34-5.78c-.63-1.81-3.53-1-2.89.8Z"/><path class="cls-1" d="M121,124.33a21.57,21.57,0,0,0-19.41-2.14A19,19,0,0,0,94,127a25.71,25.71,0,0,0-4.68,7.67,17.1,17.1,0,0,0-1.18,10c.41,1.89,3.31,1.09,2.89-.8-.7-3.2.29-6.66,1.69-9.55,1.24-2.58,3-5.35,5.37-7,6.32-4.33,15-4.76,21.37-.38,1.6,1.1,3.1-1.5,1.52-2.59Z"/><path class="cls-1" d="M90.78,146.33l16-11.65a1.54,1.54,0,0,0,.53-2.05,1.5,1.5,0,0,0-2-.54l-16,11.65a1.54,1.54,0,0,0-.54,2,1.52,1.52,0,0,0,2,.54Z"/><path class="cls-1" d="M105.81,134.13a57.18,57.18,0,0,0,5.3,2.53,22.52,22.52,0,0,0,6.06,2,1.5,1.5,0,0,0,1.5-1.5,1.54,1.54,0,0,0-1.5-1.5c.55.07,0,0-.17,0l-.57-.14q-.68-.18-1.32-.42c-.48-.16-1-.34-1.42-.53l-.77-.31-.28-.11-.28-.12c-1.7-.74-3.41-1.52-5-2.42a1.5,1.5,0,1,0-1.51,2.59Z"/><path class="cls-1" d="M116,137.24c0-.36,0,.15,0,.27l-.09.6c-.07.42-.15.85-.23,1.28-.17.93-.35,1.87-.52,2.8-.35,1.8-.69,3.61-.94,5.43a1.52,1.52,0,0,0,1.5,1.5,1.54,1.54,0,0,0,1.5-1.5c0,.36,0-.16,0-.27l.09-.6c.07-.43.15-.86.22-1.28.17-.94.35-1.87.53-2.8.34-1.81.69-3.61.93-5.43.11-.8-.76-1.5-1.5-1.5a1.54,1.54,0,0,0-1.5,1.5Z"/><path class="cls-1" d="M114.48,146.46a167.24,167.24,0,0,0-13.82,10.14,1.5,1.5,0,0,0,0,2.12,1.54,1.54,0,0,0,2.12,0A160.2,160.2,0,0,1,116,149.05c1.61-1.06.11-3.66-1.51-2.59Z"/><path class="cls-1" d="M100.73,159a20.14,20.14,0,0,0,8.9,2.65,21.31,21.31,0,0,0,10.22-2.47,18.77,18.77,0,0,0,6.85-5.64,23.82,23.82,0,0,0,3.59-8.05,16.94,16.94,0,0,0-.18-10c-.69-1.79-3.59-1-2.9.8,1.19,3.1.8,6.51-.15,9.63a17.35,17.35,0,0,1-4.32,7.7,19.69,19.69,0,0,1-10.26,4.9,15.82,15.82,0,0,1-5.49-.13,19.44,19.44,0,0,1-4.74-2c-1.72-.87-3.24,1.72-1.52,2.59Z"/><path class="cls-2" d="M97.59,114.42a7,7,0,0,0,6.17-2.87A8.84,8.84,0,0,0,105,104c-1.26-5.25-4.9-10.11-8.82-13.7l-1.46,2.51c5.26,1.53,11.93,2.64,15.42-2.73,3.23-5,1.76-12.08-.88-17L106.85,75c5.19,5.31,12.75,10.31,20.45,7.23a11.56,11.56,0,0,0,6.76-7.76,17,17,0,0,0-.28-10.34c-.68-1.77-3.51-1.07-2.89.8,2.94,8.92,11.8,13,20.74,12.65,1.93-.07,1.94-3.08,0-3-7.54.31-15.33-2.8-17.85-10.45l-2.89.8c1.94,5.05.69,12.78-5.11,14.67-6.51,2.13-12.5-2.32-16.81-6.73a1.5,1.5,0,0,0-2.35,1.82c2.09,3.87,3.45,9.57,1.06,13.63-2.55,4.33-8.31,2.79-12.21,1.65A1.51,1.51,0,0,0,94,92.43a28.87,28.87,0,0,1,7.35,10.23c.79,1.93,1.44,4.33.49,6.32a4.21,4.21,0,0,1-4.26,2.44c-1.92-.2-1.91,2.8,0,3Z"/><path class="cls-2" d="M137.11,164.34c1-2.41,1.57-5,2.89-7.26,1.05-1.8,3.08-3.77,5.36-3.48s3.65,3,4.65,4.74a32.67,32.67,0,0,1,3.17,7.6,1.5,1.5,0,0,0,2.94-.4c0-5,.1-11.44,5-14.3,5.23-3.08,11.22-.29,15,3.68,1.35,1.41,3.37-.67,2.12-2.12-2-2.31-4.42-5.24-4.38-8.47,0-2.92,2.46-4.7,5-5.55a37.09,37.09,0,0,1,9.06-1.51,27.76,27.76,0,0,1,10,1l.8-2.9a20.75,20.75,0,0,1-6.57-2.08c-2.08-1.17-4.72-2.84-5.79-5.06s-.07-5.19,1.5-7c1.82-2.15,4.33-3.53,6.74-4.89,1.69-.94.18-3.54-1.51-2.59-2.87,1.61-5.8,3.32-7.84,6-1.9,2.47-3,5.94-1.95,9s3.89,5.07,6.47,6.7a22.5,22.5,0,0,0,8.15,2.91c1.88.33,2.69-2.35.8-2.9a31.42,31.42,0,0,0-12-1c-3.55.36-7.32.73-10.57,2.3a8.68,8.68,0,0,0-5.23,7.84c.05,4,2.75,7.51,5.26,10.4l2.12-2.12c-4.69-4.89-11.94-7.79-18.33-4.34-6.18,3.34-6.76,10.84-6.78,17.08l2.95-.4a35.83,35.83,0,0,0-4-9.24c-1.56-2.49-3.53-5.05-6.69-5.3-2.86-.22-5.55,1.63-7.19,3.82-2,2.68-2.72,6.07-3.95,9.12-.72,1.79,2.18,2.57,2.89.8Z"/><path class="cls-1" d="M323.35,396l3.1-2.3a18,18,0,0,1,3-2.15l-.76.21h.22l-.75-.21c-.67-.34-.14-.53-.24-.11a5.18,5.18,0,0,0,0,1l0,2,.07,4.1.06,3.94c0,.66,0,1.32,0,2,0,.14-.09.6,0,.72a.14.14,0,0,0,0,.11c.45-.2.55-.3.32-.33a6.69,6.69,0,0,0-1.78-.31c-.68-.12-1.36-.25-2-.4-1.25-.26-2.49-.55-3.72-.88-2.6-.68-5.15-1.51-7.66-2.44l.66,2.5a10,10,0,0,1,4-2.7c1.82-.62,1-3.52-.8-2.89a13.19,13.19,0,0,0-5.32,3.47,1.52,1.52,0,0,0,.66,2.51,81.06,81.06,0,0,0,8.9,2.76c1.54.38,3.1.71,4.66,1,1.36.24,3.16.86,4.29-.25s.86-2.56.84-3.85l-.08-4.76-.07-4.76c0-1.33.23-3.08-.51-4.27a2,2,0,0,0-2.17-.88,7.14,7.14,0,0,0-2.07,1.34l-4.39,3.26a1.54,1.54,0,0,0-.54,2.05,1.51,1.51,0,0,0,2.05.54Z"/><path class="cls-1" d="M317.94,396.71c-3.12-6.37-2.47-14.55,1.13-20.57a16.82,16.82,0,0,1,18.1-8.12c1.89.38,2.7-2.51.8-2.89a20.3,20.3,0,0,0-12.92,1.39,20.68,20.68,0,0,0-8.37,7.77,25.37,25.37,0,0,0-1.33,23.93c.85,1.73,3.43.21,2.59-1.51Z"/><path class="cls-1" d="M323,394c-.84-4.51-.78-9.81,1.57-13.89a8.65,8.65,0,0,1,5.21-4.1c2.89-.81,5.91-.21,8.78.35,1.89.36,2.7-2.53.8-2.9-3.4-.65-7-1.3-10.37-.35a11.69,11.69,0,0,0-6.72,5c-3.08,4.81-3.18,11.24-2.16,16.68.35,1.9,3.24,1.09,2.89-.8Z"/><path class="cls-1" d="M336.92,365.28l.74,9.6a1.54,1.54,0,0,0,1.5,1.5,1.52,1.52,0,0,0,1.5-1.5l-.74-9.6a1.5,1.5,0,0,0-3,0Z"/><path class="cls-1" d="M351.25,381.3l-2.92,2.44a17,17,0,0,1-2.78,2.26l.76-.2h-.22l.76.21c.65.3.12.57.2.12a4.49,4.49,0,0,0,0-.89l-.09-2.16-.16-4-.17-4.17c0-.67-.06-1.33-.08-2a5.93,5.93,0,0,0,0-.73v-.08c.15-.39,0-.33-.42.19a4.94,4.94,0,0,0,.87.07l1,.1,1.84.24c1.28.18,2.55.4,3.82.65a77.18,77.18,0,0,1,7.89,2l-.66-2.5a10.78,10.78,0,0,1-3.93,3.06,1.56,1.56,0,0,0-1.05,1.85,1.52,1.52,0,0,0,1.85,1.05,13.86,13.86,0,0,0,5.25-3.84,1.52,1.52,0,0,0-.67-2.51,77.75,77.75,0,0,0-9.15-2.24c-1.62-.29-3.24-.52-4.87-.71-1.4-.16-3.12-.59-4.11.71-.87,1.12-.63,2.71-.58,4l.2,4.84.2,4.83c.05,1.32-.19,3.23.81,4.27,1.47,1.54,3.12-.19,4.29-1.16l4.31-3.61a1.51,1.51,0,0,0,0-2.12,1.53,1.53,0,0,0-2.12,0Z"/><path class="cls-1" d="M356.9,379.89c6.79,13-2.42,32.83-18.47,30.61a1.55,1.55,0,0,0-1.84,1.05,1.51,1.51,0,0,0,1,1.85,20.3,20.3,0,0,0,12.93-2.23,22,22,0,0,0,8-8.19c4.22-7.31,4.85-17.05.9-24.6-.9-1.71-3.49-.2-2.59,1.51Z"/><path class="cls-1" d="M351.94,383c1,4.69,1,10.27-1.37,14.58a9.26,9.26,0,0,1-5.36,4.42c-2.84.87-5.86.46-8.75.09a1.51,1.51,0,0,0-1.5,1.5,1.54,1.54,0,0,0,1.5,1.5c3.31.42,6.78.8,10-.35a12.39,12.39,0,0,0,6.57-5.39c3-5.05,3-11.57,1.81-17.15-.4-1.89-3.29-1.09-2.89.8Z"/><path class="cls-1" d="M338.71,413.32l-1-9.7a1.5,1.5,0,0,0-3,0l1,9.7a1.54,1.54,0,0,0,1.5,1.5,1.5,1.5,0,0,0,1.5-1.5Z"/><path class="cls-1" d="M236.47,76A315.94,315.94,0,0,0,224,46.5c-.84-1.74-3.43-.22-2.59,1.51a307.17,307.17,0,0,1,12.13,28.83c.66,1.8,3.56,1,2.9-.8Z"/><path class="cls-1" d="M235.8,78.9c8.4-7.35,19.45-11.43,26.54-20.31,1.19-1.5-.92-3.63-2.12-2.12-7.07,8.85-18.15,13-26.55,20.31-1.45,1.27.68,3.39,2.13,2.12Z"/><path class="cls-1" d="M223.82,47.92l11.24-9.8a1.52,1.52,0,0,0,0-2.12,1.54,1.54,0,0,0-2.13,0L221.7,45.8a1.51,1.51,0,0,0,0,2.12,1.54,1.54,0,0,0,2.12,0Z"/><path class="cls-1" d="M257,45.05c.65,3.68,1.66,7.28,2.31,11a1.51,1.51,0,0,0,1.84,1.05,1.54,1.54,0,0,0,1-1.85c-.64-3.68-1.66-7.28-2.31-11a1.51,1.51,0,0,0-1.84-1A1.55,1.55,0,0,0,257,45.05Z"/><path class="cls-1" d="M234.29,37.61l23.18,6.89c1.86.56,2.65-2.34.8-2.89l-23.18-6.9c-1.85-.55-2.65,2.35-.8,2.9Z"/><path class="cls-1" d="M223.77,47.33c2.44,1.5,5,2.82,7.41,4.33a1,1,0,1,0,1-1.73c-2.43-1.5-5-2.82-7.41-4.33a1,1,0,0,0-1,1.73Z"/><path class="cls-1" d="M259,55.47a55.33,55.33,0,0,1-10.13-.37,1,1,0,0,0-1,1,1,1,0,0,0,1,1,55.33,55.33,0,0,0,10.13.37c1.27-.08,1.28-2.08,0-2Z"/><path class="cls-1" d="M231.56,52.06a148.65,148.65,0,0,0,16.05,4.37c1.26.26,1.8-1.67.53-1.93a151.59,151.59,0,0,1-16-4.36c-1.23-.41-1.75,1.53-.53,1.92Z"/><path class="cls-1" d="M233.67,51.41c3.39-3.09,5.45-7.25,8.45-10.67.84-1-.57-2.39-1.42-1.41-3,3.42-5.06,7.58-8.45,10.67-.95.86.47,2.28,1.42,1.41Z"/><path class="cls-1" d="M247.79,41.52c.55,4.39.17,8.82.34,13.24.05,1.28,2.05,1.29,2,0-.17-4.42.21-8.85-.34-13.24a1,1,0,0,0-1-1,1,1,0,0,0-1,1Z"/><path class="cls-1" d="M247.49,55.46c-4.39,6-7.7,12.78-12.09,18.82-.76,1,1,2,1.72,1,4.39-6,7.7-12.78,12.09-18.82.76-1-1-2-1.72-1Z"/><path class="cls-1" d="M232,51.85c1.39,8.22,3,16.42,3.37,24.76.06,1.29,2.06,1.29,2,0-.38-8.52-2-16.9-3.44-25.29-.21-1.27-2.14-.73-1.93.53Z"/><path class="cls-3" d="M223.59,34.9a7.81,7.81,0,0,1-1-.62c-.46-.32-.92-.66-1.38-1l-1.37-1a7.93,7.93,0,0,0-1-.62.5.5,0,1,0-.5.86,6.89,6.89,0,0,1,1,.63c.47.32.92.65,1.38,1s.91.67,1.38,1a7.89,7.89,0,0,0,1,.63.51.51,0,0,0,.68-.18.51.51,0,0,0-.18-.69Z"/><path class="cls-3" d="M229.87,28.59a16.26,16.26,0,0,1-2.37-6,.49.49,0,0,0-.61-.35.52.52,0,0,0-.35.62A17.13,17.13,0,0,0,229,29.1c.35.54,1.22,0,.87-.51Z"/><path class="cls-3" d="M237.44,26.11c.49-1.31.09-2.74.58-4a.5.5,0,0,0-.35-.62.51.51,0,0,0-.61.35c-.49,1.31-.09,2.74-.58,4a.5.5,0,0,0,.35.62.5.5,0,0,0,.61-.35Z"/><path class="cls-1" d="M222.47,395.49c3.75-11.81,15.87-18.52,27.74-19.13a33.43,33.43,0,0,1,18.09,4.08,33.85,33.85,0,0,1,14.09,15.12,22.68,22.68,0,0,1,0,19.76c-3.27,6.44-9.27,11.05-15.73,14-14.25,6.56-32.95,5.55-43-7.73-4.21-5.57-6.46-12.84-4.83-19.75,1.52-6.49,6.1-12.63,12.44-15.06a16.13,16.13,0,0,1,4.8-1.06c1.92-.13,1.93-3.13,0-3-7.65.49-14.2,5.49-17.77,12.13a25.35,25.35,0,0,0-.71,22.25,31.66,31.66,0,0,0,16,16.15c8.45,3.73,18.06,3.86,26.9,1.45,7.79-2.12,15.45-6.19,20.74-12.41a25.55,25.55,0,0,0,5.92-21.56c-2.83-14.83-16.93-25.88-31.57-27.27C242.56,372.24,227.9,378,221.54,390a28.68,28.68,0,0,0-2,4.72c-.58,1.84,2.31,2.63,2.9.8Z"/><path class="cls-1" d="M273.88,427.29c4.52,13.09,6.58,26.85,9,40.44l2.51-1.46a38,38,0,0,0-12.69-10,1.54,1.54,0,0,0-2.21.89q-2.46,6.47-5.5,12.68h2.59a99,99,0,0,1-9.28-34.23c-.17-1.91-3.17-1.93-3,0A102.91,102.91,0,0,0,265,471.3a1.51,1.51,0,0,0,2.59,0q3.21-6.56,5.81-13.39l-2.21.9a36,36,0,0,1,12.09,9.58c1,1.28,2.73-.16,2.5-1.46-2.38-13.59-4.44-27.35-9-40.43-.62-1.82-3.52-1-2.89.79Z"/><path class="cls-1" d="M225.13,427.64c-3.92,13.52-5.77,27.54-9.69,41.06-.4,1.38,1.51,2.62,2.5,1.46a54.69,54.69,0,0,1,6.3-6.25,27.15,27.15,0,0,1,3.58-2.74c1.24-.71,2.51.08,3.7.58a47.05,47.05,0,0,1,6.27,3.14c1.54.94,3.61,2.2,4.3,4a1.51,1.51,0,0,0,2.95-.4c.88-11.2,1.68-22.39,2.56-33.58.15-1.93-2.85-1.92-3,0-.88,11.19-1.68,22.38-2.56,33.58l2.94-.4c-.91-2.34-2.88-3.95-4.93-5.29a47.16,47.16,0,0,0-7.7-3.9c-1.41-.59-2.85-1.28-4.41-.95s-3,1.59-4.23,2.58a54.63,54.63,0,0,0-7.89,7.54l2.51,1.46C222.25,456,224.1,442,228,428.44a1.5,1.5,0,0,0-2.89-.8Z"/><path class="cls-1" d="M221.41,424.3c10.05,9.2,24.43,12.91,37.76,10.6,6.49-1.13,13.18-3.65,17.53-8.79a37.16,37.16,0,0,0,5.62-9.6,24,24,0,0,0,2.24-11.23c-.57-7.3-2-15.55-7.52-20.86-1.39-1.34-3.52.78-2.13,2.12,4.44,4.29,5.83,10.89,6.47,16.8a22.21,22.21,0,0,1-1.07,10.13,37.59,37.59,0,0,1-4.84,9.38c-3.63,5-9.37,7.5-15.27,8.79a42.52,42.52,0,0,1-18.48-.14,40,40,0,0,1-18.19-9.32c-1.42-1.3-3.55.82-2.12,2.12Z"/><path class="cls-1" d="M242.7,435.45c7.29-.2,14.68-.42,21.79-2.2,5.52-1.39,12.08-3.93,13.87-9.92.55-1.86-2.35-2.65-2.9-.8-1.58,5.28-8.41,7.1-13.12,8.14-6.44,1.43-13.08,1.6-19.64,1.78-1.93.05-1.94,3.05,0,3Z"/><path class="cls-2" d="M247.67,397.69a45,45,0,0,1,3.29-8.84h-1.73a58.15,58.15,0,0,1,3.74,8.88c.4,1.22,2.33.7,1.93-.53a61,61,0,0,0-3.94-9.36,1,1,0,0,0-1.73,0,47.54,47.54,0,0,0-3.49,9.32,1,1,0,0,0,1.93.53Z"/><path class="cls-2" d="M253.83,398.64c4.14.77,8.35,1.16,12.53,1.55,1.28.12,1.27-1.88,0-2-4-.38-8-.74-12-1.48-1.26-.24-1.8,1.69-.54,1.93Z"/><path class="cls-2" d="M246.1,397c-3.9.6-7.71,1.62-11.67,1.75-1.28.05-1.29,2.05,0,2,4.13-.14,8.13-1.19,12.2-1.82a1,1,0,0,0,.7-1.23,1,1,0,0,0-1.23-.7Z"/><path class="cls-2" d="M233.72,400.42c1.38,1.33,2.83,2.58,4.26,3.86.72.65,1.43,1.3,2.13,2,.39.37,1.13.89,1.34,1.41.06.15,0,.06,0,0s-.08.39-.07.38c-.15.4-.22.85-.36,1.26-.36,1-.8,2-1.25,3a34.91,34.91,0,0,0-2.35,5.53,1,1,0,0,0,1.47,1.13c2.44-1.1,4.79-2.37,7.17-3.6,1.13-.58,2.27-1.17,3.41-1.73a6.09,6.09,0,0,0,1-.49c.25-.2-.25.05-.25-.05,0,.07,1.68.78,2,.93,1.19.57,2.37,1.15,3.54,1.73,2.15,1.07,4.32,2.12,6.42,3.28a1,1,0,0,0,1.46-1.13c-.49-2.46-1.94-4.62-3.14-6.78-.64-1.15-1.09-2.33-1.61-3.52-.24-.53,0-.46-.27-.07.08-.11-.11,0,0,0s.42-.42.56-.55c2.51-2.33,5.31-4.33,7.84-6.64,1-.87-.46-2.28-1.41-1.41-2.65,2.42-5.75,4.42-8.24,7-1.32,1.38-.05,3.42.68,4.86,1.26,2.49,3.09,4.86,3.66,7.64l1.46-1.13c-2.26-1.25-4.6-2.38-6.92-3.53-1.2-.59-2.4-1.18-3.6-1.75a9.55,9.55,0,0,0-1.9-.86,2.92,2.92,0,0,0-1.81.5c-1.14.54-2.27,1.13-3.39,1.71-2.55,1.31-5.08,2.69-7.69,3.86l1.47,1.13a43.22,43.22,0,0,1,2.62-6.11c.61-1.39,2-3.87,1.31-5.41-.62-1.34-2.25-2.48-3.31-3.43-1.6-1.46-3.26-2.87-4.82-4.38-.93-.9-2.34.51-1.42,1.41Z"/></svg>