<svg xmlns="http://www.w3.org/2000/svg" viewBox="0 0 144.66 481.52"><defs><style>.cls-1{fill:#497ebf;}</style></defs><g id="Warstwa_2" data-name="Warstwa 2"><path class="cls-1" d="M11.93,254.06c17.18,12.86,38.23,20.52,59.86,19.47,21.4-1,41.05-10.24,56.79-24.54,3.19-2.91.36-7.26-3.19-7.69l-29.84-3.56v9q15.66.48,31.25,2l-4.34-5.69c-2.24,9.48-7.86,17.57-10.11,27.07-1.33,5.64,7.34,8,8.68,2.4,2.24-9.49,7.86-17.58,10.11-27.08.72-3.06-1.39-5.41-4.34-5.7q-15.58-1.53-31.25-2c-5.92-.18-5.59,8.33,0,9l29.84,3.56-3.18-7.68c-14.3,13-32.4,21.38-51.87,22-19.71.59-38.24-6.61-53.87-18.3-4.64-3.48-9.13,4.33-4.54,7.77Z"/></g></svg>