<svg xmlns="http://www.w3.org/2000/svg" viewBox="0 0 390.07 481.52"><defs><style>.cls-1{fill:#497ebf;}.cls-2{fill:#ee7800;}.cls-3{fill:#55beed;}.cls-4{fill:#497ec0;}</style></defs><g id="Warstwa_2" data-name="Warstwa 2"><path class="cls-1" d="M203.14,193.81C218,176.74,233,159.73,249.25,144a333.06,333.06,0,0,1,25.47-22.3,152.79,152.79,0,0,1,26.91-17.44c9.36-4.59,19.56-7.74,30-8,3.91-.11,9.22.12,11.46,3.94,1.16,2,1.21,4.41,1.13,6.65-.11,2.77-.42,5.55-.8,8.29-3.07,22.48-12.48,43.5-22.59,63.59q-16,31.82-34.65,62.22c-1.5,2.45-3,4.89-4.54,7.32-1.38,2.19,2.08,4.2,3.45,2q19.51-31.12,36.3-63.84c10.6-20.67,20.88-42.08,25.06-65.11.54-2.92,1-5.86,1.29-8.82a48.57,48.57,0,0,0,.47-8.08,13,13,0,0,0-2.31-7.2,11.78,11.78,0,0,0-5.68-3.95c-4.68-1.64-10.11-1.16-14.93-.54a75.32,75.32,0,0,0-15.85,3.86,120.51,120.51,0,0,0-28.64,15.57A283.47,283.47,0,0,0,254.05,134C236.88,149.71,221.27,167,206,184.46q-2.85,3.25-5.69,6.53c-1.68,1.93,1.14,4.77,2.83,2.82Z"/><path class="cls-1" d="M201,196.55a147.8,147.8,0,0,1,37,12.18,149.45,149.45,0,0,1,16.84,9.56,80.74,80.74,0,0,1,13.64,10.86c4.42,4.55,7.94,9.91,9.33,16.16.56,2.51,4.42,1.45,3.86-1.07-2.68-12-12.24-20.74-21.94-27.46A151,151,0,0,0,202,192.69c-2.52-.47-3.6,3.38-1.06,3.86Z"/><path class="cls-1" d="M280,248l.37.86a1.48,1.48,0,0,0,.52.56,1.45,1.45,0,0,0,.68.36,1.42,1.42,0,0,0,.79,0,1.45,1.45,0,0,0,.75-.24l.4-.31a2.08,2.08,0,0,0,.52-.88l.07-.54a1.93,1.93,0,0,0-.28-1l-.37-.86a1.53,1.53,0,0,0-.51-.56,1.5,1.5,0,0,0-.68-.36,1.56,1.56,0,0,0-.8,0,1.53,1.53,0,0,0-.75.23l-.4.32a1.91,1.91,0,0,0-.51.88l-.08.53a2.1,2.1,0,0,0,.28,1Z"/><path class="cls-1" d="M200.1,196.43c.17,4.55,1.2,9.76,6.29,11.07a9.22,9.22,0,0,0,10.2-4.19,2,2,0,0,0-3.14-2.42c-2.61,2.4-5.36,5.1-6,8.74a8.32,8.32,0,0,0,4,8.86c3.41,2.22,7,4.16,10.54,6.22,1.65,1,3.41,2.29,5.43,1.76,1.67-.45,3.11-1.8,4.4-2.9a37.08,37.08,0,0,0,7.83-9.4c1.31-2.22-2.15-4.23-3.46-2a33.38,33.38,0,0,1-6.88,8.32,23.14,23.14,0,0,1-2.06,1.64c-.9.63-1,.44-2-.11-1.84-1.07-3.67-2.16-5.5-3.23s-3.63-2.12-5.43-3.2c-1.38-.83-2.79-1.74-3-3.46-.49-3.53,2.69-6.27,5-8.39l-3.15-2.43a5.13,5.13,0,0,1-5.68,2.35c-3.14-.81-3.25-4.55-3.35-7.21s-4.09-2.58-4,0Z"/><path class="cls-1" d="M281.88,246.77a24.65,24.65,0,0,1-11-2.05l.92,2.25a41.78,41.78,0,0,1,4.22-8.88l-3.66-1.54a53.81,53.81,0,0,1-2.34,5.81q-.68,1.42-1.44,2.82c-.2.37-.73,1.73-1.14,1.85-.26.08-.91-.37-1.16-.49l-1.77-.85-3.09-1.49-6-2.88-6-2.87c-.51-.25-1.87-.65-2.19-1.2s.34-1.25.62-1.77l6.32-12c1.21-2.27-2.24-4.29-3.45-2l-6,11.33c-.92,1.74-2.14,3.58-1.41,5.62.62,1.74,2.3,2.6,3.86,3.35l11.7,5.65c2,.95,3.94,1.95,5.94,2.86,1.83.83,3.86,1.12,5.4-.45s2.39-3.81,3.27-5.68a65.16,65.16,0,0,0,2.65-6.56c.76-2.21-2.49-3.41-3.65-1.54a46,46,0,0,0-4.62,9.84,2,2,0,0,0,.92,2.26,28.89,28.89,0,0,0,13.05,2.6c2.56-.1,2.58-4.1,0-4Z"/><path class="cls-1" d="M230.86,228.31l15.3,8.3c2.26,1.22,4.28-2.23,2-3.46l-15.3-8.3c-2.26-1.23-4.29,2.23-2,3.46Z"/><path class="cls-1" d="M279.48,155.44c2.2-.65,4.6-1.44,6.92-.94a8.51,8.51,0,0,1,4.3,2.43,9.36,9.36,0,0,1,2.42,9.34,10.35,10.35,0,0,1-7.28,6.3,9.9,9.9,0,0,1-9.69-2.68c-2.86-3-3.14-8.32.58-10.8,1.6-1.06.1-3.66-1.51-2.59a10,10,0,0,0-3.07,12.93,12.64,12.64,0,0,0,12,6.45A13.91,13.91,0,0,0,295.18,169a11.92,11.92,0,0,0-1-12.56,12.34,12.34,0,0,0-6-4.57c-3.14-1.05-6.41-.22-9.47.69-1.85.55-1.06,3.44.8,2.89Z"/><path class="cls-1" d="M213.78,212.17a1.31,1.31,0,0,1-.21-1l-1.89,1.45a43.28,43.28,0,0,1,15.25,10L228,220a40.84,40.84,0,0,1-12.22-3.33c-2.4-1.08-7.76-3.37-6.93-6.86l-1.84,1a21.8,21.8,0,0,1,16.7,14.67l1.85-1.85a44.83,44.83,0,0,1-15.85-7.53,31,31,0,0,1-2.45-2,3.76,3.76,0,0,1-.89-1,.94.94,0,0,1-.16-.45c-.08.14,0,.16.12.07a5.58,5.58,0,0,1,2.37,0,14.52,14.52,0,0,1,2.36.48,16.72,16.72,0,0,1,10.82,9.56,1.5,1.5,0,0,0,2,.54,1.54,1.54,0,0,0,.54-2,19.49,19.49,0,0,0-15-11.44c-1.55-.21-3.42-.47-4.82.37a3.14,3.14,0,0,0-.83,4.39c.92,1.61,2.65,2.75,4.1,3.84a46.86,46.86,0,0,0,4.74,3.14,48.38,48.38,0,0,0,12.14,4.93,1.51,1.51,0,0,0,1.84-1.85A24.8,24.8,0,0,0,207.8,208,1.54,1.54,0,0,0,206,209c-1.14,4.76,3.48,7.92,7.18,9.72A45.06,45.06,0,0,0,228,223c1.34.14,1.9-1.71,1.06-2.57a46.93,46.93,0,0,0-16.58-10.71c-1-.38-1.81.57-1.9,1.44a3.93,3.93,0,0,0,.62,2.54c1,1.63,3.61.13,2.59-1.52Z"/><path class="cls-1" d="M249,239.36a15.94,15.94,0,0,1,9.58,2.62,15.34,15.34,0,0,1,3.7,3.4c.31.4,1.34,1.57,1.22,2.1,0,.13,0,0-.17.12a2.07,2.07,0,0,1-1,.1,12.52,12.52,0,0,1-4.71-1.69,22.21,22.21,0,0,1-4.57-3.17c-1-.93-2.21-1.93-2.37-3.39,0-.23,0-.16-.15,0,.28-.16.94.19,1.22.3a12.85,12.85,0,0,1,2.28,1.08,14.7,14.7,0,0,1,6.65,8.66l1.85-1.84a23.36,23.36,0,0,1-13.67-9.95l-1.29,2.26a23.91,23.91,0,0,1,22.21,10.9c1,1.64,3.62.13,2.59-1.51a26.88,26.88,0,0,0-24.8-12.39,1.51,1.51,0,0,0-1.3,2.25,26.51,26.51,0,0,0,15.46,11.33,1.52,1.52,0,0,0,1.85-1.85,17.79,17.79,0,0,0-8.48-10.7c-1.83-1-4.83-2.52-6.61-.69-1.42,1.45-.77,3.87.24,5.35a19.4,19.4,0,0,0,5.55,4.93,20.39,20.39,0,0,0,6.81,3c1.89.38,4.36.1,5.17-1.94.9-2.27-1.26-4.71-2.69-6.26a18.88,18.88,0,0,0-14.61-6c-1.92.1-1.93,3.1,0,3Z"/><path class="cls-2" d="M278,119.15a65.09,65.09,0,0,1,27.91,2.25c8.4,2.56,17.1,6.76,23,13.39,3.07,3.42,5.2,7.64,5.12,12.32,0,1.93,3,1.93,3,0,.17-9.3-6.94-16.64-14.3-21.31a68.11,68.11,0,0,0-45.58-9.55c-1.9.27-1.09,3.16.8,2.9Z"/><path class="cls-2" d="M331.56,161.14a136.57,136.57,0,0,1-5.91,49.32,132.33,132.33,0,0,1-5,13.37l2.05-.54a50.51,50.51,0,0,1-15.63-10.79c-1.36-1.38-3.48.74-2.12,2.12a52.55,52.55,0,0,0,16.24,11.26,1.51,1.51,0,0,0,2-.54,139.6,139.6,0,0,0,11.44-49.56,137.48,137.48,0,0,0-.16-14.64c-.12-1.92-3.12-1.93-3,0Z"/><path class="cls-2" d="M261.06,123.33a110.66,110.66,0,0,0-24,8.7,109.09,109.09,0,0,0-11.3,6.5c-1.75,1.16-3.47,2.36-5.16,3.62-1.53,1.15-3.09,2.51-2.32,4.63a8.49,8.49,0,0,0,1.87,2.59c.84.94,1.72,1.86,2.63,2.74a62.1,62.1,0,0,0,5.72,4.9c1.54,1.17,3-1.44,1.52-2.59a48.11,48.11,0,0,1-8.49-8c-.17-.22-.5-.52-.42-.82s.77-.67,1-.85c.75-.56,1.52-1.12,2.28-1.66q2.31-1.62,4.7-3.14a107.59,107.59,0,0,1,20.49-10.06,108.94,108.94,0,0,1,12.28-3.66c1.87-.44,1.08-3.34-.8-2.89Z"/><path class="cls-1" d="M240.59,255a294.06,294.06,0,0,0-18.22,26.5q-4.29,7.09-8,14.52a96.06,96.06,0,0,0-6.45,15.35,35.44,35.44,0,0,0-1.45,15.7c.71,4.33,3.35,8.94,8.35,8.73s8.95-4.6,11.69-8.45A41.43,41.43,0,0,0,233.3,313a18.92,18.92,0,0,0,.19-8.63c-.52-2.19-1.78-4.5-4.09-5.15-2.13-.59-4.23.8-5.54,2.37a11.11,11.11,0,0,0-2.63,7.26c.05,2.57,4.05,2.58,4,0a7,7,0,0,1,1.67-4.68,3.71,3.71,0,0,1,1.15-1c.16-.08.38-.07.28-.1a1.22,1.22,0,0,1,.42.29c1.1,1.13,1.17,3.36,1.16,4.83a20.65,20.65,0,0,1-1.25,6.5,40.19,40.19,0,0,1-6.61,11.95c-1.81,2.24-6,6.87-9.27,4.66-2.79-1.88-2.78-6.83-2.67-9.76A42.47,42.47,0,0,1,213.26,308c3.41-8.9,8.2-17.39,13.15-25.51A299.31,299.31,0,0,1,244,257a2,2,0,0,0-.72-2.73,2,2,0,0,0-2.73.72Z"/><path class="cls-1" d="M226.76,242.94q-20.74,31.9-40,64.76c-12.86,22-25.28,44.22-37,66.79A351.1,351.1,0,0,0,134.13,408c-4.3,10.89-8.85,22.93-7.92,34.85a27.26,27.26,0,0,0,5.68,15.08,31.53,31.53,0,0,0,11.56,8.76c5.18,2.4,11.12,3.75,16.72,2,4.93-1.54,8.79-5.16,11.5-9.47,5.71-9.11,6.4-21.41,1.32-30.95-2.4-4.5-6.51-8.53-11.74-9.25s-9.82,2.38-12.26,6.88a16.85,16.85,0,0,0-2,7.7c0,2.57,4,2.57,4,0,.08-4.08,2.37-9.07,6.56-10.38,4.57-1.42,8.84,2,11.16,5.63,5.28,8.32,4.75,19.74-.29,28-2.32,3.82-5.7,7.07-10.12,8.19-5.06,1.28-10.37-.44-14.82-2.83a26,26,0,0,1-9.74-8.55,25.24,25.24,0,0,1-3.62-14.25A60.65,60.65,0,0,1,133,423.24c1.66-5.55,3.7-11,5.87-16.37,4.36-10.74,9.53-21.12,14.89-31.38q16.55-31.64,34.58-62.47t37.14-60.71q2.37-3.67,4.75-7.35c1.41-2.16-2.05-4.17-3.45-2Z"/><path class="cls-1" d="M213.63,234.8l-53.37,79.87c-4.07,6.09-8,12.42-12.72,18-4,4.7-8.82,9.12-15,10.62-5.19,1.28-10.85,0-14.13-4.46-3.07-4.17-3.77-9.77-3.21-14.8.67-6,3.59-11.86,8.75-15.18a16.62,16.62,0,0,1,16.79-.86c2.27,1.21,4.29-2.24,2-3.46a20.5,20.5,0,0,0-17.31-.93A22.79,22.79,0,0,0,113,316.67c-4.14,10.63-1.85,26.64,10.6,30.4,6.2,1.88,13.09-.06,18.28-3.67,6.08-4.22,10.64-10.19,14.81-16.22,9.62-13.9,18.82-28.1,28.21-42.15l28.62-42.83,3.6-5.38c1.43-2.15-2-4.15-3.46-2Z"/><path class="cls-1" d="M144.16,99.21,145,70.63l.43-14.16c.07-2.26,0-4.56.24-6.81a4.7,4.7,0,0,1,2.07-3.95,10.58,10.58,0,0,1,4.5-1.09c2.21-.16,4.42-.26,6.63-.38q7.17-.36,14.35-.57,14.12-.42,28.24-.22t28.46,1l7.17.45c1.76.12,3.92.06,5.4,1.19,2.61,2,2.46,6.66,2.73,9.57q1.26,14.18,1.53,28.42.12,7,0,14.11c0,1.51.2,3.69-.74,5s-3.33.91-4.73.91c-12.58,0-25.15-.14-37.73-.39l-6.35-.12c-2.57,0-2.57,4,0,4,13.56.25,27.11.54,40.68.52,3.92,0,9.5.92,11.75-3.19a12,12,0,0,0,1.1-5.49c.06-2.56.08-5.12.08-7.67q0-15-1.09-29.93-.28-3.82-.64-7.65a34.43,34.43,0,0,0-.86-5.89,10.13,10.13,0,0,0-2.77-4.91,10,10,0,0,0-5.75-2.27c-4.87-.56-9.83-.68-14.73-.92s-10.06-.44-15.09-.58q-15-.39-30-.11-7.56.15-15.1.47c-4.72.2-9.55.21-14.24.83-4,.51-7.54,2.35-8.55,6.52a32.3,32.3,0,0,0-.52,6.66l-.22,7.46-.92,30.31-.22,7.46c-.08,2.57,3.92,2.57,4,0Z"/><path class="cls-1" d="M193.8,107.31a152.63,152.63,0,0,1,7.44,17.94l2.94-2.26a113.17,113.17,0,0,1-21.82-12.63A35,35,0,0,0,177.5,107a14.43,14.43,0,0,0-6.24-1.38c-4.54-.12-9.1-.12-13.64-.18l-15.72-.21c-2.57,0-2.57,4,0,4l26.94.35c2,0,4.06-.12,5.94.57a19.77,19.77,0,0,1,4.83,3.12,115.22,115.22,0,0,0,10.22,6.85,114.58,114.58,0,0,0,12.33,6.32c1.44.63,3.56-.43,2.94-2.26a161.28,161.28,0,0,0-7.84-18.89c-1.14-2.31-4.59-.29-3.46,2Z"/><path class="cls-1" d="M191.76,41.82c1-6.09,1.82-14.56-3.37-19.11-3.37-3-7.78-2.78-12-2.8l-13.88-.05-45.7-.18-29.7-.11c-2.57,0-2.58,4,0,4l47,.18,21.81.09,12.27,0,6.75,0c2.2,0,4.45-.11,6.65.11,8,.81,7.29,10.89,6.32,16.73a2.05,2.05,0,0,0,1.39,2.46,2,2,0,0,0,2.46-1.39Z"/><path class="cls-1" d="M87.6,19.74c-2.88-1.07-6,.89-7.17,3.52-1.38,3-.94,6.62-.87,9.86q.22,11.13.59,22.25t.9,22.24c.13,2.89.1,6.41,2.49,8.48s6.2,1.89,9.2,2.12a226.85,226.85,0,0,0,25,.53l-1.42-3.42a88.88,88.88,0,0,1-15.71,15.78,2,2,0,0,0,0,2.83,2.06,2.06,0,0,0,2.83,0,88.88,88.88,0,0,0,15.71-15.78c1-1.26.5-3.48-1.41-3.41q-9.81.33-19.62-.18c-3.22-.17-6.47-.34-9.68-.73a3.24,3.24,0,0,1-2.64-1.22,7,7,0,0,1-.68-3.16c-.78-13.11-1.1-26.27-1.42-39.4-.08-3.61-.18-7.21-.22-10.81,0-1.64.12-6.73,3.05-5.64,2.41.89,3.46-3,1.06-3.86Z"/><path class="cls-2" d="M179.58,71.37l8.71,11.45c1.24,1.63,2.59,4.26,5.06,3.74,2-.41,3.24-2.59,4.42-4.06a176.92,176.92,0,0,0,15.1-22.09c1.3-2.23-2.16-4.25-3.45-2q-3.81,6.6-8.17,12.84-2.12,3-4.36,6c-.78,1-1.58,2-2.38,3-.34.42-1.67,2.43-2,2.39l1,.27c-.87-.4-1.74-2.09-2.33-2.86l-2.7-3.55L183,69.35a2.07,2.07,0,0,0-2.74-.72,2,2,0,0,0-.71,2.74Z"/><path class="cls-1" d="M102.85,47.56l23.3-.92c.64,0,.64-1,0-1l-23.3.92c-.64,0-.64,1,0,1Z"/><path class="cls-1" d="M103.39,53.58l20-.24a.5.5,0,0,0,0-1l-20,.24a.5.5,0,0,0,0,1Z"/><path class="cls-1" d="M103.9,60.12l20.65-.53a.5.5,0,0,0,0-1l-20.65.53c-.64,0-.64,1,0,1Z"/><path class="cls-1" d="M140,247.68c-2.73-4.71-5.81-9.33-7.29-14.56a45.25,45.25,0,0,1-1.61-9.25,37.76,37.76,0,0,1,1.09-10.64c1.67-7.42,4.21-14.6,4.52-22.26a52.61,52.61,0,0,0-3.17-21.1,39.71,39.71,0,0,0-19.85-21.54,44.86,44.86,0,0,0-24.16-3.68,57.72,57.72,0,0,0-23.9,8.42,51.67,51.67,0,0,0-17.44,17.65A39.81,39.81,0,0,0,43,194.78c1.12,10.29,6.06,20.14,12.94,27.8a38.14,38.14,0,0,0,12,8.93,89.78,89.78,0,0,0,12.74,4.54,67,67,0,0,1,12.66,4.89,45.56,45.56,0,0,1,13,10.76,70.48,70.48,0,0,1,6.47,9.14c1.5,2.47,5.39.21,3.88-2.27a64.73,64.73,0,0,0-13.09-16,48.9,48.9,0,0,0-13.36-8c-8.06-3.29-16.81-4.53-24.11-9.19a37.64,37.64,0,0,1-10.67-10.74,48.51,48.51,0,0,1-6.45-13,35.39,35.39,0,0,1-1.68-12.25,34.52,34.52,0,0,1,2.34-11.2c.35-.92.53-1.33,1-2.34s.86-1.73,1.34-2.57a43.34,43.34,0,0,1,3.2-4.86c.16-.2,0-.05,0,0l.29-.37.44-.55c.32-.39.65-.78,1-1.16q1-1.11,2-2.16a51.94,51.94,0,0,1,4.42-4A53.78,53.78,0,0,1,68,156.89,57.36,57.36,0,0,1,73.31,154a52.87,52.87,0,0,1,11.11-3.9,43.6,43.6,0,0,1,22.7.49,35,35,0,0,1,18.81,14.14,41,41,0,0,1,6.2,19.2,52.26,52.26,0,0,1-.15,10.61A79.63,79.63,0,0,1,129.69,205c-1.9,7.12-3.74,14.23-2.75,21.65a44.34,44.34,0,0,0,4.79,15.62c1.4,2.61,2.94,5.14,4.43,7.7s5.34.24,3.88-2.27Z"/><path class="cls-1" d="M117.47,264.12c5.8-2.38,11.6-4.78,17.4-7.15a14.57,14.57,0,0,1,1.71-.63,3.33,3.33,0,0,1,.62-.1s0-.45-.17-.16c0,0-.15-.44-.15-.44,1.18.14-.25.43,0,.24-.3.26-.11.3-.61.51a9.88,9.88,0,0,1-3.3.35c-1.61.09-3.22.27-4.82.52a41.77,41.77,0,0,0-8.29,2.15c-2.5.93-5.22,2.36-5.13,5.44a4,4,0,0,0,1.85,3.33,5.7,5.7,0,0,0,4.26.26,31.59,31.59,0,0,0,6.92-2.55c4.16-2,8.11-4.63,12.64-5.7,1.71-.41,4.05-.73,5.71,0a2.49,2.49,0,0,0,.33.16l.23.23-.16-.29c-.27-.1.82-.51-.11,0a8.89,8.89,0,0,1-2.51,1c-5.37,1.23-11,1.2-16.17,3.32a18.61,18.61,0,0,0-6.49,4.16c-1.9,2-4.12,5.67-.78,7.53,1.46.82,3.24.36,4.78.1a46.41,46.41,0,0,0,4.64-1.05,50.48,50.48,0,0,0,9-3.49c4.92-2.45,11-7.29,9-13.55-1-3-5.82-1.74-4.82,1.33,1.27,3.92-4.28,6.75-7.06,8.1a44.15,44.15,0,0,1-6.78,2.61c-1.23.36-2.48.67-3.73.93-.67.14-1.34.26-2,.37l-.72.11c-.44.08-.45-.21,0,.07l.9.89c.83,1.08-.26,1,.33.53a4.76,4.76,0,0,0,.31-.39,10.21,10.21,0,0,1,.91-.95,11.35,11.35,0,0,1,2.06-1.53,19.6,19.6,0,0,1,5.12-2c4.5-1.16,9.23-1.16,13.71-2.42a8,8,0,0,0,4.75-3.16,4.71,4.71,0,0,0-.72-5.81c-2.72-2.77-7.76-2.41-11.19-1.55-3.69.91-7.08,2.79-10.43,4.53a56.11,56.11,0,0,1-5.06,2.45,23.88,23.88,0,0,1-2.46.86q-.63.18-1.26.33a5.75,5.75,0,0,0-.72.15.47.47,0,0,1-.23,0q-.73-.08,1,.84c.09,0-.07.28,0,.27s.51-.27.73-.37a29.14,29.14,0,0,1,3.14-1.09,40.11,40.11,0,0,1,6.59-1.43c4-.5,9.66.33,11.39-4.47a4.6,4.6,0,0,0-2.69-6c-2.47-.84-4.93.46-7.17,1.38l-15.56,6.4a2.58,2.58,0,0,0-1.75,3.07,2.51,2.51,0,0,0,3.07,1.75Z"/><path class="cls-3" d="M160,161.42c2.47,1,5.15,2.55,5.77,5.33a7.38,7.38,0,0,1-1.21,5.37,10,10,0,0,1-1.64,2l.7.7c2.59-2.53,5.92-4.19,9.55-3.1a15.85,15.85,0,0,1,6.5,4.42c.33.33,1,0,.84-.48-.62-1.51-1.65-2.81-2.21-4.34a4.24,4.24,0,0,1,1.17-5.08,13.73,13.73,0,0,1,5.54-2.35c.57-.13.41-.94-.14-1a12.35,12.35,0,0,1-8.19-3.24,9.92,9.92,0,0,1-2.66-7.3h-1c.2,2.42-1.64,4.76-3.4,6.2a10.12,10.12,0,0,1-9.35,1.86.5.5,0,0,0-.27,1,11.12,11.12,0,0,0,8.37-.79,11.41,11.41,0,0,0,5-5.15,6.32,6.32,0,0,0,.66-3.08.5.5,0,0,0-1,0,10.91,10.91,0,0,0,2.95,8,13.36,13.36,0,0,0,8.9,3.54l-.13-1c-2.79.68-6.57,1.85-7.61,4.9-.67,2,.2,4,1.13,5.75a26.1,26.1,0,0,1,1.28,2.34l.84-.48c-3.31-3.38-7.84-6.33-12.71-4.52a13.7,13.7,0,0,0-4.75,3.2c-.46.45.23,1.14.7.7,3.09-2.86,4.61-7.87,1.56-11.3a12.46,12.46,0,0,0-4.91-3.09c-.6-.23-.86.73-.27,1Z"/><path class="cls-3" d="M316.08,389.43c2.59-.45,5.72-.47,7.68,1.58a7.39,7.39,0,0,1,1.74,5.24,9.72,9.72,0,0,1-.36,2.57l1,.26c.72-2.78,2.11-5.5,4.75-6.89a11.1,11.1,0,0,1,6.43-.9,25.57,25.57,0,0,1,3.25.64.5.5,0,0,0,.38-.91c-1.28-.95-2.81-1.52-4.06-2.54a4.2,4.2,0,0,1-1.59-4.9,13.63,13.63,0,0,1,3.53-4.88.5.5,0,0,0-.6-.79,12.39,12.39,0,0,1-8.7,1.45,9.9,9.9,0,0,1-6-4.88l-.87.51a7,7,0,0,1,.78,5.25,10.56,10.56,0,0,1-3.36,6.07,10.22,10.22,0,0,1-4.19,2.15.5.5,0,0,0,.27,1,11.1,11.1,0,0,0,6.76-5,11.39,11.39,0,0,0,1.62-7,6.14,6.14,0,0,0-1-3c-.37-.51-1.19-.06-.87.51a11,11,0,0,0,6.65,5.34,13.5,13.5,0,0,0,9.46-1.55l-.61-.79c-2.05,2-4.73,5-4,8.19.46,2,2.26,3.31,3.93,4.29a27.23,27.23,0,0,1,2.39,1.41l.38-.91c-4.55-1.19-9.94-1.4-13.19,2.63a13.5,13.5,0,0,0-2.46,5.22.5.5,0,0,0,1,.26c1.17-4-.09-9.13-4.49-10.5a12.49,12.49,0,0,0-5.8-.12c-.63.11-.36,1.08.27,1Z"/><path class="cls-3" d="M280.66,77.2c1.14.62,2,1.58,1.7,3a4.47,4.47,0,0,1-1.52,2.25l.7.71c1-.86,2.38-1.58,3.71-1a5.32,5.32,0,0,1,2.07,1.95.5.5,0,0,0,.91-.38,10,10,0,0,1-.59-2.45c.07-1.5,1.86-1.95,3.06-2.18.47-.08.49-.89,0-1a4.07,4.07,0,0,1-2.86-1.5,4,4,0,0,1-.51-3l-1-.13a3.81,3.81,0,0,1-1.71,2.37,3.68,3.68,0,0,1-3.59.47c-.6-.24-.86.73-.27,1a4.64,4.64,0,0,0,4.47-.64,4.78,4.78,0,0,0,2.1-3.16.51.51,0,0,0-1-.13,5,5,0,0,0,.62,3.79,4.92,4.92,0,0,0,3.45,2v-1c-1.58.3-3.51,1-3.76,2.82-.15,1.09.38,2,.6,3l.91-.38a6.13,6.13,0,0,0-2.74-2.45c-1.68-.63-3.33.21-4.6,1.28-.5.42.21,1.11.7.71a5.14,5.14,0,0,0,1.84-3c.3-1.71-.77-3-2.21-3.78-.57-.31-1.07.56-.51.86Z"/><path class="cls-3" d="M351.91,165.64c1.19-.47,2.52-.59,3.36.54a4.31,4.31,0,0,1,.77,2.61h1c0-1.37.3-2.87,1.64-3.53a5.37,5.37,0,0,1,2.89-.32c.5.05.67-.71.25-.93a10.78,10.78,0,0,1-2.26-1.11c-1.14-1-.37-2.65.23-3.73a.5.5,0,0,0-.78-.61,4,4,0,0,1-3,1.17,4.09,4.09,0,0,1-2.62-1.61l-.71.71a3.76,3.76,0,0,1,.76,2.83,3.65,3.65,0,0,1-1.91,3.06c-.57.31-.07,1.17.5.87a4.67,4.67,0,0,0,2.4-3.82,4.74,4.74,0,0,0-1-3.65c-.46-.46-1.11.23-.71.71a4.53,4.53,0,0,0,7,.44l-.79-.6c-.79,1.41-1.52,3.33-.29,4.73a8.31,8.31,0,0,0,2.68,1.47l.25-.93a6,6,0,0,0-3.55.54c-1.54.87-2,2.65-2,4.31a.5.5,0,0,0,1,0,5.28,5.28,0,0,0-1.1-3.36,3.58,3.58,0,0,0-4.29-.76c-.6.24-.34,1.21.26,1Z"/><path class="cls-1" d="M223.12,382.42c3.1.44,6.36.9,9.4-.14s5.34-3.08,7.69-5a20.23,20.23,0,0,0,5.71-6.8,36.43,36.43,0,0,0,2.63-9.09A111.1,111.1,0,0,0,250.47,341c0-.75.07-1.54,0-2.29,0,0,.07-.37.08-.36l-.47.37a1.87,1.87,0,0,1,.32.15c.38.32.87.51,1.26.83a10,10,0,0,1,1.37,1.47,18.55,18.55,0,0,1,3,7.14c1.6,7.22.85,14.79.23,22.09-.22,2.56,3.78,2.55,4,0,.59-6.89,1.13-13.82.08-20.7-.8-5.29-2.86-11.77-8-14.36-1.44-.73-3.17-1-4.49.15a5,5,0,0,0-1.33,3.73c-.08,3.52-.06,7-.35,10.54a104.39,104.39,0,0,1-1.42,10.59c-.59,3.16-1.2,6.47-2.83,9.28-1.72,3-4.71,5.19-7.46,7.15a10.45,10.45,0,0,1-4.67,2.08,20.27,20.27,0,0,1-5.55-.28,2.07,2.07,0,0,0-2.46,1.4,2,2,0,0,0,1.4,2.46Z"/><path class="cls-1" d="M256.29,369.85c-.46,2.74-.67,5.81,1,8.23a8.45,8.45,0,0,0,5.88,3.68c3,.46,6.15.24,9.2.53,4,.37,7.92.79,11.88,1.15a2,2,0,0,0,2-2,2,2,0,0,0-2-2c-3.42-.31-6.84-.66-10.26-1-2.77-.27-5.49-.32-8.26-.43-1.92-.08-3.54-.32-4.85-1.79-.37-.41.19.32-.13-.16a5.19,5.19,0,0,1-.31-.5,3.34,3.34,0,0,1-.29-.79,9.3,9.3,0,0,1,0-3.86,2.06,2.06,0,0,0-1.4-2.46,2,2,0,0,0-2.46,1.4Z"/><path class="cls-1" d="M280.41,383l6.36.75a7.44,7.44,0,0,1,2.57.41c.46.28.55.94.6,1.44a18.77,18.77,0,0,1-.52,5.27c-.35,2-.75,4.07-1.18,6.09A147.9,147.9,0,0,1,281,420.73a136.42,136.42,0,0,1-5.81,12.51c-1.2,2.28,2.25,4.3,3.45,2a145.07,145.07,0,0,0,10.44-25.46c1.33-4.38,2.45-8.83,3.37-13.32.48-2.31.91-4.64,1.26-7a13.21,13.21,0,0,0-.05-5.77c-.75-2.41-2.64-3.44-5-3.74-2.73-.34-5.47-.65-8.2-1a2,2,0,0,0-2,2,2,2,0,0,0,2,2Z"/><path class="cls-1" d="M221,379.45a113.09,113.09,0,0,0-1.1,47.37c.49,2.52,4.35,1.45,3.86-1.07a108.11,108.11,0,0,1,1.1-45.23c.59-2.51-3.27-3.57-3.86-1.07Z"/><path class="cls-1" d="M222.36,428.83c7.18-1.6,14.38.33,21.15,2.73,7,2.47,13.78,5.6,21.1,6.86a33.28,33.28,0,0,0,12.62-.08c2.52-.52,1.45-4.38-1.06-3.85-7.2,1.5-14.41-.5-21.16-2.91-6.95-2.48-13.77-5.6-21.1-6.81a32.83,32.83,0,0,0-12.61.2c-2.51.56-1.45,4.42,1.06,3.86Z"/><path class="cls-1" d="M257.64,386.41a34.48,34.48,0,0,0-5.6,3.49c-1.65,1.25-2.69,2.87-2,5,1.36,4.27,6.77,4.3,10.39,4.78a108.91,108.91,0,0,0,14,1.16c4.28,0,9.08-.16,13.16-1.6,3.92-1.38,7.3-5.76,5.52-10.05a2.07,2.07,0,0,0-2.46-1.4,2,2,0,0,0-1.4,2.46,3.71,3.71,0,0,1-.77,3.9c-1.22,1.34-3.24,1.65-4.93,2a55.68,55.68,0,0,1-13.71.56,120.77,120.77,0,0,1-13.13-1.52,5.22,5.22,0,0,1-2.3-.79,1.24,1.24,0,0,1-.54-.69c0-.22,0-.24-.06-.05a3.73,3.73,0,0,1,.36-.32,43.23,43.23,0,0,1,5.53-3.44c2.3-1.15.28-4.6-2-3.45Z"/><path class="cls-1" d="M253.41,397.52a6.53,6.53,0,0,0-4.53,2.67,6.31,6.31,0,0,0-.19,5.88,7.42,7.42,0,0,0,3.83,3.53,50.87,50.87,0,0,0,6.32,2.32,60.45,60.45,0,0,0,26.87,1.73,2,2,0,0,0,1.39-2.46,2,2,0,0,0-2.46-1.39,55.83,55.83,0,0,1-21.2-.79,39.71,39.71,0,0,1-9.55-3.18,2.9,2.9,0,0,1-1.84-2.91c.21-1.18,1.43-1.35,2.42-1.55,2.52-.5,1.46-4.35-1.06-3.85Z"/><path class="cls-1" d="M252,407.88c-3,1.52-5.66,5.45-2.69,8.41a20,20,0,0,0,4.44,2.84c1.64.91,3.32,1.76,5,2.52A50,50,0,0,0,280.11,426c2.58,0,2.58-4,0-4A45.8,45.8,0,0,1,263,419.08a58.46,58.46,0,0,1-7.93-3.83c-.63-.37-1.27-.74-1.89-1.12-.3-.18-1.05-.49-1.11-.93-.11-.83,1.45-1.59,2-1.87,2.29-1.16.27-4.62-2-3.45Z"/><path class="cls-1" d="M253.23,419c-2.33-3.4-6.8-2.37-8.09,1.37-1.36,4,1.6,6.8,4.47,9,6.07,4.63,13.5,6.9,20.92,8.28,2.52.47,3.6-3.39,1.07-3.86a52.35,52.35,0,0,1-15.5-5,26,26,0,0,1-6.41-4.6,2.43,2.43,0,0,1-.74-2.61c.11-.31.48-1.08.83-.57,1.45,2.11,4.91.11,3.45-2Z"/><path class="cls-1" d="M286.1,384.42c.17,0,.52.06.16,0a3.88,3.88,0,0,1,.49.11c.09,0,.55.22.14,0,.15.07.29.15.43.23s.45.37.12.08l.31.28s.37.43.23.25.13.2.15.24a4.53,4.53,0,0,1,.27.48s.24.56.12.24c.14.38.25.76.35,1.14,0,.13.06.56,0,0l0,.37c0,.31,0,.62,0,.94,0,.14,0,.27,0,.41.05-.48,0,0,0,.14-.07.35-.15.7-.25,1s-.22.7-.35,1,0-.07-.05.12-.16.34-.25.51-.33.6-.52.89-.2.31-.31.46c.22-.31-.13.16-.15.18a7.09,7.09,0,0,1-.77.78s-.4.34-.21.19-.33.22-.39.25a2.06,2.06,0,0,0-.72,2.74,2,2,0,0,0,2.74.72,12.19,12.19,0,0,0,5.31-9.79,8.78,8.78,0,0,0-1.59-5.27,6.59,6.59,0,0,0-5.23-2.82,2,2,0,0,0,0,4Z"/><path class="cls-1" d="M276,427.41c.08.13.16.25.23.38l.05.1c.09.19.07.13-.06-.17a3.62,3.62,0,0,0,.21.8l0-.23c0,.06,0,.12,0,.18s0,.33,0,.49,0,.25,0,.38c0,.42.08-.42,0,0a7.93,7.93,0,0,1-.21.84c0,.08,0,.16-.08.23l.08-.2c-.07.12-.12.25-.19.37s-.13.2-.19.3c-.18.29.33-.35,0,0-.07.08-.19.15-.24.23.26-.2.31-.24.14-.12l-.22.13a1,1,0,0,1-.23.12c.23-.09.23-.1,0,0s-.32.09-.48.12-.66.11-.38.07l-.38.05a8.17,8.17,0,0,0-2.57.65,5,5,0,0,0-2.85,3.6,2.17,2.17,0,0,0,.21,1.54,2,2,0,0,0,3.65-.48c0-.06.06-.54.13-.55-.13.27-.14.3,0,.11a1.62,1.62,0,0,1,.1-.18c.25-.42-.24.19,0-.06l.18-.19c.17-.13.13-.11-.1.07a3,3,0,0,1,.32-.21l.22-.12c.2-.09.15-.07-.13.05.06,0,.26-.09.34-.11a5.41,5.41,0,0,1,.55-.12c.23,0,.22,0,0,0l.24,0,.94-.12a8.23,8.23,0,0,0,1.12-.23,5.22,5.22,0,0,0,2.33-1.4c1.93-2.07,2.51-5.88.81-8.26a2.05,2.05,0,0,0-2.74-.72,2,2,0,0,0-.71,2.73Z"/><path class="cls-1" d="M220.08,373.28c-2.58,18.93-2.18,38,2.27,56.57.59,2.51,4.45,1.45,3.85-1.06a148,148,0,0,1-2.27-54.44,2.07,2.07,0,0,0-1.39-2.47,2,2,0,0,0-2.46,1.4Z"/><path class="cls-1" d="M222.86,427.91a5.79,5.79,0,0,1-.66.65c-.31.27.27-.15-.12.09l-.36.24c-.28.17-.58.33-.87.48l-.52.24c.34-.15-.24.09-.25.1a24.74,24.74,0,0,1-4.64,1.21l-.89.13c-.39.05-.79.09-1.19.12-.79.07-1.58.12-2.38.13s-1.36,0-2-.05c-.32,0-.65-.05-1-.09.54.06-.27-.06-.43-.1a2,2,0,0,0-2.46,1.4,2,2,0,0,0,1.39,2.46,26.86,26.86,0,0,0,10-.15c3.17-.53,7-1.5,9.19-4a2.05,2.05,0,0,0,0-2.83,2,2,0,0,0-2.83,0Z"/><path class="cls-1" d="M223.42,372.4c-2.56-2.56-6.27-3.94-9.74-4.72s-7.36-1.22-10.75-.08c-2.43.81-1.39,4.67,1.06,3.85.29-.09.59-.18.88-.25l.58-.11c.35-.07,0,0,.17,0a17.86,17.86,0,0,1,2.31-.1,22.3,22.3,0,0,1,4.69.59,24,24,0,0,1,4.53,1.46,17.14,17.14,0,0,1,2,1.06,6.47,6.47,0,0,1,1.46,1.17c1.82,1.82,4.65-1,2.83-2.83Z"/><path class="cls-1" d="M201.53,369c-5.44,15.94-7.27,33.15-3.9,49.74a81.39,81.39,0,0,0,4,13.42,2.06,2.06,0,0,0,2.46,1.4,2,2,0,0,0,1.4-2.46,84.46,84.46,0,0,1-3.8-47.28,107,107,0,0,1,3.73-13.75c.83-2.44-3-3.49-3.86-1.07Z"/><path class="cls-1" d="M300.49,276a69.49,69.49,0,0,1,15.15-4.24,51,51,0,0,1,15.05.24c8.6,1.36,17.15,4.36,23.49,10.57,13.73,13.47,12,37.82.6,52.18a39.48,39.48,0,0,1-22.3,14c-6.63,1.46-13.87,1-20.51-.14-7.55-1.25-15.67-3.57-21.64-8.59-6.21-5.22-8.76-13.49-9.4-21.34a54.14,54.14,0,0,1,4.37-25.9,57.94,57.94,0,0,1,6.17-11,83.5,83.5,0,0,1,7.59-8.79c1.54-1.61,3.1-3.21,4.65-4.81,1.35-1.38-.77-3.51-2.12-2.12-6,6.23-12.21,12.36-16.39,20.05a59.32,59.32,0,0,0-7.43,27.11c-.18,8.66,1.49,18.14,6.87,25.17,5,6.54,13.15,10,20.94,11.95a67.66,67.66,0,0,0,23.75,1.93,41.42,41.42,0,0,0,23.38-10.89,44.73,44.73,0,0,0,13.53-26.27c1.46-9.87.22-20.53-5.32-29-5.14-7.87-13.35-12.93-22.28-15.46a57,57,0,0,0-30.82-.27c-2.75.76-5.46,1.71-8.12,2.74-1.79.69-1,3.59.79,2.89Z"/><path class="cls-2" d="M318.33,304.82c0-2.73-.2-5.46-.3-8.2,0-1.37-.07-2.73,0-4.1,0-.66,0-1.32.08-2,0-.3,0-.59.07-.89a2.11,2.11,0,0,0,.06-.58l0-.14-.31.27a19.4,19.4,0,0,0,2-.31c.74-.08,1.49-.15,2.24-.19.4,0,.8,0,1.2,0,.19,0,.84.09,1,0s.19,0,.06,0,0-.22-.1,0a4.61,4.61,0,0,0,.11.94c.13,2.36.38,4.71.6,7.06a70.1,70.1,0,0,1,.44,8.06c0,1.93,3,1.93,3,0a72.6,72.6,0,0,0-.47-8.34c-.13-1.48-.28-3-.41-4.44a22.2,22.2,0,0,0-.38-4.08c-.51-1.81-2-2.19-3.66-2.16a40.43,40.43,0,0,0-5.38.48,3.79,3.79,0,0,0-2.09.72,3.3,3.3,0,0,0-.9,2.22,41,41,0,0,0-.23,4.7c0,3.68.33,7.36.36,11.05a1.5,1.5,0,0,0,3,0Z"/><path class="cls-2" d="M327,306.17c4.9.06,9.81-.72,14.7-.23l-1.45-1.1c0,.12.1.54.08.45s0,.34.05.46c0,.5.06,1,.07,1.5,0,1.05,0,2.1,0,3.14,0,1.24-.13,2.47-.24,3.7l1.5-1.5c-4.86,0-9.72.17-14.58.05-1.93-.05-1.93,2.95,0,3,4.86.12,9.72-.05,14.58-.05a1.54,1.54,0,0,0,1.5-1.5c.12-1.29.19-2.58.24-3.87a26.1,26.1,0,0,0-.26-6.18,1.56,1.56,0,0,0-1.45-1.1c-4.89-.49-9.8.29-14.7.23a1.5,1.5,0,0,0,0,3Z"/><path class="cls-2" d="M316.43,303.37c-.26.05-.53.1-.8.13l-.19,0-.47.05q-1.12.12-2.25.18c-1.5.1-3,.16-4.5.2-1.32,0-2.64.07-4,.12a12,12,0,0,0-2.54.18c-1.79.45-1.1,2.61-1.17,4a52.43,52.43,0,0,0-.44,5.72,2.2,2.2,0,0,0,1.46,2.08,6.51,6.51,0,0,0,1.08.14c1.09.09,2.19.13,3.28.18,3.34.15,6.67.26,10,.36,1.93.06,1.93-2.94,0-3-2.79-.09-5.58-.18-8.37-.29-1.27-.05-2.53-.1-3.8-.18l-1.21-.08c-.17,0-.67-.13-.07,0-.41-.09.16,0,.31.15l.38.67a4.65,4.65,0,0,1,0-1.82c.07-.78.16-1.55.24-2.33s.13-1.46.14-2.2c0-.34,0-.68,0-1,0-.14,0-.29,0-.43s0-.87-.06-.42l-.43,1.06c-.06.08-.65.37-.56.34s.31,0-.19,0l.42,0c.46,0,.91-.05,1.37-.07,1.38-.05,2.76-.07,4.15-.12a61.69,61.69,0,0,0,9-.68,1.52,1.52,0,0,0,1-1.85,1.55,1.55,0,0,0-1.85-1.05Z"/><path class="cls-2" d="M314.45,315.2c.08,5.34.58,10.66.74,16,0,1-.16,2.24.85,2.85a4.51,4.51,0,0,0,1.82.4c1.54.15,3.11.13,4.67.13a20.79,20.79,0,0,0,3.35-.2,1.51,1.51,0,0,0,1.05-1.85,1.53,1.53,0,0,0-1.84-1l-1.37.21a1.53,1.53,0,0,0-1.05,1.85,1.56,1.56,0,0,0,1.85,1.05,3.08,3.08,0,0,0,2.75-2,25.82,25.82,0,0,0,1.05-6.06,65,65,0,0,0,.27-12.47c-.14-1.91-3.14-1.93-3,0a64.19,64.19,0,0,1-.08,10.65c-.15,1.75-.39,3.48-.69,5.21-.08.44-.14.89-.26,1.31l-.09.29c-.06.2-.08.21-.07,0a2.48,2.48,0,0,1-.68.11l.8,2.9,1.36-.22-.79-2.89c-.14,0-.8.08-.3.05l-.5,0c-.74,0-1.47,0-2.2,0-.93,0-1.87,0-2.8-.05-.43,0-.86,0-1.29-.07-.08,0-.66-.09-.24,0,0,0-.31,0-.32-.06l-.11,0a1.33,1.33,0,0,1,.89,1.05,3.51,3.51,0,0,0,0-1.07l-.09-2.3c-.07-1.54-.16-3.09-.25-4.63-.17-3.07-.36-6.14-.41-9.21,0-1.93-3-1.93-3,0Z"/><path class="cls-3" d="M306.85,413.75c1.19.45,2.19,1.3,2,2.67a4.35,4.35,0,0,1-1.14,2.39l.7.7c.92-1,2.14-1.95,3.58-1.54a5.28,5.28,0,0,1,2.36,1.68c.33.35,1,0,.84-.49a11.18,11.18,0,0,1-1-2.33c-.2-1.51,1.48-2.24,2.65-2.63a.51.51,0,0,0-.13-1,3.94,3.94,0,0,1-3-1.12,4,4,0,0,1-.89-2.94h-1a3.72,3.72,0,0,1-1.31,2.61,3.68,3.68,0,0,1-3.47,1c-.62-.16-.89.81-.26,1a4.66,4.66,0,0,0,4.35-1.2,4.77,4.77,0,0,0,1.69-3.4.5.5,0,0,0-1,0,5,5,0,0,0,1.18,3.65,5,5,0,0,0,3.72,1.41l-.13-1c-1.53.52-3.38,1.45-3.4,3.3a8.3,8.3,0,0,0,1,2.9l.84-.49a6,6,0,0,0-3-2,4.62,4.62,0,0,0-4.35,1.86c-.43.47.26,1.18.7.7a5.31,5.31,0,0,0,1.46-3.27c.07-1.76-1.26-2.88-2.79-3.45-.6-.23-.86.74-.26,1Z"/><path class="cls-4" d="M81.78,374.77c3.4,1,7.28,2.16,8.9,5.64,1.41,3.06-.17,6.57-2.9,8.29-3,1.87-6.66,1-9.1-1.34-2.13-2-3.53-5.69-2-8.45a5.17,5.17,0,0,1,4.21-2.52c2.27-.16,4.43.78,6.48,1.64a1.51,1.51,0,0,0,1.85-1,1.53,1.53,0,0,0-1-1.84c-2.33-1-4.82-2-7.4-1.75A8.53,8.53,0,0,0,75,376.13c-3,3.5-2.2,8.76.49,12.19s7.76,5.49,12.08,3.81,7.26-6.15,6.5-10.73a10,10,0,0,0-3.74-6.07,22.46,22.46,0,0,0-7.77-3.45,1.5,1.5,0,0,0-.8,2.89Z"/><path class="cls-4" d="M48.63,376.4l-1.39,5.28-.66,2.52a5.48,5.48,0,0,0-.39,2.76A2.7,2.7,0,0,0,48,388.69c.84.34,1.69.64,2.54.95l5.15,1.93a1.51,1.51,0,0,0,1.85-1.05,1.53,1.53,0,0,0-1-1.84l-4.29-1.61L50,386.25a4.2,4.2,0,0,0-1.11-.42c.09,0-.17-.05-.14-.08s.19,1.23.41.38c.76-3,1.56-6,2.35-8.93a1.51,1.51,0,0,0-2.9-.8Z"/><path class="cls-4" d="M49.08,378.26l3.45,0a3.65,3.65,0,0,0,2.61-.56c.81-.69.81-1.83,1-2.79a21.38,21.38,0,0,1,.8-2.81,19.07,19.07,0,0,1,1.21-2.69,6.58,6.58,0,0,0,1.26-2.85c0-1.88-2-3.83-3.13-5.12l.23,1.81,5-7.08a7.81,7.81,0,0,0,1.12-1.55c-.1.34-.53-.26-.1.24a5.06,5.06,0,0,0,.93.66L67,358.07c1.58,1.11,3.08-1.49,1.51-2.6s-3-2.17-4.48-3.16a2.7,2.7,0,0,0-3.75.48c-1.16,1.33-2.1,2.95-3.13,4.39l-3.24,4.6a1.53,1.53,0,0,0,.24,1.82,19.31,19.31,0,0,1,1.46,1.79,4.06,4.06,0,0,1,.58.86c.19.49.08.46-.22,1a23.5,23.5,0,0,0-1.93,4.13c-.13.36-1.31,4.33-1.09,4.39l.43-.42H51.67l-2.59,0a1.5,1.5,0,0,0,0,3Z"/><path class="cls-4" d="M69.76,358.47l.2-.16.39-.28a8.77,8.77,0,0,1,.84-.49l.43-.22c.24-.12,0,0,.24-.1s.55-.2.84-.28.63-.16.94-.22c.07,0,.37-.06.17,0l.48,0a13.83,13.83,0,0,0,2.14-.09c1.59-.36,2-2.34,2.49-3.68a27.74,27.74,0,0,0,1-4.2,1.5,1.5,0,1,0-2.89-.8,28,28,0,0,1-1,3.94,18.89,18.89,0,0,1-.71,1.95c.07-.16-.05.08-.07.13-.08.24.26-.15.3-.23s.13,0,0,0h-.64a11.44,11.44,0,0,0-7.3,2.74,1.5,1.5,0,0,0,0,2.12,1.53,1.53,0,0,0,2.12,0Z"/><path class="cls-4" d="M78.64,349.82c1.84-.22,10.39-1.09,9.35,2.66-.25.91-.52,1.64.1,2.49a2.84,2.84,0,0,0,2,1,19.25,19.25,0,0,1,5.42,1.77c1.49.77,3.06,2.33,4.82,1.41a12.55,12.55,0,0,0,2.22-1.84,4.71,4.71,0,0,1,.9-.76c-.42,0-.44,0-.07.19l.72.5a27.3,27.3,0,0,1,4.24,3.8c.45.5,1.71,1.62,1.7,2.36s-1,1.61-1.59,2.11c-1.43,1.31.7,3.42,2.12,2.13s3-3.23,2.3-5.37a8.52,8.52,0,0,0-1.84-2.7,28.45,28.45,0,0,0-2.41-2.5,32.67,32.67,0,0,0-2.66-2.17,4.93,4.93,0,0,0-2.67-1.31,3.88,3.88,0,0,0-2.52,1.3,12.13,12.13,0,0,0-1.37,1.2c-.41.19-.47.31-.19.35l-.72-.45a21.61,21.61,0,0,0-6.16-2.61,4.86,4.86,0,0,0-1.65-.34q-.76-.26.12.57A5.4,5.4,0,0,0,91,353a4.2,4.2,0,0,0-.3-2.77c-1.92-4.25-8.25-3.82-12.06-3.37-1.89.23-1.91,3.23,0,3Z"/><path class="cls-4" d="M107.47,368.89a14.63,14.63,0,0,1,3.46,7.63A1.53,1.53,0,0,0,112,378l4,.68.45.09-.24-.14.09.87c.06.73.1,1.47.1,2.21a25.69,25.69,0,0,1-.25,4,8.5,8.5,0,0,0-.21,1.19l-.08.4c.5-.15.58-.2.24-.16a9,9,0,0,0-2.13.16c-1.92.14-1.93,3.14,0,3A16.32,16.32,0,0,0,117,390a2.47,2.47,0,0,0,1.74-1.94,23.86,23.86,0,0,0,.64-6.19,28,28,0,0,0-.16-3,3.55,3.55,0,0,0-.87-2.42,4.58,4.58,0,0,0-2.52-.84l-3-.52,1.1,1.44a18.21,18.21,0,0,0-4.34-9.75c-1.26-1.46-3.37.67-2.12,2.12Z"/><path class="cls-4" d="M110.47,388.94a11,11,0,0,1-1.1,6.18c-.89,1.79-1.84,3.66-1.3,5.72a4.78,4.78,0,0,0,1.42,2.22l.43.41c.18.18.17-.22,0,0a13.55,13.55,0,0,1-1.06,1.34l-4.59,5.69h2.12a20.81,20.81,0,0,0-5.23-4.25,1.5,1.5,0,0,0-1.51,2.59,18.27,18.27,0,0,1,4.62,3.78,1.51,1.51,0,0,0,2.12,0l4.87-6c.69-.86,1.62-1.76,1.7-2.93a3.26,3.26,0,0,0-1.16-2.54A2.13,2.13,0,0,1,111,399a13.61,13.61,0,0,1,1.33-3,13.67,13.67,0,0,0,1.18-7c-.19-1.9-3.19-1.92-3,0Z"/><path class="cls-4" d="M98.26,406.5A62.16,62.16,0,0,0,91,409.77a5.33,5.33,0,0,0-2.09,2.17c-.42.84-.55,1.76-.89,2.62s-.79.57-1.62.46l-4.09-.53a7,7,0,0,0-2.05-.27q-.4-.15-.18.09c.12.22.13.17,0-.14a8.29,8.29,0,0,0-.15-1l-.61-4.11A1.51,1.51,0,0,0,77.47,408a1.53,1.53,0,0,0-1,1.85c.23,1.56.45,3.13.7,4.69a2.65,2.65,0,0,0,2.28,2.55c1.62.27,3.27.42,4.9.64,1.37.17,3,.64,4.33.18a3.69,3.69,0,0,0,2.15-2.36,9.43,9.43,0,0,1,1-2.62c.71-.9,2.2-1.32,3.21-1.76l4.84-2.11a1.52,1.52,0,0,0,.54-2,1.55,1.55,0,0,0-2.06-.54Z"/><path class="cls-4" d="M78.13,407.77c-1.63-.5-3.25-1.07-4.83-1.71-1.33-.55-2.86-1.65-4.33-1.56a7.93,7.93,0,0,0-2.43.86l-2.27,1a11.8,11.8,0,0,1-1.27.54c-.23.05-.2.1.09.13l-.49-.41-2.15-1.79c-.78-.65-2.93-1.92-3-3.1,0-.85,1.23-1.72,1.69-2.35a3.65,3.65,0,0,0,.53-3.6c-.61-1.57-1.4-2.85-1.55-4.58-.16-1.91-3.16-1.93-3,0a13.61,13.61,0,0,0,1.52,5.17c.28.55.42.79.06,1.3s-.76.83-1.11,1.26a4.06,4.06,0,0,0-.92,4c.56,1.62,2,2.7,3.29,3.75l2.31,1.92a5.26,5.26,0,0,0,2,1.32,3.75,3.75,0,0,0,2.37-.49l2.64-1.12c.74-.32,1.56-.95,2.31-.59s1.68.76,2.52,1.11q2.57,1.05,5.2,1.86c1.85.57,2.64-2.32.8-2.89Z"/><path class="cls-4" d="M47.92,377.58,47.26,384h3l.29-3.56a1.5,1.5,0,0,0-1.5-1.5,1.54,1.54,0,0,0-1.5,1.5L47.26,384a1.5,1.5,0,0,0,3,0l.66-6.39a1.51,1.51,0,0,0-1.5-1.5,1.54,1.54,0,0,0-1.5,1.5Z"/><path class="cls-4" d="M47.56,384.71c-.11-.15-.13-.18-.07-.09s0,.06,0-.12c0,0,.13.37,0,.12s0,.07,0,.13V385a6.36,6.36,0,0,0,.09,1.51,3.43,3.43,0,0,0,2.4,2.34l6.63,2.83a1.53,1.53,0,0,0,2.05-.54,1.52,1.52,0,0,0-.54-2.05l-6.47-2.76-.75-.33-.3-.14-.18-.1.1.08-.1-.09c.1.13.12.15.06.07s0-.07,0,.1l0-.1c0-.14,0-.15,0,0s0,.11,0,0a2.71,2.71,0,0,0,0-.29,4,4,0,0,0-.81-3,1.5,1.5,0,0,0-2.12,2.12Z"/><path class="cls-4" d="M56.34,391.38l1.88,5.2a1.57,1.57,0,0,0,.69.89,1.5,1.5,0,0,0,2.2-1.69l-1.88-5.2a1.57,1.57,0,0,0-.69-.89,1.5,1.5,0,0,0-2.2,1.69Z"/><path class="cls-4" d="M56.53,394.54a8.33,8.33,0,0,0-.83,1.37c-.21.45-.38.92-.58,1.38l.15-.36a4.6,4.6,0,0,1-.6,1.06l.24-.3a7.23,7.23,0,0,1-1,1,1.5,1.5,0,0,0,1.06,2.56,1.76,1.76,0,0,0,1.06-.44,6.92,6.92,0,0,0,1.56-1.72,13.18,13.18,0,0,0,.74-1.68l-.15.36a8.58,8.58,0,0,1,1-1.74,1.53,1.53,0,0,0,.15-1.15,1.56,1.56,0,0,0-.69-.9,1.52,1.52,0,0,0-1.16-.15,1.74,1.74,0,0,0-.89.69Z"/><path class="cls-4" d="M53.44,401.36a62.26,62.26,0,0,0,9,7.09,1.5,1.5,0,0,0,2-.54,1.54,1.54,0,0,0-.54-2.05c-.75-.49-1.5-1-2.23-1.51l-1.09-.8-.56-.43c.12.09,0,0-.08-.05l-.31-.25c-1.42-1.13-2.8-2.33-4.12-3.58a1.5,1.5,0,0,0-2.12,2.12Z"/><path class="cls-4" d="M64.13,409.48,70,405a1.59,1.59,0,0,0,.69-.9,1.49,1.49,0,0,0-.15-1.15,1.52,1.52,0,0,0-.9-.69,1.45,1.45,0,0,0-1.15.15l-5.84,4.51a1.61,1.61,0,0,0-.69.89,1.5,1.5,0,0,0,1,1.85,1.45,1.45,0,0,0,1.15-.15Z"/><path class="cls-4" d="M68,405a32.09,32.09,0,0,0,9.43,5.53,1.51,1.51,0,0,0,1.84-1.05,1.54,1.54,0,0,0-1-1.85l-.56-.22-.29-.11c-.06,0-.21-.09-.06,0-.38-.15-.75-.32-1.11-.5-.76-.36-1.5-.75-2.22-1.18a27.43,27.43,0,0,1-3.86-2.71,1.54,1.54,0,0,0-2.12,0A1.52,1.52,0,0,0,68,405Z"/><path class="cls-4" d="M76.3,408.77a18,18,0,0,1,.8,3.13c0,.08.1.53,0,.15,0,.12,0,.24,0,.36s0,.53.06.8a14.93,14.93,0,0,1,0,1.64,1.5,1.5,0,0,0,3,0A18.7,18.7,0,0,0,79.19,408a1.5,1.5,0,1,0-2.89.8Z"/><path class="cls-4" d="M48.77,377.45c1.84.38,3.68.8,5.53,1.13a2.77,2.77,0,0,0,2.68-.66,7.2,7.2,0,0,0,1.21-2.27q2.23-5.1,4-10.36a1.5,1.5,0,1,0-2.89-.8c-1,3-2.1,5.91-3.34,8.79-.3.71-.61,1.43-.93,2.13a1.44,1.44,0,0,0-.19.37c0,.15,0,0,.07,0,.65-.09-.21-.16-.39-.2l-5-1a1.5,1.5,0,1,0-.79,2.89Z"/><path class="cls-4" d="M60.46,364.75a11.8,11.8,0,0,0-2.88-4.43,1.59,1.59,0,0,0-1.07-.44,1.5,1.5,0,0,0-1.06,2.56,10.09,10.09,0,0,1,1,1.13l-.24-.31a10.2,10.2,0,0,1,1.31,2.23l-.15-.36c.06.14.11.28.16.41a1.64,1.64,0,0,0,.69.9,1.52,1.52,0,0,0,1.16.15,1.55,1.55,0,0,0,.9-.69,1.5,1.5,0,0,0,.15-1.15Z"/><path class="cls-4" d="M68.27,405.29c2.33,1.1,4.68,2.16,7,3.31.5.25.82.34,1,.87a6.43,6.43,0,0,1,0,1.81c0,1.25-.06,2.5-.17,3.74a1.51,1.51,0,0,0,1.1,1.45l9.25,2.6a1.53,1.53,0,0,0,1.69-.69c1-1.35,1-3,1.12-4.65a4.88,4.88,0,0,1,.29-1.93c.43-.83,1.48-.86,2.3-1,1.82-.4,3.62-1.36,5.52-.9a5.21,5.21,0,0,1,3.65,3.13l2.74-1.15a18.11,18.11,0,0,0-2-3.44c-1.12-1.52-3.7-.09-2.59,1.52a11.82,11.82,0,0,0,2,2.31c1.45,1.26,3.58-.86,2.12-2.12a9.12,9.12,0,0,1-1.57-1.71l-2.59,1.52a18,18,0,0,1,2,3.43c.68,1.54,3.34.44,2.74-1.16a8.24,8.24,0,0,0-4.4-4.74c-2.47-1.1-4.75-.63-7.24.1-2.33.68-4.73.87-5.63,3.5-.63,1.85.11,4.19-1.09,5.82l1.7-.69L78,413.58l1.1,1.44a43,43,0,0,0,.16-4.68A4.43,4.43,0,0,0,78,406.78a15.86,15.86,0,0,0-3.65-1.91l-4.58-2.17c-1.74-.82-3.26,1.76-1.52,2.59Z"/><path class="cls-4" d="M104.82,413.48a20.56,20.56,0,0,1,1.21-1.87,1.77,1.77,0,0,0,.16-.22c.17-.22-.11.15,0,0l.35-.42c.24-.29.49-.58.75-.86a20.31,20.31,0,0,1,1.58-1.5l.42-.35a1.79,1.79,0,0,0,.26-.2c0,.08-.23.17,0,0s.62-.45.94-.66a1.5,1.5,0,0,0-1.52-2.59,21.29,21.29,0,0,0-6.74,7.16,1.5,1.5,0,1,0,2.59,1.51Z"/><path class="cls-4" d="M83.68,375.14a5.67,5.67,0,0,0-5.8-1.4,7.76,7.76,0,0,0-4.47,4.13,7.58,7.58,0,0,0,3.68,11.2,23.4,23.4,0,0,0,8,2.3,1.5,1.5,0,0,0,1.5-1.5,1.55,1.55,0,0,0-1.5-1.5,19.16,19.16,0,0,1-6.66-2c-1.59-.83-3.1-2-3.13-4a6.94,6.94,0,0,1,2.18-5,3,3,0,0,1,4.1-.09c1.31,1.43,3.43-.7,2.12-2.12Z"/><path class="cls-4" d="M63.87,311a15.69,15.69,0,0,0-3,4.81,7.37,7.37,0,0,0,.26,5.27,8.15,8.15,0,0,0,8,4.48,7.21,7.21,0,0,0,6.53-6.18,8.13,8.13,0,0,0-3.47-8.06,6.46,6.46,0,0,0-6.08-.34c-1.91.85-3.11,2.59-4.19,4.29s1.56,3.14,2.59,1.52a8.34,8.34,0,0,1,2.45-2.88,3.86,3.86,0,0,1,1.39-.52,3.35,3.35,0,0,1,1,0,3.06,3.06,0,0,1,.41.1s.52.18.29.08a4.91,4.91,0,0,1,2.73,4.58,5,5,0,0,1-1,2.87,4,4,0,0,1-2.26,1.47s-.5.09-.2.05l-.39,0a4.94,4.94,0,0,1-.86,0,6.22,6.22,0,0,1-1.52-.35,5,5,0,0,1-2.26-1.63,4.29,4.29,0,0,1-.64-3.55A10.57,10.57,0,0,1,66,313.08,1.53,1.53,0,0,0,66,311a1.51,1.51,0,0,0-2.12,0Z"/><path class="cls-4" d="M83.71,303.23l2.88,2.37L88,306.73l.76.62c.1.08.2.18.3.25s.15.14.1.06l0,.09L89,307a1.72,1.72,0,0,0,.07-.21c-.06.1-.13.19-.19.28l-.45.64-.83,1.2-1.72,2.47a1.5,1.5,0,1,0,2.59,1.51l2.11-3c.77-1.11,2-2.41,1.11-3.81a6.32,6.32,0,0,0-1.41-1.32l-1.44-1.19-3-2.43a1.53,1.53,0,0,0-2.12,0,1.51,1.51,0,0,0,0,2.12Z"/><path class="cls-4" d="M84.57,300.48l-1.38.91a4.47,4.47,0,0,1-1.16.74h.8l-.65-.65c-.32-.29-.66-.56-1-.82a21.87,21.87,0,0,0-2-1.42l-1-.54a5.77,5.77,0,0,1-1.12-.53c.09.3.1.24,0-.19,0-.24,0-.48,0-.73a14.26,14.26,0,0,1,.06-1.46,1.53,1.53,0,0,0-1.1-1.45l-3.88-1.48a32,32,0,0,0-3.61-1.34A2.27,2.27,0,0,0,65.75,293c-.48,1.21-.84,2.47-1.26,3.7-.62,1.84,2.28,2.62,2.9.8l.64-1.92.3-.87c0-.14.4-.82.18-.6l-.66.39c.27-.11,1.23.42,1.54.54l1.94.74,3.88,1.48-1.1-1.45c-.12,1.46-.34,3.52.87,4.6a8.08,8.08,0,0,0,1.66.9,18.13,18.13,0,0,1,2,1.15,14.88,14.88,0,0,1,1.58,1.27A4.75,4.75,0,0,0,81.81,305c1.51.49,3.11-1.12,4.27-1.89,1.6-1.07.1-3.67-1.51-2.59Z"/><path class="cls-4" d="M65.69,296.3a8.16,8.16,0,0,0-5.34,1.19,1.82,1.82,0,0,0-.51.34c.8.1,1,.06.65-.13l-.29-.19c-.38-.25-.76-.51-1.13-.79a19.64,19.64,0,0,1-1.91-1.66A1.5,1.5,0,1,0,55,297.19a25.53,25.53,0,0,0,2.45,2.07c.89.67,2,1.67,3.21,1.4a4.54,4.54,0,0,0,1.36-.71,3.73,3.73,0,0,1,1-.45,7,7,0,0,1,.69-.18l.19,0,.28,0a7.9,7.9,0,0,1,1.46.05,1.51,1.51,0,0,0,1.5-1.5,1.54,1.54,0,0,0-1.5-1.5Z"/><path class="cls-4" d="M55.29,294.9c-2.56,1.25-6.43,3.52-5.74,6.92a3.53,3.53,0,0,0,1,1.9,2.92,2.92,0,0,0,.78.56q.15-1.89-.54-1a4.44,4.44,0,0,0-.37.38,13.47,13.47,0,0,0-2.62,4c-.1.22-.19.45-.28.68l.27-.38a12.09,12.09,0,0,0-1.56-.23,3,3,0,0,0-2,.24c-1.4.89-1.69,3.5-1.92,5s-.58,3.36.16,4.71a4.71,4.71,0,0,0,3.58,2c1.89.31,2.7-2.58.8-2.89a3.73,3.73,0,0,1-1.49-.38c-.4-.29-.3-.45-.28-1a14.44,14.44,0,0,1,.23-2.27c.12-.71.49-1.49.54-2.19l.12-.39c-.46,0-.54.07-.25.09a3.48,3.48,0,0,0,.93.13,5.43,5.43,0,0,0,2.12.12c1.39-.35,1.61-1.76,2.2-2.86a13.37,13.37,0,0,1,2.25-2.89,2.07,2.07,0,0,0-.09-3.26c-.3-.24-.59-.32-.65-.73-.07-.58.47-1.08.85-1.43a14.71,14.71,0,0,1,3.5-2.22c1.74-.84.22-3.43-1.52-2.59Z"/><path class="cls-4" d="M46,318.57a12.85,12.85,0,0,0,1.77,7.24L48,324l-1.66,1.57a2.8,2.8,0,0,0-1.15,1.87c-.07,1.35,1.22,2.79,2,3.81a21.57,21.57,0,0,0,2.88,3.16,2.32,2.32,0,0,0,2.24.65,11.45,11.45,0,0,0,2-1c1.7-.92.18-3.52-1.52-2.59a6.38,6.38,0,0,1-1.47.75h.79c.18.13.15.1-.08-.1l-.38-.36-.55-.55c-.39-.41-.76-.83-1.12-1.27s-.64-.81-.93-1.24l-.43-.65-.27-.44c-.1-.25-.15-.3-.13-.16l-.2.75a6.7,6.7,0,0,1,.89-.89l1.25-1.18a1.53,1.53,0,0,0,.23-1.82A10,10,0,0,1,49,318.57c.12-1.92-2.88-1.92-3,0Z"/><path class="cls-4" d="M53.45,332.85a11.32,11.32,0,0,0,3.42,3.57c.68.45,1.44.77,2.13,1.22.37.25.8.6.81,1.06s-.17.84-.14,1.27a2.4,2.4,0,0,0,.61,1.46,4.79,4.79,0,0,0,2.2,1.08l5.5,1.73a1.51,1.51,0,0,0,1.9-1.44,10.26,10.26,0,0,1,.86-3.4,1.55,1.55,0,0,0-.54-2,1.52,1.52,0,0,0-2,.54,14.66,14.66,0,0,0-1.27,4.91l1.9-1.45-5-1.56a5.89,5.89,0,0,0-1.21-.39c-.21,0-.29-.25-.07.15s.08.2.15.06a3.25,3.25,0,0,0-.24-2.53c-.7-1.45-2.12-2.13-3.44-2.88a8.12,8.12,0,0,1-3-2.86c-1-1.65-3.6-.14-2.59,1.51Z"/><path class="cls-4" d="M70.75,339.7l3.17-.49a5.85,5.85,0,0,1,2.75-.17,15.69,15.69,0,0,1,1.78,1.28,3,3,0,0,0,2.61.32,9.3,9.3,0,0,0,2.44-1.86A28.2,28.2,0,0,0,86,336.62a2.35,2.35,0,0,0,.12-3c-.54-1-1.1-2-1.65-3-.93-1.69-3.52-.18-2.59,1.51l1.38,2.49a3,3,0,0,0,.27.5c.15.37.2.33.16-.12s.08-.47-.08-.28-.83.71-1.06.91l-2,1.73s-.54.48-.42.44.22.07,0,0a2.06,2.06,0,0,1-.4-.25,14.39,14.39,0,0,0-1.56-1.13,4.76,4.76,0,0,0-2.62-.47c-1.87.16-3.74.55-5.59.84a1.51,1.51,0,0,0-1,1.84,1.54,1.54,0,0,0,1.85,1.05Z"/><path class="cls-4" d="M84.18,332.27c.69-.87,1.36-1.75,2-2.67.27-.41.54-.82.79-1.24a6,6,0,0,1,.71-1.14l-.66.38A14.91,14.91,0,0,1,90.2,327c1-.16,2-.23,2.53-1.17a11.39,11.39,0,0,0,.87-3.07,10.61,10.61,0,0,0,.49-2.89c-.09-2.05-1.52-3-3.33-3.47-.19-.05-.62-.09-.76-.26a4.83,4.83,0,0,1-.2-1.08,9.24,9.24,0,0,0-1.23-2.89c-1-1.63-3.62-.12-2.59,1.52a6.51,6.51,0,0,1,.81,1.73c.17.58.21,1.2.43,1.77a3.52,3.52,0,0,0,2.63,2.07c.86.24,1.36.19,1.21,1.2-.1.62-.29,1.23-.44,1.84a8,8,0,0,1-.55,2.13l.54-.54a3.7,3.7,0,0,1-1,.19l-1.52.25c-1,.16-2.08.2-2.78,1a22.58,22.58,0,0,0-1.44,2.29c-.55.85-1.14,1.68-1.77,2.48a1.54,1.54,0,0,0,0,2.12,1.52,1.52,0,0,0,2.12,0Z"/><path class="cls-4" d="M84.42,303.44l3.16,3.46a1.51,1.51,0,0,0,2.12,0,1.47,1.47,0,0,0,.44-1.06,1.63,1.63,0,0,0-.44-1.06l-1.71-2a1.5,1.5,0,0,0-2.12,0,1.47,1.47,0,0,0-.44,1.06,1.61,1.61,0,0,0,.44,1.06l1.71,2,2.12-2.12-3.15-3.46a1.52,1.52,0,0,0-2.13,0,1.54,1.54,0,0,0,0,2.12Z"/><path class="cls-4" d="M87.09,305.6a3,3,0,0,0,.91,2.12c.12.14-.17-.26-.07-.1a1.88,1.88,0,0,0,.12.18s.06.14.09.15-.11-.34-.06-.14,0-.12,0-.16a.37.37,0,0,1,.06-.25c0-.09,0-.09,0,0l-.29.49L85.25,312a1.5,1.5,0,1,0,2.59,1.52c.91-1.46,1.83-2.92,2.73-4.39a2.61,2.61,0,0,0,.12-2.78c-.08-.13-.17-.24-.25-.36l-.29-.37c-.17-.21.14.21,0,.06a1.6,1.6,0,0,0-.2-.32s.11.34.06.14c.09.38,0,.26,0,.09a1.51,1.51,0,0,0-1.5-1.5,1.54,1.54,0,0,0-1.5,1.5Z"/><path class="cls-4" d="M85.11,313.65l1.19,3.71a1.54,1.54,0,0,0,.69.89,1.49,1.49,0,0,0,1.15.15,1.51,1.51,0,0,0,1-1.84L88,312.85a1.59,1.59,0,0,0-.69-.9,1.5,1.5,0,0,0-2.2,1.7Z"/><path class="cls-4" d="M88,317.21l.36.14L88,317.2a15.58,15.58,0,0,1,1.54.87,5.89,5.89,0,0,0,2.46.72,1.5,1.5,0,0,0,1.06-.44,1.52,1.52,0,0,0,.44-1.06,1.5,1.5,0,0,0-.44-1.06l-.3-.24a1.57,1.57,0,0,0-.76-.2l-.26,0,.4.05a4.08,4.08,0,0,1-1-.27l.36.15a6.67,6.67,0,0,1-1-.57,9.76,9.76,0,0,0-1.7-.8,1.5,1.5,0,0,0-1.69,2.2,1.65,1.65,0,0,0,.89.69Z"/><path class="cls-4" d="M91,317a36.73,36.73,0,0,1-2,7.2,1.5,1.5,0,0,0,1.05,1.84A1.53,1.53,0,0,0,92,325a36.45,36.45,0,0,0,2-7.19,1.55,1.55,0,0,0-1-1.85A1.53,1.53,0,0,0,91,317Z"/><path class="cls-4" d="M90.86,323.8l-5.3-.46a1.51,1.51,0,0,0-1.5,1.5,1.54,1.54,0,0,0,1.5,1.5l5.3.46a1.52,1.52,0,0,0,1.5-1.5,1.54,1.54,0,0,0-1.5-1.5Z"/><path class="cls-4" d="M84.31,324.52c-.14.57-.29,1.13-.48,1.68-.08.24-.17.48-.26.72a2.78,2.78,0,0,1-.16.4c.2-.36,0,.06-.06.14a18.34,18.34,0,0,1-1.65,2.93,1.51,1.51,0,0,0,.53,2.05,1.55,1.55,0,0,0,2.06-.54,19.44,19.44,0,0,0,2.91-6.58,1.5,1.5,0,1,0-2.89-.8Z"/><path class="cls-4" d="M81.29,331.12a15.33,15.33,0,0,0,2.64,4.8,1.51,1.51,0,0,0,1.06.43,1.49,1.49,0,0,0,1.5-1.5l0-.39a1.47,1.47,0,0,0-.39-.67l-.18-.23.23.31a13.57,13.57,0,0,1-1.69-2.9l.16.36c-.14-.33-.27-.67-.38-1a1.59,1.59,0,0,0-.69-.9,1.51,1.51,0,0,0-2.21,1.7Z"/><path class="cls-4" d="M83.88,300.3l-2.46,2.5-.27.27a1.12,1.12,0,0,1,.7-.16c0-.11-.45-.26-.54-.32l-1.48-.91q-2.86-1.79-5.59-3.77a1.5,1.5,0,0,0-2,.53,1.54,1.54,0,0,0,.54,2.06q3.17,2.29,6.51,4.34a8.1,8.1,0,0,0,1.71.93,2.32,2.32,0,0,0,2.26-.52c1-.86,1.87-1.89,2.79-2.82,1.36-1.38-.76-3.5-2.12-2.13Z"/><path class="cls-4" d="M76,298.3a6.05,6.05,0,0,1-.25-1.12l0,.4a6.48,6.48,0,0,1,0-1.76l-.06.4a1.85,1.85,0,0,0,0-.23,1.19,1.19,0,0,0,0-.59,1.12,1.12,0,0,0-.18-.56,1.52,1.52,0,0,0-.9-.69,1.49,1.49,0,0,0-1.15.15,1.45,1.45,0,0,0-.69.9,7.94,7.94,0,0,0-.13,1.95,8.57,8.57,0,0,0,.34,2,1.64,1.64,0,0,0,.69.9,1.52,1.52,0,0,0,1.16.15A1.5,1.5,0,0,0,76,298.3Z"/><path class="cls-4" d="M84.51,324.2l-1.69,3a7.91,7.91,0,0,0-1.4,3.1A4.09,4.09,0,0,0,82.54,333c.66.9,1.37,1.77,2.11,2.61v-2.12l-4.15,4.93L82,338c-1-.36-1.68-1.85-2.49-2.55a4,4,0,0,0-2-1,6.11,6.11,0,0,0-3,.56c-1.83.59-3.53,1-4.71,2.63a5.81,5.81,0,0,0-.79,5.05,1.51,1.51,0,0,0,2.9-.8,9.61,9.61,0,0,1-.31-2.33h-3a5.79,5.79,0,0,1-.1,1.44c-.41,1.88,2.48,2.68,2.89.79a8.75,8.75,0,0,0,.21-2.23c-.09-1.91-3-1.94-3,0a14.28,14.28,0,0,0,.41,3.13l2.9-.8a2.76,2.76,0,0,1,.62-2.87,3.82,3.82,0,0,1,1.64-.8c.75-.21,1.47-.47,2.21-.71,1-.32,1.41.46,2,1.22a6.12,6.12,0,0,0,2.75,2.15,1.44,1.44,0,0,0,1.46-.38l4.14-4.93a1.54,1.54,0,0,0,0-2.12c-.54-.61-1.06-1.23-1.55-1.88-.19-.25-.37-.5-.55-.76a3.88,3.88,0,0,1-.3-.48c0,.22.11.17.19-.15a12.66,12.66,0,0,0,1.19-2.1l1.35-2.39a1.5,1.5,0,0,0-2.59-1.52Z"/><path class="cls-4" d="M70.68,341.48a17.34,17.34,0,0,0-7.18-1.75,1.5,1.5,0,0,0,0,3,9.73,9.73,0,0,1,1.62.11c-.38-.08,0,0,.06,0l.46.07.74.16c.52.13,1,.28,1.52.45a7.21,7.21,0,0,1,.77.3c-.34-.16,0,0,.07,0l.43.2a1.5,1.5,0,1,0,1.51-2.59Z"/><path class="cls-4" d="M67.44,313.85c0,.27,0-.13.07-.19-.11.24.09-.12.13-.16-.16.19.13-.11.17-.14-.17.14.16-.1.2-.12.23-.15,0,0,.22-.1,0,0,.47-.11.23-.07a2.48,2.48,0,0,1,.87,0,5.31,5.31,0,0,1,3.16,2c.73,1.05.38,2.2-.29,3.35a12.23,12.23,0,0,1-2.76,3.2,1.51,1.51,0,0,0,0,2.12,1.53,1.53,0,0,0,2.12,0,13.54,13.54,0,0,0,3.74-4.82,6,6,0,0,0,.58-3.14,5.55,5.55,0,0,0-1.47-3.09,7.9,7.9,0,0,0-5.59-2.65,4.27,4.27,0,0,0-4.38,3.8,1.5,1.5,0,0,0,1.5,1.5,1.54,1.54,0,0,0,1.5-1.5Z"/><path class="cls-3" d="M77.47,281.23a43.36,43.36,0,0,0-22.33.43,42.22,42.22,0,0,0-6,2.23l.73.56a7.89,7.89,0,0,1,2.77-4.78l-.78-.6a25.49,25.49,0,0,1-3.68,5.57.5.5,0,0,0,.1.78A15.63,15.63,0,0,0,56,286.91c.64,0,.64-1,0-1a14.72,14.72,0,0,1-7.22-1.35l.1.78a25.85,25.85,0,0,0,3.83-5.77A.5.5,0,0,0,52,279a8.68,8.68,0,0,0-3,5.23.5.5,0,0,0,.73.56,42.28,42.28,0,0,1,27.55-2.56c.63.16.9-.81.27-1Z"/><path class="cls-3" d="M27.53,385a43.47,43.47,0,0,1,5.59-21.89,43,43,0,0,1,3.62-5.42.51.51,0,0,0-.1-.79l-7-3.37-.39.91,3.88,1,2,.53a6.55,6.55,0,0,1,1.67.55c.62.37.54,1,.47,1.63l-.24,2-.47,4.09c-.08.64.92.64,1,0l.53-4.57c.13-1.19.65-2.86-.4-3.78s-2.45-1-3.59-1.27l-4.58-1.22c-.53-.15-.91.66-.39.91l7,3.37L36,357a44.25,44.25,0,0,0-9.5,28,.5.5,0,0,0,1,0Z"/><path class="cls-2" d="M76.22,366.63a1.5,1.5,0,0,0,0-3,1.5,1.5,0,0,0,0,3Z"/><path class="cls-2" d="M93.28,368a1.5,1.5,0,0,0,0-3,1.5,1.5,0,0,0,0,3Z"/><path class="cls-2" d="M101.71,377.94a1.5,1.5,0,0,0,0-3,1.5,1.5,0,0,0,0,3Z"/><path class="cls-2" d="M101.71,392a1.5,1.5,0,0,0,0-3,1.5,1.5,0,0,0,0,3Z"/><path class="cls-2" d="M90.62,398.65h-.88a1.27,1.27,0,0,0-.58.13,1.34,1.34,0,0,0-.79.8,1,1,0,0,0-.13.57l.05.4a1.39,1.39,0,0,0,.39.66l.3.24a1.54,1.54,0,0,0,.76.2h.88a1.06,1.06,0,0,0,.58-.13,1.36,1.36,0,0,0,.79-.79,1.06,1.06,0,0,0,.13-.58l-.05-.4a1.49,1.49,0,0,0-.39-.66l-.3-.23a1.45,1.45,0,0,0-.76-.21Z"/><path class="cls-2" d="M77.32,401.21a1.5,1.5,0,0,0,0-3,1.5,1.5,0,0,0,0,3Z"/><path class="cls-2" d="M67.45,392.46a1.5,1.5,0,0,0,0-3,1.5,1.5,0,0,0,0,3Z"/><path class="cls-2" d="M66.68,377.94a1.5,1.5,0,0,0,0-3,1.5,1.5,0,0,0,0,3Z"/></g></svg>