<svg id="Warstwa_1" data-name="Warstwa 1" xmlns="http://www.w3.org/2000/svg" viewBox="0 0 368.61 481.52"><defs><style>.cls-1{fill:#ee7800;}</style></defs><path class="cls-1" d="M184.42,272.15q-1.83-21.49-2-43.08c0-.18-.13-1.17,0-1.31-.06.07.39.05.41.05a11.48,11.48,0,0,1,2.56-.07l5.62-.15,10.51-.29c.89,0,1.79-.06,2.69-.07a3.08,3.08,0,0,1,.74,0c-.32-.23-.09.61-.09.86,0,1.82,0,3.64,0,5.46,0,3.65,0,7.29-.1,10.94q-.22,12.18-1,24.34c-.12,1.93,2.88,1.92,3,0q.78-12,1-24.09.12-6.09.09-12.18c0-1.82.07-3.66,0-5.47a2.82,2.82,0,0,0-2.87-2.86c-1.7-.12-3.47.06-5.17.11l-6.36.17-5.37.15a44.61,44.61,0,0,0-6,.22,2.89,2.89,0,0,0-2.6,2.55,42.68,42.68,0,0,0,0,6.09q.09,6,.3,11.89.48,13.38,1.62,26.73c.16,1.91,3.16,1.93,3,0Z"/><path class="cls-1" d="M180.48,273.5q13.1,0,26.17-.81c1.92-.12,1.93-3.12,0-3q-13.07.82-26.17.81a1.5,1.5,0,0,0,0,3Z"/><path class="cls-1" d="M217.56,271.74l.11-67.18,0-18.9-1.5,1.5q15.77-.66,31.56-.29l-1.5-1.5-1,65.41L245,269.26c0,1.93,3,1.93,3,0l1-65.42.28-18.47a1.52,1.52,0,0,0-1.5-1.5q-15.78-.37-31.56.29a1.52,1.52,0,0,0-1.5,1.5l-.11,67.17,0,18.91a1.5,1.5,0,0,0,3,0Z"/><path class="cls-1" d="M247.4,269a237,237,0,0,0-29.68-.08c-1.92.12-1.93,3.12,0,3a237,237,0,0,1,29.68.08c1.93.12,1.92-2.88,0-3Z"/><path class="cls-1" d="M259.26,270.09l.85-28.61-1.5,1.5,24.87.11-1.5-1.5a159.78,159.78,0,0,1,1,28.34l1.5-1.5-27.78-.35c-1.93,0-1.93,3,0,3l27.78.35a1.52,1.52,0,0,0,1.5-1.5,159.78,159.78,0,0,0-1-28.34,1.53,1.53,0,0,0-1.5-1.5L258.61,240a1.52,1.52,0,0,0-1.5,1.5l-.85,28.61c-.06,1.93,2.94,1.93,3,0Z"/></svg>