<svg xmlns="http://www.w3.org/2000/svg" viewBox="0 0 390.07 481.52"><defs><style>.cls-1{fill:#55beed;}.cls-2{fill:#ee7800;}</style></defs><g id="Warstwa_2" data-name="Warstwa 2"><path class="cls-1" d="M18.87,161.83l10.8,2.76a.5.5,0,0,0,.26-1l-10.8-2.76a.5.5,0,0,0-.26,1Z"/><path class="cls-1" d="M39,137.76l9.69,7.52c.5.39,1.21-.31.71-.71l-9.69-7.52c-.5-.39-1.21.31-.71.71Z"/><path class="cls-1" d="M70.29,124.76a19,19,0,0,1,3.76,8.87c.09.64,1,.37,1-.26a19.89,19.89,0,0,0-4-9.32c-.39-.51-1.1.2-.7.71Z"/><path class="cls-1" d="M104.85,122.31a33.24,33.24,0,0,0-1,10.13c0,.64,1,.64,1,0a32.53,32.53,0,0,1,1-9.87.5.5,0,0,0-1-.26Z"/><path class="cls-2" d="M122.63,252.17a120.8,120.8,0,0,0-12-19.2,55.24,55.24,0,0,0-7.56-7.88,75.69,75.69,0,0,0-9.4-6.37c-5.74-3.51-12-8.63-11.46-16.15.2-2.61,2.48-7.16,5.8-5.77a2.75,2.75,0,0,1,1.7,3.48c-.42,1-1.56,1.8-2.37.74a3.85,3.85,0,0,1-.19-3.64c.73-1.6,2.64-2.33,4.22-2.74a15.31,15.31,0,0,1,6.19-.62c1.44.28,3.39,1.86,2.65,3.56l1.29-.74c-2.46.24-4.48-2-4.58-4.4a4.27,4.27,0,0,1,3.18-4.19c5-1.56,8.34,3.1,9.66,7.34,1.92,6.19,1.62,12.94,2.08,19.34A75.39,75.39,0,0,0,115,232.37a87.22,87.22,0,0,0,8.4,17.57,1.5,1.5,0,0,0,2.59-1.52c-3.32-5.63-6.46-11.4-8.36-17.68-2.08-6.89-2.74-14-3.12-21.1-.35-6.59-.34-14.39-4.3-20a10.2,10.2,0,0,0-6.4-4.48,9.07,9.07,0,0,0-6.93,1.4,7.15,7.15,0,0,0-2.67,7.84c.94,3.09,3.89,5.79,7.27,5.46a1.52,1.52,0,0,0,1.3-.74,5.52,5.52,0,0,0-.88-5.85A7.08,7.08,0,0,0,96,190.93c-3.93.11-9.53,1-11.51,4.94-1.46,2.84-.84,7.78,2.82,8.59a4.56,4.56,0,0,0,4.92-2.67,5.46,5.46,0,0,0-.52-5.71c-2.84-3.83-8-2.76-10.56.73s-2.46,8.31-.91,12.22c1.72,4.36,4.87,7.59,8.67,10.23,4,2.78,8.39,4.91,12.12,8.08,8.33,7.08,14,16.79,19,26.34.9,1.71,3.49.2,2.59-1.51Z"/></g></svg>