<svg xmlns="http://www.w3.org/2000/svg" viewBox="0 0 156.29 481.52"><defs><style>.cls-1{fill:#497ebf;}</style></defs><g id="Warstwa_2" data-name="Warstwa 2"><path class="cls-1" d="M19.23,256.85c15.63-11.7,34.16-18.9,53.87-18.31,19.47.59,37.57,9,51.87,22l3.18-7.68-29.84,3.56c-5.58.67-5.94,9.19,0,9q15.66-.48,31.25-2c2.95-.29,5.06-2.64,4.34-5.7-2.25-9.5-7.87-17.59-10.11-27.07-1.34-5.64-10-3.25-8.68,2.39,2.25,9.5,7.87,17.59,10.11,27.08l4.34-5.7q-15.59,1.53-31.25,2v9l29.84-3.56c3.53-.42,6.36-4.79,3.18-7.68C115.6,239.84,96,230.64,74.55,229.6c-21.63-1-42.68,6.61-59.87,19.48-4.58,3.43-.1,11.24,4.55,7.77Z"/></g></svg>