<svg id="Warstwa_1" data-name="Warstwa 1" xmlns="http://www.w3.org/2000/svg" viewBox="0 0 403.86 481.52"><defs><style>.cls-1{fill:#ee7800;}</style></defs><path class="cls-1" d="M115,253.61c-3.33,2.58-7.51,4.13-10,7.67l3.46,2c3.18-4.6,8.08-7.71,11.27-12.32L116,250l.71,46.15a2,2,0,0,0,2,2l11-.35c2.57-.08,2.58-4.06,0-4-7.27.18-14.53.48-21.8.66v4a157.19,157.19,0,0,1,19.29-.44c2.57.11,2.57-3.89,0-4a157.19,157.19,0,0,0-19.29.44c-2.53.2-2.61,4.07,0,4,7.27-.18,14.53-.48,21.8-.66v-4l-11,.35,2,2L120,250a2,2,0,0,0-3.73-1c-3.18,4.6-8.08,7.71-11.28,12.32-1.47,2.13,2,4.09,3.46,2a15,15,0,0,1,4.31-3.46c1.72-1.1,3.47-2.15,5.09-3.4a2,2,0,0,0,0-2.83,2.06,2.06,0,0,0-2.83,0Z"/><path class="cls-1" d="M142,248.15c-3.12-.63-6.61-1-9.5.69a6.7,6.7,0,0,0-3.38,7c.74,3.23,4.12,4.17,7,4.49a12.35,12.35,0,0,1,3.34.6,2.54,2.54,0,0,1,.93.61c-.27-.3.34.41.1.13,0,0,.09.41.05.06,0,.06,0,.54,0,.33a1,1,0,0,1-.17.4c-.38.55.13-.11-.12.2a4.68,4.68,0,0,1-.38.39,3.06,3.06,0,0,1-1.46.69,11.62,11.62,0,0,1-5-.48,2,2,0,1,0-1.06,3.85c3.11.72,6.78,1.4,9.56-.63,2.54-1.86,3.64-5.49,1.14-7.91-2.1-2-5.16-1.89-7.61-2.33a11.38,11.38,0,0,1-1.49-.41,2.82,2.82,0,0,1-.38-.21s-.29-.22-.12-.08a2.27,2.27,0,0,1-.31-.31c.17.21,0-.05-.08-.15-.16-.31.24.38,0-.12,0-.05-.09-.41,0,0a2.69,2.69,0,0,1,0-.75c-.06.4.11-.32.14-.4s.16-.33,0-.07a4.77,4.77,0,0,1,.24-.44,3.91,3.91,0,0,1,.93-.93,5.72,5.72,0,0,1,2-.69,13.45,13.45,0,0,1,4.63.3,2.06,2.06,0,0,0,2.46-1.4,2,2,0,0,0-1.4-2.46Z"/><path class="cls-1" d="M151.64,250.38a73.24,73.24,0,0,0,.47,14.12,2.07,2.07,0,0,0,2,2,2,2,0,0,0,2-2,73.24,73.24,0,0,1-.47-14.12,2,2,0,0,0-4,0Z"/><path class="cls-1" d="M148.52,251H159a2,2,0,0,0,0-4h-10.5a2,2,0,0,0,0,4Z"/><path class="cls-1" d="M258.34,168.51l10.2,11.64a1.51,1.51,0,0,0,2.35-.3q9.42-13.36,17.54-27.58a1.5,1.5,0,0,0-2.59-1.52q-8.1,14.2-17.54,27.58l2.36-.3-10.2-11.64c-1.27-1.46-3.39.67-2.12,2.12Z"/><path class="cls-1" d="M257.43,199.39l13.17,14.08a1.51,1.51,0,0,0,2.35-.3q6.63-14,13.25-28.06c.82-1.73-1.76-3.26-2.59-1.51l-13.25,28.05,2.36-.3-13.17-14.08c-1.32-1.41-3.44.71-2.12,2.12Z"/><path class="cls-1" d="M260.57,238c3.95,2.62,6.37,7,10.33,9.64a1.52,1.52,0,0,0,2.05-.54l15.72-24.64c1-1.63-1.56-3.14-2.59-1.52l-15.72,24.65,2.06-.54c-3.95-2.63-6.37-7-10.34-9.64-1.61-1.07-3.11,1.52-1.51,2.59Z"/></svg>