<?xml version="1.0" standalone="no"?>
<!DOCTYPE svg PUBLIC "-//W3C//DTD SVG 20010904//EN"
 "http://www.w3.org/TR/2001/REC-SVG-20010904/DTD/svg10.dtd">
<svg version="1.0" xmlns="http://www.w3.org/2000/svg"
 width="260.000000pt" height="260.000000pt" viewBox="0 0 260.000000 260.000000"
 preserveAspectRatio="xMidYMid meet">
<metadata>
Created by potrace 1.14, written by Peter Selinger 2001-2017
</metadata>
<g transform="translate(0.000000,260.000000) scale(0.100000,-0.100000)"
fill="#000000" stroke="none">
<path d="M530 1980 l0 -70 805 0 805 0 0 70 0 70 -805 0 -805 0 0 -70z"/>
<path d="M530 1300 l0 -70 805 0 805 0 0 70 0 70 -805 0 -805 0 0 -70z"/>
<path d="M530 620 l0 -70 805 0 805 0 0 70 0 70 -805 0 -805 0 0 -70z"/>
</g>
</svg>
