<svg id="Warstwa_1" data-name="Warstwa 1" xmlns="http://www.w3.org/2000/svg" viewBox="0 0 339 325.76"><defs><style>.cls-1{fill:#497ebf;}.cls-2{fill:#fff;}</style></defs><path class="cls-1" d="M306.15,162.88A136.65,136.65,0,1,1,169.5,26.23,136.65,136.65,0,0,1,306.15,162.88"/><path class="cls-2" d="M128.66,206.5l63.18-.09,20.73,0a1.5,1.5,0,0,0,0-3l-63.71.09-20.2,0a1.5,1.5,0,0,0,0,3Z"/><path class="cls-2" d="M169.92,206.9c.94,11.28,1.66,22.49,1.5,33.81a1.5,1.5,0,0,0,3,0c.16-11.32-.56-22.53-1.5-33.81-.16-1.91-3.16-1.92-3,0Z"/><path class="cls-2" d="M129.85,243.36a427.4,427.4,0,0,1,42.79-1.74,1.5,1.5,0,0,0,0-3,427.4,427.4,0,0,0-42.79,1.74c-1.91.18-1.93,3.18,0,3Z"/><path class="cls-2" d="M129.79,247.68l49.78-.2,15.48-.06a1.5,1.5,0,0,0,0-3l-49.78.2-15.48.06a1.5,1.5,0,0,0,0,3Z"/><path class="cls-2" d="M171,241.43c9.33.35,18.64.5,28,.47a1.5,1.5,0,0,0,0-3c-9.34,0-18.65-.12-28-.47-1.93-.07-1.93,2.93,0,3Z"/><path class="cls-2" d="M79.82,205q-.58-18.85-1.12-37.72c-.4-15.37-.76-30.74-.8-46.11,0-6.1,0-12.22.3-18.31.1-1.93-2.9-1.92-3,0-.67,12.54-.3,25.17-.09,37.71.26,15.38.68,30.75,1.14,46.12L76.82,205c.06,1.93,3.06,1.94,3,0Z"/><path class="cls-2" d="M77.25,101.61c2.07-1.19,4.6-1,6.9-1l8.72,0,17.21-.09,34.15-.18,68.32-.34,38.64-.2a1.5,1.5,0,0,0,0-3l-69.31.35-69.31.36-19.2.09-9.72,0c-2.72,0-5.48,0-7.91,1.39a1.5,1.5,0,0,0,1.51,2.59Z"/><path class="cls-2" d="M249,99.91l7.49.27-1.5-1.5.39,78.48.11,22.18a1.5,1.5,0,0,0,3,0l-.39-78.49L258,98.68a1.54,1.54,0,0,0-1.5-1.5L249,96.91c-1.93-.07-1.93,2.93,0,3Z"/><path class="cls-2" d="M201.6,207.57l49.92-2.45c1.92-.1,1.93-3.1,0-3l-49.92,2.45c-1.92.09-1.93,3.09,0,3Z"/><path class="cls-2" d="M259.58,98.56c.66,27.86-.53,55.7-2,83.52-.42,8.08-.85,16.15-1.24,24.23h3c1-28.53,2.22-57.06,1.88-85.62q-.13-12.39-.69-24.76c-.09-1.92-3-1.94-3,0,.09,22.58.26,45.17-.4,67.75-.33,11.3-.87,22.61-1.7,33.89-.08,1.13.11,2.79-.59,3.76s-2.49.82-3.55.91l-8.68.77q-8.56.75-17.14,1.38c-13.07.93-26.18,1.52-39.29,1.3v3l55.63-.84,15.72-.23v-3c-10,.34-20,.47-29.95.53q-18.15.1-36.3-.1-19.17-.18-38.33-.56-18.4-.36-36.79-.88-15.48-.45-30.95-1l-3.3-.13c-1.93-.08-1.93,2.91,0,3,9.31.42,18.63.73,27.94,1q17.53.5,35.06.79,18.36.32,36.7.37c10.74,0,21.48,0,32.22-.28,4.25-.1,8.5-.24,12.75-.46,8.2-.42,16.45-1,24.65-.1a62.22,62.22,0,0,1,6.21,1v-2.9a67.8,67.8,0,0,1-15.85.44c-1.93-.17-1.91,2.83,0,3a71.83,71.83,0,0,0,16.64-.54c1.48-.22,1.39-2.6,0-2.9-13.31-2.81-27-1.06-40.43-.65-10.48.32-21,.4-31.45.4q-18.23,0-36.45-.3-18-.27-35.92-.76-14.6-.39-29.18-1l-2.89-.13v3q15,.62,30,1,18.15.54,36.29.91,19.17.41,38.34.61,18.39.21,36.79.17c10.31,0,20.63-.14,30.95-.45l3.3-.1c1.93-.07,1.94-3,0-3l-55.64.83-15.71.24a1.5,1.5,0,0,0,0,3c11.95.2,23.89-.27,35.81-1.06,6-.41,12.1-.89,18.14-1.4l8.93-.79c2.33-.2,5.64.08,7.51-1.58s1.76-4.84,1.93-7.28c.22-3,.41-5.91.59-8.86q.51-8.76.83-17.52c.42-11.63.61-23.27.67-34.9.07-13.13,0-26.25-.06-39.37h-3c1.27,28.53.66,57.08-.32,85.61q-.44,12.39-.87,24.77c-.07,1.94,2.9,1.92,3,0,1.36-27.82,3.14-55.64,3.39-83.51q.11-12.12-.18-24.24c-.05-1.93-3.05-1.94-3,0Z"/><path class="cls-2" d="M242.16,208.37a1.5,1.5,0,0,0,0-3,1.5,1.5,0,0,0,0,3Z"/><path class="cls-2" d="M262.2,206l.61-86.36c0-6.53.71-14-3.27-19.63-1.1-1.56-3.7-.06-2.59,1.52,3.48,4.92,2.9,11.39,2.86,17.11l-.14,21-.3,42.43-.17,24a1.5,1.5,0,0,0,3,0Z"/><path class="cls-2" d="M258.3,101.68a1.5,1.5,0,0,0,0-3,1.5,1.5,0,0,0,0,3Z"/><path class="cls-2" d="M76.17,100.3q36-1.1,72.1-1.88t72.12-1.29q10-.13,20-.25l10-.11c2,0,5-.19,6.07,1.92.88,1.71,3.47.2,2.59-1.52-2.24-4.38-8.65-3.4-12.66-3.36L227.88,94q-18.34.24-36.69.55-36.8.63-73.6,1.57-20.72.52-41.42,1.15c-1.92,0-1.93,3,0,3Z"/><path class="cls-2" d="M257.77,100a1.5,1.5,0,0,0,0-3,1.5,1.5,0,0,0,0,3Z"/><path class="cls-2" d="M80.78,98.12c-3.41.72-3.37,4.9-3.4,7.62q-.06,6.6,0,13.2,0,13.2.31,26.4.17,7.47.43,14.94l.74-1.29c-1.37.94-.82,3.92-.8,5.32,0,3.6.15,7.19.25,10.79.23,8.39.51,16.78.68,25.17q0,2.17.06,4.35c0,.45,0,.9,0,1.34a2.57,2.57,0,0,0,0,.39c0,.14-.12.13,0-.07s.06-.57.68-1c-1.58,1.09-.08,3.69,1.52,2.59,1.07-.73.82-2.33.82-3.47,0-2.13-.06-4.27-.11-6.4-.15-6.23-.34-12.45-.51-18.67-.15-5.38-.33-10.76-.38-16.14,0-.68,0-1.37,0-2.05,0-.18,0-.36,0-.54s0-.15,0-.19c.28.68-.1.43,0,.32s0,0-.14.32c-.64.6-.71.69-.22.29.68-1.2.38-2.67.34-4-.06-1.75-.11-3.49-.16-5.23q-.14-5-.24-10-.21-11.09-.24-22.17,0-5.49,0-11c0-1.76,0-3.54,0-5.29,0-.89.11-2.45,1.17-2.67,1.88-.4,1.09-3.3-.8-2.9Z"/><path class="cls-2" d="M77.66,162.23a1.5,1.5,0,0,0,0-3,1.5,1.5,0,0,0,0,3Z"/><path class="cls-2" d="M77.45,208.49c12-.37,23.92-.34,35.87-.41q23.22-.12,46.44-.1c5.53,0,11.06,0,16.59.09a1.5,1.5,0,0,0,0-3c-11.95-.17-23.91-.1-35.87-.08q-23.22,0-46.44.23c-5.53.06-11.06.1-16.59.27-1.93,0-1.93,3,0,3Z"/><path class="cls-2" d="M213.11,206.9a1.5,1.5,0,0,0,0-3,1.5,1.5,0,0,0,0,3Z"/><path class="cls-2" d="M171.57,214.81l1.28,22,3-.4-.55-1.55c-.64-1.81-3.54-1-2.89.79l.54,1.56c.53,1.5,3,1.39,2.95-.4l-1.28-22c-.11-1.92-3.11-1.93-3,0Z"/><path class="cls-2" d="M175.08,209.79l-.07-.2-.15,1.16-1.65-.18v.26a3.57,3.57,0,0,0,0,1v2l0,3.94,0,8.12-.09,16a1.5,1.5,0,0,0,3,0l.12-20.92c0-3.4.25-6.87.06-10.26-.07-1.22-.7-2.56-2.12-2.57a2,2,0,0,0-1.9,2.5c.64,1.81,3.54,1,2.89-.8Z"/><path class="cls-2" d="M133.65,245.18l52.12-1a1.5,1.5,0,0,0,0-3l-42,.12v3q27.19-1.51,54.45-.54l-1.06-2.56a1.18,1.18,0,0,1-1.17.53c-1.89-.37-2.7,2.52-.8,2.9a4.16,4.16,0,0,0,4.09-1.3,1.53,1.53,0,0,0-1.06-2.57q-27.22-1-54.45.54a1.5,1.5,0,0,0,0,3l42-.12v-3l-52.12,1c-1.93,0-1.94,3,0,3Z"/><path class="cls-2" d="M191.24,245.2a1.5,1.5,0,0,0,0-3,1.5,1.5,0,0,0,0,3Z"/><path class="cls-2" d="M177.42,143.84a116.6,116.6,0,0,0-.24-18.12.51.51,0,0,0-.5-.5l-37.13-.57-18.69-.28-4.49-.07c-1,0-2.51-.23-3.09.87a2.39,2.39,0,0,0-.11,1.52c.11.74.27,1.47.39,2.22.25,1.5.46,3,.63,4.54a93.91,93.91,0,0,1,.09,20.32.51.51,0,0,0,.5.5l29.24.38,8.25.11a.5.5,0,0,0,0-1L123,153.37l-8.24-.1.5.5a93.88,93.88,0,0,0,.19-17.42c-.23-2.91-.61-5.8-1.11-8.67a4.37,4.37,0,0,1-.23-2c.23-.63,1.36-.44,1.87-.43l4.49.06,36,.55,20.19.31-.5-.5a116.6,116.6,0,0,1,.24,18.12c0,.64,1,.64,1,0Z"/><path class="cls-2" d="M188.09,153.81c.32-1.8,1.76-3.15,3.12-4.24a16.67,16.67,0,0,1,4.07-2.39,19.2,19.2,0,0,1,9.18-1.33,17.59,17.59,0,0,1,8.68,3.26,16.85,16.85,0,0,1,5.56,7.3,18.57,18.57,0,0,1-1.9,17.77c-4.49,6.09-12.28,8.69-19.63,8.11a29,29,0,0,1-11.54-3.37c-3.19-1.77-6-4.7-6.3-8.52a7.41,7.41,0,0,1,.3-2.65c.19-.61-.78-.88-1-.26-1.13,3.74.63,7.68,3.44,10.18,3,2.7,7.17,4.2,11.1,5,7.89,1.68,16.54.12,22.42-5.68a19.14,19.14,0,0,0,4.77-18.71,18.88,18.88,0,0,0-4.83-8.44,17.7,17.7,0,0,0-8.76-4.66,20.2,20.2,0,0,0-9.92.34,16.93,16.93,0,0,0-8.56,5.45,5.77,5.77,0,0,0-1.21,2.53c-.11.63.85.9,1,.27Z"/><path class="cls-2" d="M195.6,245.49l4.14-.3-1.45-1.1c.11.34,0,0,.06,0l-.17.22a1.11,1.11,0,0,1-.81.1,6.37,6.37,0,0,1-1.52-.47,2.93,2.93,0,0,0-.39-.21c.08.07.06,0-.07-.08a.64.64,0,0,1,.18.38l-.74,1.29a1.24,1.24,0,0,1,.84-.11,1.38,1.38,0,0,1,.91.59l-.23-1.82c.16-.27-.1.14,0,0s.13,0,0,0h-.17c.22,0,0-.06,0,0q.17.08,0,0c-.09-.06-.08,0,0,0s-.05-.09,0,0a.49.49,0,0,1,0-.24.91.91,0,0,1,.63-.77,2.42,2.42,0,0,1,1.55,0c.13,0,.35.14.42.17s.22.16.1.06,0,.24,0,.05-.06.12,0,.1a1.25,1.25,0,0,1-.51.4c.14-.08-.27.06-.06,0a1.15,1.15,0,0,1-.37,0,2.38,2.38,0,0,1-.68-.19,8,8,0,0,1-1.67-1.08l-.3,2.35a4.2,4.2,0,0,1,5.07,1.08c1.15,1.33,3.15-.37,2.36-1.82l-1.8-3.31-.9,2.2c.35-.08-.09,0,.23,0-.25,0,.16.1,0,0,0,0,.39.23.23.11a1.82,1.82,0,0,1,.34.34c-.13-.17.11.23.11.23-.09-.21.06.22.06.23-.06-.22,0,.15,0,0s-.1.33-.13.41c-.47,1.13.85,2.08,1.84,1.84a6.6,6.6,0,0,1,3.76.27l.4-2.94-3.54.11c-1.92.06-1.93,3.06,0,3l3.54-.11a1.51,1.51,0,0,0,.4-3,9.5,9.5,0,0,0-5.36-.27l1.85,1.85c1.13-2.76-1.79-5.64-4.51-5a1.51,1.51,0,0,0-.9,2.2l1.8,3.32,2.35-1.82a7.22,7.22,0,0,0-8.7-1.55,1.51,1.51,0,0,0-.31,2.36c1.6,1.26,3.59,2.67,5.74,2s3.44-2.93,2.29-4.91c-1-1.8-3.82-2.23-5.64-1.54a3.87,3.87,0,0,0-2.3,5.17,3.13,3.13,0,0,0,5.4.28,1.53,1.53,0,0,0-.24-1.82,4.43,4.43,0,0,0-5.39-.94,1.48,1.48,0,0,0-.74,1.3c.07,2.28,2.91,3.27,4.84,3.39,2.19.14,4.49-1.75,3.78-4.09a1.53,1.53,0,0,0-1.45-1.1l-4.14.3a1.54,1.54,0,0,0-1.5,1.5,1.52,1.52,0,0,0,1.5,1.5Z"/><path class="cls-2" d="M194.52,246.34a1.5,1.5,0,0,0,0-3,1.5,1.5,0,0,0,0,3Z"/><path class="cls-2" d="M197.9,242.32l4-.26a16.72,16.72,0,0,1,3.08-.12c.83.12.91.44.68,1.2a8.89,8.89,0,0,0-.64,3.1l1.5-1.5-21.83-1c-1.93-.08-1.92,2.92,0,3l21.83,1a1.51,1.51,0,0,0,1.5-1.5c-.08-1.3.78-2.46.79-3.78a3.39,3.39,0,0,0-1.89-3,7.13,7.13,0,0,0-3.69-.46l-5.34.35c-1.92.13-1.93,3.13,0,3Z"/><path class="cls-2" d="M183,246.19a1.5,1.5,0,0,0,0-3,1.5,1.5,0,0,0,0,3Z"/><path class="cls-2" d="M150.33,168.61l9.56-26.5,2.71-7.5-1.47.6a261.41,261.41,0,0,1,27.48,18.32c2.5,1.9,4.95,3.85,7.38,5.83l.44-1.67q-19,5.43-38.31,9.89-5.49,1.28-11,2.47c-1.26.27-.72,2.2.53,1.93q19.34-4.18,38.43-9.34,5.46-1.47,10.9-3a1,1,0,0,0,.44-1.67,267,267,0,0,0-27.13-19.57q-4-2.52-8.13-4.9a1,1,0,0,0-1.47.6l-9.56,26.5-2.7,7.5c-.44,1.21,1.49,1.74,1.92.53Z"/><path class="cls-2" d="M87,108.18l.14.07.07,0,0,0-.06,0a.35.35,0,0,1,.11.1l.06.05,0,0,0,0,.08.13,0,.07v0c0-.08,0,0,0,0a.19.19,0,0,1,0,.07.94.94,0,0,1,0,.16l0-.13a2.62,2.62,0,0,1,0,.28l.36-.48h0l.13,0H87.9l.13,0-.07,0s.1,0,.07,0l0,0,0,0s.11.1.05,0a.17.17,0,0,0-.06-.06s.08.11,0,.06l0,0a.25.25,0,0,1,0-.07s0,.13,0,.06v0s0-.06,0-.09l0,.14a.75.75,0,0,1,0-.15l0,.13s0,0,0-.06v0l0,.07c0-.09-.08.09,0,0l.06,0-.36.15h.11l-.13,0,.08,0c.08,0,0,0,0,0s0,0,0,0l0,0s0,.06,0,0l.06.07s.05.06,0,0,0,0,0,0a.56.56,0,0,1,0,.08s0-.11,0-.06a.08.08,0,0,1,0,0,.3.3,0,0,1,0,.1v0l0-.13,0,.11s.06-.12,0-.06l0,.06.18-.18-.07,0s-.12,0,0,0a.8.8,0,0,1-.15,0h.13a1.47,1.47,0,0,1-.21,0h.13a.8.8,0,0,1-.15,0l-.05,0c.16,0,.07,0,0,0l-.12-.08c-.1-.07.08.07,0,0l0,0-.11-.11c.12.13,0,0,0,0a.49.49,0,0,0,0-.07s0,.13,0,0a.83.83,0,0,1,0-.15l0,.14a.67.67,0,0,1,0-.2l0,.14,0-.12c0-.08-.06.12,0,0l0,0s0,0,0,0-.08.1,0,0a.6.6,0,0,1,.08-.08s-.13.09,0,0l0,0,0,0c.07,0-.11,0-.06,0l.21-.05-.14,0a1.41,1.41,0,0,1,.29,0l-.14,0,.26.07c.07,0-.13-.07,0,0l.07,0,0,0s.08.08,0,0l.09.08s0,.1,0,0l0,.06a.08.08,0,0,1,0,0c.06.09,0-.11,0,0l0,.13,0-.13a.2.2,0,0,1,0,.07l.07-.25h0c.06-.07,0,0,0,0l-.06.07,0,0s.11-.08,0,0l-.07,0-.07,0s.12,0,.06,0l0,0-.18,0,.14,0a1.6,1.6,0,0,1-.31,0l.13,0a.77.77,0,0,1-.26-.07c-.11,0,.1,0,0,0l0,0-.12-.07c-.07,0,.1.08,0,0s0,0,0,0a.08.08,0,0,1,0,0s-.07-.11,0,0L87.2,108s0-.1,0,0l0-.08-.48.64a1,1,0,0,1,.24,0h-.13a1.31,1.31,0,0,1,.27.06l.06,0c-.12,0-.07,0,0,0l.13.07,0,0c.07,0,0,0,0,0l.1.09.05.06h0c0-.07,0,0,0,0l0,.07a.51.51,0,0,0,.69.18.51.51,0,0,0,.18-.68,1.83,1.83,0,0,0-1.65-.89.51.51,0,0,0-.48.63,1.45,1.45,0,0,0,1,1,1.55,1.55,0,0,0,1.31-.17,1,1,0,0,0,.27-.24.63.63,0,0,0,.19-.41,1,1,0,0,0,0-.23,1.22,1.22,0,0,0-.32-.59,1.59,1.59,0,0,0-1.17-.43,1.34,1.34,0,0,0-.65.2,1.15,1.15,0,0,0-.49.62,1.3,1.3,0,0,0,.39,1.36,1.39,1.39,0,0,0,1.39.37.91.91,0,0,0,.47-.33,1.08,1.08,0,0,0-.06-1.2,1.1,1.1,0,0,0-.69-.48,1,1,0,0,0-.25,0,.57.57,0,0,0-.4.2.94.94,0,0,0-.22.39,1.11,1.11,0,0,0,.73,1.31.83.83,0,0,0,.47,0,.51.51,0,0,0,.37-.48,1.81,1.81,0,0,0-1-1.73.53.53,0,0,0-.39,0,.52.52,0,0,0-.3.23.51.51,0,0,0,0,.38.5.5,0,0,0,.23.3Z"/><path class="cls-2" d="M92.74,108.22h.05l-.14,0a.24.24,0,0,1,.12,0l-.14,0,.09,0s0,0,0,0-.06,0,0,0l.07,0-.06,0,0,0,0,.05c0-.07-.07-.08,0,0l0,0c0,.07,0-.12,0,0a.29.29,0,0,1,0,.09l0-.13a.41.41,0,0,1,0,.11v-.13c0,.11,0,0,.09-.12l0,.05s-.08.06,0,0,0,0,0,0l0,0c-.08,0,.12,0,0,0l-.13,0,.13,0h0l-.09,0s-.09,0,0,0c-.08-.05.09.09,0,0a.34.34,0,0,1,.1.16,0,0,0,0,1,0,0l0,.13a.08.08,0,0,1,0-.07l0,.14s0,0,0,0-.06.12,0,.06-.08.11,0,.06a.28.28,0,0,1-.12.08c-.05,0-.06,0,0,0h-.2a.21.21,0,0,1-.12-.07l0,0s0,0,0-.07c0,.1,0-.12,0,0l0-.13v.07l0-.13c0,.07.06-.11,0-.07s.09-.1,0-.05H93l0,0c-.06,0,.07.12,0,0s0,.11,0,.07a.43.43,0,0,0,0,0v.18a.19.19,0,0,1,0-.07s-.07.12,0,.07a.08.08,0,0,1,0,0l0,0s-.09.1,0,.05l.06-.06c.07-.06-.12.08,0,0l.08,0c.06,0-.11,0-.06,0l0,0,.09,0-.13,0h.13l-.14,0,.07,0c.07,0-.14-.07,0,0s0,0,0,0l.06.06,0-.06a.05.05,0,0,0,0,0l0,0c-.08-.13,0-.07,0,0a.22.22,0,0,1,0,.08v-.13a1.41,1.41,0,0,1,0,.2l0-.13,0,.14a.14.14,0,0,0,0,.07c0-.15,0-.08,0,0l-.08.13s-.07.08,0,0l0,.06-.11.1c.1-.1.07,0,0,0l-.06,0s-.05,0-.08,0l.07,0,0,0a.58.58,0,0,1-.19,0h-.05l.13,0-.1,0h0c.07,0,.09,0,0,0s-.06-.06,0,0l-.05-.05s.08.12,0,0l0,0c.08.14,0,.09,0,0a.64.64,0,0,0,0-.07l0,.13a.61.61,0,0,1,0-.19l0,.13s0-.07,0-.11,0,0,0-.06,0,0,0,0a1.09,1.09,0,0,0,.06-.11l0,0c0-.07-.09.1,0,0l.08-.09s-.12.08,0,0l.05,0h0l.18,0-.14,0a1.37,1.37,0,0,1,.35,0l-.14,0a3.17,3.17,0,0,1,.44.12c.12.05-.08,0,0,0l.11,0,.2.11-.24-.43v0l0-.13a.45.45,0,0,1,0,.11c0,.07.06-.12,0-.06l0,0,0,0c.08-.13.07-.08,0,0a.3.3,0,0,0-.08.08s.12-.09,0,0l-.05,0s-.14.07,0,0,0,0-.06,0l-.11,0h.13a.89.89,0,0,1-.23,0l.13,0-.11,0-.06,0,0,0,0,0,0,0,0,0s-.08-.11,0,0a.53.53,0,0,0-.3-.23.47.47,0,0,0-.38,0,.5.5,0,0,0-.23.3.46.46,0,0,0,0,.38,1.13,1.13,0,0,0,.65.46,1.28,1.28,0,0,0,.7,0,1.38,1.38,0,0,0,.6-.34,1.2,1.2,0,0,0,.33-.73.5.5,0,0,0-.25-.43,2,2,0,0,0-2.29-.07,1.21,1.21,0,0,0,0,1.82,1.4,1.4,0,0,0,2-.65,1.32,1.32,0,0,0,0-1.13.91.91,0,0,0-.86-.53,1.17,1.17,0,0,0-.92.53.8.8,0,0,0,.12,1.06.45.45,0,0,0,.35.15.58.58,0,0,0,.35-.15.67.67,0,0,0,.18-.7.68.68,0,0,0-.63-.5.71.71,0,0,0-.51,1.17.92.92,0,0,0,.63.26,1.15,1.15,0,0,0,.6-.13,1,1,0,0,0,.45-.4.89.89,0,0,0,0-.7,1.08,1.08,0,0,0-1.22-.69.5.5,0,0,0,.26,1Z"/><path class="cls-2" d="M98.53,108.67l0-.1c0-.13,0,.09,0,0v-.1c0-.09,0,.13,0,0a.38.38,0,0,0,0-.1l0,0,0,0a.41.41,0,0,1,0-.09c0-.07-.08.09,0,0l.07-.07c.07-.06-.1.07,0,0l.09-.06c.08,0-.12,0,0,0l.11,0c-.14,0-.07,0,0,0s-.07,0,0,0l.08,0s-.12-.06,0,0l.08,0c-.13-.06-.06,0,0,0l.07.07c-.11-.1,0-.05,0,0l0,.09c.06.11,0-.1,0,0l0,.09s0,.06,0,.09c0-.16,0-.07,0,0v.1c0,.08,0-.14,0,0l0,.09c0,.08.07-.12,0,0a.22.22,0,0,0,0,.08c0-.07.07-.09,0,0l0,0,.22-.12-.43.08c-.11,0,.1,0,0,0h-.42c-.11,0,.09,0,0,0s-.18,0-.2-.06h0l-.07,0c-.07,0,.09.07,0,0l-.06-.06c-.07-.07,0,.07,0,0l0-.06,0-.06s0,.13,0,0,0-.09,0-.14,0,.09,0,0,0,0,0-.06,0,0,0-.07,0,.14,0,0a.14.14,0,0,0,0-.06s-.07.12,0,0,.06-.08,0,0,0,0,0,0-.07,0,0,0l.07,0-.39,0,0,0s0,0,0,0l0,0a.16.16,0,0,0,.07,0s-.09-.07,0,0,0,0,0,0h0c0-.06,0,0,0,0a.25.25,0,0,1,0,.07c0,.06,0,0,0,0s0,.06,0,.08,0,0,0,.07,0-.12,0,0v.14c0-.08,0-.1,0-.06s0,0,0,0a.14.14,0,0,0,0,.07s.06-.11,0,0l0,.06c0,.08,0,0,0,0s0,0,0,.05,0,0,0,0,.1-.06,0,0a.75.75,0,0,0-.12.07s.11,0,0,0l-.06,0-.07,0c-.06,0,.12,0,0,0h-.08c-.09,0,.09,0,0,0l-.14,0a.5.5,0,0,0-.62.35.52.52,0,0,0,.35.61,1.34,1.34,0,0,0,1.36-.31,1.26,1.26,0,0,0,.32-1.34c-.18-.49-.78-1.13-1.34-.77a1.13,1.13,0,0,0-.43,1.22,1.35,1.35,0,0,0,.92,1,2.84,2.84,0,0,0,1.53,0,.93.93,0,0,0,.56-.63,1.48,1.48,0,0,0,0-.66,1.37,1.37,0,0,0-.65-1,1.26,1.26,0,0,0-1.5.22,1.35,1.35,0,0,0-.38,1.43.57.57,0,0,0,.23.3.53.53,0,0,0,.39.05.51.51,0,0,0,.34-.62Z"/><path class="cls-2" d="M246.88,104.4q-7.92.27-15.85.13c-.64,0-.64,1,0,1a101.08,101.08,0,0,0,12.18-.35c.64-.06.64-1.06,0-1a101.08,101.08,0,0,1-12.18.35v1q7.92.14,15.85-.13c.64,0,.64-1,0-1Z"/><path class="cls-2" d="M239,215.78c0,.08,0-.12,0,0v.14c0,.12,0-.09,0,0a.65.65,0,0,0,0,.13c0,.08,0,0,0,0a.25.25,0,0,0,0,.07l-.07.12,0,0-.06.07a.52.52,0,0,1-.11.1h0l0,0c-.09.06-.19.1-.28.15h0l-.07,0-.16,0h-.35c-.1,0,.07,0,0,0h-.08l-.15,0c-.09,0,.06,0,0,0l-.07,0-.11-.08s.08.08,0,0l-.05-.06s0-.08,0,0,0,0,0-.06l0-.07s-.05-.12,0,0,0,0,0,0a.24.24,0,0,1,0-.08s0-.11,0,0,0,0,0,0V216s0,0,0,0,0,.12,0,.07l0-.16,0-.07c0-.08,0,.1,0,0l.09-.16a.43.43,0,0,1,0-.07c.05-.07-.07.08,0,0l.12-.13.12-.11c.07-.06,0,0,0,0l.09-.06.16-.09.09,0-.06,0h0a1.39,1.39,0,0,1,.19-.06h0s-.12,0-.06,0h.24l.09,0c.11,0-.07,0,0,0l.08.05.07,0,0,0s0,0,0,.05l-.15-.36s0,.06,0,.08,0-.1,0,0a.7.7,0,0,1,0,.14s0,0,0,.07.05-.11,0,0a.75.75,0,0,0-.07.12l0,.07c0,.06,0,0,0,0a.53.53,0,0,0-.09.11l-.11.09c-.08.07.07,0,0,0a.18.18,0,0,0-.07,0l-.12.07-.06,0c-.05,0,.1,0,0,0l-.13,0a.58.58,0,0,0-.14,0s.09,0,0,0h-.21c-.06,0,.1,0,0,0l-.08,0-.15-.05a.5.5,0,0,0-.61.35.5.5,0,0,0,.35.61,1.89,1.89,0,0,0,2.4-1.27,1.58,1.58,0,0,0,.05-.38.67.67,0,0,0-.35-.55,1.34,1.34,0,0,0-.54-.22,1.91,1.91,0,0,0-1.28.24,1.85,1.85,0,0,0-1,2.14,1.55,1.55,0,0,0,.92.92,2,2,0,0,0,1.14,0,2.06,2.06,0,0,0,1.08-.63,1.6,1.6,0,0,0,.38-1.36.5.5,0,1,0-1,.27Z"/><path class="cls-2" d="M274.85,195.1a2.28,2.28,0,0,1,1.29-1.89,1.51,1.51,0,0,1,1.86.54,1.29,1.29,0,0,1-.36,1.93,2.52,2.52,0,0,1-2.09.28c-1.35-.38-2.38-1.8-1.54-3.13.69-1.08,2.48-1.63,3.18-.34a2.41,2.41,0,0,1-.94,2.93c-1.16.66-2.46-.37-2.85-1.52a2.5,2.5,0,0,1,0-1.9,2.56,2.56,0,0,1,1.57-1.27,3.25,3.25,0,0,1,3.78,1.41,3.67,3.67,0,0,1-.61,4.28,3.62,3.62,0,0,1-4.28.3,3.51,3.51,0,0,1-.85-.78.48.48,0,0,0-.7,0,.5.5,0,0,0,0,.7,4.64,4.64,0,0,0,5.64,1.13,4.52,4.52,0,0,0,2-5.34,4.18,4.18,0,0,0-4.75-2.78,3.76,3.76,0,0,0-2.44,1.48,3.3,3.3,0,0,0-.46,2.7c.39,1.72,2.18,3.34,4,2.63a3.37,3.37,0,0,0,1.82-4.2,2.46,2.46,0,0,0-2.13-1.53,3.24,3.24,0,0,0-2.56,1.14,3,3,0,0,0-.69,2.77,3.46,3.46,0,0,0,1.91,2.07,3.68,3.68,0,0,0,2.89.11,2.41,2.41,0,0,0,1.64-2.7,2.64,2.64,0,0,0-2.08-2,2.89,2.89,0,0,0-2.8,1.4,3.35,3.35,0,0,0-.51,1.59c0,.64,1,.64,1,0Z"/><path class="cls-2" d="M270.39,179.51l-.07,1.68.75-.43-.07,0,0,0,0,0-.06-.05,0,0c-.05,0,0,0,0,0s-.07-.11-.09-.15-.05-.1,0,0,0,0,0-.05,0-.11,0-.16,0,.07,0,.07v-.06a.28.28,0,0,1,0-.09c0-.06,0-.12,0-.18s0,.11,0,0a.3.3,0,0,1,0-.1,1.21,1.21,0,0,1,.05-.18.31.31,0,0,1,0-.08c.05-.11,0,.06,0,0a2.58,2.58,0,0,1,.18-.32c.05-.07-.06.08,0,0l.07-.08.13-.12,0,0s-.09.05,0,0l.07,0,.06,0s.13-.06.05,0,0,0,0,0l.07,0h.16c.05,0,.11,0,0,0l.18.05h0c.06,0,0,0,0,0l.07,0,.06,0,0,0c.05,0-.09-.08,0,0l.11.1c0,.06,0,0,0,0a.47.47,0,0,0,.06.09.75.75,0,0,0,.07.12c0,.07,0-.11,0,0l0,.08s0,.11,0,.16,0,.12,0,0,0,0,0,0,0,.24,0,.36,0-.13,0,0,0,.05,0,.08a1.21,1.21,0,0,1-.05.18l0,.08c0,.12,0-.06,0,0a1.51,1.51,0,0,1-.09.18l0,.07,0,0c0,.05.07-.08,0,0l-.13.14,0,0,0,0-.08,0h0c-.06,0,0,0,0,0a1.09,1.09,0,0,0-.17.05c-.11,0,.08,0,0,0h-.11a.5.5,0,0,0,0,1c1.48,0,2.1-1.83,1.53-3a1.57,1.57,0,0,0-1.77-.82,2.06,2.06,0,0,0-1.39,1.43,1.79,1.79,0,0,0,.67,2.11.51.51,0,0,0,.75-.44l.07-1.68a.5.5,0,0,0-1,0Z"/><path class="cls-2" d="M106.62,219.2c.19.08,0,0,0,0a.49.49,0,0,1,0,.07c.06,0,0,0,0-.1s0-.37.3-.35c.69.07.41.83-.15.86-.74,0-.67-1-.23-1.34s1.94-.68,2.43,0a1.71,1.71,0,0,1,0,1.76,2.9,2.9,0,0,1-2.09,1.14,9.25,9.25,0,0,1-1.3.1c-.42,0-.94,0-1-.5a3.43,3.43,0,0,1,1-2.27,3.18,3.18,0,0,1,2.2-1.14,2.3,2.3,0,0,1,2.16,1,2,2,0,0,1,0,2.06,2.86,2.86,0,0,1-2.34.85c-1.56,0-4.49-.43-4-2.66a5.86,5.86,0,0,1,1.46-2.51,2.66,2.66,0,0,1,2.19-1.07c2.28.29,2.59,3.36,2.5,5.14-.09,2.09-2.26,2.53-4,2.72-.64.07-.64,1.07,0,1a8,8,0,0,0,3.43-.95,3.51,3.51,0,0,0,1.54-3.29,7.06,7.06,0,0,0-1.09-4.19,3.28,3.28,0,0,0-3.38-1.34,5.42,5.42,0,0,0-2.91,2.59c-.77,1.21-1.2,2.66-.27,3.92a4.81,4.81,0,0,0,3.82,1.63c1.27.06,2.78,0,3.69-1.05a2.92,2.92,0,0,0,.26-3.35,3.34,3.34,0,0,0-3.29-1.52,4.38,4.38,0,0,0-3.16,2.09c-.59.93-1.27,2.63-.17,3.46a2.8,2.8,0,0,0,1.91.32,6.43,6.43,0,0,0,2-.36,3.08,3.08,0,0,0,2.15-2.54,2.14,2.14,0,0,0-1.65-2.44c-1.18-.2-3,.27-3.28,1.6a1.63,1.63,0,0,0,1.82,2.07,1.45,1.45,0,0,0,.86-2.42c-.77-.7-2.27-.47-2.34.72a1.27,1.27,0,0,0,.8,1.27,1,1,0,0,0,1.23-.64,1,1,0,0,0-.43-1.24c-.59-.25-1.1.61-.51.86Z"/><path class="cls-2" d="M63.66,99.94l0-.07s-.07.08,0,0,.06,0,0,0l0,0c.06,0-.09,0,0,0l0,0h.08c-.12,0,0,0,0,0s-.06,0,0,0,.13.05,0,0l.06,0s0,0,0,0l0,0s0-.07,0,0h0l0,.08s0,.08,0,0v.11c0-.07,0,0,0,0a.29.29,0,0,0,0,.09c0,.12,0,0,0,0l0,.08,0,0s0,0,0,0l-.06.06s-.07,0,0,0l-.07,0h0l-.06,0h-.07s-.16,0-.1,0l-.1,0-.08,0c.09,0,0,0,0,0l-.07,0s-.08-.07,0,0l-.07-.07c.07.07,0,0,0-.07s0-.07,0,0,0,0,0-.06,0,0,0,0v-.09s0-.08,0,0,0,0,0,0,.06-.14,0-.06l0-.07,0-.06,0,0,.06-.06s0,0,0,0l.07,0s.09,0,0,0l.08,0s.08,0,0,0,0,0,.06,0,0,0,0,0l.08,0c-.08,0,0,0,.05,0s-.05,0,0,0l0,0,.06.07c-.06-.08,0,0,0,0l0,.07c0,.07,0-.07,0,0s0,.16,0,0c0,0,0,.18,0,.08s0,0,0,.06,0-.05,0,0l0,.06s.07-.08,0,0,.07,0,0,0-.11,0,0,0l-.07,0s-.12,0-.05,0-.06,0-.08,0,0,0,0,0h-.08l-.07,0s.09.05,0,0l0,0s0,.06,0,0l-.05-.06s.07.08,0,0,0-.07,0,0,0,0,0,0,0,.09,0,0v-.06c0-.09,0,0,0,0s0-.06,0-.09,0,.06,0,0,0,0,0-.06l0-.06c0,.08,0,0,0,0l.12-.12c-.08.07,0,0,.06,0l.08,0s-.1,0,0,0l.14,0c.06,0-.08,0,0,0h.06c.09,0,0,0,0,0l.1,0c.07,0-.07,0,0,0l0,0s.14.11.07,0l.12.12c-.07-.07,0,0,0,.07a.25.25,0,0,0,0,.07c0,.08,0,0,0,0l.06.19s0,.18,0,.08a1.21,1.21,0,0,1,0,.19v.07s0,.16,0,0l0,.17,0,.08s0,.12,0,.07,0,0,0,0a.91.91,0,0,1-.07.14,1,1,0,0,1-.22.28,3,3,0,0,1-.32.3l0,0-.1.08-.2.12a4.36,4.36,0,0,1-.42.23l.68.18-.46-.87a.52.52,0,0,0-.69-.18.51.51,0,0,0-.18.69l.47.87a.53.53,0,0,0,.69.18,3.65,3.65,0,0,0,1.75-1.61,2.09,2.09,0,0,0-.2-2.13,1.47,1.47,0,0,0-1-.57,1.55,1.55,0,0,0-1.07.37,1.23,1.23,0,0,0,0,2,1.35,1.35,0,0,0,1.89-.44,1.38,1.38,0,0,0-.95-1.91,1.43,1.43,0,0,0-1.63,1.42,1.48,1.48,0,0,0,1.58,1.39,1.45,1.45,0,0,0,1.22-2,1.24,1.24,0,0,0-2.14-.07.51.51,0,0,0,.18.68.49.49,0,0,0,.68-.17Z"/><path class="cls-2" d="M83.2,83.4c.31.57.8,1.4.52,2.06-.16.37-.76.78-1,.31A1.28,1.28,0,0,1,83,84.3a1.16,1.16,0,0,1,1.51-.17,1.27,1.27,0,0,1,.57,1.44,1.38,1.38,0,0,1-1.11.85,1.28,1.28,0,0,1-1.27-.8,2.46,2.46,0,0,1,0-1.92c.39-1.11,1.42-2.83,2.78-2.79S87.22,83,87.21,84a3.67,3.67,0,0,1-1.63,3.14,3.32,3.32,0,0,1-3.21.28c-2.33-1.17-2.24-4.4-.61-6.09a4.26,4.26,0,0,1,6.15.29A4.56,4.56,0,0,1,87.33,88a4.81,4.81,0,0,1-3.45,1,4,4,0,0,1-3.15-1.73c-.67-1.27.29-2.79,1.14-3.71a7.08,7.08,0,0,1,3.36-2,2,2,0,0,1,1.65.16,1.54,1.54,0,0,1,.36,1.59,3,3,0,0,1-2.54,2.46,1.86,1.86,0,0,1-1.52-.6c-.43-.48-1.14.23-.71.7a3.13,3.13,0,0,0,4.44-.07c1.12-1,2-3.23.89-4.58s-3.31-.62-4.61.11a7.35,7.35,0,0,0-3.5,4,3.23,3.23,0,0,0,.24,2.63,4.33,4.33,0,0,0,2,1.63,6,6,0,0,0,4.9-.07,5.38,5.38,0,0,0-2.15-10.28,4.88,4.88,0,0,0-4.09,2,5.15,5.15,0,0,0-.85,4.47,4.21,4.21,0,0,0,3.55,3,4.54,4.54,0,0,0,4.14-2,5.29,5.29,0,0,0,.3-5A2.76,2.76,0,0,0,85.93,80a2.86,2.86,0,0,0-2.51.79c-1.23,1.12-2.32,3.17-1.8,4.85a2.3,2.3,0,0,0,3.69,1.26,2.24,2.24,0,0,0-.75-3.82,2.32,2.32,0,0,0-3,2.57A1.46,1.46,0,0,0,83.17,87a1.88,1.88,0,0,0,1.55-1.37,3.83,3.83,0,0,0-.65-2.7c-.31-.57-1.17-.07-.87.5Z"/></svg>