<svg id="Warstwa_1" data-name="Warstwa 1" xmlns="http://www.w3.org/2000/svg" viewBox="0 0 339 325.76"><defs><style>.cls-1{fill:#497ebf;}.cls-2{fill:#fff;}</style></defs><path class="cls-1" d="M306.15,162.88A136.65,136.65,0,1,1,169.5,26.23,136.65,136.65,0,0,1,306.15,162.88"/><path class="cls-2" d="M121.16,86.85c4.34-6.26,10.11-11.62,17.33-14.32,6.23-2.34,12.91-2.69,19.48-2.08a76.39,76.39,0,0,1,19.05,4,56.44,56.44,0,0,1,36.4,45.47,61.4,61.4,0,0,1-12.6,44.62,54.76,54.76,0,0,1-15.91,14.06,43.34,43.34,0,0,1-12.22,4.57,82.79,82.79,0,0,1-29.36.94c-11.22-1.61-22.38-5.54-31.24-12.78-8.41-6.89-14.63-16.42-16.54-27.14A65.45,65.45,0,0,1,98,113.05c3.71-11.56,10.8-22,20.9-28.92a56,56,0,0,1,8.64-4.78c1.76-.78.24-3.37-1.51-2.59A55.87,55.87,0,0,0,98.4,103.94a69.93,69.93,0,0,0-6.57,34,51,51,0,0,0,2.63,13.95,49.56,49.56,0,0,0,9.41,15.6c8.1,9.29,19.41,15.18,31.29,18A88,88,0,0,0,168,187a58.2,58.2,0,0,0,11.93-2.83,50,50,0,0,0,16.75-10.7,64.8,64.8,0,0,0,20.07-43.31A58.81,58.81,0,0,0,202,88a60.7,60.7,0,0,0-16-12.74,63.52,63.52,0,0,0-18.75-6.43c-6.85-1.31-13.91-2.13-20.87-1.23a37.38,37.38,0,0,0-19.57,8.51,47,47,0,0,0-8.21,9.26c-1.11,1.59,1.49,3.09,2.59,1.52Z"/><path class="cls-2" d="M186.85,176.82c9.63,22.75,21.28,44.55,33.3,66.11q5.22,9.36,10.5,18.69c.94,1.68,3.54.17,2.59-1.52-12.18-21.63-24.45-43.24-35.16-65.65q-4.53-9.48-8.64-19.14a1.5,1.5,0,0,0-2.05-.54,1.53,1.53,0,0,0-.54,2Z"/><path class="cls-2" d="M230.26,260.16q-.87.49-1.77.93a1,1,0,0,0-.42.38,1.06,1.06,0,0,0-.27.51,1.22,1.22,0,0,0,0,.6,1.12,1.12,0,0,0,.18.56,1.52,1.52,0,0,0,.9.69l.39.05a1.51,1.51,0,0,0,.76-.2q.9-.44,1.77-.93a1.13,1.13,0,0,0,.42-.39,1.06,1.06,0,0,0,.27-.51,1.12,1.12,0,0,0,0-.6,1.16,1.16,0,0,0-.18-.56,1.5,1.5,0,0,0-.89-.69,1.57,1.57,0,0,0-1.16.16Z"/><path class="cls-2" d="M186.76,177.54q16.71,32.76,34.74,64.84,5.17,9.21,10.45,18.35a1.5,1.5,0,0,0,2.59-1.52q-18.48-32-35.65-64.74-4.81-9.19-9.54-18.44c-.87-1.73-3.46-.21-2.59,1.51Z"/><path class="cls-2" d="M174.26,183.55c12.52,20.83,23.76,42.39,35,63.94q4.77,9.15,9.57,18.29c.9,1.71,3.49.19,2.59-1.52-11.33-21.49-22.28-43.19-34.19-64.37q-5.06-9-10.36-17.86a1.5,1.5,0,0,0-2.59,1.52Z"/><path class="cls-2" d="M183.49,76.29a44.44,44.44,0,0,1,22.42,20.58,55,55,0,0,1,5.35,33.75c-3.19,20.91-17.26,39.4-36.91,47.43a62.12,62.12,0,0,1-35.87,3.43c-1.89-.39-2.69,2.5-.8,2.89,22.43,4.65,46.61-3.23,61.56-20.69s20.31-43.2,11-64.75A47.88,47.88,0,0,0,184.29,73.4c-1.8-.72-2.58,2.18-.8,2.89Z"/><path class="cls-2" d="M155,70.45c9,.57,18.16,1.18,26.78,4a41.91,41.91,0,0,1,19.85,13.91,62.19,62.19,0,0,1,10.5,21.18,80.73,80.73,0,0,1,3.54,27.26c-.56,9.87-4,19.78-11.48,26.55-1.43,1.3.7,3.42,2.13,2.12,14.7-13.37,14.11-35.65,9.62-53.41-4.14-16.35-13.3-32.18-29.42-39-9.94-4.21-20.88-5-31.52-5.63-1.93-.12-1.92,2.88,0,3Z"/><path class="cls-2" d="M91.55,141.08a91.88,91.88,0,0,0,11.26,22c4.61,6.59,10,12.89,16.62,17.59A34.54,34.54,0,0,0,130.3,186a49,49,0,0,0,13.34,1.35c9.15-.08,18.5-.43,27.42-2.65,8.51-2.11,16.73-6.18,22.62-12.8,1.28-1.44-.84-3.57-2.12-2.12-11.11,12.49-28.74,14.11-44.41,14.51a67.61,67.61,0,0,1-12.88-.49,30.51,30.51,0,0,1-10.93-4.1c-6.52-4-11.9-9.93-16.44-16a89.19,89.19,0,0,1-12.46-23.34c-.64-1.81-3.54-1-2.89.8Z"/><path class="cls-2" d="M212.76,129.13c-2,9.17-4,18.56-8.57,26.84a46.17,46.17,0,0,1-8.88,11.18,102.57,102.57,0,0,1-11.21,9.17c-4.32,3-9.17,5.49-14.58,4.94-1.92-.19-1.9,2.81,0,3,4.92.5,9.64-1.3,13.78-3.83a90.43,90.43,0,0,0,12-9.22,53.26,53.26,0,0,0,10.23-11.58,59.7,59.7,0,0,0,6-13.28,165.75,165.75,0,0,0,4.15-16.42c.4-1.88-2.49-2.69-2.9-.8Z"/><path class="cls-2" d="M94.78,115.77c-2.54,13.67,1.09,27.81,8.65,39.33,7.83,11.93,19.63,20.51,32.7,25.94a99.18,99.18,0,0,0,23.31,6.37c1.89.29,2.71-2.6.8-2.89-13.49-2-26.75-6.54-38-14.41-11-7.69-19.52-18.76-23.3-31.7a47.21,47.21,0,0,1-1.29-21.84c.35-1.89-2.54-2.7-2.89-.8Z"/><path class="cls-2" d="M190.6,177.77q14.16,30.79,30.81,60.38,4.69,8.32,9.58,16.55a1.5,1.5,0,0,0,2.59-1.51Q216.27,224,201.36,193.5q-4.19-8.58-8.17-17.25c-.81-1.75-3.39-.23-2.59,1.52Z"/><path class="cls-2" d="M231.05,254.9l2.42,4.37a1.5,1.5,0,1,0,2.59-1.51l-2.42-4.37a1.51,1.51,0,0,0-2-.54,1.54,1.54,0,0,0-.54,2.05Z"/><path class="cls-2" d="M230.78,259c-3.2,1.95-6.39,4.87-10.37,4.61a1.5,1.5,0,1,0,0,3c4.6.3,8.2-2.77,11.88-5a1.5,1.5,0,1,0-1.51-2.59Z"/><path class="cls-2" d="M225.38,264.7a27.28,27.28,0,0,0,9.73-7,1.5,1.5,0,0,0-2.12-2.12,24.77,24.77,0,0,1-9.13,6.49,1.52,1.52,0,0,0-.54,2.06,1.56,1.56,0,0,0,2.06.53Z"/><path class="cls-2" d="M233.29,257.54c-2.45,4.31-8.06,4.91-12.5,5.37a1.54,1.54,0,0,0-1.5,1.5,1.5,1.5,0,0,0,1.5,1.5c5.55-.57,12.05-1.51,15.09-6.86a1.5,1.5,0,0,0-2.59-1.51Z"/><path class="cls-2" d="M220.32,264.89c.83-21.94-7.07-42.95-16.75-62.28-2.75-5.49-5.66-10.9-8.59-16.29-.92-1.7-3.52-.18-2.59,1.51,10.15,18.65,20.17,37.89,23.74,59a88.33,88.33,0,0,1,1.19,18c-.07,1.93,2.93,1.93,3,0Z"/><path class="cls-2" d="M219.74,184a.53.53,0,0,1,.67,0l-.08-.61a1,1,0,0,1-1.45-.06c-.43-.62.3-1.39.94-1.32l-.35-.15c.16.13,0,0,0,0s0,.09-.07.09,0,0,0,0a.21.21,0,0,1-.1-.06.56.56,0,0,1,.16-.75c.39-.32,1.63-.71,1.91-.06s-.53,1.21-1,1.37a2.43,2.43,0,0,1-1.72-.11,1.94,1.94,0,0,1-1.13-1.29,1.8,1.8,0,0,1,.61-1.65,1.7,1.7,0,0,1,1.65-.47,2.19,2.19,0,0,1,1.26,1.66,2.36,2.36,0,0,1-.39,2.24,1.83,1.83,0,0,1-1.89.16,2.42,2.42,0,0,1-1-3.63,1.77,1.77,0,0,1,3.12.51c.43,1.45-1.1,2.14-2.31,1.9a3.55,3.55,0,0,1-2.75-3.46,2.75,2.75,0,0,1,3.23-2.65c.62.15.89-.82.26-1a3.63,3.63,0,0,0-3.39,1,3.8,3.8,0,0,0-1,3.44c.43,2.36,3,4.38,5.42,3.47A2.44,2.44,0,0,0,222,180a2.73,2.73,0,0,0-2.23-2.33,3.08,3.08,0,0,0-3.1,1.67,3.41,3.41,0,0,0,.47,3.57,3.26,3.26,0,0,0,3.3,1.19,2.72,2.72,0,0,0,1.74-3.15,3.35,3.35,0,0,0-2-2.94,2.76,2.76,0,0,0-3,1.06,2.6,2.6,0,0,0-.13,3.18,3.35,3.35,0,0,0,2.83,1.32,2.62,2.62,0,0,0,2.56-2,1.5,1.5,0,0,0-.69-1.57,2.36,2.36,0,0,0-1.79-.14,2.32,2.32,0,0,0-1.53,1.09,1.5,1.5,0,0,0,.2,1.61,1.08,1.08,0,0,0,1.7-1.33c-.39-.48-1.17-.27-1.62,0a2.06,2.06,0,0,0-.88,1.43,1.8,1.8,0,0,0,2,1.93,1.83,1.83,0,0,0,1.36-.77.5.5,0,0,0-.07-.61,1.58,1.58,0,0,0-2.09,0c-.5.4.21,1.11.71.71Z"/><path class="cls-2" d="M70.89,111.7a2,2,0,0,0,1.93-1.23.5.5,0,0,0-.35-.61,2.6,2.6,0,0,0-3,1.71c-.27,1.3,1.17,2,2.26,1.87.57,0,1.47-.29,1.5-1s-.6-1-1.13-1a1.26,1.26,0,0,0-1.32,1.11A1.39,1.39,0,0,0,71.92,114a3.81,3.81,0,0,0,2.34-.39,2.28,2.28,0,0,0,1.39-1.39c.38-1.58-1.8-2-2.88-1.76a4.53,4.53,0,0,0-3.17,2.27,2.23,2.23,0,0,0,.66,3c1.93,1.31,5.36.32,5.54-2.22a3.37,3.37,0,0,0-2.22-3.32,3.75,3.75,0,0,0-3.81,1.33,3.15,3.15,0,0,0-.3,3.79A3.55,3.55,0,0,0,73,116.44a3.47,3.47,0,0,0,2.91-2.27,2.29,2.29,0,0,0-1.54-2.82,4.43,4.43,0,0,0-3.87,1,4.51,4.51,0,0,0-1.79,3.57,3.47,3.47,0,0,0,2,3.11,5.3,5.3,0,0,0,3.84.14,4.75,4.75,0,0,0,1.72-1c.48-.43-.23-1.13-.71-.71a4.16,4.16,0,0,1-4.89.37c-1.64-1.25-.93-3.61.46-4.73a3.74,3.74,0,0,1,2.55-.91A1.31,1.31,0,0,1,75,113.67c-.19,1.73-2.85,2.26-4.14,1.51a1.9,1.9,0,0,1-.75-2.31,3,3,0,0,1,2.06-1.79,2.05,2.05,0,0,1,2.37,1.11,1.92,1.92,0,0,1-.4,2.48,3.08,3.08,0,0,1-2.08.54,2,2,0,0,1-1.63-.79c-.36-.69.14-1.49.62-2a3.55,3.55,0,0,1,2.51-1.07c.32,0,.95.09,1.11.42s-.38.67-.62.8a3.43,3.43,0,0,1-1.59.45c-.18,0-1-.2-.59-.52.11-.09.3,0,.37,0s.14-.28.11-.31l-.28.14a1.69,1.69,0,0,1-1.11,0c-.23-.08-.52-.24-.52-.51s.37-.66.64-.82a1.61,1.61,0,0,1,1.15-.23l-.35-.61a1,1,0,0,1-1,.49.5.5,0,0,0,0,1Z"/><path class="cls-2" d="M194.15,100.92a11.57,11.57,0,0,0-4.73,3.17l.79.1A63.4,63.4,0,0,0,169.63,82.9c-.82-.52-2.3-1.16-2.31-2.3,0-1.48,1.63-.68,2.44-.41a55.9,55.9,0,0,1,5.92,2.39,43.32,43.32,0,0,1,11,7.21,22.31,22.31,0,0,1,7.1,11.75c.12.63,1.09.36,1-.27C193,92.24,184.83,86,177,82.11a55.72,55.72,0,0,0-6.33-2.66c-.92-.33-2.2-1-3.19-.69A2,2,0,0,0,166.36,81a4,4,0,0,0,2.08,2.32c1.13.71,2.25,1.43,3.34,2.2a60.25,60.25,0,0,1,6.27,5.11,63,63,0,0,1,11.29,14,.51.51,0,0,0,.79.1,10.32,10.32,0,0,1,4.28-2.91c.6-.22.34-1.18-.26-1Z"/><path class="cls-2" d="M137.18,105.18c3.63-3.81,9.15-4.75,14.21-4.69a41.55,41.55,0,0,1,8.46,1c2.62.58,5.82,1.21,7.92,3,2.43,2.07.67,5.57-.58,7.85a34.7,34.7,0,0,1-5.28,7c-4.19,4.45-9.23,8.23-12.95,13.11-2,2.6-3.36,6-1.86,9.13a7.66,7.66,0,0,0,7.45,4.37c1.9-.17,1.92-3.17,0-3-2.66.24-5.42-1.9-5.08-4.74.36-3.09,3.2-5.62,5.28-7.7,4.41-4.41,9.28-8.42,13-13.48a23.34,23.34,0,0,0,3.92-7.65,6.76,6.76,0,0,0-2.93-7.85,24.33,24.33,0,0,0-8.09-2.89,45.94,45.94,0,0,0-8.9-1.13c-5.94-.14-12.43,1.09-16.69,5.56-1.34,1.39.78,3.52,2.12,2.12Z"/><path class="cls-2" d="M155.15,160.48c-.11.14-.14.06.16-.11.05,0,.42-.13.17-.09l.4-.05a.74.74,0,0,1-.21,0l.4.05-.21-.05.2.09-.1-.06c.23.18.29.23.18.13s-.06,0,.13.19c-.17-.26.1.35,0,.14l.05.4V161l-.05.4c0-.15.12-.22-.07.12.11-.2-.23.22-.1.12l.13-.12c-.2.23-.22.16-.06.07s.27-.13,0,0,0,0,.05,0l.45-.09-.4.05a3.7,3.7,0,0,1,.88,0l-.4-.06a3.5,3.5,0,0,1,.56.13l.21.07c.36.13-.26-.13,0,0l.43.25.24.16c-.4-.25-.16-.13-.07,0s.24.24.36.36-.22-.31-.07-.09l.14.21a2.53,2.53,0,0,1,.12.23c.11.21-.13-.37-.05-.13a2.66,2.66,0,0,1,.11.47l-.05-.4a1.93,1.93,0,0,1,0,.48l.05-.4a1.91,1.91,0,0,1-.12.47,1.52,1.52,0,0,0,.15,1.16,1.56,1.56,0,0,0,.9.69,1.59,1.59,0,0,0,1.15-.15,1.76,1.76,0,0,0,.69-.9c.77-2-.73-4.13-2.47-5a5.24,5.24,0,0,0-3.35-.45c-1.38.29-2.68,1.52-2.28,3a2.38,2.38,0,0,0,1.63,1.56,2.11,2.11,0,0,0,2.19-.54,1.59,1.59,0,0,0,.44-1.06,1.5,1.5,0,0,0-.44-1.06,1.52,1.52,0,0,0-2.12,0Z"/><path class="cls-2" d="M231.55,158.87l1.11-.61-.74-.3c0,.12,0,0,0,0v.1s0-.12,0,0,0,0,0,0-.07.14-.09.14l0-.05,0,.05-.05,0s0,0,0,0a.4.4,0,0,1-.18.1l.06,0-.06,0h-.07c-.1,0,.12,0,0,0h-.1c-.11,0,.11,0,0,0l-.06,0h0l-.09-.05,0,0-.06-.07s.06.09,0,0l-.05-.08s0,.11,0,0l0-.09v0s0,0,0,0,0-.18,0-.2,0,.11,0,0l0-.1s0-.09,0-.09-.06.11,0,0l0-.09,0,0c0-.05,0,0,0,0l.07-.07c.07-.08-.1.05,0,0l.07-.05h0s0,0,0,0l.1,0h0a.49.49,0,0,1,.24,0h0l.09,0,.1,0-.05,0,.06,0,.19.12c-.1-.07,0,0,0,0l.09.09s.08.12,0,0l.06.1a.41.41,0,0,1,.05.09c-.05-.12,0,0,0,0s0,.23,0,.1a1.22,1.22,0,0,1,0,.27c0-.13,0,0,0,0l0,.12s-.09.21,0,.1a2,2,0,0,1-.12.21s-.09.12,0,0l-.1.12-.06.05L232,159h0l-.1.06c-.12.06.05,0,0,0l-.19.05s.12,0,0,0h-.13c-.12,0,0,0,0,0a.42.42,0,0,0-.13,0s-.11,0,0,0,0,0,0,0,.07.08,0,0l0,0,0,0,0,0c0-.05,0,0,0,0s0-.21,0,0l-.25.43a3.3,3.3,0,0,1,.32-.18c-.09.05,0,0,.07,0l.17-.05.18,0c.06,0,0,0,0,0h.54c.08,0-.08,0,0,0l.18,0a1.57,1.57,0,0,1,.35.11s-.06,0,0,0l.09.05.14.08.16.1c-.06,0,0,0,0,0l.07.07a.52.52,0,0,0,.71,0,.5.5,0,0,0,0-.71,2.88,2.88,0,0,0-3.46-.3.48.48,0,0,0-.25.43,1.14,1.14,0,0,0,.3.69,1.34,1.34,0,0,0,.57.32,1.6,1.6,0,0,0,1.28-.18,2,2,0,0,0,.71-2.61,1.68,1.68,0,0,0-2.46-.5,1.55,1.55,0,0,0,.08,2.36,1.38,1.38,0,0,0,2.07-1.43.51.51,0,0,0-.74-.3L231,158a.5.5,0,0,0-.18.68.51.51,0,0,0,.69.18Z"/><path class="cls-2" d="M78.93,146.4l1.11-.62-.74-.3c0,.12,0,0,0,0v.1s0-.12,0,0,0,0,0,0-.07.13-.09.13l0-.05-.05.05,0,0,0,0a.67.67,0,0,1-.18.11l.06,0-.06,0-.07,0c-.1,0,.12,0,0,0h-.1c-.11,0,.1,0,0,0l-.06,0h0s-.09,0-.09,0l0,0-.06-.07h0l0-.09s0,.12,0,0l0-.09v0c0-.06,0,0,0,0s0-.18,0-.2,0,.12,0,0l0-.1s0-.1,0-.1-.06.12,0,0a.56.56,0,0,1,0-.08l0-.06,0,0s.06-.07.07-.07-.1.05,0,0l.07,0h0a.19.19,0,0,1,.1,0h0a.49.49,0,0,1,.24,0h0l.09,0s.08,0,.1,0l0,0,.06,0a1.18,1.18,0,0,1,.19.11c-.1-.07,0,0,0,0l.09.09s.08.11,0,0l.06.09a.31.31,0,0,1,0,.1c0-.12,0,0,0,0s0,.23,0,.1a1.31,1.31,0,0,1,0,.28c0-.13,0,0,0,0l0,.11s-.09.22,0,.11l-.12.21s-.09.12,0,0l-.1.11-.06.06-.06.05s0,0,0,0l-.1.06c-.12.07,0,0,0,0l-.19,0s.12,0,0,0H79c-.12,0,0,0,0,0l-.13,0s-.11,0,0,0,0,0,0,0,.07.08,0,0l0,0,0,0,0,0s0,0,0,0,0-.2,0,0l-.25.43.32-.17.07,0,.17,0,.18,0h.53c.08,0-.08,0,0,0l.18,0,.35.11s-.06,0,0,0l.09,0,.14.08.16.1c-.06,0,0,0,0,0a.46.46,0,0,0,.07.07.5.5,0,0,0,.71,0,.49.49,0,0,0,0-.7,2.86,2.86,0,0,0-3.46-.31.5.5,0,0,0-.25.43,1.11,1.11,0,0,0,.3.69,1.26,1.26,0,0,0,.57.33,1.69,1.69,0,0,0,1.28-.18,2,2,0,0,0,.71-2.62,1.69,1.69,0,0,0-2.47-.49,1.56,1.56,0,0,0,.09,2.36,1.38,1.38,0,0,0,2.07-1.43.51.51,0,0,0-.74-.3l-1.11.61a.51.51,0,0,0-.18.69.52.52,0,0,0,.69.18Z"/><path class="cls-2" d="M137.13,110.79c.13-5.2,8-7.85,12.18-8.85,4.53-1.08,9.76-.17,13,3.37,7.69,8.31-7.29,15.83-11.58,21.62-3.46,4.65-7.38,12.3-3.46,17.81,3.78,5.31,10.48,4.06,14-.57,2.36-3.06-2.85-6-5.18-3l-4.33-3,.39-1.46a12.55,12.55,0,0,1,1.69-3.62,26.16,26.16,0,0,1,4.57-5.84c2.85-2.75,6.24-4.87,8.7-8,4.62-5.87,4.44-13.33-1.1-18.56s-13.71-6.19-20.82-3.68c-6.6,2.33-13.94,6-14.14,13.87-.1,3.87,5.9,3.86,6,0Z"/><path class="cls-2" d="M154.26,163.94c.19.08,1,.53,1,.5s.07-.8.29-.9l1.51-.41q1.19-.12.93.36l0,.07a1.39,1.39,0,0,1-.81,1.62c-.42.19-.44.23,0,.11-.27,0-.29.06-.07.06s.21,0,0,0c0,0,.75.19.48.15.45.07.1.25.21,0l0-.14a1,1,0,0,1,.23-1.07c.06.25-1.23.49-1.39.53-3.73,1-2.15,6.77,1.6,5.78a7.37,7.37,0,0,0,4.8-3.09,4.87,4.87,0,0,0-.46-5.6c-2.13-2.6-6.92-3.71-9.36-.94-3.1,3.52,1.51,10.26,5.82,7.61a5.17,5.17,0,0,0,2.21-5.46,6.33,6.33,0,0,0-3.83-4.35,3.11,3.11,0,0,0-4.11,1.07c-.73,1.26-.42,3.47,1.08,4.11Z"/><path class="cls-2" d="M134.66,112.42c2.46-9.79,11.84-16.29,21.94-13.79,5.29,1.3,11.26,5.3,10.74,11.37-.46,5.34-4.7,9.79-8.26,13.41-5,5.07-13.52,11.85-12.07,20,1.27,7.08,9.39,9.78,15,5.76,3.11-2.22.12-7.43-3-5.18-2.38,1.7-4.24,1.5-5.24-1.36-.84-2.39-.49-3.08.74-5.17a34.81,34.81,0,0,1,5.34-6.29c3.45-3.51,7.08-6.85,9.81-11,5-7.54,5.24-16.35-2-22.49C153.92,86,133.11,94,128.87,110.83c-.94,3.74,4.85,5.34,5.79,1.59Z"/></svg>