<svg id="Warstwa_1" data-name="Warstwa 1" xmlns="http://www.w3.org/2000/svg" viewBox="0 0 339 325.76"><defs><style>.cls-1{fill:#497ebf;}.cls-2{fill:#fff;}</style></defs><path class="cls-1" d="M306.15,162.88A136.65,136.65,0,1,1,169.5,26.23,136.65,136.65,0,0,1,306.15,162.88"/><path class="cls-2" d="M150.79,243.74q.12-25.71,1.81-51.36t5-51.15q1.86-14.43,4.25-28.79l-1.45,1.1,57.15,1.86,16.22.52c1.94.07,1.93-2.93,0-3l-57.15-1.85-16.22-.53a1.52,1.52,0,0,0-1.45,1.1q-4.22,25.56-6.87,51.33t-3.64,51.51q-.59,14.63-.64,29.26a1.5,1.5,0,0,0,3,0Z"/><path class="cls-2" d="M147.83,248.52l72.79-.67,20.44-.18a1.55,1.55,0,0,0,1.5-1.5q3.24-25.09,4.87-50.36t1.64-50.55q0-14.31-.51-28.62c-.06-1.92-3.07-1.93-3,0q.9,25.28.2,50.58t-3,50.49q-1.32,14.25-3.15,28.46l1.5-1.5-72.79.66-20.44.19a1.5,1.5,0,0,0,0,3Z"/><path class="cls-2" d="M223.7,113.22l15.05,1.71,3.65.41,1.7.2a4.63,4.63,0,0,1,1.85.32c.7.46.45,2,.45,2.68,0,1.33,0,2.67,0,4q0,15.46-.06,30.93-.19,30.94-.86,61.87-.37,17.46-.9,34.92c-.05,1.93,2.95,1.93,3,0q1-32.17,1.43-64.35t.39-64.12c0-1.48,0-3,0-4.43a5.34,5.34,0,0,0-.83-3.14c-1.48-2-4.93-1.74-7.14-2l-17.73-2c-1.92-.22-1.9,2.78,0,3Z"/><path class="cls-2" d="M147.36,251.42q39.94,2.58,80,2.7,11.44,0,22.87-.14a1.5,1.5,0,0,0,0-3q-40,.6-80-1.28-11.41-.54-22.83-1.28c-1.93-.12-1.92,2.88,0,3Z"/><path class="cls-2" d="M186.48,110.59Q184.84,92.47,182,74.5c-.3-1.9-3.19-1.09-2.89.8q2.75,17.57,4.34,35.29c.17,1.9,3.17,1.92,3,0Z"/><path class="cls-2" d="M178.94,70.46A689.41,689.41,0,0,0,104,80.65q-10.56,2-21,4.4c-1.88.43-1.08,3.32.8,2.9a681.55,681.55,0,0,1,74-12.46q10.56-1.18,21.16-2c1.91-.15,1.92-3.16,0-3Z"/><path class="cls-2" d="M82.11,87.85l9.4,50,9.35,49.74,5.3,28.18c.36,1.89,3.25,1.09,2.89-.8l-9.39-50L90.3,115.23,85,87.05c-.36-1.89-3.25-1.09-2.9.8Z"/><path class="cls-2" d="M84.16,90.65q2,27.06,5.53,54t8.53,53.56q2.82,14.91,6.1,29.73c.42,1.89,3.31,1.09,2.89-.8q-5.8-26.22-10.14-52.73T89.9,121.1q-1.61-15.21-2.74-30.45c-.14-1.91-3.15-1.93-3,0Z"/><path class="cls-2" d="M106.2,229.19q19.8-3,39.77-4.63c1.91-.15,1.93-3.16,0-3q-20.35,1.68-40.57,4.73c-1.9.29-1.1,3.18.8,2.9Z"/><path class="cls-2" d="M198.64,115q26.33.08,52.62,1.3c1.29.06,1.28-1.94,0-2Q225,113,198.64,113a1,1,0,0,0,0,2Z"/><path class="cls-2" d="M250.73,115.24q-2,47.4-4,94.78c-.38,9-.81,17.93-1.5,26.87-.1,1.28,1.9,1.28,2,0,1.22-15.74,1.69-31.54,2.35-47.31l2-47.4,1.13-26.94c.05-1.28-1.95-1.28-2,0Z"/><path class="cls-2" d="M169.27,128.75q20,1,40,1.34a.5.5,0,0,0,0-1q-20-.36-40-1.34c-.64,0-.64,1,0,1Z"/><path class="cls-2" d="M172.13,136.21l37.52-.57a.5.5,0,0,0,0-1l-37.52.57a.5.5,0,0,0,0,1Z"/><path class="cls-2" d="M169.68,147.25q29.59.31,59.15,1.65c.65,0,.65-1,0-1q-29.55-1.34-59.15-1.65a.5.5,0,0,0,0,1Z"/><path class="cls-2" d="M169.68,160.64l24.48.07a.5.5,0,0,0,0-1l-24.48-.07a.5.5,0,0,0,0,1Z"/><path class="cls-2" d="M111.07,172.74q12.21-2.25,24.49-4c.64-.09.37-1.05-.26-1q-12.29,1.78-24.49,4c-.63.11-.37,1.08.26,1Z"/><path class="cls-2" d="M122.5,178.34l18.37-3.61c.63-.13.36-1.09-.27-1l-18.37,3.61c-.63.13-.36,1.09.27,1Z"/><path class="cls-2" d="M112.17,187.67a245.66,245.66,0,0,0,29.5-5.17c.62-.15.36-1.12-.27-1a241.24,241.24,0,0,1-29.23,5.14c-.63.07-.64,1.07,0,1Z"/><path class="cls-2" d="M112.71,199.22a185.42,185.42,0,0,1,28.84-5c.63-.06.64-1.06,0-1a187.69,187.69,0,0,0-29.11,5,.5.5,0,0,0,.27,1Z"/><path class="cls-2" d="M106.86,109c-.56-7.21,10.69-8.69,15.55-6.34,5.43,2.63,6.13,10.4,4,15.37a13.32,13.32,0,0,1-14,7.89,12.46,12.46,0,0,1-7.76-3.86c-2.36-2.63-2.29-6.33-.79-9.38,1.68-3.42,4.74-6,7.66-8.35a62.47,62.47,0,0,1,10.41-6.68c1.72-.89.2-3.48-1.51-2.59a66.36,66.36,0,0,0-11,7.14c-3.17,2.54-6.44,5.42-8.22,9.15s-2,8.14.35,11.58a14.75,14.75,0,0,0,9.41,5.78c7.19,1.31,14.73-2,17.91-8.71,3-6.31,2.22-15.56-4.22-19.54-3.7-2.29-9.08-2.16-13.13-1s-8,4.82-7.63,9.5c.14,1.91,3.15,1.93,3,0Z"/><path class="cls-2" d="M130.05,141.79a60.63,60.63,0,0,0,14.49,19.79,63.69,63.69,0,0,0,21.05,12.74,59.59,59.59,0,0,0,13.5,3.17.5.5,0,0,0,.43-.75,22.62,22.62,0,0,0-8.65-7.35c-.47-.23-1.07.4-.6.78,2.13,1.75,4.27,3.48,6.39,5.24a.79.79,0,0,1,.3.35c.07.23,0,.25-.18.4a7.39,7.39,0,0,1-.76.47l-1.77,1.05-3.54,2.09a.5.5,0,0,0,.5.86l4.17-2.46a21.66,21.66,0,0,0,2-1.18,1.42,1.42,0,0,0,.7-1.35c-.11-.64-.79-1-1.25-1.41l-1.91-1.56-3.9-3.2-.61.78a21.75,21.75,0,0,1,8.29,7l.43-.75a59.85,59.85,0,0,1-22.9-7.64A62.41,62.41,0,0,1,138,153a58.61,58.61,0,0,1-7.07-11.74c-.27-.58-1.13-.07-.86.51Z"/><path class="cls-2" d="M229.61,168.89Q222,178.52,214.24,188t-15.82,18.72q-4.51,5.24-9.11,10.4c-.43.48.28,1.19.7.71q8.15-9.17,16.06-18.51t15.62-18.88q4.35-5.39,8.62-10.82c.4-.5-.31-1.21-.7-.7Z"/><path class="cls-2" d="M232.29,173.05q-8.19,11-16.68,21.73t-17.13,21.08q-4.92,5.88-9.92,11.69c-.42.48.29,1.19.71.7q8.94-10.37,17.6-21t16.95-21.39q4.71-6.12,9.33-12.31c.38-.52-.48-1-.86-.51Z"/><path class="cls-2" d="M233.44,171.59a7,7,0,0,0-3.28-3v.87a91.55,91.55,0,0,0,7.73-6.3l-.79-.61-3.72,8.31c-.26.58.6,1.09.87.5L238,163a.5.5,0,0,0-.78-.61,90.27,90.27,0,0,1-7.52,6.14c-.27.2-.38.7,0,.87a6.06,6.06,0,0,1,2.91,2.68c.31.56,1.17.06.87-.51Z"/><path class="cls-2" d="M236.64,163.86a.5.5,0,0,0,0-1,.5.5,0,0,0,0,1Z"/><path class="cls-2" d="M236.16,163.23l-.23.59a.45.45,0,0,0,0,.2.6.6,0,0,0,.06.19.57.57,0,0,0,.13.14.56.56,0,0,0,.17.09.59.59,0,0,0,.39-.05l.1-.08a.71.71,0,0,0,.13-.22l.22-.59a.46.46,0,0,0,0-.2.33.33,0,0,0-.06-.19.35.35,0,0,0-.13-.14.46.46,0,0,0-.17-.09.5.5,0,0,0-.38.05l-.11.08a.48.48,0,0,0-.12.22Z"/><path class="cls-2" d="M236.28,163l-.63.77a.39.39,0,0,0-.1.16.34.34,0,0,0,0,.2.5.5,0,0,0,.14.35.53.53,0,0,0,.36.15.51.51,0,0,0,.35-.15l.63-.77a.42.42,0,0,0,.11-.16.45.45,0,0,0,0-.2A.53.53,0,0,0,237,163a.51.51,0,0,0-.35-.15.53.53,0,0,0-.36.15Z"/><path class="cls-2" d="M191.8,215.25a57,57,0,0,0-5.65,7.65.5.5,0,0,0,.3.73,11.86,11.86,0,0,1,3.2,1.7c.52.38,1-.49.51-.86a12.48,12.48,0,0,0-3.45-1.8l.3.73a54.76,54.76,0,0,1,5.5-7.44c.42-.48-.28-1.19-.71-.71Z"/><path class="cls-2" d="M189.86,224.91l-4.5-1.48a.5.5,0,0,0-.61.35.51.51,0,0,0,.34.62l4.51,1.48a.5.5,0,0,0,.26-1Z"/><path class="cls-2" d="M187.17,227.37l-1.54-1.26a.57.57,0,0,0-.35-.14.52.52,0,0,0-.36.14.51.51,0,0,0,0,.71l1.55,1.26a.48.48,0,0,0,.7,0,.5.5,0,0,0,0-.71Z"/><path class="cls-2" d="M189.35,225.54a18.5,18.5,0,0,1-4.62,5l-.71.5c-.11.08-.47.38-.63.34s0-1.17,0-1.34a9.27,9.27,0,0,1,1.37-3.35c.36-.54-.51-1-.86-.51a9.9,9.9,0,0,0-1.37,3.12,8.54,8.54,0,0,0-.26,1.67,1.36,1.36,0,0,0,.51,1.24,1.38,1.38,0,0,0,1.48-.15,13.8,13.8,0,0,0,1.32-.95A18.37,18.37,0,0,0,188,229a20.16,20.16,0,0,0,2.22-2.91c.34-.55-.52-1.05-.87-.51Z"/><path class="cls-2" d="M193.72,222.06a3.09,3.09,0,0,0,3.53,2.58c2.14-.2,3.58-2.15,4.84-3.67l10.46-12.62,5.87-7.07c.4-.5-.3-1.21-.71-.71l-9.35,11.28-4.6,5.55-2.38,2.87a20.89,20.89,0,0,1-2,2.22,3.7,3.7,0,0,1-2.76,1.16,2,2,0,0,1-1.91-1.59c-.06-.64-1.06-.64-1,0Z"/><path class="cls-2" d="M115.22,244.29c0,.09,0-.12,0,0v.14c0,.12,0-.08,0,0l0,.13c0,.08,0,0,0,0a.25.25,0,0,0,0,.07l-.07.12,0,0-.06.07-.11.1s-.08.07,0,0,0,0,0,0l-.28.16s.1,0,0,0l-.07,0-.15,0h-.07c-.06,0-.12,0,0,0h-.3c-.1,0,.06,0,0,0H114l-.14,0c-.09,0,.06,0,0,0l-.07,0-.12-.08s.09.08,0,0l-.06-.06s0-.08,0,0l0-.06,0-.06s0-.12,0,0,0,0,0,0a.24.24,0,0,0,0-.08s0-.11,0,0,0,0,0,0v-.09s0,0,0,0,0,.12,0,.07l0-.15,0-.08c0-.08,0,.1,0,0a.83.83,0,0,1,.09-.16.43.43,0,0,0,0-.07c0-.07-.07.09,0,0l.11-.13.12-.11c.08-.06,0,0,0,0l.09-.06.16-.09.09,0s-.11,0-.06,0l0,0,.19-.05h0s-.12,0-.06,0h.26s-.11,0-.07,0h0l.09,0c.11,0-.07,0,0,0a.2.2,0,0,1,.08,0l.08.05,0,0,0,.05-.14-.36s0,.06,0,.08,0-.09,0,0l0,.14a.19.19,0,0,0,0,.07c0,.06,0-.1,0,0l-.06.13,0,.06c0,.06,0,0,0,0s-.08.09-.1.11l-.1.09c-.08.07.06,0,0,0l-.06.05-.12.07-.06,0s.1,0,0,0l-.14,0a.61.61,0,0,0-.13,0s.09,0,0,0h-.21c-.06,0,.09,0,0,0l-.08,0-.15-.05a.5.5,0,0,0-.61.35.5.5,0,0,0,.35.61,1.88,1.88,0,0,0,2.39-1.26,1.31,1.31,0,0,0,.06-.38.65.65,0,0,0-.35-.55,1.23,1.23,0,0,0-.54-.23,1.93,1.93,0,0,0-1.29.24,1.86,1.86,0,0,0-1,2.14,1.52,1.52,0,0,0,.92.92,1.93,1.93,0,0,0,1.14,0,2.13,2.13,0,0,0,1.07-.63,1.62,1.62,0,0,0,.39-1.36.51.51,0,0,0-.62-.35.51.51,0,0,0-.35.61Z"/><path class="cls-2" d="M216,102.41a2.3,2.3,0,0,1,1.29-1.89,1.51,1.51,0,0,1,1.86.54,1.29,1.29,0,0,1-.36,1.93,2.52,2.52,0,0,1-2.09.28c-1.35-.38-2.38-1.8-1.54-3.13.69-1.08,2.48-1.63,3.18-.34a2.4,2.4,0,0,1-.94,2.93c-1.16.66-2.46-.37-2.85-1.52A2.32,2.32,0,0,1,216.13,98a3.24,3.24,0,0,1,3.78,1.41,3.65,3.65,0,0,1-.61,4.27,3.59,3.59,0,0,1-4.27.3,3.15,3.15,0,0,1-.85-.78.5.5,0,1,0-.71.71,4.62,4.62,0,0,0,5.64,1.12,4.51,4.51,0,0,0,2-5.33A4.19,4.19,0,0,0,216.37,97a3.71,3.71,0,0,0-2.45,1.47,3.37,3.37,0,0,0-.46,2.71c.4,1.72,2.18,3.34,4,2.63a3.38,3.38,0,0,0,1.82-4.2A2.45,2.45,0,0,0,217.17,98a3.25,3.25,0,0,0-2.56,1.14,2.92,2.92,0,0,0-.68,2.76,3.39,3.39,0,0,0,1.91,2.08,3.69,3.69,0,0,0,2.88.11,2.42,2.42,0,0,0,1.65-2.7,2.65,2.65,0,0,0-2.08-2,2.88,2.88,0,0,0-2.81,1.4,3.32,3.32,0,0,0-.51,1.59c0,.64,1,.64,1,0Z"/><path class="cls-2" d="M258.35,124.22l-.06,1.68.75-.43s-.05,0-.07,0,.09.08,0,0l0,0-.06-.06,0,0s0,0,0,0-.07-.11-.09-.14-.05-.11,0,0,0,0,0,0a.83.83,0,0,1,0-.15s0,.06,0,.06,0,0,0,0v-.1s0-.11,0-.17,0,.11,0,0a.44.44,0,0,1,0-.1,1,1,0,0,1,0-.17l0-.08c.05-.12,0,0,0,0a1.65,1.65,0,0,1,.18-.32c.05-.07-.07.08,0,0a.46.46,0,0,1,.07-.07l.12-.12,0,0c.05,0-.09.06,0,0l.06-.05.07,0,.05,0c-.08,0,0,0,0,0l.08,0,.09,0h0a.14.14,0,0,1,.09,0c.05,0,.11,0,0,0l.17,0,0,0c.06,0,0,0,0,0s.05,0,.06,0l.07,0,0,0c.05,0-.09-.09,0,0l.1.11c.06,0,0,0,0,0s0,0,.05.08a.83.83,0,0,1,.07.13c0,.07,0-.12,0,0l0,.09s0,.1,0,.16,0,.11,0,0,0,0,0,0,0,.23,0,.35,0-.12,0,0,0,.06,0,.08,0,.12-.05.18l0,.09c0,.12,0-.06,0,0l-.09.17a.35.35,0,0,1-.05.08l0,0s.07-.09,0-.05l-.12.14s-.1.08,0,0,0,0,0,0l-.07,0,0,0c-.06,0,0,0,0,0a1.09,1.09,0,0,0-.17,0c-.12,0,.08,0,0,0h-.11a.51.51,0,0,0-.5.5.5.5,0,0,0,.5.5c1.47,0,2.1-1.82,1.53-3a1.57,1.57,0,0,0-1.77-.82,2.1,2.1,0,0,0-1.39,1.43,1.78,1.78,0,0,0,.66,2.11.51.51,0,0,0,.76-.43l.06-1.68a.49.49,0,0,0-.5-.5.51.51,0,0,0-.5.5Z"/><path class="cls-2" d="M85.58,205.37l0-.07s-.07.08,0,0,0,0,0,0l0,0c.06,0-.09,0,0,0l0,0h.08c-.12,0,0,0,0,0s-.06,0,.06,0,.13.05,0,0l.07,0s0,.06,0,0l0,.05s0-.08,0,0,0,0,0,0a.19.19,0,0,0,0,.08s0,.09,0,0v.07s0,.1,0,0,0,0,0,0a.19.19,0,0,0,0,.08c0,.12,0,0,0,0a.3.3,0,0,1,0,.08l0,0c0-.05,0,0,0,0s0,0-.06.07-.08,0,0,0l-.07,0h0l-.06,0-.08,0s.1,0,0,0h-.1l-.1,0-.08,0c.1,0,0,0,0,0l-.08,0,0,0s0-.06-.07-.08,0,0,0-.07,0-.07,0,0,0-.05,0-.06,0,0,0,0v-.09s0-.08,0,0,0,0,0,0,.05-.15,0-.07a.25.25,0,0,0,0-.07s.08-.11,0-.06,0,0,0,0l.06-.06s0,0,0,0l.07,0h0l.08,0s.08,0,0,0,0,0,.06,0,0,0,0,0l.09,0c-.09,0,0,0,0,0h0a.1.1,0,0,0,0,0l0,.07c-.06-.07,0,0,0,0a.25.25,0,0,1,0,.07c0,.07,0-.07,0,0s0,.16,0,.06,0,.17,0,.07,0,0,0,.06,0-.05,0,0a.21.21,0,0,1,0,.06s.07-.08,0,0,.07,0,0,0-.12,0,0,0l-.07,0s-.12,0,0,0H85.4l-.07,0s.09.05,0,0l0,0s0,.06,0,0l-.05-.06s.07.08,0,0,0-.07,0,0v0c0-.07,0,.08,0,0s0,0,0-.06v0s0-.06,0-.09,0,.06,0,0a.17.17,0,0,0,0-.05l0-.07c0,.08,0,0,0,0l.12-.11c-.07.06,0,0,.07,0l.07,0s-.09,0,0,0l.14,0c.06,0-.07,0,0,0h.06c.08,0,0,0,0,0l.1,0c.07,0-.07,0,0,0l0,0s.15.11.07,0l.12.12c-.07-.07,0,0,0,.07l0,.07c0,.08,0,0,0,0l.06.18s0,.19,0,.08c0,.07,0,.13,0,.2V206s0,.16,0,0a.85.85,0,0,1,0,.17.29.29,0,0,0,0,.09s0,.11,0,.06v0l-.08.14a1.54,1.54,0,0,1-.21.29,3.11,3.11,0,0,1-.33.29s0,0,0,0l-.11.08-.2.13-.42.22.69.18L85,206.9a.51.51,0,0,0-.69-.18.51.51,0,0,0-.18.68l.47.87a.51.51,0,0,0,.69.18,3.63,3.63,0,0,0,1.75-1.6,2.09,2.09,0,0,0-.2-2.13,1.48,1.48,0,0,0-1-.58,1.56,1.56,0,0,0-1.08.37,1.23,1.23,0,0,0,0,2,1.34,1.34,0,0,0,1.89-.44,1.38,1.38,0,0,0-.95-1.91,1.43,1.43,0,0,0-1.62,1.43,1.47,1.47,0,0,0,1.57,1.38,1.44,1.44,0,0,0,1.22-2,1.24,1.24,0,0,0-2.14-.08.52.52,0,0,0,.18.69.51.51,0,0,0,.69-.18Z"/><path class="cls-2" d="M75.66,220.86c.3.57.76,1.36.52,2-.16.41-.78.83-1,.27A1.27,1.27,0,0,1,77,221.61a1.25,1.25,0,0,1-.65,2.27,1.29,1.29,0,0,1-1.19-.91,2.6,2.6,0,0,1,.06-1.88c.39-1.07,1.39-2.83,2.74-2.72.66,0,1,.68,1.25,1.22a4.73,4.73,0,0,1,.38,1.89A3.77,3.77,0,0,1,78,224.62a3.2,3.2,0,0,1-3.2.26c-2.24-1.22-2.11-4.41-.52-6.09a4.06,4.06,0,0,1,5.94.31,4.65,4.65,0,0,1-.55,6.32,4.6,4.6,0,0,1-3.3,1,3.81,3.81,0,0,1-3.11-1.74c-.63-1.23.23-2.7,1-3.62a6.92,6.92,0,0,1,3.23-2.1,2,2,0,0,1,1.69.12,1.53,1.53,0,0,1,.35,1.6,3,3,0,0,1-2.37,2.45,1.78,1.78,0,0,1-1.56-.6c-.42-.48-1.13.23-.7.71a3,3,0,0,0,4.38-.12c1.07-1.07,1.93-3.2.82-4.53s-3.32-.6-4.6.16a7.12,7.12,0,0,0-3.35,4.06,3.2,3.2,0,0,0,.3,2.55A4.39,4.39,0,0,0,74.44,227a5.71,5.71,0,0,0,4.75-.06,5.61,5.61,0,0,0,1.91-8.34,5.32,5.32,0,0,0-4.07-2,4.79,4.79,0,0,0-3.93,2.06,5.25,5.25,0,0,0-.81,4.44,4.15,4.15,0,0,0,3.5,3.06,4.4,4.4,0,0,0,4-2.05,5.44,5.44,0,0,0,.21-5,2.7,2.7,0,0,0-1.71-1.67,2.79,2.79,0,0,0-2.46.8c-1.21,1.14-2.27,3.17-1.76,4.85a2.23,2.23,0,1,0,3-2.52,2.28,2.28,0,0,0-3,2.45,1.47,1.47,0,0,0,1.52,1.43A1.85,1.85,0,0,0,77.18,223a4,4,0,0,0-.65-2.66c-.3-.57-1.17-.06-.87.51Z"/></svg>