<svg id="Warstwa_1" data-name="Warstwa 1" xmlns="http://www.w3.org/2000/svg" viewBox="0 0 339 325.76"><defs><style>.cls-1{fill:#497ebf;}.cls-2{fill:#ee7800;}</style></defs><path class="cls-1" d="M116.66,248.17l-57.41,1.69c-1.92.06-1.93,3.06,0,3l57.41-1.69c1.93-.06,1.94-3.06,0-3Z"/><path class="cls-1" d="M55.83,162.54q28.53.79,57.08.24,8.19-.17,16.37-.43c1.93-.07,1.94-3.07,0-3q-28.53.94-57.08.54-8.19-.12-16.37-.35c-1.94-.06-1.93,2.94,0,3Z"/><path class="cls-1" d="M128.42,161q-.24,34.64.89,69.27.31,9.72.74,19.43l1.5-1.5-24.64.37-39.25.59-9,.14,1.5,1.5q-2.73-34.64-2.52-69.41.06-9.92.36-19.84c.06-1.93-2.94-1.93-3,0Q54,196.26,55.87,231q.54,9.92,1.32,19.81a1.54,1.54,0,0,0,1.5,1.5l24.65-.37,39.24-.6,9-.13a1.52,1.52,0,0,0,1.5-1.5q-1.52-34.62-1.66-69.26,0-9.72,0-19.44a1.5,1.5,0,0,0-3,0Z"/><path class="cls-1" d="M110.9,251.49a163.52,163.52,0,0,1,18.39-.26c1.93.08,1.92-2.92,0-3a163.52,163.52,0,0,0-18.39.26c-1.91.13-1.93,3.13,0,3Z"/><path class="cls-1" d="M129.86,205l66-.88,21.81-.29a1.5,1.5,0,0,0,0-3l-66.55.89-21.26.28c-1.93,0-1.93,3,0,3Z"/><path class="cls-1" d="M173.14,204.87a334.79,334.79,0,0,1,2,33.79,1.5,1.5,0,0,0,3,0,334.79,334.79,0,0,0-2-33.79c-.2-1.9-3.2-1.92-3,0Z"/><path class="cls-1" d="M131.59,241.85q22.31-2.22,44.76-2.28a1.5,1.5,0,0,0,0-3q-22.42.06-44.76,2.28c-1.9.19-1.92,3.19,0,3Z"/><path class="cls-1" d="M131.58,246.16l51.9-.82,16.39-.25c1.93,0,1.93-3,0-3l-51.9.81-16.39.26c-1.93,0-1.93,3,0,3Z"/><path class="cls-1" d="M174.62,239.4c9.77.23,19.51.27,29.28.12,1.93,0,1.93-3,0-3-9.77.15-19.51.11-29.28-.12-1.93,0-1.93,3,0,3Z"/><path class="cls-1" d="M74.66,100.77c2.28-1.29,5.13-1,7.67-1.08l9-.15,18-.3,35.47-.6,71.7-1.2,40.21-.68c1.93,0,1.94-3,0-3L184.25,95l-72.19,1.21-20.24.34-10,.17c-3,0-6,0-8.68,1.48a1.5,1.5,0,0,0,1.51,2.59Z"/><path class="cls-1" d="M254.41,96.91l7.84.18-1.5-1.5,1.44,78.48.4,22.17c0,1.93,3,1.93,3,0l-1.43-78.48-.41-22.17a1.52,1.52,0,0,0-1.5-1.5l-7.84-.18c-1.93,0-1.93,3,0,3Z"/><path class="cls-1" d="M206.21,205.16l52.21-3.08c1.91-.11,1.93-3.11,0-3l-52.21,3.08c-1.92.11-1.93,3.11,0,3Z"/><path class="cls-1" d="M265.54,95.41c1.06,27.86.18,55.71-1,83.54q-.51,12.13-1,24.25h3c.65-28.54,1.59-57.09.86-85.64q-.31-12.37-1.05-24.75l-2.95.4A247.35,247.35,0,0,1,267.68,162a243.65,243.65,0,0,1-5.12,34.09c-.23,1-.3,2.31-1.41,2.72a16.5,16.5,0,0,1-4.09.52c-3,.29-6.08.59-9.13.87q-8.87.84-17.76,1.56c-13.33,1.05-26.69,1.76-40.06,1.71v3l58.24-1.53,16.42-.43v-3q-26.31,1.19-52.67,1.42c-17.39.17-34.78.06-52.17-.24q-15-.25-30.07-.69c-1.93-.05-1.93,2.94,0,3,17.6.56,35.21.9,52.82.79s35-.74,52.55-1.83c9.81-.61,19.75-1.16,29.46.68v-2.89a75,75,0,0,1-16.6.64c-1.92-.14-1.91,2.86,0,3a78,78,0,0,0,17.4-.75c1.46-.22,1.41-2.62,0-2.89-8.64-1.64-17.44-1.52-26.18-1s-17.7,1.06-26.57,1.4c-17.52.68-35.07.81-52.6.58q-15.15-.19-30.28-.7v3c17.56.49,35.13.85,52.69,1q26.08.18,52.17-.42,15-.36,30-1c1.92-.09,1.94-3,0-3L206.54,203l-16.43.43a1.5,1.5,0,0,0,0,3c12.38.05,24.75-.55,37.1-1.48,6.17-.46,12.34-1,18.5-1.58q4.57-.42,9.13-.87l4.43-.43a9.32,9.32,0,0,0,3.69-.82c2.37-1.32,2.55-4.61,3.05-7q.93-4.33,1.68-8.69,1.55-8.79,2.45-17.68a248.82,248.82,0,0,0,1.08-35.8,250.58,250.58,0,0,0-4.88-39.74,1.5,1.5,0,0,0-2.94.4c1.7,28.51,1.44,57.06.78,85.61q-.29,12.39-.59,24.78c0,1.93,2.93,1.92,3,0,1.07-27.84,2.56-55.68,2.46-83.54q0-12.14-.51-24.25c-.07-1.92-3.07-1.93-3,0Z"/><path class="cls-1" d="M248.66,205.45a1.5,1.5,0,0,0,0-3,1.5,1.5,0,0,0,0,3Z"/><path class="cls-1" d="M269.55,202.83l-.49-86.36c0-6.54.54-14.06-3.65-19.59-1.16-1.52-3.76,0-2.59,1.52,3.67,4.85,3.2,11.31,3.23,17.07l.12,21,.25,42.43.13,24a1.5,1.5,0,0,0,3,0Z"/><path class="cls-1" d="M264.16,98.57a1.5,1.5,0,0,0,0-3,1.5,1.5,0,0,0,0,3Z"/><path class="cls-1" d="M264.8,94.07c-2.47-4.49-9.33-3.31-13.51-3.21l-19,.44q-19.23.47-38.45,1Q155.41,93.41,117,94.79q-21.72.79-43.43,1.67c-1.92.08-1.93,3.05,0,3l5.1-.11,14-.31,20.56-.45L138.23,98l27.6-.61,27.73-.61,25.86-.57,21.86-.49,15.79-.35c2.45-.05,5,.13,7.46-.16a1.69,1.69,0,0,1,.32,0l-1.5-1.5,1.42,21.49c.41,6.28,1.09,12.6,1.24,18.89.14,5.95,0,11.92,0,17.87V194.9c0,2.1-.2,4.31,0,6.4a2.62,2.62,0,0,1,0,.28l1.5-1.5-26.25,1.16c-9.15.4-18.3.92-27.45,1.21-6.31.2-12.63.23-18.95.34l-38.22.69-15.84.29c-2.74,0-5.55-.09-8.27.15-.13,0-.25,0-.38,0v3q23.81-1,47.64-.94a1.5,1.5,0,0,0,0-3q-23.82,0-47.64.94c-1.92.08-1.94,3,0,3l20.2-.36,38.19-.69c7.68-.14,15.36-.22,23-.42s15.31-.67,23-1l30.41-1.34.57,0a1.52,1.52,0,0,0,1.5-1.5V134.79c0-5.24-.64-10.53-1-15.76-.55-8.27-1-16.55-1.64-24.83l0-.47a1.53,1.53,0,0,0-1.5-1.5l-5.1.11-14,.31-20.55.46-25.08.55-27.59.61-27.73.62L119,95.46l-21.87.48-15.79.35c-2.45.06-5-.11-7.45.17-.11,0-.22,0-.33,0v3q37.69-1.53,75.38-2.77t75.4-2.19q10.49-.27,21-.51c3.58-.08,7.16-.17,10.74-.24,2,0,5.06-.21,6.18,1.83.93,1.69,3.52.18,2.59-1.51Z"/><path class="cls-1" d="M263.58,96.91a1.5,1.5,0,0,0,0-3,1.5,1.5,0,0,0,0,3Z"/><path class="cls-1" d="M78.39,97.23c-3.26.69-3.43,4.47-3.42,7.14q0,6.73.11,13.45.19,13.22.67,26.4.27,7.59.65,15.19L77.5,158l-1.42.44c-1.84.57-1,3.47.8,2.89l1.42-.44a1.54,1.54,0,0,0,1.1-1.44q-.78-15.81-1.13-31.62-.18-7.85-.25-15.69c0-2.66,0-5.32,0-8,0-1.12-.28-3.68,1.22-4,1.89-.4,1.09-3.29-.8-2.89Z"/><path class="cls-1" d="M75.91,161.37a1.5,1.5,0,0,0,0-3,1.5,1.5,0,0,0,0,3Z"/><path class="cls-1" d="M79.36,163.23q25.53.17,51.07-.33c1.93,0,1.94-3,0-3q-25.53.49-51.07.33a1.5,1.5,0,0,0,0,3Z"/><path class="cls-1" d="M133.31,249.52a1.5,1.5,0,0,0,0-3,1.5,1.5,0,0,0,0,3Z"/><path class="cls-1" d="M218.25,204.35a1.5,1.5,0,0,0,0-3,1.5,1.5,0,0,0,0,3Z"/><path class="cls-1" d="M175,212.76l1.62,21.94,2.95-.4-.59-1.55c-.69-1.78-3.59-1-2.9.8l.6,1.55c.55,1.45,3.08,1.42,2.94-.4L178,212.76c-.14-1.92-3.14-1.93-3,0Z"/><path class="cls-1" d="M178.44,207.73l-.07-.2-.15,1.16c-1.23-.48-1.76-.29-1.59.56v2.95l0,3.94.06,7.87.11,15.75a1.5,1.5,0,0,0,3,0l-.15-20.91c0-3.4.14-6.87-.08-10.26-.08-1.24-.73-2.56-2.15-2.57a2,2,0,0,0-1.92,2.51c.68,1.78,3.59,1,2.89-.8Z"/><path class="cls-1" d="M135.59,243.62,190.12,242a1.5,1.5,0,0,0,0-3l-43.9.65v3q28.44-1.86,57-1.22l-1.07-2.56a1.35,1.35,0,0,1-1.28.57c-1.89-.34-2.7,2.55-.8,2.89a4.36,4.36,0,0,0,4.21-1.33,1.53,1.53,0,0,0-1.06-2.57q-28.5-.63-57,1.22c-1.91.12-1.95,3,0,3l43.9-.65v-3l-54.53,1.67c-1.93,0-1.94,3.06,0,3Z"/><path class="cls-1" d="M195.86,242.91a1.5,1.5,0,0,0,0-3,1.5,1.5,0,0,0,0,3Z"/><path class="cls-1" d="M183.21,140.74a111.77,111.77,0,0,0-.49-18.11.51.51,0,0,0-.5-.5l-38.33-.1-19.1,0h-4.74c-.76,0-1.52,0-2.27,0a2.48,2.48,0,0,0-1.54.46c-1,.84-.36,2.4-.15,3.45.3,1.55.56,3.11.78,4.67a89.11,89.11,0,0,1,.43,20.9.5.5,0,0,0,.5.5H157a.5.5,0,0,0,0-1l-30.49,0H117.8l.5.5a90.52,90.52,0,0,0-.08-18q-.48-4.47-1.39-8.87c-.13-.67-.31-1.4.56-1.55a12,12,0,0,1,2.16,0h4.74l37,.09,21,.06-.5-.5a111.77,111.77,0,0,1,.49,18.11c0,.64,1,.64,1,0Z"/><path class="cls-1" d="M194.5,150.58c.31-1.81,1.8-3.17,3.18-4.25a17.68,17.68,0,0,1,4.14-2.42,20.8,20.8,0,0,1,9.55-1.51,19.07,19.07,0,0,1,9.13,3,17.12,17.12,0,0,1,6,7.14,17.88,17.88,0,0,1-1.65,18c-4.69,6.24-12.81,8.85-20.38,8.38a31.6,31.6,0,0,1-12.05-3.14c-3.33-1.68-6.49-4.5-6.88-8.43a7,7,0,0,1,.27-2.74.5.5,0,0,0-1-.27c-1.17,3.86.86,7.83,3.85,10.24,3.27,2.65,7.58,4.06,11.67,4.83,8.16,1.53,17.11-.07,23.24-6a18.94,18.94,0,0,0-.68-27.39,19.06,19.06,0,0,0-9.19-4.36,22.08,22.08,0,0,0-10.31.57,17.52,17.52,0,0,0-8.73,5.55,5.59,5.59,0,0,0-1.19,2.49c-.11.63.85.9,1,.27Z"/><path class="cls-1" d="M200.42,243.15l4.33-.35-1.44-1.1c.11.34,0,.06.06,0a.77.77,0,0,1-.19.23,1.39,1.39,0,0,1-.9.13,6.72,6.72,0,0,1-1.59-.45c-.17-.07-.22-.1-.44-.21s.06-.05.07.31l-.74,1.29a1.64,1.64,0,0,1,1.93.43l-.23-1.81c.13-.23,0,.13,0,0s.21.06,0,0c.17.07,0,0-.12,0s.33.08-.12,0c.22.05-.15-.06,0,0s-.05-.14,0,0,0-.22,0-.2a1,1,0,0,1,.67-.79,2.66,2.66,0,0,1,1.58-.07,2,2,0,0,1,.66.25c.18.12.09.23.06.05s0,0,0,0-.16.18-.08.1a1.34,1.34,0,0,1-.42.31c-1,.45-2.52-.77-3.37-1.39v2.59a4.64,4.64,0,0,1,5.41,1c1.16,1.26,3.21-.36,2.35-1.82l-1.92-3.29-.9,2.21c.41-.1-.13,0,.27,0-.22,0,.21.09.05,0a1.29,1.29,0,0,1,.57.42,1.21,1.21,0,0,1,.2.41c.05.23.08,0,0,.24.07-.24-.11.22-.11.23-.47,1.12.85,2.08,1.84,1.84a7.28,7.28,0,0,1,4,.21l.4-2.94-3.7.16c-1.92.08-1.93,3.08,0,3l3.7-.16a1.51,1.51,0,0,0,.4-3,10.24,10.24,0,0,0-5.57-.21l1.84,1.85a3.67,3.67,0,0,0-.87-3.8,4,4,0,0,0-3.81-1.19,1.51,1.51,0,0,0-.89,2.21l1.92,3.29,2.36-1.82a7.7,7.7,0,0,0-9-1.46,1.52,1.52,0,0,0,0,2.59c1.65,1.21,3.76,2.43,5.86,1.63s3.44-3.26,1.87-5.17c-1.35-1.65-4.1-1.86-5.94-1a3.79,3.79,0,0,0-1.9,5.18,3.25,3.25,0,0,0,5.46.1,1.53,1.53,0,0,0-.24-1.82,4.68,4.68,0,0,0-5.56-.9,1.49,1.49,0,0,0-.75,1.3c.11,2.34,3.06,3.25,5,3.35,2.16.12,4.64-1.73,3.85-4.12a1.53,1.53,0,0,0-1.45-1.1l-4.33.35a1.54,1.54,0,0,0-1.5,1.5,1.51,1.51,0,0,0,1.5,1.5Z"/><path class="cls-1" d="M199.31,244a1.5,1.5,0,0,0,0-3,1.5,1.5,0,0,0,0,3Z"/><path class="cls-1" d="M201,239.39l4-.3a19.44,19.44,0,0,1,3.49-.17c.95.12,1,.44.74,1.32a7.53,7.53,0,0,0-.58,2.95l1.5-1.5L187.26,241c-1.94-.06-1.93,2.94,0,3l22.86.73a1.52,1.52,0,0,0,1.5-1.5c-.11-1.3.77-2.47.77-3.79a3.37,3.37,0,0,0-1.93-3,7.35,7.35,0,0,0-3.86-.43l-5.59.42c-1.91.14-1.93,3.14,0,3Z"/><path class="cls-1" d="M187.25,244a1.5,1.5,0,0,0,0-3,1.5,1.5,0,0,0,0,3Z"/><path class="cls-1" d="M213.08,241.26a4,4,0,0,0,1.2-.15,1.6,1.6,0,0,0,1.1-1.44v0a1.47,1.47,0,0,0-.74-1.3s-1.06-.51-.36-.11l.74,1.29h0l-1.1,1.44c.09,0,.05,0-.11,0l.51,0a1.52,1.52,0,0,0,1.5-1.5,159.4,159.4,0,0,0-.66-16.64l-1.5,1.5,53.56-1.5,15.2-.43-1.5-1.5a168.49,168.49,0,0,1,0,31.2l1.5-1.5c-17.83,1-35.68,1.27-53.53,1.58q-7.85.13-15.68.3l1.45,1.11c-.63-4.57.16-9.19-.12-13.78-.12-1.92-3.12-1.93-3,0,.3,4.87-.45,9.71.23,14.57a1.49,1.49,0,0,0,1.44,1.1c17.86-.4,35.71-.52,53.56-1.17q7.83-.28,15.65-.71a1.53,1.53,0,0,0,1.5-1.5,168.49,168.49,0,0,0,0-31.2,1.54,1.54,0,0,0-1.5-1.5l-53.56,1.51-15.2.42a1.51,1.51,0,0,0-1.5,1.5,159.4,159.4,0,0,1,.66,16.64l1.5-1.5a4.39,4.39,0,0,0-1.2.15,1.6,1.6,0,0,0-1.1,1.45h0a1.49,1.49,0,0,0,.74,1.3s1.06.51.37.11l-.75-1.29v0l1.1-1.45c-.09,0,0,0,.11,0l-.51,0c-1.92.13-1.93,3.13,0,3Z"/><path class="cls-1" d="M209.6,226.67a108.18,108.18,0,0,0,3.32,27.23c.47,1.87,3.37,1.08,2.89-.8a105.15,105.15,0,0,1-3.21-26.43,1.5,1.5,0,0,0-3,0Z"/><path class="cls-1" d="M211.73,224.58a1.5,1.5,0,0,0,0-3,1.5,1.5,0,0,0,0,3Z"/><path class="cls-1" d="M211.13,233.54a66.73,66.73,0,0,1,.62,20.39l2.95-.39c-2.79-10.06.66-20.56.46-30.76,0-1.93-3-1.93-3,0,.21,10.51-3.23,21.17-.35,31.55.48,1.75,2.75,1.2,2.94-.4a69.42,69.42,0,0,0-.72-21.19c-.36-1.9-3.25-1.09-2.9.8Z"/><path class="cls-1" d="M211.58,239.76v10.47a1.5,1.5,0,0,0,3,0V239.76a1.5,1.5,0,0,0-3,0Z"/><path class="cls-1" d="M209.94,225a24.44,24.44,0,0,1,1.19,4.38,1.5,1.5,0,0,0,.69.89,1.52,1.52,0,0,0,1.16.15,1.49,1.49,0,0,0,.89-.68,1.73,1.73,0,0,0,.16-1.16,25.23,25.23,0,0,0-1.2-4.37,1.59,1.59,0,0,0-.69-.9,1.52,1.52,0,0,0-1.16-.15,1.5,1.5,0,0,0-.89.69,1.46,1.46,0,0,0-.15,1.15Z"/><path class="cls-1" d="M134.21,249.4l.43-8.26a1.5,1.5,0,0,0-1.5-1.5,1.52,1.52,0,0,0-1.5,1.5l-.43,8.26a1.5,1.5,0,0,0,1.5,1.5,1.53,1.53,0,0,0,1.5-1.5Z"/><path class="cls-2" d="M154.68,165.73l9.63-26.56,2.76-7.6-.74.3a276.84,276.84,0,0,1,29.12,18.06q4,2.83,7.89,5.81l.12-.91q-19.9,5.68-40.08,10.4-5.67,1.32-11.38,2.58c-.63.13-.36,1.1.27,1q20.22-4.44,40.21-9.85c3.76-1,7.5-2.06,11.25-3.13a.51.51,0,0,0,.12-.91,277.07,277.07,0,0,0-28.47-19.08q-4.23-2.48-8.54-4.79a.51.51,0,0,0-.74.3l-9.63,26.55-2.76,7.6c-.22.61.75.87,1,.27Z"/><path class="cls-2" d="M277.82,227.91a.5.5,0,0,0,0-1,.5.5,0,0,0,0,1Z"/><path class="cls-2" d="M277.32,227.74v6a.5.5,0,0,0,1,0v-6a.5.5,0,0,0-1,0Z"/><path class="cls-2" d="M277.65,243v5a.5.5,0,0,0,1,0v-5a.5.5,0,0,0-1,0Z"/><path class="cls-2" d="M61.67,167.72H74.3a.5.5,0,0,0,0-1H61.67a.5.5,0,0,0,0,1Z"/><path class="cls-2" d="M115.21,168.39a.5.5,0,0,0,0-1,.5.5,0,0,0,0,1Z"/><path class="cls-2" d="M92.75,241.69c.94-.7,2.34-1.31,3.48-.69a1.68,1.68,0,0,1,.74,2.44,3.22,3.22,0,0,1-2.91.92c-.86-.14-1.85-.71-1.89-1.67s.62-1.94,1.51-1.76c.63.13.9-.83.27-1A2.41,2.41,0,0,0,91.23,242a2.78,2.78,0,0,0,1.94,3.14,4.44,4.44,0,0,0,4.17-.69,2.4,2.4,0,0,0,.93-2,2.87,2.87,0,0,0-.94-1.91c-1.46-1.35-3.63-.84-5.09.25a.5.5,0,0,0-.18.68.52.52,0,0,0,.69.18Z"/><path class="cls-1" d="M63,238.12q12.37-.6,24.75-1.07,11.46-.44,22.93-.71,7.26-.18,14.52-.32a.5.5,0,0,0,0-1c-8.26.17-16.51.35-24.77.6Q89,236,77.5,236.46c-4.84.2-9.68.43-14.51.66-.64,0-.65,1,0,1Z"/><path class="cls-1" d="M223.32,224.42q.09,14.79-.18,29.6a.5.5,0,0,0,1,0q.27-14.81.18-29.6a.5.5,0,0,0-1,0Z"/><path class="cls-2" d="M220.8,237.15c.66,1,1.19,2.39.52,3.5a1.69,1.69,0,0,1-2.42.66,3.18,3.18,0,0,1-.85-2.93c.17-.86.75-1.84,1.73-1.86s1.95.68,1.72,1.59a.5.5,0,0,0,1,.27,2.42,2.42,0,0,0-2-2.79,2.78,2.78,0,0,0-3.18,1.91,4.36,4.36,0,0,0,.61,4.18,2.54,2.54,0,0,0,3.85,0c1.39-1.41.94-3.6-.07-5.09-.36-.53-1.23,0-.86.51Z"/><path class="cls-1" d="M61.33,170.68q12.33.25,24.66.28,12.83,0,25.66-.12,6.76-.09,13.54-.25a.5.5,0,0,0,0-1q-12.33.3-24.65.35-12.84.08-25.67-.05c-4.51,0-9-.11-13.54-.21a.5.5,0,0,0,0,1Z"/><path class="cls-1" d="M124.69,170.09q0,12.72,0,25.44t0,25.64q0,7.19,0,14.35a.5.5,0,0,0,1,0q0-12.72,0-25.43t0-25.65q0-7.17,0-14.35a.5.5,0,0,0-1,0Z"/><path class="cls-1" d="M60.83,170.18c-.43,8.79-.5,17.58-.34,26.38.15,8.63.52,17.26.88,25.88.2,5,.41,10.08.58,15.11a.5.5,0,0,0,1,0c-.3-8.82-.71-17.64-1-26.47-.33-8.61-.56-17.23-.5-25.85,0-5,.17-10,.42-15,0-.64-1-.64-1,0Z"/><path class="cls-2" d="M82,103.18l.14.07.07,0,0,0-.06,0a.35.35,0,0,1,.11.1l.06.05,0,0,0,0,.08.13,0,.07v0c0-.08,0,0,0,0a.19.19,0,0,1,0,.07.94.94,0,0,1,0,.16l0-.13a2.62,2.62,0,0,1,0,.28l.36-.48h0l.13,0H82.9l.13,0-.07,0s.1,0,.07,0l0,0,0,0s.11.1.05,0a.17.17,0,0,0-.06-.06s.08.11,0,.06l0,0a.25.25,0,0,1,0-.07s0,.13,0,.06v0s0-.06,0-.09l0,.14a.75.75,0,0,1,0-.15l0,.13s0,0,0-.06v0l0,.07c0-.09-.08.09,0,0l.06,0-.36.15h.11l-.13,0,.08,0c.08,0,0,0,0,0s0,0,0,0l0,0s0,.06,0,0l.06.07s.05.06,0,0,0,0,0,0a.56.56,0,0,1,0,.08s0-.11,0-.06a.08.08,0,0,1,0,0,.3.3,0,0,1,0,.1v0l0-.13,0,.11s.06-.12,0-.06l0,.06.18-.18-.07,0s-.12,0,0,0a.8.8,0,0,1-.15,0h.13a1.47,1.47,0,0,1-.21,0h.13a.8.8,0,0,1-.15,0l-.05,0c.16,0,.07,0,0,0l-.12-.08c-.1-.07.08.07,0,0l0,0-.11-.11c.12.13,0,0,0,0a.49.49,0,0,0,0-.07s0,.13,0,0a.83.83,0,0,1,0-.15l0,.14a.67.67,0,0,1,0-.2l0,.14,0-.12c0-.08-.06.12,0,0l0,0s0,0,0,0-.08.1,0,0a.6.6,0,0,1,.08-.08s-.13.09,0,0l0,0,0,0c.07,0-.11,0-.06,0l.21-.05-.14,0a1.41,1.41,0,0,1,.29,0l-.14,0,.26.07c.07,0-.13-.07,0,0l.07,0,0,0s.08.08,0,0l.09.08s0,.1,0,0l0,.06a.08.08,0,0,1,0,0c.06.09,0-.11,0,0l0,.13,0-.13a.2.2,0,0,1,0,.07l.07-.25h0c.06-.07,0,0,0,0l-.06.07,0,0s.11-.08,0,0l-.07,0-.07,0s.12,0,.06,0l0,0-.18,0,.14,0a1.6,1.6,0,0,1-.31,0l.13,0a.77.77,0,0,1-.26-.07c-.11,0,.1,0,0,0l0,0-.12-.07c-.07,0,.1.08,0,0s0,0,0,0a.08.08,0,0,1,0,0s-.07-.11,0,0L82.2,103s0-.1,0,0l0-.08-.48.64a1,1,0,0,1,.24,0h-.13a1.31,1.31,0,0,1,.27.06l.06,0c-.12,0-.07,0,0,0l.13.07,0,0c.07,0,0,0,0,0l.1.09.05.06h0c0-.07,0,0,0,0l0,.07a.51.51,0,0,0,.69.18.51.51,0,0,0,.18-.68,1.83,1.83,0,0,0-1.65-.89.51.51,0,0,0-.48.63,1.45,1.45,0,0,0,1,1,1.55,1.55,0,0,0,1.31-.17,1,1,0,0,0,.27-.24.63.63,0,0,0,.19-.41,1,1,0,0,0,0-.23,1.22,1.22,0,0,0-.32-.59,1.59,1.59,0,0,0-1.17-.43,1.34,1.34,0,0,0-.65.2,1.15,1.15,0,0,0-.49.62,1.3,1.3,0,0,0,.39,1.36,1.39,1.39,0,0,0,1.39.37.91.91,0,0,0,.47-.33,1.08,1.08,0,0,0-.06-1.2,1.1,1.1,0,0,0-.69-.48,1,1,0,0,0-.25,0,.57.57,0,0,0-.4.2.94.94,0,0,0-.22.39,1.11,1.11,0,0,0,.73,1.31.83.83,0,0,0,.47,0,.51.51,0,0,0,.37-.48,1.81,1.81,0,0,0-1-1.73.53.53,0,0,0-.39,0,.52.52,0,0,0-.3.23.51.51,0,0,0,0,.38.5.5,0,0,0,.23.3Z"/><path class="cls-2" d="M87.74,103.22h.05l-.14,0a.24.24,0,0,1,.12,0l-.14,0,.09,0s0,0,0,0-.06,0,0,0l.07,0-.06,0,0,0,0,.05c0-.07-.07-.08,0,0l0,0c0,.07,0-.12,0,0a.29.29,0,0,1,0,.09l0-.13a.41.41,0,0,1,0,.11v-.13c0,.11,0,0,.09-.12l0,.05s-.08.06,0,0,0,0,0,0l0,0c-.08,0,.12,0,0,0l-.13,0,.13,0h0l-.09,0s-.09,0,0,0c-.08-.05.09.09,0,0a.34.34,0,0,1,.1.16,0,0,0,0,1,0,0l0,.13a.08.08,0,0,1,0-.07l0,.14s0,0,0,0-.06.12,0,.06-.08.11,0,.06a.28.28,0,0,1-.12.08c-.05,0-.06,0,0,0h-.2a.21.21,0,0,1-.12-.07l0,0s0,0,0-.07c0,.1,0-.12,0,0l0-.13v.07l0-.13c0,.07.06-.11,0-.07s.09-.1,0-.05H88l0,0c-.06,0,.07.12,0,0s0,.11,0,.07a.43.43,0,0,0,0,0v.18a.19.19,0,0,1,0-.07s-.07.12,0,.07a.08.08,0,0,1,0,0l0,0s-.09.1,0,.05l.06-.06c.07-.06-.12.08,0,0l.08,0c.06,0-.11,0-.06,0l0,0,.09,0-.13,0h.13l-.14,0,.07,0c.07,0-.14-.07,0,0s0,0,0,0l.06.06,0-.06a.05.05,0,0,0,0,0l0,0c-.08-.13,0-.07,0,0a.22.22,0,0,1,0,.08v-.13a1.41,1.41,0,0,1,0,.2l0-.13,0,.14a.14.14,0,0,0,0,.07c0-.15,0-.08,0,0l-.08.13s-.07.08,0,0l0,.06-.11.1c.1-.1.07,0,0,0l-.06,0s-.05,0-.08,0l.07,0,0,0a.58.58,0,0,1-.19,0h-.05l.13,0-.1,0h0c.07,0,.09,0,0,0s-.06-.06,0,0l-.05-.05s.08.12,0,0l0,0c.08.14,0,.09,0,0a.64.64,0,0,0,0-.07l0,.13a.61.61,0,0,1,0-.19l0,.13s0-.07,0-.11,0,0,0-.06,0,0,0,0a1.09,1.09,0,0,0,.06-.11l0,0c0-.07-.09.1,0,0l.08-.09s-.12.08,0,0l.05,0h0l.18,0-.14,0a1.37,1.37,0,0,1,.35,0l-.14,0a3.17,3.17,0,0,1,.44.12c.12.05-.08,0,0,0l.11,0,.2.11-.24-.43v0l0-.13a.45.45,0,0,1,0,.11c0,.07.06-.12,0-.06l0,0,0,0c.08-.13.07-.08,0,0a.3.3,0,0,0-.08.08s.12-.09,0,0l-.05,0s-.14.07,0,0,0,0-.06,0l-.11,0h.13a.89.89,0,0,1-.23,0l.13,0-.11,0-.06,0,0,0,0,0,0,0,0,0s-.08-.11,0,0a.53.53,0,0,0-.3-.23.47.47,0,0,0-.38,0,.5.5,0,0,0-.23.3.46.46,0,0,0,0,.38,1.13,1.13,0,0,0,.65.46,1.28,1.28,0,0,0,.7,0,1.38,1.38,0,0,0,.6-.34,1.2,1.2,0,0,0,.33-.73.5.5,0,0,0-.25-.43,2,2,0,0,0-2.29-.07,1.21,1.21,0,0,0,0,1.82,1.4,1.4,0,0,0,2-.65,1.32,1.32,0,0,0,0-1.13.91.91,0,0,0-.86-.53,1.17,1.17,0,0,0-.92.53.8.8,0,0,0,.12,1.06.45.45,0,0,0,.35.15.58.58,0,0,0,.35-.15.67.67,0,0,0,.18-.7.68.68,0,0,0-.63-.5.71.71,0,0,0-.51,1.17.92.92,0,0,0,.63.26,1.15,1.15,0,0,0,.6-.13,1,1,0,0,0,.45-.4.89.89,0,0,0,0-.7,1.08,1.08,0,0,0-1.22-.69.5.5,0,0,0,.26,1Z"/><path class="cls-2" d="M93.53,103.67l0-.1c0-.13,0,.09,0,0v-.1c0-.09,0,.13,0,0a.38.38,0,0,0,0-.1l0,0,0,0a.41.41,0,0,1,0-.09c0-.07-.08.09,0,0l.07-.07c.07-.06-.1.07,0,0l.09-.06c.08,0-.12,0,0,0l.11,0c-.14,0-.07,0,0,0s-.07,0,0,0l.08,0s-.12-.06,0,0l.08,0c-.13-.06-.06,0,0,0l.07.07c-.11-.1,0-.05,0,0l0,.09c.06.11,0-.1,0,0l0,.09s0,.06,0,.09c0-.16,0-.07,0,0v.1c0,.08,0-.14,0,0l0,.09c0,.08.07-.12,0,0a.22.22,0,0,0,0,.08c0-.07.07-.09,0,0l0,0,.22-.12-.43.08c-.11,0,.1,0,0,0h-.42c-.11,0,.09,0,0,0s-.18,0-.2-.06h0l-.07,0c-.07,0,.09.07,0,0l-.06-.06c-.07-.07,0,.07,0,0l0-.06,0-.06s0,.13,0,0,0-.09,0-.14,0,.09,0,0,0,0,0-.06,0,0,0-.07,0,.14,0,0a.14.14,0,0,0,0-.06s-.07.12,0,0,.06-.08,0,0,0,0,0,0-.07,0,0,0l.07,0-.39,0,0,0s0,0,0,0l0,0a.16.16,0,0,0,.07,0s-.09-.07,0,0,0,0,0,0h0c0-.06,0,0,0,0a.25.25,0,0,1,0,.07c0,.06,0,0,0,0s0,.06,0,.08,0,0,0,.07,0-.12,0,0v.14c0-.08,0-.1,0-.06s0,0,0,0a.14.14,0,0,0,0,.07s.06-.11,0,0l0,.06c0,.08,0,0,0,0s0,0,0,.05,0,0,0,0,.1-.06,0,0a.75.75,0,0,0-.12.07s.11,0,0,0l-.06,0-.07,0c-.06,0,.12,0,0,0h-.08c-.09,0,.09,0,0,0l-.14,0a.5.5,0,0,0-.62.35.52.52,0,0,0,.35.61,1.34,1.34,0,0,0,1.36-.31,1.26,1.26,0,0,0,.32-1.34c-.18-.49-.78-1.13-1.34-.77a1.13,1.13,0,0,0-.43,1.22,1.35,1.35,0,0,0,.92,1,2.84,2.84,0,0,0,1.53,0,.93.93,0,0,0,.56-.63,1.48,1.48,0,0,0,0-.66,1.37,1.37,0,0,0-.65-1,1.26,1.26,0,0,0-1.5.22,1.35,1.35,0,0,0-.38,1.43.57.57,0,0,0,.23.3.53.53,0,0,0,.39.05.51.51,0,0,0,.34-.62Z"/><path class="cls-2" d="M255.88,100.4q-7.92.27-15.85.13c-.64,0-.64,1,0,1a101.08,101.08,0,0,0,12.18-.35c.64-.06.64-1.06,0-1a101.08,101.08,0,0,1-12.18.35v1q7.92.14,15.85-.13c.64,0,.64-1,0-1Z"/><path class="cls-1" d="M80.29,113.33a23,23,0,0,0-15.64,4.1,22.65,22.65,0,0,0-8.91,13.43,23.09,23.09,0,0,0-.19,9.33l1.83-.77-4.09-5.85a1.06,1.06,0,0,0-1.13-.46,1,1,0,0,0-.74,1,10.87,10.87,0,0,0,2.1,5.26,1,1,0,0,0,1.73,0A9.93,9.93,0,0,1,60.11,135a1,1,0,0,0,.36-1.37,1,1,0,0,0-1.37-.35,11.66,11.66,0,0,0-5.58,5.05h1.73a9,9,0,0,1-1.83-4.25l-1.86.5,4.09,5.85a1,1,0,0,0,1.83-.77,21.1,21.1,0,0,1,2.72-14.58,20.55,20.55,0,0,1,11.68-9,21.15,21.15,0,0,1,8.41-.77,1,1,0,0,0,1-1,1,1,0,0,0-1-1Z"/><path class="cls-1" d="M257,230.75c1.32-13,1-27.3-7.2-38.23a29.73,29.73,0,0,0-7.19-6.92,1,1,0,0,0-1.5.86,31,31,0,0,1-.51,5.34h1.93c0-.2,0,.18,0,0s0-.19,0-.28,0-.46,0-.69q0-.82.15-1.65c.07-.49.15-1,.26-1.47,0-.19.1-.37.15-.56s0,0,0,0c.2-.15-.24.2-.23.19l-.5.14a11.78,11.78,0,0,1,2.21.14l2.44.16,4.88.31c1.29.09,1.28-1.91,0-2l-6.1-.39c-1-.07-2.11-.15-3.17-.21a1.22,1.22,0,0,0-1.28.7,9.3,9.3,0,0,0-.67,3.09,10.81,10.81,0,0,0-.07,3.11,1,1,0,0,0,1.93,0,34,34,0,0,0,.58-5.87l-1.51.86c10.32,7,13.86,20,14,31.81a102.54,102.54,0,0,1-.6,11.62,1,1,0,0,0,1,1,1,1,0,0,0,1-1Z"/><path class="cls-1" d="M282.23,209.67c0,.08,0-.12,0,0s0,.05,0,.07a.17.17,0,0,1,0,.07c0,.12,0-.09,0,0a.65.65,0,0,1,0,.13c0,.08,0,0,0,0a.25.25,0,0,1,0,.07.75.75,0,0,1-.07.12l0,0-.06.07-.1.1s-.09.07,0,0l0,0c-.09.06-.19.1-.28.15h0l-.07,0-.16,0h-.07c-.06,0-.11,0,0,0h-.3c-.09,0,.07,0,0,0H281l-.15,0c-.08,0,.06,0,0,0l-.08,0-.11-.08s.09.08,0,0l-.06-.06s0-.08,0,0l0-.06a.16.16,0,0,1,0-.07s-.06-.12,0,0,0,0,0,0a.24.24,0,0,1,0-.08s0-.11,0,0,0,0,0,0,0-.06,0-.09v0s0,.12,0,.07a1.24,1.24,0,0,1,0-.16.25.25,0,0,1,0-.07c0-.08-.05.1,0,0l.09-.16,0-.07c0-.07-.07.08,0,0l.12-.13.12-.11c.07-.06,0,0,0,0l.09-.06.17-.09a.2.2,0,0,1,.08,0l-.06,0h.05a1.39,1.39,0,0,1,.19-.06h0c.05,0-.11,0-.06,0h.25l.08,0c.11,0-.07,0,0,0l.08,0,.08.05s-.08-.08,0,0l0,0-.15-.36v.08c0,.06,0-.1,0,0a.7.7,0,0,0,0,.14l0,.07s.06-.11,0,0a.75.75,0,0,1-.07.12l0,.07c0,.06,0,0,0,0a.53.53,0,0,0-.09.11l-.11.09c-.07.07.07,0,0,0l-.07.05-.12.07-.06,0c-.05,0,.11,0,0,0l-.13,0a.58.58,0,0,0-.14,0c.06,0,.1,0,0,0h-.22c-.06,0,.1,0,0,0l-.07,0-.15,0a.51.51,0,0,0-.62.35.51.51,0,0,0,.35.61,1.89,1.89,0,0,0,2.4-1.27,1.58,1.58,0,0,0,.05-.38.67.67,0,0,0-.35-.55,1.34,1.34,0,0,0-.54-.22,1.92,1.92,0,0,0-1.28.24,1.86,1.86,0,0,0-1,2.14,1.58,1.58,0,0,0,.92.92,2.18,2.18,0,0,0,2.22-.6,1.57,1.57,0,0,0,.38-1.36.51.51,0,0,0-.61-.35.52.52,0,0,0-.35.62Z"/><path class="cls-1" d="M294.86,202.12a2.27,2.27,0,0,1,1.29-1.89,1.5,1.5,0,0,1,1.85.54,1.28,1.28,0,0,1-.36,1.93,2.5,2.5,0,0,1-2.08.28c-1.36-.38-2.39-1.8-1.55-3.13.69-1.08,2.49-1.63,3.18-.34a2.4,2.4,0,0,1-.94,2.93c-1.16.66-2.46-.37-2.85-1.52a2.32,2.32,0,0,1,1.61-3.17,3.24,3.24,0,0,1,3.78,1.41,3.64,3.64,0,0,1-.61,4.27,3.59,3.59,0,0,1-4.27.3,3.15,3.15,0,0,1-.85-.78.5.5,0,0,0-.71.71,4.64,4.64,0,0,0,5.64,1.12,4.51,4.51,0,0,0,2-5.33,4.19,4.19,0,0,0-4.75-2.78,3.71,3.71,0,0,0-2.45,1.47,3.37,3.37,0,0,0-.46,2.71c.4,1.72,2.18,3.34,4,2.63a3.36,3.36,0,0,0,1.81-4.2,2.43,2.43,0,0,0-2.12-1.53,3.27,3.27,0,0,0-2.57,1.14,2.92,2.92,0,0,0-.68,2.76,3.39,3.39,0,0,0,1.91,2.08,3.7,3.7,0,0,0,2.88.11,2.41,2.41,0,0,0,1.65-2.7,2.65,2.65,0,0,0-2.08-2,2.87,2.87,0,0,0-2.8,1.4,3.22,3.22,0,0,0-.51,1.59c0,.64,1,.64,1,0Z"/><path class="cls-1" d="M282,181.51l-.07,1.69.76-.44-.08,0s.1.08,0,0l0,0-.06-.06,0,0s0,0,0,0-.07-.11-.09-.15v0c0,.08,0,0,0-.05l0-.16s0,.07,0,.07,0,0,0-.05v-.1a1.09,1.09,0,0,1,0-.18c0-.08,0,.11,0,0a.36.36,0,0,0,0-.1c0-.06,0-.12.05-.18l0-.08c0-.11,0,.06,0,0a3.21,3.21,0,0,1,.19-.31c.05-.08-.07.07,0,0l.06-.07.13-.13,0,0s-.09.06,0,0l.06,0,.07,0,.05,0c-.09,0,0,0,0,0l.08,0,.09,0h.06c.06,0,.12,0,0,0l.18,0h0c.06,0,0,0,0,0l.07,0,.07,0,0,0s-.1-.09,0,0l.1.1c.06.06,0,0,0,0a.56.56,0,0,1,.05.08.54.54,0,0,1,.07.13c0,.06,0-.12,0,0a.31.31,0,0,1,0,.08,1.24,1.24,0,0,1,0,.16s0,.12,0,0,0,0,0,0,0,.24,0,.36,0-.13,0,0,0,.05,0,.08a1.16,1.16,0,0,1,0,.18l0,.09c0,.11,0-.07,0,0l-.09.17,0,.07,0,0c0,.05.07-.08,0,0l-.12.14s-.1.08,0,0a.49.49,0,1,1,0,0l-.07,0,0,0c-.06,0,0,0,0,0a1.09,1.09,0,0,0-.17.05c-.12,0,.08,0,0,0h-.1a.5.5,0,0,0-.5.5.51.51,0,0,0,.5.5c1.47,0,2.1-1.82,1.53-3a1.59,1.59,0,0,0-1.78-.82,2.09,2.09,0,0,0-1.38,1.43,1.77,1.77,0,0,0,.66,2.11.51.51,0,0,0,.75-.43l.07-1.69a.51.51,0,0,0-.5-.5.51.51,0,0,0-.5.5Z"/><path class="cls-1" d="M42.43,237.84c.18.08,0-.05,0,0s0,.06,0,.06,0,0-.06-.1,0-.37.31-.34c.69.06.41.83-.15.86-.74,0-.67-1-.23-1.35.59-.42,1.94-.67,2.43,0a1.71,1.71,0,0,1,0,1.76,2.88,2.88,0,0,1-2.09,1.14,7.05,7.05,0,0,1-1.3.1c-.42,0-.94,0-1-.5a3.41,3.41,0,0,1,1-2.27,3.16,3.16,0,0,1,2.2-1.14,2.32,2.32,0,0,1,2.16,1,2,2,0,0,1,0,2.06,2.92,2.92,0,0,1-2.34.86c-1.56,0-4.5-.44-4-2.67a5.88,5.88,0,0,1,1.46-2.5,2.64,2.64,0,0,1,2.19-1.07c2.28.28,2.58,3.36,2.5,5.14-.09,2.09-2.26,2.52-4,2.71-.63.07-.64,1.07,0,1a8,8,0,0,0,3.43-.95,3.52,3.52,0,0,0,1.55-3.29,7,7,0,0,0-1.1-4.19,3.27,3.27,0,0,0-3.37-1.34A5.42,5.42,0,0,0,39,235.45c-.77,1.21-1.2,2.67-.27,3.92A4.75,4.75,0,0,0,42.53,241c1.27.06,2.79,0,3.7-1.05a2.92,2.92,0,0,0,.25-3.35,3.35,3.35,0,0,0-3.29-1.52,4.37,4.37,0,0,0-3.15,2.1c-.59.92-1.27,2.63-.17,3.46a2.91,2.91,0,0,0,1.91.32,7.19,7.19,0,0,0,2-.36,3.09,3.09,0,0,0,2.15-2.55,2.12,2.12,0,0,0-1.66-2.43c-1.18-.21-3,.27-3.27,1.59a1.63,1.63,0,0,0,1.82,2.07,1.44,1.44,0,0,0,.85-2.41c-.76-.7-2.26-.48-2.33.71a1.24,1.24,0,0,0,.79,1.27,1,1,0,0,0,1.24-.64,1,1,0,0,0-.44-1.24c-.58-.25-1.09.61-.5.87Z"/><path class="cls-1" d="M57.08,97.28l0-.07s-.06.08,0,0,0,0,0,0l0,0c.06,0-.09,0,0,0h.05l.08,0c-.12,0,0,0,0,0s-.06,0,.06,0,.13.06,0,0l.07,0s0,.05,0,0l0,0s-.05-.08,0,0,0,0,0,0,0,0,0,.08,0,.08,0,0v.06s0,.11,0,0,0,0,0,0,0,.06,0,.08,0,0,0,0a.2.2,0,0,1,0,.08s0,.09,0,0,0,0,0,0l-.06.06h0l-.08,0h0c.07,0,0,0,0,0l-.09,0s.1,0,0,0H57l-.1,0-.08,0c.1,0,0,0,0,0l-.08,0,0,0s0-.06-.07-.08,0,0,0-.06,0-.08,0,0,0,0,0-.06,0,0,0,0v-.08s0-.08,0,0,0,0,0,0,.06-.14,0-.06a.3.3,0,0,0,0-.08s.08-.1,0-.06l0,0,.06-.06,0,0,.08,0s.08,0,0,0l.08,0h0c-.07,0,.05,0,.06,0s-.05,0,0,0L57,97c-.09,0,0,0,.05,0s-.06,0,0,0,0,0,0,.05l0,.06c-.06-.07,0,0,0,0l0,.08c0,.06,0-.07,0,0s0,.15,0,0c0,0,0,.18,0,.08s0,0,0,.06,0-.06,0,0l0,.07s.07-.08,0,0,.07,0,0,0-.12,0,0,0l-.07,0s-.12,0,0,0-.07,0-.09,0,0,0,0,0l-.07,0-.07,0s.09,0,0,0l0,0s.05.06,0,0,0,0,0,0,.07.08,0,0,0-.08,0,0,0,0,0,0,0,.09,0,0,0,0,0,0v0a.29.29,0,0,0,0-.09c0-.06,0,.06,0,0a.08.08,0,0,0,0,0l0-.07c0,.08,0,0,0,0l.12-.11c-.07.06,0,0,.07,0l.07,0s-.09,0,0,0l.14,0c.06,0-.07,0,0,0s0,0,.06,0h0l.1,0c.07,0-.07,0,0,0l0,0s.15.11.07,0l.12.11c-.07-.07,0,0,0,.07a.43.43,0,0,0,0,.07c.05.08,0,0,0,0l.06.18s0,.19,0,.08c0,.07,0,.13,0,.2v.07s0,.15,0,0a1.36,1.36,0,0,1,0,.17.19.19,0,0,0,0,.08s-.05.11,0,.06,0,0,0,0l-.08.13a1.27,1.27,0,0,1-.21.29,2.35,2.35,0,0,1-.33.3c.05,0,0,0,0,0l-.11.07-.2.13-.42.23.69.18-.47-.87a.51.51,0,0,0-.69-.18.5.5,0,0,0-.17.68l.46.87a.51.51,0,0,0,.69.18,3.63,3.63,0,0,0,1.75-1.6,2.07,2.07,0,0,0-.2-2.13,1.4,1.4,0,0,0-2.09-.2,1.22,1.22,0,0,0,0,2A1.33,1.33,0,0,0,58.13,98a1.37,1.37,0,0,0-1-1.9,1.41,1.41,0,0,0-1.62,1.42,1.47,1.47,0,0,0,1.57,1.38,1.43,1.43,0,0,0,1.22-2,1.24,1.24,0,0,0-2.14-.07.5.5,0,0,0,.87.5Z"/><path class="cls-1" d="M65.4,84.31c.31.57.81,1.4.52,2.06-.16.37-.76.78-1,.31a1.28,1.28,0,0,1,.3-1.47A1.16,1.16,0,0,1,66.7,85a1.28,1.28,0,0,1,.57,1.45,1.38,1.38,0,0,1-1.11.85,1.28,1.28,0,0,1-1.27-.8,2.46,2.46,0,0,1,0-1.92c.39-1.12,1.42-2.83,2.78-2.79s1.76,2.08,1.75,3.12a3.68,3.68,0,0,1-1.62,3.14,3.36,3.36,0,0,1-3.22.28c-2.33-1.17-2.24-4.4-.61-6.1a4.27,4.27,0,0,1,6.15.3,4.57,4.57,0,0,1-.57,6.31,4.83,4.83,0,0,1-3.45,1,4,4,0,0,1-3.16-1.73c-.67-1.28.29-2.79,1.15-3.71a7,7,0,0,1,3.35-2,2,2,0,0,1,1.65.16,1.52,1.52,0,0,1,.36,1.59,3,3,0,0,1-2.53,2.46A1.88,1.88,0,0,1,65.38,86c-.43-.47-1.13.23-.7.71a3.13,3.13,0,0,0,4.44-.07c1.12-1.06,2-3.23.88-4.58s-3.31-.62-4.61.1a7.46,7.46,0,0,0-3.5,4,3.25,3.25,0,0,0,.24,2.64,4.44,4.44,0,0,0,2,1.63,6,6,0,0,0,4.9-.07,5.38,5.38,0,0,0-2.15-10.28,4.9,4.9,0,0,0-4.09,2,5.21,5.21,0,0,0-.85,4.48,4.22,4.22,0,0,0,3.55,3,4.54,4.54,0,0,0,4.14-2,5.32,5.32,0,0,0,.31-5,2.79,2.79,0,0,0-1.81-1.78,2.9,2.9,0,0,0-2.51.8c-1.23,1.12-2.32,3.16-1.8,4.85a2.3,2.3,0,0,0,3.69,1.26A2.25,2.25,0,0,0,66.76,84a2.33,2.33,0,0,0-3,2.58,1.47,1.47,0,0,0,1.57,1.35,1.88,1.88,0,0,0,1.55-1.37,3.79,3.79,0,0,0-.65-2.7c-.31-.57-1.17-.07-.87.5Z"/><path class="cls-1" d="M66.1,85.58a.5.5,0,0,0,0-1,.5.5,0,0,0,0,1Z"/><path class="cls-1" d="M211.73,223.08l70.69-2.23s.62,29.66,0,31.2-69.21,1.88-69.21,1.88Z"/><path class="cls-1" d="M72.65,102q-1.29,29.74.07,59.51l1.5-1.5H56.53a1.5,1.5,0,0,0,0,3H74.22a1.52,1.52,0,0,0,1.5-1.5q-1.35-29.75-.07-59.51c.08-1.93-2.92-1.92-3,0Z"/><path class="cls-1" d="M56.93,164.33l4-1.16c.26-.08.55-.13.81-.23s.55,0-.08,0a1.21,1.21,0,0,1,.19,0c1.08.11,2.22,0,3.3,0l15.9,0,41.14.07,10,0-1.5-1.5.57,67,.16,19a1.5,1.5,0,0,0,3,0l-.57-67-.16-19a1.52,1.52,0,0,0-1.5-1.5L105,160l-38.69-.07c-1.44,0-2.88,0-4.32,0-1.94.06-4,1-5.83,1.53a1.5,1.5,0,0,0,.79,2.9Z"/><polygon class="cls-1" points="57.52 161.07 74.3 159.99 73.54 97.97 264.89 92.81 267.51 201.58 132.71 203.95 132.71 249.4 58.7 250.78 56.15 196.24 57.52 161.07"/><rect class="cls-1" x="158.77" y="237.39" width="55" height="6.19"/><rect class="cls-1" x="175.64" y="204.48" width="1.64" height="3.04"/></svg>