<svg xmlns="http://www.w3.org/2000/svg" viewBox="0 0 339 325.76"><defs><style>.cls-1{fill:#497ec0;}.cls-2{fill:none;stroke:#497ec0;stroke-miterlimit:10;}</style></defs><g id="Warstwa_2" data-name="Warstwa 2"><path class="cls-1" d="M79.24,229.32a1,1,0,0,0,0,1.81,1,1,0,0,0,.84-1.62c-.3-.26-.88-.12-.85.35,0,1-1,2.36-2.12,1.71-.59-.37-.92-1.6-.19-2a.86.86,0,0,1,1,.27c.2.21.5.68.24,1s-.89.11-1.17,0a1.28,1.28,0,0,1-.74-1.12,1.57,1.57,0,0,1,2.4-1.18,1.83,1.83,0,0,1,.4,2.65,2.51,2.51,0,0,1-2.34.64,2,2,0,0,1-1.58-1.94,3.07,3.07,0,0,1,1.38-2.57,3,3,0,0,1,3.17.18,3.4,3.4,0,0,1,1.64,3.22,2.54,2.54,0,0,1-2.54,1.75c-2.39.07-4.67-2.43-3.26-4.71a2.25,2.25,0,0,1,2.77-1A2.86,2.86,0,0,1,80,229.43a3.48,3.48,0,0,1-2.17,2.7,3.09,3.09,0,0,1-3.39-.47,1.91,1.91,0,0,1,.25-2.61,1.69,1.69,0,0,1,2.6.55,1.74,1.74,0,0,1,.19,1.49c-.2.61.77.87,1,.26a3,3,0,0,0-2.22-3.67,2.78,2.78,0,0,0-3.16,2.44,2.91,2.91,0,0,0,2.66,3.24,4.77,4.77,0,0,0,4.53-1.93,3.79,3.79,0,0,0-.17-4.66,3.24,3.24,0,0,0-4.31-.75,3.87,3.87,0,0,0-1.53,4.25A4.72,4.72,0,0,0,78,233.34a3.87,3.87,0,0,0,4.1-1.87c.76-1.64-.21-3.62-1.54-4.65a3.85,3.85,0,0,0-6.38,3.4,3,3,0,0,0,2.74,2.57,3.25,3.25,0,0,0,3.31-1.65,2.89,2.89,0,0,0-1.8-3.88,2.6,2.6,0,0,0-3.16,2.63,2.38,2.38,0,0,0,3.4,1.77,1.45,1.45,0,0,0,.45-1.8,2.24,2.24,0,0,0-1.53-1.34c-1.53-.33-2.38,1.34-2,2.63A2.2,2.2,0,0,0,77,232.62a2.39,2.39,0,0,0,2.25-.57,2.77,2.77,0,0,0,1-2.19l-.86.35s0,0,0,0h.14c.16,0,.09.06,0,.09.6-.21.34-1.18-.27-1Z"/><path class="cls-2" d="M293.39,206.16a5.1,5.1,0,0,1,4.21.39,2.83,2.83,0,0,1,1,3.78,3.7,3.7,0,0,1-3.08,1.23,4.77,4.77,0,0,1-2.93-.81c-1.84-1.43-1.16-4.83,1-5.68a4.15,4.15,0,0,1,5.25,3.15,5.12,5.12,0,0,1-3.36,5.47,6.75,6.75,0,0,1-6.52-1.41,5.47,5.47,0,0,1-1.8-2.67,4.61,4.61,0,0,1,2.48-5.17,5.23,5.23,0,0,1,5.75,1.1,4.73,4.73,0,0,1,.41,6.26c-1.54,1.72-4.86,1.42-5.77-.69s1.75-4.82,3.75-3.69a1.65,1.65,0,0,1,.92,1.48,1,1,0,0,1-1.29.87Z"/><path class="cls-1" d="M243.29,79.6a2,2,0,1,1-3.88-.06l-.48.36a.88.88,0,0,1,.79.36,1.07,1.07,0,0,1,.19.42,1.34,1.34,0,0,1,0,.2c0,.06-.08.21,0,.12-.27.39-.9.25-1.27,0a1,1,0,0,1-.1-1.46,2,2,0,0,1,2-.65,4,4,0,0,1,2.22,1.76l.07-.61a1.39,1.39,0,0,1-1.31.4c-.62-.14-.89.82-.26,1a2.41,2.41,0,0,0,2.28-.65.51.51,0,0,0,.08-.61,4.92,4.92,0,0,0-2.91-2.23,3,3,0,0,0-3.06,1.21,2,2,0,0,0,.52,2.74,1.85,1.85,0,0,0,2.59-.26,1.71,1.71,0,0,0-.14-1.79,1.87,1.87,0,0,0-1.66-.87.54.54,0,0,0-.49.37,3,3,0,1,0,5.82.07c-.13-.63-1.1-.37-1,.26Z"/><path class="cls-1" d="M279.75,186l-.07,1.68.75-.43s-.05-.05-.07-.05.09.08,0,0l0,0-.06-.06,0,0c0-.05,0,0,0,0s-.08-.11-.09-.15-.05-.1,0,0,0,0,0,0,0-.1,0-.15v.06s0,0,0-.05,0-.06,0-.1,0-.11,0-.17,0,.11,0,0,0-.06,0-.1a.84.84,0,0,1,.05-.17.19.19,0,0,1,0-.08c.05-.12,0,.05,0,0a3.14,3.14,0,0,1,.18-.31c.05-.07-.06.07,0,0l.07-.07a.74.74,0,0,1,.13-.12l0,0s-.09.06,0,0l.07-.05.06,0,.05,0h0l.07,0,.09,0h.07c.05,0,.11,0,0,0l.18,0h0c.06,0,0,0,0,0s0,0,.07,0l.06,0,0,0c.05,0-.09-.09,0,0l.11.1c.05.06,0,0,0,0s0,.05.06.08a.83.83,0,0,0,.07.13c0,.07,0-.12,0,0l0,.09c0,.05,0,.1,0,.16s0,.11,0,0,0,0,0,0,0,.23,0,.35,0-.12,0,0,0,.06,0,.08a1.21,1.21,0,0,1-.05.18l0,.09c0,.12,0-.06,0,0a1.4,1.4,0,0,1-.09.17.43.43,0,0,1,0,.07l0,0,0-.05a1.79,1.79,0,0,1-.13.14s-.1.08,0,0l0,0-.08,0,0,0c-.05,0,0,0,0,0a1.09,1.09,0,0,0-.17,0c-.11,0,.08,0,0,0h-.11a.51.51,0,0,0-.5.5.5.5,0,0,0,.5.5c1.48,0,2.1-1.82,1.53-3a1.57,1.57,0,0,0-1.77-.82,2.08,2.08,0,0,0-1.39,1.43,1.79,1.79,0,0,0,.67,2.11.51.51,0,0,0,.75-.43l.07-1.68a.5.5,0,0,0-.5-.5.5.5,0,0,0-.5.5Z"/><path class="cls-1" d="M125.54,194q-24.36-35.43-48-71.37-6.63-10.08-13.21-20.22c-1-1.62-3.64-.11-2.59,1.51q23.37,36,47.5,71.57,6.81,10,13.68,20c1.09,1.58,3.69.08,2.59-1.51Z"/><path class="cls-1" d="M68.12,101.45q24.42,32.52,46.13,67,6,9.63,11.87,19.39a1.5,1.5,0,0,0,2.59-1.52Q108,151.51,84.37,118.56q-6.72-9.39-13.66-18.62c-1.14-1.53-3.75,0-2.59,1.51Z"/><path class="cls-1" d="M132.44,194.46a10.57,10.57,0,0,1,10.29,3.26c2.14,2.56,2.63,5.89,3.19,9.05a63.6,63.6,0,0,0,2.2,8.72,22.66,22.66,0,0,0,3.82,7.79c1.25,1.48,3.36-.65,2.12-2.12-1.94-2.28-2.84-5.6-3.65-8.42-.86-3-1.39-6-2-9-.71-3.68-2.2-7.31-5.21-9.69a14,14,0,0,0-11.59-2.48c-1.88.41-1.08,3.3.8,2.89Z"/><path class="cls-1" d="M123.22,192.91a11.41,11.41,0,0,0,1,15.36c2.35,2.37,5.61,3.72,8.74,4.73,1.76.57,3.56,1,5.37,1.44a35.75,35.75,0,0,1,5.19,1.38A18.51,18.51,0,0,1,151.7,223c1.06,1.6,3.66.1,2.59-1.51a22.24,22.24,0,0,0-8.36-7.84c-3.77-1.88-8.16-2.24-12.16-3.53-3.59-1.15-7.29-2.82-9.13-6.31a8,8,0,0,1,.7-8.76c1.22-1.47-.89-3.61-2.12-2.12Z"/><path class="cls-1" d="M64.9,103a1.28,1.28,0,0,1-.11-.2.91.91,0,0,1-.07-.14s.1.3.07.14a3,3,0,0,0-.09-.32s0-.22,0,0,0,0,0-.08v-.27c0-.25-.09.34,0,0,0-.08,0-.17.07-.26s0-.25,0,0,0,0,0,0,.18-.27.18-.28-.21.23-.09.12l.09-.11.26-.23c.11-.11-.1.08-.11.08s.15-.09.18-.11a2.06,2.06,0,0,1,.33-.17c.15-.08-.11,0-.11,0a.65.65,0,0,1,.21-.07s.16-.07.19,0-.43,0-.28,0,.08,0,.12,0h.16c.2,0-.42-.09-.14,0s.3.07.45.12l.46.16.15.06-.17-.08.3.14a13.41,13.41,0,0,1,2,1.2c.2.14-.26-.22,0,0l.23.2a4,4,0,0,1,.37.35s.09.13.15.18-.2-.3-.15-.2l.07.11c.05.06.13.27,0,0s-.06-.15,0-.08a2.5,2.5,0,1,0,0-.28,1.53,1.53,0,0,0,1.5,1.5,1.51,1.51,0,0,0,1.5-1.5,3.49,3.49,0,0,0-1.46-2.35,12.48,12.48,0,0,0-2.58-1.66,6.62,6.62,0,0,0-2.81-.82,4.38,4.38,0,0,0-3.44,2.11,4.27,4.27,0,0,0,0,4.34A1.5,1.5,0,1,0,64.9,103Z"/><path class="cls-1" d="M126.56,190.1h0l-.4-.05a1.25,1.25,0,0,1,.39.11l-.36-.15a1.64,1.64,0,0,1,.29.16l-.31-.23a1.23,1.23,0,0,1,.26.25l-.24-.31a1.68,1.68,0,0,1,.2.34l-.15-.36a1.78,1.78,0,0,1,.1.38l0-.4a1.93,1.93,0,0,1,0,.48l0-.4a2.36,2.36,0,0,1-.1.38l.15-.35a2.43,2.43,0,0,1-.2.35l.23-.31a1.94,1.94,0,0,1-.32.32l.3-.24a3.07,3.07,0,0,1-.68.39l.36-.15a5.77,5.77,0,0,1-1.47.37l.4-.05c-.54.07-1.09.1-1.64.12a1.52,1.52,0,0,0-1.06.44,1.5,1.5,0,0,0,1.06,2.56,17.27,17.27,0,0,0,2.38-.23,5.78,5.78,0,0,0,2.08-.79,3.12,3.12,0,0,0,1.07-4.18,2.87,2.87,0,0,0-1-1,3.13,3.13,0,0,0-1.42-.46,1.57,1.57,0,0,0-1.07.44,1.51,1.51,0,0,0-.43,1.06,1.53,1.53,0,0,0,.43,1.07l.31.23a1.42,1.42,0,0,0,.76.2Z"/><path class="cls-1" d="M122.33,179.54a4.05,4.05,0,0,1-.2.76c0,.06,0,.12-.07.19.16-.46.1-.23,0-.12l-.19.36-.22.34a1,1,0,0,0-.12.17c.26-.39.13-.18.06-.09a7.36,7.36,0,0,1-.62.63l-.16.14c-.25.2.2-.15.07-.06l-.36.25a6,6,0,0,1-.78.44l-.21.1c-.14.06.38-.16.08,0a3.81,3.81,0,0,1-.44.15,7.77,7.77,0,0,1-1,.24,1.51,1.51,0,0,0-.9.68,1.52,1.52,0,0,0-.15,1.16,1.55,1.55,0,0,0,.69.9,1.69,1.69,0,0,0,1.15.15c2.79-.49,5.67-2.62,6.16-5.55a1.61,1.61,0,0,0-.15-1.16,1.5,1.5,0,0,0-2.74.36Z"/><path class="cls-1" d="M189.43,238.74l1,6.38.46,3.06a7,7,0,0,0,.77,3.06,3,3,0,0,0,2.8,1l3.11-.16,6.48-.32a1.5,1.5,0,0,0,0-3l-5.7.28-2.85.15a9.24,9.24,0,0,0-1.49.07c-.22.05-.17-.09-.08.08s.19.2.14-.09c-.67-3.75-1.14-7.55-1.71-11.33a1.51,1.51,0,0,0-1.85-1,1.53,1.53,0,0,0-1,1.84Z"/><path class="cls-1" d="M190.13,240.22l3.74-1.56a5.53,5.53,0,0,0,2.58-1.46,3.42,3.42,0,0,0,.17-2.95,23.76,23.76,0,0,1-.62-3.94,26.88,26.88,0,0,1,0-3.7c.09-1.21.55-2.6.16-3.79a4.45,4.45,0,0,0-2.06-2.18,25.28,25.28,0,0,0-3.58-1.95l.69,1.69,2.13-10.12a19.65,19.65,0,0,1,.48-2.28,4.27,4.27,0,0,1,.13-.48l.11.11a5.55,5.55,0,0,1,1.4.29l5.11,1.08c1.88.39,2.69-2.5.79-2.9-2.16-.45-4.32-1-6.5-1.37-1.86-.34-3.26.28-3.85,2.15s-.89,4.12-1.31,6.13l-1.38,6.59a1.53,1.53,0,0,0,.69,1.7,27,27,0,0,1,2.62,1.35c.39.23.78.46,1.15.72s.51.44.47,1a45.38,45.38,0,0,0-.26,5.71c.06.9.16,1.81.3,2.7a7.29,7.29,0,0,0,.56,2.72c0,.46.13.41.24-.16l-.35.15a4.68,4.68,0,0,0-1.32.56l-3.07,1.28a1.55,1.55,0,0,0-1.05,1.85,1.5,1.5,0,0,0,1.84,1Z"/><path class="cls-1" d="M203.59,208.56a10.78,10.78,0,0,1,2.66-3.41A10.2,10.2,0,0,1,207.9,204c.66-.37,1.4-.57,2-.93,1.76-1,1.39-3.2,1.26-4.88a38.06,38.06,0,0,0-.91-5.72c-.45-1.88-3.35-1.08-2.9.8a32.57,32.57,0,0,1,.81,4.92c0,.42.06.85.07,1.27a11.64,11.64,0,0,0,0,1.2c-.11-.05.47-.17.13-.18l-.36.14c-.37.15-.73.3-1.09.48a13.28,13.28,0,0,0-6,5.91c-.87,1.72,1.72,3.24,2.59,1.52Z"/><path class="cls-1" d="M209.76,194.19a29.62,29.62,0,0,1,6.72-3c1.65-.47,4.88-.86,5.25,1.55.16,1.05,0,1.94,1,2.64s2,.36,3,.14a23.11,23.11,0,0,1,7.46-.48c2.21.22,4.17.83,5.38-1.53.28-.56.54-1.14.81-1.71a5.6,5.6,0,0,1,.74-1.56c0-.28.13-.35.26-.2l.87.17c.58.12,1.16.26,1.73.41a33.08,33.08,0,0,1,6.65,2.55c.81.42,1.85.77,1.92,1.8a5.83,5.83,0,0,1-.74,2.68c-.79,1.74,1.79,3.27,2.59,1.51.74-1.61,1.46-3.45,1-5.25s-2.22-2.82-3.87-3.63a38.06,38.06,0,0,0-5.92-2.32c-1.69-.49-4.35-1.56-6-.51a4.52,4.52,0,0,0-1.45,2c-.24.49-.47,1-.71,1.49s-.37,1.21-.7,1.44.37,0-.16,0a3.65,3.65,0,0,1-.65-.1c-.52-.07-1-.15-1.55-.2a22.5,22.5,0,0,0-3.48-.12,26,26,0,0,0-3.18.32c-.61.09-1.22.22-1.82.35-.13,0-.53.06-.62.15-.38,0-.24.15.41.33v-.36c.25-1.67-1.4-3.45-2.73-4.16-2.1-1.14-4.55-.83-6.75-.15a34.33,34.33,0,0,0-7,3.13,1.5,1.5,0,0,0,1.51,2.59Z"/><path class="cls-1" d="M250.92,201.56a18.49,18.49,0,0,1,8,7.27,1.52,1.52,0,0,0,1.69.69l2.7-.65,1.54-.37a3.87,3.87,0,0,0,1-.23c-.34-.2-.41-.21-.23,0s.22.36.32.55.37.65.54,1c.41.77.79,1.56,1.14,2.36a33.54,33.54,0,0,1,1.65,5c.09.37.18.73.26,1.1a4,4,0,0,1,.09.5c.33-.45.33-.55,0-.3-.31,0-.82.42-1.08.56l-1.43.74c-1.72.9-.2,3.49,1.51,2.59a16.26,16.26,0,0,0,3.12-1.71,2.74,2.74,0,0,0,.77-2.81,32.12,32.12,0,0,0-2.15-6.79c-.44-1-.92-2.06-1.45-3.05a5.44,5.44,0,0,0-1.87-2.36c-1.05-.57-2.28-.12-3.36.14l-3.84.93,1.69.69a21.22,21.22,0,0,0-9.05-8.35c-1.73-.83-3.26,1.76-1.51,2.59Z"/><path class="cls-1" d="M264.35,222.89a13.63,13.63,0,0,1,1.68,7.59c-.14,2.36-.25,4.84,1.38,6.75a5.65,5.65,0,0,0,2.44,1.54c.47.18.77.16.85.6a6.54,6.54,0,0,1-.56,2l-2.42,8.71,2.2-.9a26.15,26.15,0,0,0-8.17-2.3c-1.92-.23-1.9,2.78,0,3a21.52,21.52,0,0,1,6.66,1.89,1.52,1.52,0,0,0,2.2-.89l2.55-9.18c.36-1.28.9-2.69.26-4a4.27,4.27,0,0,0-2.62-1.85c-2.6-1-1.77-4.16-1.73-6.36a16.37,16.37,0,0,0-2.13-8.2c-.94-1.68-3.54-.17-2.59,1.52Z"/><path class="cls-1" d="M259.22,248.29c-2.08,2.22-4.33,4.36-6.24,6.72a6.83,6.83,0,0,0-1.69,3.62,18.48,18.48,0,0,0,.23,3.32,2,2,0,0,1-.09,1.13c-.33.5-1.31.59-1.85.74l-4.53,1.29-2.37.68c-.12,0-.44.2-.58.15a7.07,7.07,0,0,1-.7-1.14l-2.58-4.17c-1-1.64-3.61-.13-2.59,1.52l2.93,4.73c1,1.6,2,2.38,3.89,1.93,1.74-.42,3.46-1,5.17-1.48s3.61-.71,4.92-1.74a4,4,0,0,0,1.39-3.48c-.06-1.22-.56-2.59-.14-3.78.51-1.42,1.93-2.56,2.93-3.63l4-4.29c1.32-1.41-.8-3.53-2.12-2.12Z"/><path class="cls-1" d="M237.25,259.66c-2.22.25-4.45.4-6.69.43-1.64,0-4-.51-5.44.44a12.26,12.26,0,0,0-2,1.92l-2.23,2.34c-.3.32-.75,1-1.18,1.13s-1.11-.23-1.53-.35l-3-.89c-1.24-.36-3.51-.67-4.32-1.84s.45-2.86.67-4a4.24,4.24,0,0,0-1.53-4.2,14.48,14.48,0,0,1-3.65-4.22c-.91-1.71-3.5-.19-2.59,1.51a15.1,15.1,0,0,0,3.82,4.59c.67.56,1.17.91,1,1.85s-.55,1.53-.74,2.32c-1,4,2.39,5.65,5.63,6.6l3.45,1a8.54,8.54,0,0,0,3.16.71,3.73,3.73,0,0,0,2.25-1.4l2.4-2.52c.5-.53,1.37-1.83,2.08-2.07a6.82,6.82,0,0,1,1.8,0h1.43a68.63,68.63,0,0,0,7.17-.43c1.9-.2,1.92-3.21,0-3Z"/><path class="cls-1" d="M189.07,239.93l2.33,7.43,2.9-.8-1.39-4.1a1.5,1.5,0,1,0-2.89.8l1.38,4.1a1.5,1.5,0,0,0,2.9-.8L192,239.13a1.5,1.5,0,0,0-2.89.8Z"/><path class="cls-1" d="M191.78,248s.36.15.2.09.05.12,0,0,.08.16.1.19a2.1,2.1,0,0,1,.13.26,4,4,0,0,0,.16.39,8.58,8.58,0,0,0,.37.82,3.51,3.51,0,0,0,3.32,1.81c3.16,0,6.32,0,9.47,0a1.5,1.5,0,0,0,0-3l-9,0a4.6,4.6,0,0,1-.91,0c-.11,0-.3-.16-.16,0-.09-.08-.08-.15,0,0,0-.08-.1-.16-.14-.24s-.09-.18-.13-.26c.1.21,0-.08-.05-.12a4.07,4.07,0,0,0-1.87-2.47,1.55,1.55,0,0,0-2,.54,1.51,1.51,0,0,0,.54,2.05Z"/><path class="cls-1" d="M205.21,251.5l4.59,4.88a1.5,1.5,0,0,0,2.12,0,1.52,1.52,0,0,0,0-2.12l-4.59-4.88a1.5,1.5,0,0,0-2.12,0,1.53,1.53,0,0,0,0,2.12Z"/><path class="cls-1" d="M206.94,254.83a15,15,0,0,0-.3,3.6c0,.21,0,.42,0,.63s-.1.51,0,0c0,.1,0,.2,0,.31a6.65,6.65,0,0,1-.23.76.6.6,0,0,0-.09.22c0-.13.12-.27,0-.05a5.6,5.6,0,0,1-.27.55,1.5,1.5,0,1,0,2.59,1.51,8,8,0,0,0,1-3.74c0-.45,0-.9,0-1.35q0-.43.06-.87s0-.06,0-.09,0-.06,0,.16c0,0,0-.21,0-.25l.12-.6a1.5,1.5,0,1,0-2.89-.79Z"/><path class="cls-1" d="M206.69,263.84a72.65,72.65,0,0,0,13,3.46,1.54,1.54,0,0,0,1.84-1.05,1.5,1.5,0,0,0-1-1.84,72,72,0,0,1-13-3.47,1.53,1.53,0,0,0-1.85,1.05,1.54,1.54,0,0,0,1.05,1.85Z"/><path class="cls-1" d="M222.06,267.67l4.33-7.83a1.5,1.5,0,1,0-2.59-1.51l-4.33,7.82a1.5,1.5,0,0,0,2.59,1.52Z"/><path class="cls-1" d="M224.64,260.87a37.76,37.76,0,0,0,12.63,1.56,1.53,1.53,0,0,0,1.5-1.5,1.51,1.51,0,0,0-1.5-1.5A35.09,35.09,0,0,1,225.44,258c-1.85-.56-2.64,2.34-.8,2.9Z"/><path class="cls-1" d="M235.8,261.27c.22.24.44.49.65.74l.3.36.15.18.06.08c-.12-.16,0,.05.06.08l.17.23.27.38c.19.27.37.54.54.82.34.54.66,1.1.95,1.66.14.28.27.56.4.84l.12.26s.11.27,0,.09,0,.05,0,.09l.11.27a1.54,1.54,0,0,0,1.84,1,1.5,1.5,0,0,0,1-1.84,23.53,23.53,0,0,0-4.62-7.4,1.5,1.5,0,0,0-2.12,2.12Z"/><path class="cls-1" d="M189.87,239.34c2.19-.46,4.41-.86,6.59-1.37a3,3,0,0,0,2.3-1.72,8.29,8.29,0,0,0,.29-3c0-4.43-.15-8.86-.51-13.28-.16-1.91-3.16-1.93-3,0q.48,5.76.51,11.53c0,.94,0,1.87,0,2.8,0,.1-.08.89.09.68-.15.18-.94.22-1.16.26l-5.9,1.23c-1.89.39-1.09,3.28.8,2.89Z"/><path class="cls-1" d="M196.28,220a13.88,13.88,0,0,0-5.25-3.38,1.52,1.52,0,0,0-1.16.15,1.48,1.48,0,0,0-.53,2.05,1.7,1.7,0,0,0,.89.69l.57.23-.35-.16a12.79,12.79,0,0,1,2.71,1.6l-.31-.24a12.24,12.24,0,0,1,1.31,1.18,1.51,1.51,0,0,0,2.12,0,1.53,1.53,0,0,0,0-2.12Z"/><path class="cls-1" d="M225.05,261c3.18.11,6.37.17,9.54.34,1.49.08,1.75,1.25,2.29,2.48s1.12,2.8,1.6,4.23a1.51,1.51,0,0,0,1.44,1.1l11.56-1.54a1.57,1.57,0,0,0,1.44-1.11c.5-2.09-.26-3.95-1-5.89a5.45,5.45,0,0,1-.55-2.59c.21-1.14,1.5-1.74,2.34-2.36,1.89-1.4,3.51-3.31,6-3.62a6.7,6.7,0,0,1,5.7,2l2.12-2.12a23.37,23.37,0,0,0-4.16-3.11,1.5,1.5,0,0,0-1.52,2.59,14.15,14.15,0,0,0,3.33,1.53c1.85.57,2.64-2.32.8-2.9a10.53,10.53,0,0,1-2.61-1.22l-1.52,2.59a20,20,0,0,1,3.56,2.64,1.5,1.5,0,0,0,2.12-2.12,9.59,9.59,0,0,0-7-2.95c-3.11,0-5.34,1.6-7.63,3.51-2.09,1.75-4.72,3-4.52,6.17.15,2.32,2.18,4.72,1.64,7l1.45-1.1-11.56,1.54,1.45,1.1q-.84-2.52-1.9-4.95c-.67-1.52-1.34-3.1-3-3.68s-3.55-.34-5.22-.4l-6.16-.22c-1.93-.07-1.93,2.93,0,3Z"/><path class="cls-1" d="M269.17,252.68a22.32,22.32,0,0,1,3.52-9.6,1.5,1.5,0,0,0-2.59-1.51,25.41,25.41,0,0,0-3.93,11.11,1.5,1.5,0,0,0,1.5,1.5,1.54,1.54,0,0,0,1.5-1.5Z"/><path class="cls-1" d="M95.84,133.33q-.54-18.45-1.1-36.91c-.06-1.93-3.06-1.93-3,0q.56,18.45,1.1,36.91c.06,1.93,3.06,1.94,3,0Z"/><path class="cls-1" d="M92.84,96.87l64.33,0,64.34,0,36.4,0a1.5,1.5,0,0,0,0-3l-64.33,0-64.33,0-36.41,0a1.5,1.5,0,0,0,0,3Z"/><path class="cls-1" d="M92.3,111.08l64,.17,64,.17,36,.1a1.5,1.5,0,0,0,0-3l-64-.17-64-.18-36-.09a1.5,1.5,0,0,0,0,3Z"/><path class="cls-1" d="M254.72,95c.31,13.3.1,26.62,0,39.92-.16,15.71-.38,31.43-.44,47.14,0,6.71,0,13.42.11,20.13,0,1.93,3.05,1.94,3,0-.31-13.3-.1-26.61,0-39.91.15-15.72.38-31.43.44-47.15,0-6.7,0-13.42-.12-20.13,0-1.92-3-1.93-3,0Z"/><path class="cls-1" d="M94.44,95.42q30.36,1.2,60.75,1.82t60.53.63q17.06,0,34.12-.16a1.5,1.5,0,0,0,0-3q-30.39.32-60.78,0t-60.52-1.15q-17.05-.5-34.1-1.17c-1.93-.08-1.93,2.92,0,3Z"/><path class="cls-1" d="M96.61,95.25l62.39.34,62.65.35,35.19.19a1.5,1.5,0,0,0,0-3l-62.4-.34-62.64-.35-35.19-.19a1.5,1.5,0,0,0,0,3Z"/><path class="cls-1" d="M256.21,97.35c1.4,12.27,1.13,24.78.92,37.11-.26,14.52-.86,29-1.56,43.54q-.45,9.45-1,18.89c-.1,1.93,2.9,1.92,3,0,.64-12.39,1.28-24.78,1.77-37.18.57-14.5,1-29,.81-43.53-.09-6.28-.27-12.59-1-18.83-.22-1.9-3.22-1.92-3,0Z"/><path class="cls-1" d="M93.75,154.23q1.13,37.05,1.09,74.12,0,10.56-.12,21.13c0,2.58,4,2.58,4,0q.36-37.06-.42-74.12-.22-10.58-.55-21.13c-.08-2.57-4.08-2.58-4,0Z"/><path class="cls-1" d="M97.32,252.3c25.44,0,50.87.21,76.31.3q10.94,0,21.87.06c2.57,0,2.58-4,0-4-25.44,0-50.87-.2-76.31-.3q-10.93,0-21.87-.06c-2.57,0-2.58,4,0,4Z"/><path class="cls-1" d="M255.33,95.37q3.51,39.72,3.31,79.66-.08,11.39-.43,22.78c-.07,1.93,2.93,1.93,3,0Q262.49,158,260,118.09q-.69-11.37-1.7-22.72c-.17-1.91-3.18-1.93-3,0Z"/><path class="cls-1" d="M95.55,253.51a661.94,661.94,0,0,0,87.46,4c8.46-.15,16.92-.43,25.37-.78,1.93-.07,1.94-3.07,0-3-29.19,1.2-58.42,1.39-87.57-.8q-12.66-1-25.26-2.41c-1.92-.22-1.9,2.78,0,3Z"/><path class="cls-1" d="M63.84,133.63a24.15,24.15,0,0,0,14.25,17.19,1.13,1.13,0,1,0,.6-2.17A21.86,21.86,0,0,1,66,133c-.29-1.41-2.46-.81-2.17.6Z"/><path class="cls-1" d="M69.78,80.49a22.94,22.94,0,0,1,13,8.63,1.16,1.16,0,0,0,1.54.4,1.13,1.13,0,0,0,.4-1.54,25.32,25.32,0,0,0-14.37-9.66c-1.41-.34-2,1.83-.6,2.17Z"/><path class="cls-1" d="M80.32,78.26a2.39,2.39,0,0,1,.54.15l-.27-.11a2.66,2.66,0,0,1,.59.34L81,78.47a2.73,2.73,0,0,1,.48.48l-.18-.23a3.08,3.08,0,0,1,.33.55L81.46,79a1.63,1.63,0,0,1,.13.39,1.16,1.16,0,0,0,.52.67,1.15,1.15,0,0,0,.87.11,1.11,1.11,0,0,0,.67-.51,1.2,1.2,0,0,0,.11-.87,3.59,3.59,0,0,0-1-1.76,3.54,3.54,0,0,0-1.81-1,.77.77,0,0,0-.45,0,.74.74,0,0,0-.41.13,1.12,1.12,0,0,0-.52.67,1.15,1.15,0,0,0,.11.87,1.12,1.12,0,0,0,.67.52Z"/><path class="cls-1" d="M95.55,252c-1.11-10.34,0-85,.2-97.78S57.94,106.67,65,99.74s21.78,29.64,29.31,33.59c-.68-9.78.54-50.27.1-39.41,29,3.85,170.83-5.64,161.29,3.43,1.75,5.8,3,75.86.13,104.8-2.24,3,5.55,1.36,4.32,5.93-3.13,4.12,10-6.26,6.83-.38-.61,1.13,4.63,9.28,4,10.45-1.07,2-4.23,1.92-5.37,4-1,1.87,3.13,12.32,2,14.2-.65,1.1,4.45,2.21,4.37,3.85-1.41,1-1.44,9.29-2.88,10.35-2.19,1.61-7-2.63-8.88-1.18-1.42,1.06-7.47,5.17-8,15.07-9.58,2.94-12.42,8.06-14.71-3-10.47-3.94-9.83.56-16.56,5.54-20-2.81-9.1-12.23-12.58-11.71C176.46,260.07,95.55,252,95.55,252Z"/></g></svg>