<svg xmlns="http://www.w3.org/2000/svg" viewBox="0 0 339 325.76"><defs><style>.cls-1{fill:#497ec0;}</style></defs><g id="Warstwa_2" data-name="Warstwa 2"><path class="cls-1" d="M118.44,207.45a423,423,0,0,1,.59,49.21c-.09,1.93,2.91,1.93,3,0a423,423,0,0,0-.59-49.21c-.13-1.92-3.13-1.93-3,0Z"/><path class="cls-1" d="M118.46,206.31,63.1,207.76c-1.93.05-1.94,3.06,0,3l55.36-1.45c1.93-.05,1.94-3.05,0-3Z"/><path class="cls-1" d="M61.61,209.33Q61.19,233,62,256.66c.06,1.93,3.06,1.94,3,0q-.77-23.66-.34-47.33c0-1.93-3-1.93-3,0Z"/><path class="cls-1" d="M63.11,257.71l55.75-.15a1.5,1.5,0,0,0,0-3l-55.75.15a1.5,1.5,0,0,0,0,3Z"/><path class="cls-1" d="M85.86,163.73l-.43-30.09c-.11-7.73-.73-15.84,1.48-23.36a18,18,0,0,1,4.93-8.44C94.89,99.06,99,98,103,97.58c4.61-.52,9.28-.71,13.92-1,4.79-.26,9.6-.47,14.4-.59q16.29-.43,32.58.47c1.93.11,1.92-2.89,0-3q-15-.84-30-.53c-9.87.2-19.81.58-29.65,1.49C100,94.85,95.62,95.59,92,98a18.41,18.41,0,0,0-6.72,8.11c-3.11,7.06-3,15.06-2.9,22.63l.5,35a1.5,1.5,0,0,0,3,0Z"/><path class="cls-1" d="M163.92,96.49c4.77.05,9.49,1.56,12.28,5.65a23.43,23.43,0,0,1,3.4,10.39c.6,5.07,1.24,10.16,1.65,15.25.67,8.55.82,17.12.76,25.69-.06,9.56-.37,19.12-.53,28.69,0,1.93,3,1.93,3,0,.29-17.74,1.16-35.51-.15-53.23-.16-2.2-.36-4.41-.6-6.61-.11-1-.23-2.09-.37-3.14-.06-.51-.13-1-.2-1.52l-.09-.66-.07-.45c0,.22,0,.26,0,.14-.17-1.38-.26-2.78-.42-4.16-.48-4-1.37-8.16-3.62-11.62-3.37-5.19-9-7.35-15.06-7.42a1.5,1.5,0,0,0,0,3Z"/><path class="cls-1" d="M82.79,161.81l.52,18a24.85,24.85,0,0,0,1,7.78,15.76,15.76,0,0,0,8.84,9,36.55,36.55,0,0,0,13.84,2.6c1.93,0,1.93-3,0-3-6-.14-13.16-1-17.51-5.68a9,9,0,0,1-1.4-1.87c-.19-.32-.37-.65-.53-1a2.62,2.62,0,0,1-.27-.64,18.62,18.62,0,0,1-1-6.17l-.55-19c-.06-1.93-3.06-1.94-3,0Z"/><path class="cls-1" d="M181.48,182.16a14.86,14.86,0,0,1-1.64,6,10,10,0,0,1-4.87,4,30.68,30.68,0,0,1-7.31,1.87c-2.89.48-5.8.86-8.71,1.18a279.52,279.52,0,0,1-35.08,1.26c-6.68-.11-13.35-.35-20-.59-1.93-.07-1.93,2.93,0,3,12.52.45,25.06.9,37.59.51,6.17-.19,12.34-.59,18.48-1.29,5.56-.63,11.6-1.08,16.75-3.44a12.47,12.47,0,0,0,5.76-4.95,18.43,18.43,0,0,0,2-7.53c.19-1.92-2.81-1.91-3,0Z"/><path class="cls-1" d="M185.09,149.87c14-.5,28-.56,42-.51q5.55,0,11.1.09a1.5,1.5,0,0,0,0-3q-21-.25-42,.13c-3.71.07-7.41.16-11.11.29-1.92.07-1.93,3.07,0,3Z"/><path class="cls-1" d="M157.88,231.93q-.82-16.35-1.3-32.71c-.05-1.93-3.05-1.93-3,0q.45,16.36,1.3,32.71c.09,1.92,3.09,1.94,3,0Z"/><path class="cls-1" d="M238.15,149.45c4.74-.34,9.94.29,13.17,4.15a12,12,0,0,1,2.18,4.06,18,18,0,0,1,.53,2,11.71,11.71,0,0,1,.22,1.47c.58,5.62.7,11.35.86,17,.09,3.41.11,6.83,0,10.24-.1,3.11-.19,6.21-.14,9.31,0,1.93,3,1.94,3,0-.11-6.34.32-12.67.15-19-.15-5.82-.27-11.74-.87-17.53a17.7,17.7,0,0,0-3.3-9.06c-3.74-4.87-10-6.08-15.8-5.66-1.91.14-1.92,3.14,0,3Z"/><path class="cls-1" d="M154.88,231.93c0,4.21,1.05,8.62,4.3,11.52a15.31,15.31,0,0,0,8.25,3.52c4.16.58,8.47.26,12.65.26h43.24c6.2,0,12.53.38,18.7-.27,4.69-.49,9.88-1.74,13-5.53,2.12-2.56,2.36-5.31,2.58-8.5.78-11.69.36-23.49.33-35.2a1.5,1.5,0,0,0-3,0c0,10.29.22,20.59-.13,30.87a49.36,49.36,0,0,1-.78,8.78c-.12.54.17-.2-.15.38a11.79,11.79,0,0,1-.74,1.23,9.07,9.07,0,0,1-2.22,2.15,16.79,16.79,0,0,1-6.27,2.42c-5.35,1.06-11,.67-16.39.67H187.54c-5.66,0-11.34.13-17,0a15.85,15.85,0,0,1-7.88-1.92c-3.66-2.2-4.79-6.33-4.78-10.38a1.5,1.5,0,0,0-3,0Z"/><path class="cls-1" d="M175.1,101c5.5,4.72,6.46,13.09,7.41,19.82a115.45,115.45,0,0,1,.66,25.81c-.21,2.56,3.79,2.55,4,0a119.18,119.18,0,0,0-.87-27.35c-1.08-7.34-2.41-16-8.37-21.11-1.94-1.67-4.78,1.15-2.83,2.83Z"/><path class="cls-1" d="M92.52,197.64c3.9,2.62,8.6,3.25,13.16,3.79q7.71.91,15.47,1.44a308.26,308.26,0,0,0,31.3.53c2.57-.08,2.58-4.08,0-4q-15.16.51-30.32-.46-7.5-.49-15-1.34c-4.34-.49-8.89-.92-12.61-3.41-2.14-1.44-4.15,2-2,3.45Z"/><path class="cls-1" d="M185,148l32,0c5.29,0,10.59,0,15.88,0,3.85,0,7.94.11,11.56,1.62,3.92,1.64,5.93,5,7,9a96.73,96.73,0,0,1,2.36,14.84,279.62,279.62,0,0,1,1,31c-.12,11.5.18,23.31-2.87,34.5-.67,2.48,3.18,3.55,3.86,1.06,2.83-10.38,2.82-21.23,3-31.91a319.63,319.63,0,0,0-.8-32.76,139.89,139.89,0,0,0-2.18-15.65c-.92-4.54-2.59-9-6.4-11.85-3.38-2.56-7.66-3.4-11.79-3.72-4.93-.38-9.93-.16-14.87-.15L185,144c-2.58,0-2.58,4,0,4Z"/><path class="cls-1" d="M156.78,241.42c3.38,4.37,9.15,5.56,14.32,6.32q10.35,1.55,20.79,2.3a275.86,275.86,0,0,0,41.46-.12c7.84-.61,15.65-1.57,23.41-2.83a2,2,0,0,0,1.4-2.46,2,2,0,0,0-2.46-1.4A273.92,273.92,0,0,1,176,244.42c-5.52-.73-12.65-1-16.35-5.83a2,2,0,0,0-2.83,0,2,2,0,0,0,0,2.83Z"/><path class="cls-1" d="M254.25,247.84c4.22-2.18,6-6.84,6.74-11.26,1-5.86,1.35-11.87,2-17.77,1.38-12.59,2.67-25.22,2.52-37.9-.11-9.12-.18-19.53-5.75-27.27a23.67,23.67,0,0,0-14.42-9.2,48.23,48.23,0,0,0-13.14-.56c-2.56.15-2.57,4.15,0,4,1.37-.08,2.74-.2,4.12-.23,1,0,1.93,0,2.9,0,.49,0,1,0,1.46.09l.89.08.56.07c5,.71,9.47,2.51,12.89,6.2,5.46,5.88,6,14.47,6.37,22.15.5,12.09-.47,24.17-1.72,36.18-.69,6.68-1.47,13.34-2.16,20-.43,4.23-1.06,9.75-5.28,11.93-2.28,1.18-.26,4.63,2,3.45Z"/><path class="cls-1" d="M85.61,126c-.16-8-.29-17.77,6.57-23.29,3-2.39,6.81-3.37,10.5-3.91,4.24-.61,8.57-.74,12.83-1l16.22-1.11c1.92-.13,1.93-3.14,0-3l-15.48,1.06c-4.65.32-9.34.49-14,1.14-4,.55-8,1.61-11.3,4a19.79,19.79,0,0,0-6.88,10c-1.69,5.2-1.6,10.76-1.49,16.16,0,1.93,3,1.93,3,0Z"/><path class="cls-1" d="M123.64,135a53.87,53.87,0,0,1,0-11.84,12.61,12.61,0,0,1,4.72-8.51c5.92-4.73,14-4.23,21.06-3.1,1.89.3,2.7-2.59.8-2.9-8.07-1.29-16.91-1.68-23.69,3.65a15.15,15.15,0,0,0-5.63,9.1,48.78,48.78,0,0,0-.22,13.6c.18,1.9,3.18,1.92,3,0Z"/><path class="cls-1" d="M106.89,157c3.9-.1,7.8-.21,11.7-.29a7.25,7.25,0,0,1,.89,0c.15.12.18,1,.2,1.12.14.88.26,1.77.39,2.66q.41,3,.74,5.91,1.31,11.55,1.47,23.19a1.5,1.5,0,0,0,1.5,1.5l16.8-1.83a1.54,1.54,0,0,0,1.45-1.9c-1.48-10.81-1.77-21.81-4-32.52-.39-1.89-3.29-1.09-2.89.8,2.22,10.7,2.52,21.71,4,32.52l1.44-1.9L123.78,188l1.5,1.5a237.23,237.23,0,0,0-1.82-26.1c-.27-2.16-.56-4.31-.89-6.46-.26-1.68-.92-3.06-2.78-3.26a45.76,45.76,0,0,0-6.08.1l-6.82.17c-1.93.05-1.94,3.05,0,3Z"/><path class="cls-1" d="M136.58,142.18l6.43.28,3.22.13,1.46.07a3.41,3.41,0,0,1,1,.1l-.54-.54c.23.29.19.85.24,1.24.07.58.13,1.16.19,1.74.12,1.16.23,2.32.32,3.48s.18,2.32.25,3.48l.09,1.6c0,.29,0,.59,0,.88,0,.09,0,.93.1.62l.38-.66a1.67,1.67,0,0,1,.77-.38c.26-.09.18,0,.08,0h-.37l-1.14,0-3.45-.2c-2.47-.16-4.95-.36-7.44-.41a4,4,0,0,0-2.73.54,1.5,1.5,0,1,0,2.12,2.12,3.81,3.81,0,0,1-.56.34c.23-.07-.28.14-.25,0a1.72,1.72,0,0,1,.33,0c.33,0,.66,0,1,0,1,0,2,.07,2.95.12,2.3.13,4.6.3,6.9.43,1.39.08,4.25.65,4.37-1.46a31.56,31.56,0,0,0-.18-3.5c-.07-1.16-.15-2.32-.25-3.48s-.2-2.32-.32-3.48a29.4,29.4,0,0,0-.41-3.52,2.59,2.59,0,0,0-2.64-2c-1.36-.09-2.73-.11-4.09-.17l-7.9-.34c-1.93-.08-1.92,2.92,0,3Z"/><path class="cls-1" d="M137.34,140.17c-.79-2.7-1.89-7,1.76-8.07a14,14,0,0,1,4.09-.32,27.29,27.29,0,0,0,5.27,0c1.79-.35,1.79-2,1.84-3.5l.21-5.64.4-11.29c.07-1.93-2.93-1.92-3,0l-.42,11.78-.11,2.94a17.19,17.19,0,0,0-.1,3q-.19.9.3.15c.48-.34.43-.46-.15-.35a8.29,8.29,0,0,0-1.41,0l-2.83,0c-2.93,0-6.23.07-8.21,2.57-2.22,2.81-1.45,6.47-.53,9.62.54,1.85,3.44,1.06,2.89-.8Z"/><path class="cls-1" d="M120.76,134.69c.75,2.47-2.67,3.49-4.46,3.49-3.14,0-6.1-.73-9.21.1a3.67,3.67,0,0,0-2.8,2.34A14.48,14.48,0,0,0,104,145a66.2,66.2,0,0,0,.82,9.94,1.52,1.52,0,0,0,1.85,1.05,1.55,1.55,0,0,0,1-1.85,61.06,61.06,0,0,1-.72-9.74,20.82,20.82,0,0,1,.06-2.5c.07-.58.25-.6.82-.75a13.27,13.27,0,0,1,4.53-.3c2.78.23,5.71.75,8.25-.71,2.19-1.26,3.76-3.73,3-6.28-.56-1.84-3.46-1.06-2.89.8Z"/><path class="cls-1" d="M137,138.38c-2.1-1.8-.85-4.75,1.19-6,3-1.79,6.62-1.15,9.89-1,1.42.07,2.86-.31,3.34-1.82a9.92,9.92,0,0,0,.17-2.61l.06-2.71.24-11.59c0-1.93-3-1.93-3,0L148.62,125c0,1-.09,2-.06,3,0,.78.19.35-.26.45a6.63,6.63,0,0,1-1.4-.09,29.78,29.78,0,0,0-5.82,0c-2.9.39-6,1.8-7.41,4.54a6.34,6.34,0,0,0,1.2,7.62c1.46,1.24,3.6-.87,2.12-2.12Z"/><path class="cls-1" d="M108.56,156.47c3.21-.05,6.43-.19,9.64-.16.81,0,2.09,0,2.5.8a7,7,0,0,1,.2,2.25c0,.81.09,1.64.13,2.46q.5,9.84.31,19.7c0,1.93,3,1.93,3,0q.19-11.34-.47-22.66c-.09-1.42-.08-3-1.13-4.07a5.38,5.38,0,0,0-3.57-1.44,43.73,43.73,0,0,0-4.72,0l-5.89.1c-1.93,0-1.94,3,0,3Z"/><path class="cls-1" d="M78.25,197.52a45.56,45.56,0,0,0,14.36,21.95A45.08,45.08,0,0,0,135,227.78a1.13,1.13,0,0,0,0-2.17,61.38,61.38,0,0,1-7-2.26l-.3,2.21,9.17,1.11-1-1.69a31.74,31.74,0,0,1-4.89,7.25c-1,1.07.62,2.67,1.59,1.59a33.64,33.64,0,0,0,5.24-7.71,1.14,1.14,0,0,0-1-1.69l-9.17-1.11c-1.35-.17-1.37,1.78-.3,2.21a60.9,60.9,0,0,0,7,2.26v-2.17a43.47,43.47,0,0,1-27.54-.49A42.3,42.3,0,0,1,86.56,209.6a43.23,43.23,0,0,1-6.14-12.67,1.13,1.13,0,0,0-2.17.59Z"/><path class="cls-1" d="M270.24,85a239,239,0,0,1,1,42.37c-.13,1.93,2.87,1.92,3,0a239,239,0,0,0-1-42.37c-.22-1.9-3.22-1.92-3,0Z"/><path class="cls-1" d="M269.78,83.78l-57.13.81-16.21.23c-1.93,0-1.94,3,0,3L253.56,87l16.22-.23a1.5,1.5,0,0,0,0-3Z"/><path class="cls-1" d="M195,86.38q-.47,20.39.64,40.75c.1,1.92,3.1,1.93,3,0q-1.09-20.35-.64-40.75c0-1.93-3-1.93-3,0Z"/><path class="cls-1" d="M196.64,128.24l57.38.06,16.46,0a1.5,1.5,0,0,0,0-3l-57.38-.06-16.46,0a1.5,1.5,0,0,0,0,3Z"/><path class="cls-1" d="M154.61,262.76c.09.4-.22,1.09-.71.9a.52.52,0,0,1-.36-.47c0-.13.09-.18.23-.2H154a.74.74,0,0,1,.27.1.38.38,0,0,1,.22.39,1.11,1.11,0,0,1-1.29.93,2.64,2.64,0,0,1-1.71-1.18c-.32-.47-.54-1.2.08-1.52a1.38,1.38,0,0,1,1.55.27,3.08,3.08,0,0,1,1,1.75c0,.28,0,.52-.33.59a3.1,3.1,0,0,1-1.21-.08,6.83,6.83,0,0,1-2.59-1.06c-.54-.36-1,.51-.51.86a7.75,7.75,0,0,0,3.37,1.25,2.5,2.5,0,0,0,1.66-.2,1.45,1.45,0,0,0,.61-1.38A4,4,0,0,0,153.5,261a2.27,2.27,0,0,0-2.81.09c-.91.83-.5,2.14.18,3a3.18,3.18,0,0,0,3,1.28,1.94,1.94,0,0,0,1.5-2.43,1.64,1.64,0,0,0-2.14-.81,1.2,1.2,0,0,0-.68,1.3,1.55,1.55,0,0,0,1,1.2c1.27.43,2.23-1,2-2.12-.14-.63-1.1-.37-1,.26Z"/><path class="cls-1" d="M107.29,82.79c0,.16,0,0,0,0v-.12s0,0,0-.06,0,.13,0,.05l0-.13s0-.07,0-.11,0,.06,0,.06a.11.11,0,0,0,0-.06l.06-.1a.5.5,0,0,0,.08-.12s-.07.08,0,0l0,0,.09-.09.08-.08,0,0s-.09.07,0,0a1.37,1.37,0,0,1,.2-.13s.14,0,0,0a.25.25,0,0,0,.11,0l.22,0c-.13,0,0,0,0,0a.57.57,0,0,1,.13,0c.12,0-.11,0,0,0l.11,0h0c.07,0,0,0,0,0s.09,0,.12.06l.08.06s-.08-.08,0,0l0,0,.07.06,0,0s-.07-.11,0,0l.09.16s0,0,0,0,0-.12,0,0l0,.1c0,.06,0,.12,0,.17,0-.16,0-.06,0,0s0,.07,0,.11,0,.06,0,.1,0,.14,0,0,0,0,0,0a.36.36,0,0,1,0,.1l0,.09s-.07.12,0,0c0,.06-.06.12-.09.17l0,.08c0,.06,0,0,0,0l0,0-.07.07s-.11.09,0,0,0,0,0,0l-.06,0c-.11.06.08,0,0,0l-.11,0h-.15l-.09,0c-.07,0,.12.07,0,0l-.07,0,0,0c-.06,0,0,0,.05,0s-.1-.09-.13-.13L108,83l0,0,0,0-.11-.19s0-.06,0,0,0,0,0,0l0-.11,0-.11v0c0-.09,0,.13,0,0a1.34,1.34,0,0,1,0-.2v0c0-.08,0,.12,0,.06s0-.07,0-.1l0-.1s-.06.1,0,.07,0,0,0,0a.28.28,0,0,0,.06-.09s-.09.1,0,0a.08.08,0,0,0,0,0l0,0s.06,0,0,0a.33.33,0,0,0,.1-.06.5.5,0,1,0-.5-.86,1.32,1.32,0,0,0-.66.91,1.92,1.92,0,0,0,.17,1.18,1.61,1.61,0,0,0,.73.77,1.4,1.4,0,0,0,1.26,0,1.84,1.84,0,0,0,.89-2,1.57,1.57,0,0,0-.51-1A1.66,1.66,0,0,0,108,80.8a2.06,2.06,0,0,0-1.24.71,2.17,2.17,0,0,0-.4.71,1.83,1.83,0,0,0,0,.84.49.49,0,0,0,.23.3.5.5,0,0,0,.38,0,.52.52,0,0,0,.35-.62Z"/><path class="cls-1" d="M60.72,176.53c0,.06,0,.12,0,.18s0,0,0,.07,0-.09,0,0,0,.1,0,.15a.14.14,0,0,1,0,.06.14.14,0,0,1,0,.07c0-.06,0-.08,0,0s-.1.19-.16.28,0,0,0,0,0,0,0,.05l-.14.13-.06.06c-.07.06,0,0,0,0a.78.78,0,0,1-.15.1l-.13.08-.08,0c-.09.05.09,0,0,0l-.3.08c-.1,0,0,0,0,0s-.07,0-.08,0h-.26s.13,0,0,0l-.15,0-.08,0c-.06,0,.11.05,0,0a1.19,1.19,0,0,1-.15-.09h0c.07,0,0,0,0,0l-.09-.09-.05-.06c0-.05.07.1,0,0l-.08-.13a.16.16,0,0,0,0-.07c0-.07,0-.05,0,0a.5.5,0,0,0,0-.13l0-.14a.13.13,0,0,1,0-.06l0-.06c0,.07,0,.09,0,.05s0-.19,0-.28,0-.11,0-.15,0,.1,0,0,0-.07,0-.1a1,1,0,0,1,0-.16.14.14,0,0,1,0-.06c0-.1,0,0,0,0s.07-.14.09-.17l.08-.13c0-.07,0,0,0,0s.06-.07.07-.08.12-.1.12-.12-.1.07,0,0l.07-.06s.23-.1.08,0a.52.52,0,0,0,.35-.62.5.5,0,0,0-.61-.35A2,2,0,0,0,57.7,176a2.35,2.35,0,0,0,0,1.59,1.84,1.84,0,0,0,1.32,1.16,2.21,2.21,0,0,0,1.74-.4,2.07,2.07,0,0,0,.92-1.82.51.51,0,0,0-.5-.5.5.5,0,0,0-.5.5Z"/><path class="cls-1" d="M283.56,150.62a1.17,1.17,0,0,1-.19,1.4c-.39.41-.71-.05-.83-.44a1.61,1.61,0,0,1,.26-1.57,1,1,0,0,1,1.47.31c.36.47.59,1.94-.42,1.63a1.77,1.77,0,0,1-1-1.14,2.81,2.81,0,0,1,.83-3.35,2.19,2.19,0,0,1,3.08,1.11,5.45,5.45,0,0,1,.26,4.35,1.69,1.69,0,0,1-1.77,1.3,7.55,7.55,0,0,1-1.87-.47,5.18,5.18,0,0,1-2.9-2.33,4.92,4.92,0,0,1,3.79-6.86c3.19-.28,5.1,2.87,5.4,5.66a8.2,8.2,0,0,1-.07,2.32c-.16.87-.47,1.45-1.37,1.65a17,17,0,0,1-5.61.23c-1.34-.16-3-.45-3.55-1.85a4.53,4.53,0,0,1,1-4.4A5.78,5.78,0,0,1,287,147a4.38,4.38,0,0,1,2.59,3.68,2.87,2.87,0,0,1-2.38,3.1,7,7,0,0,1-2.87-.38.5.5,0,0,0-.27,1c2,.55,4.35.84,5.77-1.06a4.77,4.77,0,0,0-.42-5.68,6.89,6.89,0,0,0-9.67-.54,5.78,5.78,0,0,0-1.71,5.57c.62,1.95,2.55,2.51,4.37,2.74a18.91,18.91,0,0,0,4,.08,6.53,6.53,0,0,0,3.18-.77A3.63,3.63,0,0,0,290.7,152a9.18,9.18,0,0,0-.24-3.09,7.22,7.22,0,0,0-3.22-4.67,5.3,5.3,0,0,0-5.53.24,6.24,6.24,0,0,0-2.66,5.21,5.33,5.33,0,0,0,2.77,4.44,9,9,0,0,0,2.4.93,3,3,0,0,0,2.74-.29c1.54-1.24,1.65-3.83,1.14-5.58s-1.85-3.25-3.76-3a3.33,3.33,0,0,0-2.67,3.71c.11,1.4,1.16,3.62,2.94,3a1.82,1.82,0,0,0,.9-2.27,2.49,2.49,0,0,0-1.6-1.75c-1.81-.55-2.78,1.47-2.33,3a1.49,1.49,0,0,0,2.95.15,2,2,0,0,0-.27-2.09c-.41-.49-1.12.22-.7.71Z"/><path class="cls-1" d="M67.44,156l1,1.91.68-.69c-.82-.41-1.2-1.8-.23-2.28.8-.4,1.86.12,1.58,1.08a1,1,0,0,1-.8.76,1.33,1.33,0,0,1-1.24-.85,1.89,1.89,0,0,1,.76-2.35,2.2,2.2,0,0,1,2.62.75,2.41,2.41,0,0,1-.37,2.9,3,3,0,0,1-4.56-.8,1.58,1.58,0,0,1,.45-1.66c.91-1,2.81-1.45,3.68-.16a1.23,1.23,0,0,1,0,1.54,1,1,0,0,1-1.32.26c-.55-.34-1,.52-.51.87a2,2,0,0,0,2.15-.1A2.11,2.11,0,0,0,72.2,155a2.69,2.69,0,0,0-1.47-1.92,3.43,3.43,0,0,0-2.84,0,3.67,3.67,0,0,0-2,1.92,2.45,2.45,0,0,0,.59,2.61,4,4,0,0,0,4.75.89,3.53,3.53,0,0,0,1.67-4.15,3.2,3.2,0,0,0-3.81-1.91,2.84,2.84,0,0,0-1.72,3.6,2.42,2.42,0,0,0,1.67,1.6,1.88,1.88,0,0,0,2.07-.86,2.06,2.06,0,0,0,.07-2.15,2.19,2.19,0,0,0-3.78.4,2.37,2.37,0,0,0,.28,2.2,2.26,2.26,0,0,0,.87.78.51.51,0,0,0,.68-.69l-1-1.91c-.29-.58-1.16-.07-.87.51Z"/><path class="cls-1" d="M242,103.29c-3.82-9.16-8.41-18.52-16.58-24.57-8.55-6.33-19.8-7.67-30-5.86A69.45,69.45,0,0,0,177,79.19l1.69,1a30.73,30.73,0,0,1,1.79-10.1l-2.21-.3a19,19,0,0,1-3.81,10.15,1.13,1.13,0,0,0,.67,1.65l12,1.87c1.41.22,2-2,.59-2.17l-12-1.87.67,1.65a21.05,21.05,0,0,0,4.12-11.28c.09-1.34-1.81-1.44-2.21-.3a32.77,32.77,0,0,0-1.87,10.7,1.14,1.14,0,0,0,1.7,1c9.43-4.62,19.93-7.79,30.53-6.5a33.47,33.47,0,0,1,13.93,4.86,34.52,34.52,0,0,1,9.88,10,82,82,0,0,1,7.37,14.39c.55,1.31,2.73.73,2.17-.6Z"/><path class="cls-1" d="M117.66,210.24l3.14,35c.17,1.91,3.18,1.92,3,0l-3.14-35c-.17-1.9-3.17-1.92-3,0Z"/><path class="cls-1" d="M194.77,92.28q1,18.18,1.63,36.38c.07,1.92,3.07,1.93,3,0q-.66-18.19-1.63-36.38c-.11-1.92-3.11-1.94-3,0Z"/><path class="cls-1" d="M197.34,130.82q27.81-1,55.66-1.29,7.86-.08,15.73-.11a1.5,1.5,0,0,0,0-3q-27.84.1-55.67.9-7.86.23-15.72.5c-1.93.07-1.94,3.07,0,3Z"/><path class="cls-1" d="M119.25,214.23l1,37.23c0,1.93,3,1.93,3,0l-1-37.23c0-1.93-3-1.93-3,0Z"/><path class="cls-1" d="M65.65,260.14c13.51.64,26.84-.91,40.29-1.9,4.3-.32,8.6-.56,12.92-.68,1.92-.06,1.93-3.06,0-3-13.69.4-27.27,2.36-40.94,2.72-4.09.11-8.18.05-12.27-.14-1.93-.09-1.92,2.91,0,3Z"/><path class="cls-1" d="M274.16,170c0,.15,0,0,0,0v-.11s0,0,0-.06,0,.13,0,.05l0-.13s0-.07,0-.11l0,.05a.11.11,0,0,0,0-.05l.06-.1s.07-.09.08-.12-.07.08,0,0l0,0a.3.3,0,0,1,.08-.08.6.6,0,0,1,.08-.08l.05,0s-.09.06,0,0l.2-.12c.05,0,.14,0,0,0l.11,0,.23,0c-.14,0-.05,0,0,0h.13c.12,0-.11,0,0,0l.11,0,0,0c.08,0,0,0,0,0l.12.06.08,0-.05,0,0,0,.07.07,0,0c0,.05-.07-.1,0,0a.83.83,0,0,1,.09.16l0,0s0-.12,0,0l0,.1a.85.85,0,0,1,0,.17c0-.16,0-.06,0,0a.34.34,0,0,1,0,.1.31.31,0,0,1,0,.1s0,.14,0,0,0,0,0,0a.43.43,0,0,1,0,.11l0,.09s-.07.11,0,0c0,.05-.05.11-.09.17l-.05.07c0,.06,0,0,0,0l0,0-.06.07,0,0,0,0-.07,0c-.1,0,.08,0,0,0a.45.45,0,0,1-.11,0h-.07s-.14,0,0,0,0,0,0,0l-.08,0c-.08,0,.12.06,0,0l-.08-.05,0,0,0,0s-.1-.08-.13-.12l-.06-.07s.07.11,0,.05l0-.05a1.86,1.86,0,0,1-.1-.2s0-.06,0,0,0,0,0,0l0-.11,0-.1v0c0-.08,0,.14,0,.05a1.47,1.47,0,0,1,0-.21v0c0-.08,0,.11,0,0a.29.29,0,0,0,0-.09s0-.07,0-.1-.05.1,0,.07l0-.05a.47.47,0,0,0,.06-.09s-.08.1,0,.05l0,0,0,0s.05,0,0,0l.1-.07a.5.5,0,0,0,.18-.68.52.52,0,0,0-.69-.18,1.33,1.33,0,0,0-.66.92,2,2,0,0,0,.17,1.18,1.75,1.75,0,0,0,.73.77,1.43,1.43,0,0,0,1.26,0,1.85,1.85,0,0,0,.9-2,1.59,1.59,0,0,0-1.87-1.34,2,2,0,0,0-1.24.71,2.12,2.12,0,0,0-.4.7,1.84,1.84,0,0,0-.05.84.47.47,0,0,0,.23.3.48.48,0,0,0,.39.05.51.51,0,0,0,.34-.61Z"/><path class="cls-1" d="M83.81,134.21c-4.47-36.6,12.62-36.81,31-37.92,8-.49,29.7-2,43.36-1.3,17.69.86,26.87,6.39,26.9,33.67-.05,5.63.51,10.78,0,19.71,31.54,0,53.63-2.51,65.51,0,22.48,4.75,8,95.62,5.63,96.79-4.17,2.05-60,3.16-73.25.57-39.57,11.72-23.95-44.33-26.6-44.15-9.17.61-23.77,0-60.73-6.65C79.34,197.23,84.21,137.46,83.81,134.21Z"/><path class="cls-1" d="M63.45,215.12c-.6-8.62,5.39-5.86,25.22-6.53,34.32-2.35,33.7-3.9,32.52,21.58-.17,3.76.08,9.23-2.33,25.89-11.84,0-49.12,0-55.41.6C63.1,242.35,63.59,217.07,63.45,215.12Z"/><path class="cls-1" d="M197.09,127.13c-.6-8.63-2.41-27.58-.65-40.81,12.63-1.33,62.31.35,75.3-1.34,2.21,8.65,1.45,21.77,1,42.37C261.84,128.46,197.22,129.08,197.09,127.13Z"/></g></svg>