<svg id="Warstwa_1" data-name="Warstwa 1" xmlns="http://www.w3.org/2000/svg" viewBox="0 0 339 325.76"><defs><style>.cls-1{fill:#497ec0;}.cls-2{fill:#497ebf;}.cls-3{fill:#55beed;}</style></defs><path class="cls-1" d="M65.78,124.94a49,49,0,0,0,5.51,14.4c.82,1.43,3.4.46,2.74-1.15l-3-7.25a1.53,1.53,0,0,0-1.65-1.07,1.48,1.48,0,0,0-1.3,1.47,32.92,32.92,0,0,0,2.35,9.31L73,139.19A25.29,25.29,0,0,1,66.77,125l-2.26,1.29a333.3,333.3,0,0,1,35.3,24l1.06-2.56c-10,1.24-20,2.65-30,3.72-.29,0-1,.23-1.3,0a4.18,4.18,0,0,1-.22-1.16c-.2-1.13-.39-2.27-.58-3.4l-1.26-7.3-2.59-15.07-2.89.8,8.17,25.19,2.5-1.46-2.22-2.69c-1.06-1.28-2.72.16-2.51,1.46a20.94,20.94,0,0,0,2.47,6.91c.94,1.69,3.53.18,2.59-1.51a18.47,18.47,0,0,1-2.16-6.2l-2.51,1.46,2.22,2.69c1,1.17,3-.08,2.51-1.45l-8.17-25.2a1.5,1.5,0,0,0-2.89.8q2.14,12.53,4.3,25c.27,1.53.46,3.09,2,3.81s3.79.09,5.46-.12l12.53-1.55,14.5-1.8c1.1-.14,2.22-1.66,1.06-2.56A337.7,337.7,0,0,0,66,123.73a1.51,1.51,0,0,0-2.25,1.3,28.8,28.8,0,0,0,7.07,16.29c.94,1.09,3.09-.08,2.51-1.46a30.06,30.06,0,0,1-2.25-8.52l-2.95.4,3,7.25,2.74-1.16a46.39,46.39,0,0,1-5.2-13.69c-.39-1.89-3.29-1.09-2.9.8Z"/><path class="cls-1" d="M71.68,154.69q34.54-.83,69-3.63t68.53-7.55q19.2-2.67,38.29-6c1.9-.32,1.1-3.22-.8-2.89q-33.9,5.83-68.1,9.72-34,3.85-68.11,5.77-19.4,1.08-38.83,1.55c-1.93,0-1.94,3,0,3Z"/><path class="cls-1" d="M68.13,139.84c5.3,15.32,7.45,31.44,9.38,47.47,1.9,15.84,3.64,31.84,8.23,47.18a107.77,107.77,0,0,0,11,25.07A1.5,1.5,0,0,0,99.28,258C90.93,244.26,86.6,228.72,84,212.94s-3.81-31.78-6.46-47.57A163.21,163.21,0,0,0,71,139c-.63-1.81-3.53-1-2.9.8Z"/><path class="cls-1" d="M68.65,137q9.81,45.72,17.21,91.92,2.07,12.93,4,25.89a2,2,0,0,0,2.46,1.4,2.06,2.06,0,0,0,1.4-2.46Q87,207.47,77.83,161.62q-2.56-12.87-5.32-25.71c-.54-2.51-4.39-1.45-3.86,1.07Z"/><path class="cls-1" d="M93.55,259.57c22.37-1.81,44.75-3.56,67.12-5.48s44.5-4.22,66.67-7.09q18.78-2.44,37.5-5.36c2.2-.34,1.7-4.22-.54-3.93L197,246.39l-67.28,8.68c-12.57,1.62-25.22,3.48-37.93,2.68v4c21-1.11,42-2.21,63-3.59s41.92-3,62.81-5.21q17.7-1.86,35.34-4.29c2.21-.31,1.71-4.14-.54-3.93l-60.53,5.79-60.54,5.79L97.1,259.59a2.05,2.05,0,0,0-2,2,2,2,0,0,0,2,2l65-5.17c21.52-1.72,43.08-3.19,64.56-5.44,12.05-1.25,24.07-2.81,36-4.95a2,2,0,0,0,1.4-2.46,2,2,0,0,0-2.46-1.39c-21,3.76-42.32,5.66-63.6,7.38q-32.22,2.59-64.44,5.13l-36.49,2.9v4l60.54-5.79L218.18,252l34.23-3.28-.53-3.93c-20.7,2.87-41.49,5-62.31,6.78s-41.6,3.08-62.43,4.26q-17.65,1-35.33,1.91a2,2,0,0,0,0,4c11.21.71,22.39-.67,33.48-2.1l33.64-4.34,67.28-8.68,38.09-4.92-.53-3.93q-33,5.16-66.17,8.76c-22.13,2.4-44.32,4.19-66.51,6l-37.54,3c-2.55.2-2.57,4.2,0,4Z"/><path class="cls-1" d="M260.91,246c2.57,0,2.58-4,0-4s-2.58,4,0,4Z"/><path class="cls-1" d="M260.84,244.37c2.57,0,2.57-4,0-4s-2.58,4,0,4Z"/><path class="cls-1" d="M245.06,245.82l13.78-1.53a2.06,2.06,0,0,0,2-2,2,2,0,0,0-2-2l-13.78,1.53a2.06,2.06,0,0,0-2,2,2,2,0,0,0,2,2Z"/><path class="cls-1" d="M263.8,244.23c2.57,0,2.58-4,0-4s-2.58,4,0,4Z"/><path class="cls-1" d="M246.34,133.6q11.91,43.35,19.55,87.73,2.14,12.48,3.93,25a2,2,0,0,0,2.46,1.39,2.05,2.05,0,0,0,1.4-2.46q-6.36-44.44-17.07-88.11-3-12.36-6.41-24.64c-.68-2.48-4.54-1.43-3.86,1.06Z"/><path class="cls-1" d="M244.87,247.9l10.27-2.44,4.91-1.16A6.7,6.7,0,0,1,262,244c.52,0,.54.26.34-.17l-.28-1,.16-.5,1.2-.92a4.69,4.69,0,0,1-5.21-1l-.41,3.14a5.36,5.36,0,0,1,5.91,0v-3.45c.37-.19,1.56,0,1.51.66l-.6.92a.67.67,0,0,1,.37,0c.45.25,1.2.29,1.71.53l-.92-2.26a1.74,1.74,0,0,1-2.08,1.23V245a5.45,5.45,0,0,1,3,.32v-3.86l-8.79,1.35a2,2,0,0,0-1.43,2.2,2,2,0,0,0,2,1.73,31.84,31.84,0,0,0,5.52.23l-1-3.73a6.09,6.09,0,0,1-3,.41v4l5.61-.25v-4l-4.49.2c-2.57.12-2.58,4.12,0,4l4.49-.2c2.56-.12,2.58-4.12,0-4l-5.61.25a2,2,0,0,0,0,4,10.28,10.28,0,0,0,5-1c1.83-.82.88-3.82-1-3.73a31.84,31.84,0,0,1-5.52-.23l.53,3.93,8.79-1.35a2,2,0,0,0,1.47-1.93,2.08,2.08,0,0,0-1.47-1.93,9.44,9.44,0,0,0-5.08-.32c-1.91.35-1.92,3.51,0,3.86,2.79.51,6.53-.84,7-4a2.09,2.09,0,0,0-.92-2.26c-2.22-1-6.45-2.09-7.38,1.22a3.1,3.1,0,0,0,4.38,3.63,2,2,0,0,0,0-3.45,9.28,9.28,0,0,0-9.94,0,2,2,0,0,0-.4,3.14,8.47,8.47,0,0,0,7.66,2.39c1.5-.25,3-.91,3-2.66a3,3,0,0,0-2.45-2.75,7.63,7.63,0,0,0-3.94.1l-5.14,1.22L243.81,244c-2.5.59-1.44,4.45,1.06,3.86Z"/><path class="cls-1" d="M260,247.62c2.57,0,2.58-4,0-4s-2.58,4,0,4Z"/><path class="cls-1" d="M91.05,251.76l.4,8.18,3.73-1a6.45,6.45,0,0,1-.47-.69l-.23-.43c.12.23.06.14,0-.05s-.14-.52-.21-.78,0,.36,0,0c0-.16,0-.32,0-.48h-4l.25,4.94a2,2,0,0,0,4,0l-.25-4.94a2,2,0,0,0-4,0A7.33,7.33,0,0,0,91.72,261a2.07,2.07,0,0,0,2.26.92,2,2,0,0,0,1.47-1.93l-.4-8.18a2,2,0,0,0-4,0Z"/><path class="cls-1" d="M93.49,263.37c2.58,0,2.58-4,0-4s-2.58,4,0,4Z"/><path class="cls-1" d="M221.8,84.67c5,11.61-127.69,59-127.69,59l9.13,7.49L202,137.82l46.26-4.75s21.92,92.26,20.93,96,3.35,15.69,2.55,16.75S256,247.53,256,247.53L139.64,260l-46.57,6.75L80.7,218.65l-9.21-47.87-4-22.78L66,127.54S143.67,99,151.29,97.83s56.75-18,61.54-19.55,12.45,15.26,12.45,15.26c-5.28-7.25-3.45-9.64-8.73-16.89"/><path class="cls-1" d="M68.85,127.09q28.75-9.89,57.8-18.93T185,91q16.62-4.65,33.32-9c2.49-.65,1.43-4.51-1.07-3.86q-29.58,7.74-58.93,16.34-29.13,8.53-58,17.92Q84,117.66,67.78,123.23c-2.42.83-1.38,4.7,1.07,3.86Z"/><path class="cls-1" d="M227.58,98.59,219.3,80.65"/><path class="cls-1" d="M220.49,80.66a81.62,81.62,0,0,1,4.31,13l1-.27-3.47-8.86-.92.38L228.83,98a.5.5,0,0,0,.87-.51l-7.46-13.11c-.28-.48-1.13-.16-.92.38l3.48,8.87a.5.5,0,0,0,1-.27,81.29,81.29,0,0,0-4.41-13.24c-.25-.59-1.11-.08-.86.5Z"/><path class="cls-1" d="M72.71,156.08l25.5-.27v-3l-17.44,1.28v3q31.56-2.37,63.05-5.39T206.69,145q17.73-2.1,35.42-4.4a1.54,1.54,0,0,0,1.5-1.5,1.51,1.51,0,0,0-1.5-1.5q-31.34,4.08-62.76,7.49t-63,6.15q-17.79,1.54-35.62,2.88c-1.91.14-1.93,3.14,0,3l17.44-1.28c1.9-.14,2-3,0-3l-25.5.27a1.5,1.5,0,0,0,0,3Z"/><path class="cls-1" d="M243.21,141.14a1.5,1.5,0,0,0,0-3,1.5,1.5,0,0,0,0,3Z"/><path class="cls-1" d="M244,139.19a3.42,3.42,0,0,0,4.43-2.83c.47-2.71-2.17-4-4.46-4.16-3-.21-6.17.86-9.08,1.44q-5,1-10,1.89-20.21,3.61-40.65,5.72-11.41,1.17-22.89,1.88c-1.92.12-1.93,3.12,0,3a562,562,0,0,0,71-8.95c3.2-.61,6.42-1.47,9.66-1.9.72-.1,3-.42,3.47.42a1,1,0,0,1-.1.43c-.2.42-.28.28-.58.16-1.8-.7-2.58,2.2-.8,2.9Z"/><path class="cls-1" d="M97.29,152.69q38.11-1.12,76.13-4.36,10.77-.92,21.51-2c1.91-.19,1.93-3.19,0-3q-37.94,3.84-76,5.56-10.8.5-21.6.81c-1.93.05-1.94,3.05,0,3Z"/><path class="cls-1" d="M115,151.16Q140,150,164.85,147.75q7.13-.66,14.26-1.41c1.9-.2,1.92-3.21,0-3q-24.83,2.61-49.76,4.08-7.16.42-14.32.74c-1.93.09-1.94,3.09,0,3Z"/><path class="cls-1" d="M100.19,151.49l61.53-4.57,17.37-1.29c1.91-.14,1.93-3.14,0-3l-61.54,4.57-17.36,1.29c-1.92.14-1.93,3.15,0,3Z"/><path class="cls-1" d="M66.82,143.71q2.3,24.35,6.55,48.47,4.29,24.33,10.57,48.25,3.54,13.47,7.68,26.76c.57,1.83,3.47,1.05,2.9-.8Q87.22,243,81.81,219q-5.34-23.72-8.76-47.8-1.93-13.69-3.23-27.49c-.18-1.91-3.18-1.93-3,0Z"/><path class="cls-1" d="M75.75,185.15q34.16-.69,68.22-3.56t67.63-7.93q19-2.85,37.8-6.37c1.27-.24.73-2.17-.53-1.93q-33.45,6.25-67.25,10.36t-67.56,6q-19.14,1.08-38.31,1.46a1,1,0,0,0,0,2Z"/><path class="cls-2" d="M116.2,88.26a1,1,0,0,1,.68-1.12l-.57-.23c.76,1.35-.46,3.4-2.08,2.92a1.91,1.91,0,0,1-.35-3.6,2,2,0,0,1,2.66,2.4c-.4,1.77-2.82,2.25-4.13,1.16a3.25,3.25,0,0,1-.67-3.82,2.9,2.9,0,0,1,5.16,2.54,3.8,3.8,0,0,1-3.65,2,3.72,3.72,0,0,1-3-3,4.62,4.62,0,0,1,1.22-4.43,6.33,6.33,0,0,1,4.68-1.69c1.82.07,3.89,1,4.49,2.82a5.69,5.69,0,0,1-1.38,5.21,8.12,8.12,0,0,1-3.72,2.42,9,9,0,0,1-4.54.28,7.62,7.62,0,0,1-2.07-.73c-.67-.35-1.75-.94-1.91-1.74-.21-1,1-1.83,1.75-2.24a8,8,0,0,1,2.81-.89,4.62,4.62,0,0,1,4.67,2c.7,1.23.87,3.09-.31,4.1a2.79,2.79,0,0,1-3.46-.23,1.7,1.7,0,0,1-.59-1.51c0-.64-1-.64-1,0-.16,1.84,1.56,3.06,3.23,3.21a3.34,3.34,0,0,0,3.65-3.07,5,5,0,0,0-2.85-5,7.66,7.66,0,0,0-7.24.86A3.2,3.2,0,0,0,106,89.8c.16,1.08,1.19,1.81,2.06,2.33a9.31,9.31,0,0,0,6,1.12c4.13-.55,8.57-4.19,7.66-8.78-.49-2.49-3-3.82-5.31-4a7.21,7.21,0,0,0-6,2.42,5.68,5.68,0,0,0-.78,5.82,4.41,4.41,0,0,0,4.66,2.81,4.54,4.54,0,0,0,3.93-3.87,4,4,0,0,0-3.35-4,3.6,3.6,0,0,0-4.27,2.71,4,4,0,0,0,2.18,4.72,3.53,3.53,0,0,0,4.85-2.53A3,3,0,0,0,114,85.14a2.88,2.88,0,1,0,3.3,4,3,3,0,0,0-.09-2.7.5.5,0,0,0-.57-.23,2,2,0,0,0-1.41,2.08c.06.63,1.06.64,1,0Z"/><path class="cls-2" d="M76.25,77.45l0-.13s0-.15,0,0c0-.08,0-.15,0-.24a.53.53,0,0,0,0-.13s0-.09,0,0l.06-.26a.56.56,0,0,0,0-.12c0-.09,0,0,0,0a2.25,2.25,0,0,1,.12-.21l.07-.11c.07-.11-.07.07,0,0a1.07,1.07,0,0,1,.18-.19l-.49.13.17,0,.07,0a1.26,1.26,0,0,1,.26.13.71.71,0,0,1,.14.1s0,0,0,0l.07.06a2.08,2.08,0,0,1,.21.21l0,.06a.61.61,0,0,1,.07.1,2.28,2.28,0,0,1,.17.3c0,.1,0-.07,0,0a1.42,1.42,0,0,1,0,.16,1,1,0,0,1,0,.17s0,.05,0,.08,0-.06,0,0l.63-.48-3-.6a.52.52,0,0,0-.62.35.51.51,0,0,0,.35.61l3,.61a.51.51,0,0,0,.64-.49,2.82,2.82,0,0,0-1.82-2.35,1,1,0,0,0-.51-.07,1,1,0,0,0-.4.32,2.53,2.53,0,0,0-.45.74,2.42,2.42,0,0,0-.09,1.55.5.5,0,0,0,.61.35.52.52,0,0,0,.35-.62Z"/><path class="cls-2" d="M46.45,180.7c-.21,1.9-3,3.05-4.37,1.59a2.78,2.78,0,0,1-.58-2.5c.21-.9,1-2,2.06-1.85a1.55,1.55,0,0,1,1,2c-.33.94-1.56,1-2.29.52a1.74,1.74,0,0,1-.44-2.55,2.25,2.25,0,0,1,3.1-.61c1,.58,2,2.17,1,3.17-.81.82-2.36,1-3.43,1.16-1.24.21-2.81.32-3.86-.5a2.52,2.52,0,0,1-1-2.59c.42-1.21,1.95-1.07,2.94-.82s2.7.59,2.92,1.76-.87,2-1.79,2.23c-1.3.31-2.64-.52-3.61-1.29s-2.76-2.11-1.39-3.2a4.78,4.78,0,0,1,4.19-.64c.92.37,2.13,2.07,1,2.85a1.36,1.36,0,0,1-1.27.09.74.74,0,0,1-.37-.39c0-.12,0-.19,0-.31s.11-.21,0-.31c0,.13.07.1.24-.07-.6-.24-.86.73-.27,1s1.08-.41,1-1a.89.89,0,0,0-1.49-.55,1.48,1.48,0,0,0-.21,2,2,2,0,0,0,1.67.78,2.18,2.18,0,0,0,2-3.06c-.7-1.93-2.79-2.41-4.63-2.09-1.54.27-3.8,1.26-3.19,3.23a5.13,5.13,0,0,0,1.79,2.18,8.59,8.59,0,0,0,2.54,1.58A3.6,3.6,0,0,0,44.22,181a2.46,2.46,0,0,0,.19-2.19,3.25,3.25,0,0,0-1.91-1.59c-1.54-.61-3.82-1.28-5.17.07-1.12,1.11-.75,2.91.15,4,1.26,1.54,3.41,1.56,5.21,1.26,1.56-.25,3.91-.58,4.53-2.31s-1-3.79-2.66-4.26a3.22,3.22,0,0,0-3.93,2.22,2.69,2.69,0,0,0,2.07,3.41,2.34,2.34,0,0,0,3-2.13A2.38,2.38,0,0,0,43,177a3.64,3.64,0,0,0-.47,6.75,3.88,3.88,0,0,0,4.07-1.06,3.37,3.37,0,0,0,.89-2c.07-.64-.93-.63-1,0Z"/><path class="cls-2" d="M255.65,87.9a184.06,184.06,0,0,1,18.83-15.29c1.88-1.33,3.79-2.62,5.71-3.88.54-.35,0-1.21-.5-.86a185.3,185.3,0,0,0-19.51,14.65q-2.65,2.28-5.24,4.67c-.47.44.24,1.15.71.71Z"/><path class="cls-2" d="M270.77,107.41l28.58-6.73c.62-.15.36-1.11-.27-1l-28.58,6.73c-.62.15-.36,1.11.27,1Z"/><path class="cls-2" d="M273.12,131.42l25.28,4c.63.09.9-.87.27-1l-25.28-4c-.63-.1-.9.86-.27,1Z"/><path class="cls-1" d="M196.65,87.41q12.15,4.55,23.91,10,3.31,1.55,6.6,3.17c.58.28,1.08-.58.51-.87Q216,94,203.86,89.13c-2.3-.92-4.62-1.81-6.94-2.68-.61-.23-.87.74-.27,1Z"/><path class="cls-1" d="M171.22,91.85l24.6,12.58,7.27,3.72c.57.3,1.08-.57.51-.86L179,94.71,171.73,91c-.58-.29-1.08.57-.51.87Z"/><path class="cls-1" d="M146.75,101.14,169,113l6.39,3.41c.56.3,1.07-.56.5-.86l-22.23-11.87-6.38-3.41c-.57-.3-1.07.56-.5.86Z"/><path class="cls-1" d="M118.54,108.23l20.93,13.69,5.94,3.88c.54.35,1-.52.5-.87L125,111.25l-5.93-3.88c-.54-.35-1,.51-.51.86Z"/><path class="cls-1" d="M241.84,138l-13.53,25.27-3.88,7.26c-.3.56.56,1.07.87.5l13.52-25.27,3.88-7.26c.31-.56-.56-1.07-.86-.5Z"/><path class="cls-1" d="M210.06,142.05l-13.23,26.31-3.74,7.44c-.29.57.57,1.08.86.5L207.18,150l3.74-7.44c.29-.58-.57-1.08-.86-.51Z"/><path class="cls-1" d="M178.06,145.85q-4.89,13-11,25.45-1.72,3.54-3.54,7c-.29.57.57,1.08.87.5q6.42-12.36,11.69-25.27c1-2.47,2-4.94,2.92-7.43.22-.6-.74-.86-1-.27Z"/><path class="cls-1" d="M144.52,152a94.65,94.65,0,0,1-8.9,22.35c-1.1,2-2.28,3.93-3.52,5.84-.35.54.51,1,.86.5a95.73,95.73,0,0,0,10.56-21.78c.74-2.19,1.39-4.4,2-6.64a.5.5,0,0,0-1-.27Z"/><path class="cls-1" d="M99.69,150.84q6.87-.57,13.75-.49a.5.5,0,0,0,0-1q-6.89-.07-13.75.49c-.63,0-.64,1,0,1Z"/><path class="cls-1" d="M116.54,148.48l-10.42,0v1l9.58-.75c.64-.05.65-1,0-1a144,144,0,0,1-16.62.25v1l26.18-.89v-1a138.71,138.71,0,0,1-25.53.6v1l25.39-1v-1a162.44,162.44,0,0,1-22.38.92v1q15.45-.4,30.87-1.72t30.69-3.54q8.63-1.25,17.21-2.79l-.27-1c-9.37,3.13-19.3,3.7-29.1,4.23v1l21.43-1.53-.13-1a101.33,101.33,0,0,1-20.89,2.49l.13,1q14.77-2.62,29.74-3.79,4.23-.33,8.46-.54l-.13-1a68.75,68.75,0,0,1-21.53,1.89l.13,1q18.51-3.18,37.18-5.18l-.13-1A103.78,103.78,0,0,1,187,139.86l.13,1A232.24,232.24,0,0,1,220,136.58l-.13-1-30.92,5,.27,1A357.94,357.94,0,0,1,229.58,135q5.79-.6,11.61-1l-.14-1a147,147,0,0,1-22.45,3.58l.13,1,26.91-4.37-.26-1-10,1.75c-.55.09-.43,1,.13,1l3.73-.4,1.73-.18a8.36,8.36,0,0,0,.86-.09c.21-.05-.16.45.11,0l.56-.23.19.09-.43.75a4,4,0,0,0,2.77-1.44l-.79-.11a3.82,3.82,0,0,1,.34,2.35l.35-.35-3,.47a.5.5,0,0,0,0,1l2.77.47.14-1-4.88.29a.5.5,0,0,0,0,1l2.7.06-.14-1a4.87,4.87,0,0,1-2.3.3c-.64-.07-.63.93,0,1l8.09.93v-1l-5.81,0c-.55,0-.7.88-.13,1l5.12.93.13-1L242,138.7a.5.5,0,0,0,0,1l3.65.29-.13-1a9,9,0,0,1-5.64-.5c-.59-.25-.85.72-.27,1a10,10,0,0,0,6.18.51c.57-.14.4-.94-.14-1L242,138.7v1l5.72.05c.55,0,.7-.88.13-1l-5.12-.92-.13,1,5.81,0c.66,0,.63-.93,0-1l-8.09-.93v1a5.48,5.48,0,0,0,2.57-.34.5.5,0,0,0-.13-1l-2.7-.06v1l4.88-.29c.52,0,.72-.89.13-1l-2.78-.47v1l3-.47a.45.45,0,0,0,.34-.35,5,5,0,0,0-.43-3.11.51.51,0,0,0-.79-.1,3,3,0,0,1-2.06,1.15.51.51,0,0,0-.44.75.66.66,0,0,0,.42.38.53.53,0,0,0,.56-.23,1,1,0,0,0-.08-1c-.31-.53-.77-.55-1.32-.49l-5.89.63.13,1,10-1.75c.64-.11.36-1.06-.26-1l-26.91,4.36c-.56.09-.43,1,.13,1A150.5,150.5,0,0,0,241.32,134c.54-.13.43-1-.13-1a359.45,359.45,0,0,0-40.84,5.3q-5.73,1.08-11.42,2.35c-.63.14-.35,1.06.27,1l30.91-5c.56-.09.43-1-.13-1a234.78,234.78,0,0,0-33.09,4.29.51.51,0,0,0,.14,1,105.72,105.72,0,0,0,19.63-2.76c.54-.13.44-1-.13-1q-14.62,1.56-29.17,3.85-4.14.66-8.27,1.37c-.59.1-.4.94.13,1A69.79,69.79,0,0,0,191,141.4a.51.51,0,0,0-.13-1q-15,.75-29.95,3-4.26.65-8.51,1.39c-.56.1-.42,1,.13,1a103.08,103.08,0,0,0,21.15-2.52c.54-.13.44-1-.13-1l-21.43,1.53c-.64.05-.65,1,0,1,9.88-.54,19.91-1.11,29.37-4.26a.5.5,0,0,0-.27-1q-15.21,2.73-30.58,4.56T120,146.84q-8.62.51-17.27.73a.5.5,0,0,0,0,1,162.44,162.44,0,0,0,22.38-.92c.62-.07.66-1,0-1l-25.39,1a.5.5,0,0,0,0,1,138.71,138.71,0,0,0,25.53-.6c.62-.08.66-1,0-1L99.08,148a.5.5,0,0,0,0,1,144,144,0,0,0,16.62-.25v-1l-9.58.75a.5.5,0,0,0,0,1l10.42,0a.5.5,0,0,0,0-1Z"/><path class="cls-1" d="M238.92,137.07a.5.5,0,0,0,0-1,.5.5,0,0,0,0,1Z"/><path class="cls-1" d="M75.51,132.54a101.17,101.17,0,0,1,19,13.19q2.44,2.16,4.74,4.46l.71-.7a244.13,244.13,0,0,0-19.43-15.41Q77.61,132,74.65,130a.5.5,0,0,0-.69.68A17.56,17.56,0,0,0,78,135l5.47,4.49,11,9.07c.49.41,1.2-.3.71-.71q-10.12-8.32-19.45-17.55l-.71.71c7.13,6.49,14.27,13,21.88,18.9l.61-.79a221.4,221.4,0,0,1-19.2-14.45c-1.73-1.46-3.45-2.95-5.14-4.46a.5.5,0,0,0-.7.7,80.66,80.66,0,0,0,21,16.34c.4.21,1-.26.68-.69a77.9,77.9,0,0,0-20-18.28c-.48-.31-1,.38-.61.78A64.14,64.14,0,0,0,88.5,139.67a.5.5,0,0,0,.51-.87,120.54,120.54,0,0,0-18.16-9c-.6-.24-.86.73-.27,1a119.41,119.41,0,0,1,17.92,8.87l.51-.87a62.91,62.91,0,0,1-14.72-10.47l-.6.78A76.56,76.56,0,0,1,93.36,147l.68-.69a79.84,79.84,0,0,1-20.78-16.17l-.7.7A222.84,222.84,0,0,0,91.41,146c1.87,1.35,3.77,2.66,5.68,4,.47.31,1.06-.44.61-.79-7.62-5.92-14.76-12.41-21.88-18.9-.48-.43-1.17.25-.71.71q9.31,9.21,19.45,17.55l.71-.71-10.86-8.91L79,134.5a17.9,17.9,0,0,1-4.22-4.29l-.68.68a242.63,242.63,0,0,1,19.77,14.74c1.8,1.5,3.57,3,5.33,4.56.48.43,1.17-.24.71-.7A102.1,102.1,0,0,0,81.75,135q-2.82-1.75-5.74-3.32c-.56-.31-1.07.55-.5.86Z"/><path class="cls-1" d="M70.43,130.41a.5.5,0,0,0,0-1,.5.5,0,0,0,0,1Z"/><path class="cls-1" d="M66.13,126l5.08-2.07-.48-.83-2.31,2.79c-.33.4.11,1.14.61.79A25,25,0,0,1,81.32,122l-.13-1a37.68,37.68,0,0,1-11,2.35l.13,1,36.91-9.56-.26-1a231.18,231.18,0,0,1-30.33,6.7l.27,1q23.52-8.2,47.38-15.39,6.72-2,13.45-4l-.26-1a272,272,0,0,1-30.69,10.24l.26,1L121.56,108l-.27-1A167.75,167.75,0,0,1,100,113.2l.27,1,23.49-6.37-.27-1a143,143,0,0,1-23.26,5.68c-.55.09-.43,1.06.13,1a159.7,159.7,0,0,0,25.88-5.39l-.26-1a154.53,154.53,0,0,1-26.78,6.09l.27,1a255.69,255.69,0,0,0,41.06-11.52c3.71-1.38,7.38-2.86,11-4.41.52-.22.15-1.09-.38-.91L118.09,108.1a.5.5,0,0,0,.27,1c12.46-3.55,24.91-7.1,37.31-10.86s24.7-7.74,36.87-12.15q10.31-3.74,20.42-7.9l-.49-.84-4,3.32c-.43.36.14,1.1.61.78l4-2.71c.43-.29.17-1.13-.39-.91l-5.07,2,.39.91a26.79,26.79,0,0,1,7.7-3.87l-.38-.91-5.53,2.52c-.51.23-.14,1.13.39.91a5.26,5.26,0,0,1,3.94-.08.5.5,0,0,0,.56-.73c-2.11-3.16-6.52-.39-8.91.85a90.59,90.59,0,0,1-13.13,5.54c-2.53.84-5.08,1.56-7.67,2.18l.39.91,17.92-7.86c.51-.22.14-1.1-.39-.91L157.07,95.53,144,100.19a.5.5,0,0,0,.27,1L201,84.82l16-4.6a.51.51,0,0,0,0-1L211.47,78l.12.91a12.56,12.56,0,0,1,6-1.69l-.14-1-29.14,7.86.27,1,14.24-4.34-.27-1q-18.9,7.11-38.1,13.42T126,105q-10.95,3.11-22,5.94a.5.5,0,0,0,.26,1q19.56-5.06,38.9-10.91t38.26-12.47q10.76-3.75,21.41-7.76c.59-.22.36-1.16-.27-1l-14.24,4.35a.5.5,0,0,0,.27,1l29.14-7.86a.5.5,0,0,0-.13-1,13.59,13.59,0,0,0-6.55,1.83.5.5,0,0,0,.12.91l5.58,1.22v-1L160,95.58l-16,4.61.27,1,45.84-16.31,13.1-4.67-.39-.91-17.92,7.86c-.53.24-.14,1,.39.91a93.24,93.24,0,0,0,15.61-5.23c2.5-1.09,4.91-2.33,7.33-3.6,1.51-.79,4.4-2,5.64-.2l.56-.73a6.06,6.06,0,0,0-4.47.08l.39.91,5.52-2.52c.52-.24.15-1.08-.38-.91a27.56,27.56,0,0,0-8,4c-.42.3-.18,1.13.39.91L213,78.76l-.39-.91-4,2.71.61.78,4-3.31c.37-.31,0-1-.49-.84-11.95,5-24.13,9.37-36.41,13.44s-24.69,7.82-37.12,11.43q-10.53,3.06-21.07,6l.27,1,33.07-10.76L151,97.4A255.88,255.88,0,0,1,111,110.68q-5.85,1.41-11.76,2.55c-.64.12-.35,1,.27,1a154.39,154.39,0,0,0,26.77-6.08c.61-.2.36-1.15-.26-1a157.85,157.85,0,0,1-25.62,5.36l.13,1a144.17,144.17,0,0,0,23.27-5.69.5.5,0,0,0-.27-1L100,113.2a.5.5,0,0,0,.27,1,166.59,166.59,0,0,0,21.3-6.16c.59-.21.35-1.15-.27-1l-14.54,4.38a.5.5,0,0,0,.26,1,272.62,272.62,0,0,0,30.69-10.23c.58-.24.37-1.15-.26-1Q113.5,108.08,89.87,116q-6.65,2.24-13.27,4.54a.5.5,0,0,0,.27,1,234.31,234.31,0,0,0,30.32-6.7.5.5,0,0,0-.26-1L70,123.39c-.53.14-.44,1,.14,1A38.39,38.39,0,0,0,81.45,122c.49-.18.48-1-.13-1a26.05,26.05,0,0,0-12.8,4.77l.61.79,2.3-2.8c.28-.33,0-1-.48-.83L65.86,125c-.59.24-.33,1.21.27,1Z"/><path class="cls-1" d="M89.06,259.15q26.61-1.06,53.18-2.86T195.33,252q14.94-1.41,29.85-3.06c.64-.07.64-1.07,0-1q-26.46,2.93-53,5.12T119,256.72q-15,.82-30,1.43c-.64,0-.65,1,0,1Z"/><path class="cls-1" d="M90.94,267.26q25.65-3.67,51.35-7.07t51.3-6.48q14.47-1.74,28.94-3.4c.63-.07.64-1.07,0-1q-25.82,3-51.6,6.19t-51.4,6.75q-14.44,2-28.86,4c-.63.1-.36,1.06.27,1Z"/><path class="cls-1" d="M159.12,254.35q22.07-1.24,44.11-2.67t43.84-3q12.31-.9,24.64-1.84c.64,0,.65-1,0-1q-22,1.69-44.07,3.21t-43.85,2.84q-12.33.75-24.67,1.45c-.64,0-.64,1,0,1Z"/><path class="cls-1" d="M265,242.32c-.38-.82.38-1.71.87-2.3a14.33,14.33,0,0,0,1.58-2.13,9.9,9.9,0,0,0,1.23-5.08.51.51,0,0,0-1-.13l-1,3.21c-.12.39.38.83.74.57a5,5,0,0,0,2-5.05c-.12-.57-1-.41-1,.14a25.56,25.56,0,0,1-1.78,8.49l1,.13.56-4.57a.51.51,0,0,0-.86-.36,13.89,13.89,0,0,1-10.09,4.44l.14,1,3.79-1.32c.61-.21.35-1.18-.26-1l-3.8,1.33a.5.5,0,0,0,.13,1A14.92,14.92,0,0,0,268,236l-.85-.35-.56,4.57c-.07.6.79.61,1,.13a26.5,26.5,0,0,0,1.82-8.75l-1,.13a3.94,3.94,0,0,1-1.5,3.91l.74.57,1-3.21-1-.14a8.9,8.9,0,0,1-1.71,5.53c-1,1.31-2.67,2.69-1.83,4.49.27.58,1.13.07.86-.51Z"/><path class="cls-1" d="M261.18,239.52l-.45.44a.37.37,0,0,0-.1.17.3.3,0,0,0,0,.19.31.31,0,0,0,0,.19.34.34,0,0,0,.1.16l.1.08a.59.59,0,0,0,.26.07l.13,0a.5.5,0,0,0,.22-.13l.44-.44a.42.42,0,0,0,.11-.16.45.45,0,0,0,0-.2.43.43,0,0,0,0-.19.42.42,0,0,0-.11-.16l-.1-.08a.55.55,0,0,0-.25-.07l-.13,0a.54.54,0,0,0-.22.13Z"/><path class="cls-2" d="M252.71,267.72a1,1,0,0,1-2-.24c-.11-.86,1.15-1,1.68-.61a1.8,1.8,0,0,1,0,2.42,3.5,3.5,0,0,1-2.53,1.16c-.43,0-1-.11-1.06-.63a2,2,0,0,1,.65-1.37,5.89,5.89,0,0,1,2.36-1.74,2.06,2.06,0,0,1,2.32.56c.64.91-.27,1.94-1,2.43-1.45,1-3.88,1.17-4.73-.7s.39-3.77,1.92-4.79,4.21-2,4.81.41a5.38,5.38,0,0,1-1.63,4.85,5.88,5.88,0,0,1-4.61,1.8c-1.78-.18-3.51-1.56-2.8-3.49a5.87,5.87,0,0,1,1.77-2.27,5.22,5.22,0,0,1,2.71-1.51c1.7-.07,2,2.48,2.23,3.71.22,1.57.38,3.63-.86,4.85-1.45,1.43-3.7.6-5.17-.34a7.36,7.36,0,0,1-2.2-2,2.47,2.47,0,0,1,0-2.84,6.3,6.3,0,0,1,5-3c1.71,0,3.52,1.19,3.57,3a4.36,4.36,0,0,1-3.13,4,8.34,8.34,0,0,1-3.14.32c-.67-.05-2.62-.07-2.75-.95s.81-1.62,1.45-2a5.75,5.75,0,0,1,2.71-.78,5.88,5.88,0,0,1,2.77.58c.58.28,1.08-.58.51-.87a6.86,6.86,0,0,0-7.33.79,2.66,2.66,0,0,0-1,2.87c.54,1.18,2.29,1.24,3.4,1.34,2.68.24,5.66-.54,7-3.12a4.1,4.1,0,0,0-2.05-5.76c-2.54-1.1-5.31.15-7.07,2.06a4.3,4.3,0,0,0-1.35,3.48,5.48,5.48,0,0,0,2.33,3.18c1.87,1.43,4.77,2.68,6.88,1s1.71-4.47,1.33-6.68a6.23,6.23,0,0,0-1.15-2.94,2.53,2.53,0,0,0-3.07-.65,9.42,9.42,0,0,0-3.32,2.55,4.35,4.35,0,0,0-1.18,3.31c.37,2.54,3.3,3.44,5.5,3.06a7.23,7.23,0,0,0,5.3-4.34c.9-2.17.59-5.64-2.4-5.71a6.73,6.73,0,0,0-6,4.14,3.75,3.75,0,0,0,3.33,5.16,5.16,5.16,0,0,0,3.32-1.17,2.77,2.77,0,0,0,1.11-3.24,2.85,2.85,0,0,0-2.76-1.46,5.57,5.57,0,0,0-3.25,1.78c-.8.76-1.77,2-1.14,3.18s2.18,1,3.23.66a3.69,3.69,0,0,0,2.52-2.38,2.59,2.59,0,0,0-1-2.89,2.19,2.19,0,0,0-2.73.47,1.9,1.9,0,0,0,.85,2.78,2.07,2.07,0,0,0,2.66-.95c.31-.57-.56-1.07-.86-.5Z"/><path class="cls-3" d="M250.89,268.31a.5.5,0,0,0,0-1,.5.5,0,0,0,0,1Z"/><path class="cls-2" d="M284.6,224.35l.14-1.14-.93.25a1,1,0,0,1,.21.5c0-.09,0,.08,0,.08a.34.34,0,0,1,0,.1.88.88,0,0,1-.06.28c0,.15,0-.07,0,.07l-.08.13c0-.06,0,0,0,0l-.11.1c.06-.05-.07,0-.07,0s.08,0-.06,0-.16,0-.05,0h-.2l-.14-.05c.09,0-.19-.12-.11-.06l-.11-.1c-.1-.1,0,.05,0,0l-.06-.1c.06.12,0-.15,0,0a.33.33,0,0,1,0-.14c0,.1,0-.05,0-.06s.1-.15,0-.07a.43.43,0,0,1,.09-.1c.11-.1-.07,0,.06,0a.57.57,0,0,1,.13-.08.33.33,0,0,1,.12,0,3.1,3.1,0,0,1,1.21-.19A2.41,2.41,0,0,1,286,224a.94.94,0,0,0,.1.1l0,0,.1.14s.07.16,0,.08a1,1,0,0,1,0,.16c0,.15,0-.08,0,.08a.17.17,0,0,1,0,.1v0a.3.3,0,0,1,0,.1c0-.08,0,.07,0,.07s-.08.07-.07.07l-.18.1a3,3,0,0,1-.73.15,3.15,3.15,0,0,1-1.73-.11,1.4,1.4,0,0,1-.48-.42.73.73,0,0,1-.12-.55l-.13.22a.89.89,0,0,1,.78-.25.92.92,0,0,1,.68.46c.31.57,1.17.06.87-.51a1.93,1.93,0,0,0-1.8-1,1.86,1.86,0,0,0-1,.33.86.86,0,0,0-.4.55,1.7,1.7,0,0,0,0,.71,2.26,2.26,0,0,0,1.9,1.54,5.57,5.57,0,0,0,1.47,0,3.46,3.46,0,0,0,1.26-.33,1.52,1.52,0,0,0,.4-2.19,2.59,2.59,0,0,0-2.32-.94,3.59,3.59,0,0,0-2.17.55,1.34,1.34,0,0,0-.19,2,1.55,1.55,0,0,0,2.25,0,2,2,0,0,0,.11-2.4.51.51,0,0,0-.93.26l-.14,1.14a.5.5,0,0,0,.5.5.51.51,0,0,0,.5-.5Z"/><path class="cls-1" d="M120.06,133.76a397.66,397.66,0,0,0,85.49-25.83s-7,2.92-39.92,14.68-84.93-3-84.93-3L217.63,76.76,232.39,98.4Z"/><path class="cls-1" d="M94.64,145.62l53.13-17.22,53.12-17.22,29.88-9.68c2.44-.8,1.39-4.66-1.07-3.86l-53.12,17.22-53.12,17.22-29.88,9.69c-2.44.79-1.39,4.65,1.06,3.85Z"/><rect class="cls-1" x="185.29" y="83.72" width="19.29" height="3.45" transform="translate(-17.24 68.68) rotate(-19.15)"/><path class="cls-1" d="M215.26,77.41l15.83,21.75c1.13,1.54,3.73,0,2.59-1.52L217.85,75.9c-1.13-1.55-3.73-.05-2.59,1.51Z"/><rect class="cls-1" x="135.38" y="125.65" width="5.27" height="3.03"/></svg>