<svg id="Warstwa_1" data-name="Warstwa 1" xmlns="http://www.w3.org/2000/svg" viewBox="0 0 339 325.76"><defs><style>.cls-1{fill:#497ebf;}.cls-2,.cls-3{fill:none;stroke-miterlimit:10;}.cls-2{stroke:#ee7800;stroke-width:2px;}.cls-3{stroke:#55beed;}.cls-4{fill:#ee7800;}</style></defs><path class="cls-1" d="M69,153.8A78,78,0,0,1,87,192.42a72.12,72.12,0,0,1,.84,10.48c0,1.34.23,3.07-1.35,3.52a6.41,6.41,0,0,1-3.83-.5c-2.9-1.11-5.58-3.39-7.83-5.46a42.29,42.29,0,0,1-6.4-7.41c-8.61-12.63-9.95-28.11-10.65-43-.15-3.1-.41-6.59,1.31-9.33a4.72,4.72,0,0,1,1.63-1.72c.84-.43,1.7.12,2.47.5a37,37,0,0,1,4.44,2.66,40.29,40.29,0,0,1,12.49,15c3.49,7,5.21,14.69,6.67,22.31C88.12,186.46,90,194,88.17,201A18.54,18.54,0,0,1,86,206l2.74.35a250,250,0,0,0-18.16-50.91q-3.37-7-7.17-13.72c-.94-1.68-3.53-.17-2.59,1.51A248.66,248.66,0,0,1,82,192.6q2.17,7.2,3.92,14.52a1.51,1.51,0,0,0,2.74.36c4.28-7,3.5-15.3,2.13-23-1.5-8.47-3.06-17.08-6.38-25.06a45.45,45.45,0,0,0-12.89-18A37.07,37.07,0,0,0,67,138.22c-1.57-.95-3.52-2.24-5.4-2.35-3.71-.21-6,4.27-6.57,7.35-.7,3.85-.21,7.92,0,11.79.26,4.42.64,8.84,1.29,13.22A65.48,65.48,0,0,0,63.64,191a45.63,45.63,0,0,0,14.82,16c2.55,1.65,5.88,3.18,9,2.24,3.94-1.18,3.5-5.55,3.36-8.84a79.35,79.35,0,0,0-16-44.12c-1.19-1.58-2.43-3.13-3.72-4.63s-3.38.67-2.13,2.12Z"/><path class="cls-1" d="M60.72,142.54A63.25,63.25,0,0,1,74.94,138l-1.46-2.51a1.5,1.5,0,0,1-1.63.6l.36,2.74a40.21,40.21,0,0,1,15.46-5.39L86,132.79a175.15,175.15,0,0,1,14,35.54,169.7,169.7,0,0,1,4,18.53c.51,3.21.91,6.43,1.23,9.66a23.85,23.85,0,0,1,.35,4.37c-.07.66-.33.71-1,.87-.88.22-1.79.37-2.68.55l-23.06,4.63.8,2.9a105.74,105.74,0,0,1,18.91-4.49c1.9-.27,1.09-3.16-.8-2.89a106.79,106.79,0,0,0-18.91,4.48,1.51,1.51,0,0,0,.8,2.9l21.84-4.4c2.7-.54,6.81-.63,7.06-4.19a28.3,28.3,0,0,0-.32-4.5c-.17-1.8-.37-3.59-.6-5.38a174.56,174.56,0,0,0-9.6-38.93,181.39,181.39,0,0,0-9.48-21.16,1.54,1.54,0,0,0-1.69-.69,42.38,42.38,0,0,0-16.19,5.69,1.52,1.52,0,0,0,.36,2.74,4.43,4.43,0,0,0,4.55-1.37,1.52,1.52,0,0,0-1.46-2.51A67.15,67.15,0,0,0,59.2,140c-1.75.79-.23,3.38,1.52,2.59Z"/><path class="cls-1" d="M61.91,138.34A251.38,251.38,0,0,1,92,133.23c1.9-.2,1.92-3.2,0-3a258.66,258.66,0,0,0-30.91,5.22c-1.88.44-1.08,3.33.8,2.89Z"/><path class="cls-1" d="M72.13,135.14c10.39-1.49,20.94-1,31.35-2.42a130.56,130.56,0,0,0,27.92-7c18.17-6.71,34.71-16.95,49.91-28.86C189.88,90.13,198,82.9,206,75.49c1.42-1.32-.71-3.44-2.12-2.13C189.77,86.49,175,99.07,158.53,109.14c-16.11,9.84-33.88,17.23-52.59,20.21-11.46,1.84-23.13,1.25-34.61,2.9-1.9.27-1.09,3.17.8,2.89Z"/><path class="cls-1" d="M106.42,204.3q25.55-5.19,51.42-8.63t51.83-5q14.63-.93,29.29-1.27c1.93-.05,1.94-3.05,0-3q-26.15.63-52.2,3t-52.06,6.67q-14.59,2.37-29.08,5.33c-1.89.38-1.09,3.27.8,2.89Z"/><path class="cls-1" d="M203.92,76.43c5.93,1.84,9.22,7.31,11.36,12.79,2.87,7.33,5.11,15,7.26,22.55a352.93,352.93,0,0,1,10.13,48.38q1.91,13.92,2.67,28l2.95-.4c-2.56-17.91-5.12-35.82-8.57-53.59-1.59-8.19-3.29-16.4-5.47-24.46a87.89,87.89,0,0,0-7.2-19,46.34,46.34,0,0,0-15.48-17.09A1.5,1.5,0,0,0,199.75,76a129,129,0,0,1,30.12,41.24,121.21,121.21,0,0,1,11,48.29A115.52,115.52,0,0,1,238,193.42l2.75-.36L239,189.43a1.5,1.5,0,0,0-2.35-.3c-3,3.1.93,6.68,4.18,6.91,4.44.32,6.8-4.29,7.36-8,1.69-11.38-.36-23.24-2.35-34.45-3.68-20.73-9.09-41.72-21.56-59a81.77,81.77,0,0,0-23.66-22.18c-1.65-1-3.16,1.59-1.52,2.59,15,9.13,25.93,23.36,32.85,39.32a153.18,153.18,0,0,1,8.8,28.79c2.14,10,4.09,20.15,4.76,30.34a84.32,84.32,0,0,1,.16,8.85,27.4,27.4,0,0,1-.93,7.44c-.53,1.6-1.85,3.55-3.76,3.39-.63-.05-3.05-.93-2.21-1.8l-2.36-.3,1.72,3.63a1.51,1.51,0,0,0,2.74-.36,121,121,0,0,0,.63-50.9,127.56,127.56,0,0,0-20-46.9,133.3,133.3,0,0,0-19.65-22.57l-1.82,2.36c11.57,7.45,17.38,20.19,21,33,4.55,16.23,7.36,33,10,49.65,1.56,9.87,3,19.75,4.38,29.64.24,1.67,3,1.28,3-.4a355.66,355.66,0,0,0-6.51-50.78q-2.55-12.6-6-25c-2.22-7.93-4.57-15.92-7.52-23.61-2.55-6.62-6.43-13-13.58-15.2-1.85-.57-2.64,2.32-.8,2.89Z"/><path class="cls-1" d="M228.23,113c7.14-.42,12.53,4.84,14.72,11.24a58.54,58.54,0,0,1,2.26,10.31,42.06,42.06,0,0,1,.38,9.77,20,20,0,0,1-3.92,10.48c-1.17,1.51.94,3.65,2.12,2.13,4.8-6.18,5.49-13.87,4.55-21.42S246,119.39,240,114.21A16.63,16.63,0,0,0,228.23,110c-1.92.12-1.93,3.12,0,3Z"/><path class="cls-1" d="M109.08,204.89a4.11,4.11,0,0,1,4.86,1.63c1.34,2,1,4.84.94,7.14l-.36,16.84A1.5,1.5,0,0,0,116,232q12.3-1.38,24.47-3.76c1.73-.34,3.86-.46,5.44-1.28s1.76-2.47,1.25-4c-1.31-3.93-2.83-7.82-4.24-11.72L138,197.62l-2.74,1.16q2.81,6.41,5.19,13a44.26,44.26,0,0,1,2,6.36c.33,1.59.84,4.63-.75,5.73a8.8,8.8,0,0,1-2.75.9c-1.09.27-2.19.54-3.29.79q-3.3.75-6.65,1.33a127.32,127.32,0,0,1-14,1.63c-1.92.12-1.93,3.12,0,3a135.14,135.14,0,0,0,24.08-3.68c1.62-.41,3.46-.72,4.78-1.82a6.19,6.19,0,0,0,1.87-4.55c.27-3.92-1.36-7.78-2.68-11.39q-2.39-6.48-5.17-12.79c-.68-1.55-3.32-.45-2.74,1.15L140,212l2.55,7,1.18,3.28c.17.47.36.94.51,1.41a5.53,5.53,0,0,1,.2.66c0-.16-.14-.16-.36,0a13.77,13.77,0,0,1-3.22.68l-3.38.66q-3.63.67-7.27,1.28Q123.16,228.21,116,229l1.5,1.5c.14-6.61.55-13.28.39-19.9-.06-2.6-.64-5.35-2.69-7.13a7,7,0,0,0-6.94-1.47c-1.79.68-1,3.58.8,2.89Z"/><path class="cls-1" d="M161.76,194.94c-.39,10.33-11.22,16.22-20.6,15.44-1.66-.14-2.07,2.69-.4,3a16.08,16.08,0,0,0,14-4.45,11.79,11.79,0,0,0,1.56-14.29c-1-1.63-3.62-.12-2.59,1.51A8.77,8.77,0,0,1,152.46,207a13,13,0,0,1-10.9,3.46l-.4,2.94c11.09.92,23.15-6.53,23.6-18.44.07-1.93-2.93-1.93-3,0Z"/><path class="cls-1" d="M139.52,226.13c-1.15,4.4.77,8.53,3.09,12.18,2.55,4,5.24,7.92,7.7,12q1.89,3.12,3.69,6.29a62.14,62.14,0,0,1,3.45,6.37c.86,2.08-1.61,3.43-3.09,4.4a37.6,37.6,0,0,1-5.45,2.93,95.72,95.72,0,0,1-14.21,4.5c-1.59.41-1.32,3.13.4,2.94A52.38,52.38,0,0,0,146,275.37c3.38-1.14,7.06-2.53,9.9-4.74s3.35-5.74,2.92-9.18a18.71,18.71,0,0,0-4.22-9.57l-1.06,2.56a5.13,5.13,0,0,1,4.36,5.76c-.48,3.37-3.65,5.92-6.31,7.66l1.52,2.59a10.33,10.33,0,0,0,4.57-9c-.1-3.94-2.06-7.29-4.61-10.17-3-3.34-6.53-6-9.39-9.47a35.3,35.3,0,0,1-6.43-11.65c-.59-1.83-3.49-1-2.89.8A38,38,0,0,0,140,242a73.52,73.52,0,0,0,8.34,8.77c2.59,2.49,5.28,5.26,6.1,8.87a7.7,7.7,0,0,1-2.87,8.27c-1.59,1.07-.11,3.66,1.52,2.59,3.68-2.42,7.75-6.05,7.83-10.83a8.15,8.15,0,0,0-7.4-8.18c-1.43-.16-1.78,1.67-1.06,2.56a15.28,15.28,0,0,1,3.41,8.06,10,10,0,0,1-.25,4.12,5.91,5.91,0,0,1-2.94,3,45.49,45.49,0,0,1-17.62,5.55l.39,2.95a108.93,108.93,0,0,0,13-4,46.6,46.6,0,0,0,6-2.86,17.78,17.78,0,0,0,5.15-4c1.49-1.91,1.15-4,.11-6-1.15-2.22-2.38-4.4-3.62-6.57q-3.74-6.54-7.87-12.85c-2.7-4.11-7.22-9.17-5.84-14.47.48-1.87-2.41-2.67-2.89-.8Z"/><path class="cls-1" d="M117.79,231.82a199.07,199.07,0,0,0,4.48,27.47c1,4.41,2.16,8.87,3.62,13.16a8.6,8.6,0,0,0,3,4.53,5.88,5.88,0,0,0,5.34.75c1.78-.69,1-3.59-.8-2.9-4,1.53-5.05-4.26-5.8-6.85q-1.71-5.87-3-11.81a192.7,192.7,0,0,1-3.84-24.35c-.18-1.91-3.18-1.92-3,0Z"/><path class="cls-1" d="M115.62,228c4.9,6.21,6.14,14.27,7.47,21.84,1.19,6.78,2.73,13.72,6.67,19.5a24.38,24.38,0,0,0,8.75,7.92c1.7.9,3.22-1.69,1.51-2.59-13.69-7.21-12.71-24.28-16.46-37.14a33.93,33.93,0,0,0-5.82-11.65c-1.2-1.51-3.31.62-2.12,2.12Z"/><path class="cls-1" d="M106.25,203a506.92,506.92,0,0,1,54.83-8.18q7.81-.72,15.64-1.21c1.92-.12,1.93-3.12,0-3a512.27,512.27,0,0,0-55.63,6.53q-7.84,1.37-15.64,3c-1.89.38-1.09,3.28.8,2.89Z"/><path class="cls-1" d="M110,201.22A851.66,851.66,0,0,1,195.75,191q12-.82,24.12-1.29c1.92-.07,1.93-3.07,0-3a860.24,860.24,0,0,0-86.32,7.78q-12.21,1.72-24.36,3.8c-1.9.33-1.09,3.22.8,2.89Z"/><path class="cls-2" d="M74.16,190.38A22.35,22.35,0,0,0,81,206.87c4.11-11.08,1-23.46-3-34.57q-3.53-9.77-8-19.17"/><path class="cls-2" d="M79.61,206.85l3.42.43a1.82,1.82,0,0,0,1.16-.11,1.66,1.66,0,0,0,.63-.95A13.59,13.59,0,0,0,81,191.78"/><path class="cls-2" d="M152.19,193.17a8.95,8.95,0,0,1-3.4,14.54,18.4,18.4,0,0,1-3.22.76"/><path class="cls-2" d="M103.05,177.67a160.55,160.55,0,0,1,59.56-8.76c9,.38,18.16,1.58,26.34,5.4"/><path class="cls-3" d="M119.32,60.76l2.6.15c.16,1.34,1.33,2.55,1,3.86-.38,1.63-2.86,1.86-4.1.73s-1.55-2.93-1.78-4.58"/><path class="cls-3" d="M58.36,224.49a3.79,3.79,0,0,1,3.25,3,2.91,2.91,0,0,1-2.56,3.31,2.37,2.37,0,0,1-2.15-3.26"/><path class="cls-3" d="M90.56,102.57a5.14,5.14,0,0,1,4.21.38,2.84,2.84,0,0,1,1,3.79A3.67,3.67,0,0,1,92.66,108a4.7,4.7,0,0,1-2.93-.8c-1.84-1.43-1.16-4.83,1-5.68A4.15,4.15,0,0,1,96,104.63a5.12,5.12,0,0,1-3.36,5.47,6.75,6.75,0,0,1-6.52-1.41,5.54,5.54,0,0,1-1.8-2.67,4.62,4.62,0,0,1,2.49-5.17,5.22,5.22,0,0,1,5.74,1.1,4.73,4.73,0,0,1,.41,6.26c-1.54,1.71-4.86,1.42-5.77-.69s1.75-4.82,3.76-3.69a1.68,1.68,0,0,1,.92,1.48,1,1,0,0,1-1.3.87Z"/><path class="cls-3" d="M210.25,238.09c.05-2.5,1.4-5,3.47-5.78a4,4,0,0,1,5.06,3.18,5.34,5.34,0,0,1-2.92,5.42,8.84,8.84,0,0,1-5.88.27c-1.09-.24-2.34-.74-2.64-2a3.5,3.5,0,0,1,.34-2.15c.82-1.92,2.39-3.62,4.24-3.57a3.19,3.19,0,0,1,2.49,4.41,2.11,2.11,0,0,1-3.23.6,3.25,3.25,0,0,1-.47-3.82,2.54,2.54,0,0,1,3.27-1c1.59.78,2.23,3.23,1.57,5.08a5.15,5.15,0,0,1-4,3.28c-1.54.25-3.43-.47-3.76-2.22a3.15,3.15,0,0,1,.22-1.82,2.76,2.76,0,0,1,4.21-1.19,3.93,3.93,0,0,1,.26,5.21,3,3,0,0,1-4.57-.38,4.48,4.48,0,0,1,.42-5.36,3.18,3.18,0,0,1,3.74-.64,4.21,4.21,0,0,1,2,3.69,2.43,2.43,0,0,1-.86,2,2.22,2.22,0,0,1-1.77.05c-1.47-.39-3.19-1.35-3.23-3.09a2.94,2.94,0,0,1,1.54-2.53,6.26,6.26,0,0,1,2.76-.59,1.75,1.75,0,0,1,1.17.2,1.92,1.92,0,0,1,.6.94,4.76,4.76,0,0,1-1,4.84,2.69,2.69,0,0,1-4.09-.53,4.31,4.31,0,0,1,.27-4.39,6.44,6.44,0,0,1,3.41-2.42,2.18,2.18,0,0,1,1.66-.08,2.33,2.33,0,0,1,1.09,1.73c.66,3.28-2.31,6.28-5.21,6.5a3.53,3.53,0,0,1-3.73-2c-.71-1.88.59-3.94,1.94-5.27a8.34,8.34,0,0,1,3.54-2.32,3.6,3.6,0,0,1,3.8,1.14c1.37,1.74.81,4.77-.78,6.23a6,6,0,0,1-5.82,1,3.89,3.89,0,0,1-2-1.17,2.42,2.42,0,0,1-.42-2.43,3,3,0,0,1,1-1.09c1.23-.9,2.62-1.79,4.06-1.55s2.67,2.26,1.85,3.65c-.22.17-.57-.15-.48-.45C212.1,237.54,211.57,238.23,210.25,238.09Z"/><path class="cls-3" d="M155.57,79.11a4.93,4.93,0,0,1,3.18-.44c1,.33,1.77,1.71,1.08,2.55a5.1,5.1,0,0,1-5.15,0,2.71,2.71,0,0,1,.85-3.27"/><path class="cls-4" d="M243.76,66.44a71.12,71.12,0,0,1,12.48-17.25c1.36-1.37-.76-3.5-2.12-2.12a73.67,73.67,0,0,0-13,17.86c-.89,1.71,1.7,3.23,2.59,1.51Z"/><path class="cls-4" d="M260.64,86.8a135.42,135.42,0,0,1,21.94-10.14c1.21-.43.69-2.37-.53-1.93a138.29,138.29,0,0,0-22.42,10.34,1,1,0,0,0,1,1.73Z"/><path class="cls-4" d="M265.88,111.5l20.25-4.21c1.26-.27.73-2.2-.53-1.93l-20.25,4.21c-1.26.27-.72,2.2.53,1.93Z"/><path class="cls-4" d="M269.08,136.11a227.54,227.54,0,0,1,34.37,3.12c1.26.21,1.8-1.72.53-1.93a230.57,230.57,0,0,0-34.9-3.19,1,1,0,0,0,0,2Z"/><path class="cls-4" d="M268.15,163.78q8.4,2.31,17,3.95c1.25.24,1.79-1.69.53-1.93q-8.56-1.63-17-4a1,1,0,0,0-.53,1.93Z"/><path class="cls-4" d="M263.22,189.68a134.2,134.2,0,0,1,19.12,12c1,.77,2-1,1-1.73A135.54,135.54,0,0,0,264.22,188c-1.14-.59-2.15,1.13-1,1.73Z"/><path class="cls-1" d="M90.72,205.22c15.14-8,32.09-11.55,49-13.47,8.56-1,17.15-1.54,25.75-2.09,9.61-.61,19.23-1.22,28.86-1.62,10.87-.47,21.77-.67,32.65-.37a1,1,0,0,0,0-2c-19.62-.54-39.23.58-58.81,1.82-17.23,1.09-34.61,2.13-51.46,6.12a114.59,114.59,0,0,0-27,9.88c-1.14.6-.13,2.33,1,1.73Z"/></svg>