<svg xmlns="http://www.w3.org/2000/svg" viewBox="0 0 339 325.76"><defs><style>.cls-1{fill:none;stroke:#55beed;stroke-miterlimit:10;stroke-width:8px;}</style></defs><g id="Warstwa_2" data-name="Warstwa 2"><g id="Layer_2" data-name="Layer 2"><path class="cls-1" d="M225.43,267.34H121.78c-24.1,0-32.94-12-32.94-24.1V179H86.43a21.61,21.61,0,0,1-21.7-21.7,20.62,20.62,0,0,1,5.63-14.46l57.85-65.89a55.6,55.6,0,0,1,77.94-4.82L211,76.91l57.85,65.89A20.71,20.71,0,0,1,272,166.1c-3.22,8-11.25,12.86-20.09,12.86h-2.41v64.28A23.67,23.67,0,0,1,225.43,267.34Z"/><path class="cls-1" d="M193.29,267.34H145.08c-4.82,0-8-3.21-8-8V203.06a32.14,32.14,0,0,1,64.28,0v56.25C201.33,264.13,198.11,267.34,193.29,267.34Z"/></g></g></svg>