<svg xmlns="http://www.w3.org/2000/svg" viewBox="0 0 339 325.76"><defs><style>.cls-1{fill:#55beed;fill-rule:evenodd;}</style></defs><g id="Warstwa_2" data-name="Warstwa 2"><path class="cls-1" d="M274.83,23.5a34.08,34.08,0,0,1,34.05,34.05V268.21a34.08,34.08,0,0,1-34.05,34.05H64.17a34,34,0,0,1-34-34V57.55a34.08,34.08,0,0,1,34.05-34ZM169.5,67.61c-25.9,0-29.13.1-39.3.57s-17,2.06-23.13,4.45a46.52,46.52,0,0,0-16.86,11,47.06,47.06,0,0,0-11,16.86c-2.34,6.05-4,13-4.45,23.14s-.56,13.4-.56,39.3.09,29.13.56,39.29,2.06,17.05,4.45,23.14a46.64,46.64,0,0,0,11,16.86,47.11,47.11,0,0,0,16.86,11c6,2.34,13,4,23.13,4.44s13.4.57,39.3.57,29.13-.1,39.3-.57,17-2.06,23.13-4.44a49,49,0,0,0,27.87-27.87c2.34-6,4-13,4.45-23.14s.56-13.39.56-39.29-.09-29.14-.56-39.3-2.06-17-4.45-23.14a49,49,0,0,0-27.87-27.86c-6-2.35-13-4-23.13-4.45S195.4,67.61,169.5,67.61Zm0,17.15c25.43,0,28.48.09,38.5.56,9.27.42,14.33,2,17.7,3.28a31.45,31.45,0,0,1,18.08,18.08c1.31,3.37,2.86,8.38,3.28,17.7.47,10.07.56,13.07.56,38.5s-.09,28.47-.56,38.5c-.42,9.27-2,14.33-3.28,17.7a31.45,31.45,0,0,1-18.08,18.08c-3.37,1.31-8.38,2.86-17.7,3.28-10.07.47-13.07.56-38.5.56s-28.48-.09-38.5-.56c-9.27-.42-14.33-2-17.7-3.28a31.45,31.45,0,0,1-18.08-18.08c-1.31-3.37-2.86-8.38-3.28-17.7-.47-10.07-.56-13.07-.56-38.5s.09-28.48.56-38.5c.42-9.27,2-14.33,3.28-17.7A31.45,31.45,0,0,1,113.3,88.6c3.37-1.31,8.38-2.86,17.7-3.28,10.07-.47,13.07-.56,38.5-.56Zm0,29.22a48.95,48.95,0,1,0,48.94,49A49,49,0,0,0,169.5,114Zm0,80.7a31.76,31.76,0,1,1,31.75-31.75A31.75,31.75,0,0,1,169.5,194.68ZM231.84,112a11.43,11.43,0,1,1-11.43-11.43A11.41,11.41,0,0,1,231.84,112Z"/></g></svg>