<svg xmlns="http://www.w3.org/2000/svg" viewBox="0 0 339 325.76"><defs><style>.cls-1{fill:none;stroke:#55beed;stroke-miterlimit:10;stroke-width:8px;}</style></defs><g id="Warstwa_2" data-name="Warstwa 2"><g id="layer_copy" data-name="layer copy"><path class="cls-1" d="M270.19,206.31c-5.53-9.1-20.17-13.17-28.37-14.75-15-2.88-34.36-2.66-43.69,4.35-3.11,2.32-4.64,7.12-5,15.55-.06,1.13-.06,2.2-.06,3.22a135.15,135.15,0,0,1-43.18-27l-5.49-5.49a133.57,133.57,0,0,1-27.07-42.84c1,0,2.15,0,3.22-.06,8.42-.33,13.23-1.86,15.6-5,7.07-9.27,7.29-28.43,4.41-43.3-1.58-8.25-5.65-22.89-14.87-28.43s-23.51-4.23-29.16-3.39c-11.7,1.7-21.48,5.82-26.06,11.08-4,4.58-5.42,17.52-5.82,22.89v.45A176.47,176.47,0,0,0,112.1,211.34c.06.06.06.12.12.17l8.36,8.37c.06.05.06.17.11.17C153,249.72,195,266.17,239,267.3h.06c.11,0,.23-.17.34-.17,5.37-.4,18.43-2,23-5.93,5.26-4.58,9.44-14.3,11.14-25.95C274.38,229.6,275.73,215.47,270.19,206.31Z"/></g></g></svg>