<svg xmlns="http://www.w3.org/2000/svg" viewBox="0 0 339 325.76"><defs><style>.cls-1{fill:#55beed;fill-rule:evenodd;}</style></defs><g id="Warstwa_2" data-name="Warstwa 2"><g id="g2990"><path class="cls-1" d="M274.83,23.5H64.17a34.08,34.08,0,0,0-34,34.05V268.26a34,34,0,0,0,34.05,34H274.83a34.08,34.08,0,0,0,34.05-34.05V57.55A34.08,34.08,0,0,0,274.83,23.5ZM207.4,160.65H180.76v94.94H141.27V160.65H122.52V127.08h18.82V105.4c0-15.56,7.41-39.82,39.83-39.82l29.22.14V98.27H189.18c-3.46,0-8.35,1.7-8.35,9.1v19.71h30Z"/></g></g></svg>