<svg xmlns="http://www.w3.org/2000/svg" viewBox="0 0 339 325.76"><defs><style>.cls-1{fill:#55beed;}</style></defs><g id="Warstwa_2" data-name="Warstwa 2"><path class="cls-1" d="M262.3,257.39V187.17c0-34.48-7.43-61-47.73-61-19.38,0-32.36,10.63-37.68,20.68h-.54V129.35H138.17v128h39.76V194.07c0-16.72,3.15-32.9,23.89-32.9,20.41,0,20.68,19.11,20.68,33.94v62.28Zm-149.1-128H73.36v128H113.2ZM93.33,65.66A23.08,23.08,0,1,0,116.4,88.74,23,23,0,0,0,93.33,65.66ZM274.83,23.5a34.08,34.08,0,0,1,34.05,34.05V268.21a34.08,34.08,0,0,1-34.05,34.05H64.17a34,34,0,0,1-34-34V57.55a34.08,34.08,0,0,1,34.05-34Z"/></g></svg>